<?xml version="1.0" encoding="utf-8"?>
<!-- Generator: Adobe Illustrator 15.1.0, SVG Export Plug-In . SVG Version: 6.00 Build 0)  -->
<!DOCTYPE svg PUBLIC "-//W3C//DTD SVG 1.1//EN" "http://www.w3.org/Graphics/SVG/1.1/DTD/svg11.dtd">
<svg version="1.1" xmlns="http://www.w3.org/2000/svg" xmlns:xlink="http://www.w3.org/1999/xlink" x="0px" y="0px"
	 width="1494.025px" height="1458.146px" viewBox="0 0 1494.025 1458.146" enable-background="new 0 0 1494.025 1458.146"
	 xml:space="preserve">
<g id="Layer_1">
	<g>
		<g>
			<path fill="#000000" d="M175.766,1242.631h39.557v11.06h-35.784c-15.224,0-24.59-7.81-24.59-22.123v-41.762
				c0-14.317,9.366-22.121,24.59-22.121h35.784v11.059h-39.557c-5.201,0-6.894,2.344-6.894,8.197v47.494
				C168.872,1240.293,170.564,1242.631,175.766,1242.631z"/>
			<path fill="#000000" d="M235.623,1167.685h13.922v74.946h45.539v11.06h-59.46V1167.685z"/>
			<path fill="#000000" d="M384.736,1231.567c0,14.313-9.368,22.123-24.589,22.123h-22.773c-15.223,0-24.59-7.81-24.59-22.123
				v-41.762c0-14.317,9.367-22.121,24.59-22.121h22.773c15.222,0,24.589,7.804,24.589,22.121V1231.567z M333.6,1242.631h30.318
				c5.204,0,6.898-2.338,6.898-8.196v-47.494c0-5.854-1.694-8.197-6.898-8.197H333.6c-5.202,0-6.894,2.344-6.894,8.197v47.494
				C326.706,1240.293,328.398,1242.631,333.6,1242.631z"/>
			<path fill="#000000" d="M405.035,1167.685h13.924v66.75c0,5.858,2.993,8.196,8.199,8.196h26.412c5.206,0,8.199-2.338,8.199-8.196
				v-66.75h13.921v62.583c0,14.313-10.667,23.423-25.892,23.423h-18.869c-15.222,0-25.894-9.11-25.894-23.423V1167.685z"/>
			<path fill="#000000" d="M567.293,1231.567c0,14.313-10.668,22.123-25.893,22.123h-42.807v-86.006h42.807
				c15.224,0,25.893,7.804,25.893,22.121V1231.567z M512.518,1242.631h32.659c5.204,0,8.194-2.338,8.194-8.196v-47.494
				c0-5.854-2.99-8.197-8.194-8.197h-32.659V1242.631z"/>
			<path fill="#000000" d="M641.205,1218.948l-38.384-5.073c-10.151-1.3-15.225-10.15-15.225-19.261v-3.511
				c0-15.223,9.893-23.419,26.157-23.419h37.083v11.059h-42.029c-5.463,0-7.285,1.173-7.285,4.558v18.34l38.383,5.343
				c11.45,1.554,15.223,9.36,15.223,19.771v3.514c0,15.223-9.888,23.423-26.15,23.423h-39.687v-11.06h44.63
				c5.464,0,7.286-1.172,7.286-4.557V1218.948z"/>
			<path fill="#000000" d="M795.303,1231.567c0,14.313-9.369,22.123-24.594,22.123h-22.768c-15.13,0-24.5-7.81-24.5-22.123v-41.762
				c0-14.317,9.369-22.121,24.5-22.121h22.768c15.225,0,24.594,7.804,24.594,22.121V1231.567z M744.171,1242.631h30.315
				c5.203,0,6.895-2.338,6.895-8.196v-47.494c0-5.854-1.691-8.197-6.895-8.197h-30.315c-5.202,0-6.854,2.344-6.854,8.197v47.494
				C737.317,1240.293,738.969,1242.631,744.171,1242.631z"/>
			<path fill="#000000" d="M819.51,1167.685h23.028l40.074,76.375v-76.375h13.923v86.006h-23.29l-39.815-76.378v76.378h-13.92
				V1167.685z"/>
			<path fill="#000000" d="M971.363,1167.685h24.851v0.126l23.028,76.513l23.032-76.513v-0.126h24.856v86.006h-13.927v-78.854
				l-24.853,78.854h-18.219l-24.851-78.854v78.854h-13.919V1167.685z"/>
			<path fill="#000000" d="M1115.922,1167.685h17.826l31.23,86.006h-14.052l-6.768-19.256h-38.647l-6.763,19.256h-13.925
				L1115.922,1167.685z M1109.419,1223.368h30.964l-15.479-43.845L1109.419,1223.368z"/>
			<path fill="#000000" d="M1252.158,1253.69h-15.094l-14.577-31.227h-25.889v31.227h-13.925v-86.006h37.213
				c19.521,0,26.934,4.032,26.934,21.334v16.657c0,9.757-6.112,14.576-11.318,15.617L1252.158,1253.69z M1196.599,1211.401h29.407
				c4.031,0,6.895-1.429,6.895-5.593v-21.469c0-4.16-2.863-5.597-6.895-5.597h-29.407V1211.401z"/>
			<path fill="#000000" d="M1323.46,1218.948l-38.382-5.073c-10.148-1.3-15.225-10.15-15.225-19.261v-3.511
				c0-15.223,9.891-23.419,26.154-23.419h37.083v11.059h-42.03c-5.463,0-7.285,1.173-7.285,4.558v18.34l38.387,5.343
				c11.447,1.554,15.222,9.36,15.222,19.771v3.514c0,15.223-9.887,23.423-26.147,23.423h-39.688v-11.06h44.627
				c5.467,0,7.284-1.172,7.284-4.557V1218.948z"/>
		</g>
		<g>
			<path fill="#000000" d="M1212.458,539.779c-4.711-61.097-20.992-119.492-47.521-172.755c-3.218-6.475-6.611-12.866-10.135-19.181
				L897.83,634.185l-179.164-65.46L554.441,750.668l-93.998-26.186L346.376,821.77c3.263,5.29,14.005,20.754,15.674,23.143
				c45.915,65.382,108.22,118.042,180.154,152.8c74.15,35.845,156.958,51.413,239.502,45.032
				c124.707-9.655,238.185-67.286,319.557-162.283C1182.616,785.461,1222.106,664.474,1212.458,539.779z"/>
			<g>
				<rect x="987.128" y="187.761" fill="#000000" width="31.942" height="16.664"/>
				<polygon fill="#000000" points="598.253,204.434 924.191,204.434 924.203,187.744 598.253,187.744 				"/>
				<rect x="459.193" y="187.751" fill="#000000" width="52.084" height="16.682"/>
				<rect x="435.391" y="233.642" fill="#000000" width="629.814" height="16.674"/>
				<polygon fill="#000000" points="1030.663,296.263 1030.663,279.569 889.397,279.569 889.397,296.248 				"/>
				<rect x="368.534" y="279.569" fill="#000000" width="340.805" height="16.698"/>
				<polygon fill="#000000" points="413.576,325.622 413.576,342.303 1117.465,342.295 1132.451,325.605 				"/>
				<polygon fill="#000000" points="1025.385,388.402 1076.136,388.402 1091.104,371.666 1025.385,371.671 				"/>
				<polygon fill="#000000" points="295.171,417.682 295.163,434.37 1034.848,434.378 1049.848,417.68 				"/>
				<rect x="297.639" y="463.561" fill="#000000" width="198.733" height="16.69"/>
				<polygon fill="#000000" points="700.392,480.251 993.665,480.251 1008.625,463.561 700.392,463.561 				"/>
				<polygon fill="#000000" points="407.143,526.256 952.383,526.256 967.353,509.559 407.143,509.559 				"/>
				<polygon fill="#000000" points="297.637,618.254 631.288,618.25 646.321,601.622 297.637,601.618 				"/>
				<polygon fill="#000000" points="346.81,710.192 429.112,710.184 448.72,693.502 346.81,693.514 				"/>
				<g>
					<polygon fill="#000000" points="312.656,739.502 312.646,756.187 375.144,756.19 394.746,739.513 					"/>
				</g>
				<polygon fill="#000000" points="815.615,572.253 911.138,572.253 926.101,555.566 770.046,555.563 				"/>
				<polygon fill="#000000" points="414.476,664.187 589.778,664.197 604.854,647.509 414.476,647.509 				"/>
				<polygon fill="#000000" points="481.722,388.363 929.504,388.372 929.504,371.681 481.708,371.681 				"/>
				<rect x="1088.057" y="279.561" fill="#000000" width="26.205" height="16.694"/>
				<rect x="283.708" y="647.494" fill="#000000" width="70.735" height="16.696"/>
				<rect x="277.06" y="555.568" fill="#000000" width="168.093" height="16.683"/>
				<polygon fill="#000000" points="532.155,572.237 672.767,572.25 687.883,555.559 532.155,555.497 				"/>
				<path fill="#000000" d="M320.615,526.256v-16.689h-42.259c-0.216,1.75-0.403-0.99-0.597,0.765v15.924H320.615z"/>
				<rect x="902.838" y="141.806" fill="#000000" width="24.255" height="16.718"/>
				<rect x="558.404" y="141.818" fill="#000000" width="77.421" height="16.69"/>
				<rect x="342.07" y="325.627" fill="#000000" width="26.205" height="16.68"/>
				<rect x="693.885" y="141.856" fill="#000000" width="165.339" height="16.659"/>
				<polyline fill="#000000" points="461.171,693.495 520.254,710.193 548.278,710.181 563.336,693.499 				"/>
			</g>
		</g>
	</g>
	<path fill="#000000" d="M295.154,434.386"/>
	<path fill="#000000" d="M295.129,434.367"/>
</g>
<g id="Layer_2" display="none">
	<rect x="-581.746" y="-234.758" display="inline" fill="none" width="212" height="436"/>
	<text transform="matrix(1 0 0 1 -581.7461 -211.9106)" display="inline"><tspan x="0" y="0" fill="#000000" font-family="'Lato-Regular'" font-size="31">#F94600</tspan><tspan x="0" y="74.4" fill="#000000" font-family="'Lato-Regular'" font-size="31">R 249 </tspan><tspan x="0" y="111.6" fill="#000000" font-family="'Lato-Regular'" font-size="31">G 70 </tspan><tspan x="0" y="148.8" fill="#000000" font-family="'Lato-Regular'" font-size="31">B 0</tspan><tspan x="0" y="223.2" fill="#000000" font-family="'Lato-Regular'" font-size="31">C  0</tspan><tspan x="0" y="260.4" fill="#000000" font-family="'Lato-Regular'" font-size="31">M 82</tspan><tspan x="0" y="297.6" fill="#000000" font-family="'Lato-Regular'" font-size="31">Y  96</tspan><tspan x="0" y="334.8" fill="#000000" font-family="'Lato-Regular'" font-size="31">K  0</tspan></text>
	<g display="inline">
		<line fill="none" stroke="#36A9E1" stroke-width="0.25" x1="-332.795" y1="1677.515" x2="-332.795" y2="-638.36"/>
		<line fill="none" stroke="#36A9E1" stroke-width="0.25" x1="-350.53" y1="1594.396" x2="-350.53" y2="-721.479"/>
	</g>
	
		<line display="inline" fill="none" stroke="#36A9E1" stroke-width="0.25" x1="1627.123" y1="1871.761" x2="-688.753" y2="1871.761"/>
	
		<line display="inline" fill="none" stroke="#36A9E1" stroke-width="0.25" x1="1544.004" y1="1889.496" x2="-771.871" y2="1889.496"/>
</g>
<g id="Layer_4" display="none">
	<path display="inline" fill="none" stroke="#36A9E1" stroke-width="0.25" d="M1211.748,573.947
		c0,258.739-209.672,468.411-468.316,468.411c-258.681,0-468.354-209.672-468.354-468.411
		c0-258.644,209.673-468.316,468.354-468.316C1002.076,105.63,1211.748,315.303,1211.748,573.947z"/>
	
		<rect x="30.977" y="11.455" display="inline" fill="none" stroke="#36A9E1" stroke-width="0.25" width="1423.439" height="1323.108"/>
</g>
<g id="Layer_5" display="none">
</g>
<g id="Layer_3" display="none">
</g>
<g id="Layer_6" display="none">
</g>
<g id="Layer_7" display="none">
</g>
<g id="ZYGZAK" display="none">
	<line display="inline" fill="none" stroke="#95C11F" stroke-width="0.25" x1="324.818" y1="840.741" x2="489.128" y2="700.038"/>
	<line display="inline" fill="none" stroke="#95C11F" stroke-width="0.25" x1="305.818" y1="815.741" x2="470.128" y2="675.038"/>
	<g display="inline">
		<line fill="none" stroke="#95C11F" stroke-width="0.25" x1="553.748" y1="751.126" x2="744.325" y2="540.076"/>
		<line fill="none" stroke="#95C11F" stroke-width="0.25" x1="532.064" y1="728.102" x2="722.254" y2="517.741"/>
	</g>
	<g display="inline">
		<line fill="none" stroke="#95C11F" stroke-width="0.25" x1="363.486" y1="698.827" x2="571.697" y2="757.505"/>
		<line fill="none" stroke="#95C11F" stroke-width="0.25" x1="373.749" y1="669.151" x2="581.961" y2="727.829"/>
	</g>
	<g display="inline">
		<line fill="none" stroke="#95C11F" stroke-width="0.25" x1="691.896" y1="560.604" x2="895.072" y2="634.866"/>
		<line fill="none" stroke="#95C11F" stroke-width="0.25" x1="704.375" y1="531.79" x2="907.551" y2="606.052"/>
	</g>
	<g display="inline">
		<line fill="none" stroke="#95C11F" stroke-width="0.25" x1="898.655" y1="633.42" x2="1164.871" y2="336.614"/>
		<line fill="none" stroke="#95C11F" stroke-width="0.25" x1="876.892" y1="610.471" x2="1142.722" y2="314.357"/>
	</g>
</g>
<g id="Layer_9" display="none">
	
		<rect x="274.682" y="103.704" display="inline" fill="none" stroke="#36A9E1" stroke-width="0.25" width="936.166" height="936.175"/>
</g>
<g id="światło" display="none">
	<rect x="-45.517" y="1254.019" display="inline" opacity="0.26" fill="#00F1F7" width="1576.014" height="156.092"/>
	<rect x="-47.127" y="-52.468" display="inline" opacity="0.26" fill="#00F1F7" width="1579.012" height="156.092"/>
	<rect x="-46.506" y="-52.965" display="inline" opacity="0.26" fill="#00F1F7" width="156.092" height="1462"/>
	<rect x="1375.472" y="-50.989" display="inline" opacity="0.26" fill="#00F1F7" width="156.092" height="1459"/>
</g>
<g id="Layer_11">
</g>
</svg>
