<?xml version="1.0" encoding="UTF-8" standalone="no"?>
<!-- Generator: Adobe Illustrator 15.1.0, SVG Export Plug-In . SVG Version: 6.00 Build 0)  -->

<svg
   xmlns:dc="http://purl.org/dc/elements/1.1/"
   xmlns:cc="http://creativecommons.org/ns#"
   xmlns:rdf="http://www.w3.org/1999/02/22-rdf-syntax-ns#"
   xmlns:svg="http://www.w3.org/2000/svg"
   xmlns="http://www.w3.org/2000/svg"
   xmlns:sodipodi="http://sodipodi.sourceforge.net/DTD/sodipodi-0.dtd"
   xmlns:inkscape="http://www.inkscape.org/namespaces/inkscape"
   version="1.1"
   x="0px"
   y="0px"
   width="2617.478"
   height="902.3335"
   viewBox="0 0 2617.478 902.33351"
   enable-background="new 0 0 2919.292 1308.131"
   xml:space="preserve"
   id="svg473"
   sodipodi:docname="logo typ kolor poziom.svg"
   inkscape:version="0.92.1 r15371"><metadata
     id="metadata479"><rdf:RDF><cc:Work
         rdf:about=""><dc:format>image/svg+xml</dc:format><dc:type
           rdf:resource="http://purl.org/dc/dcmitype/StillImage" /></cc:Work></rdf:RDF></metadata><defs
     id="defs477" /><sodipodi:namedview
     pagecolor="#ffffff"
     bordercolor="#666666"
     borderopacity="1"
     objecttolerance="10"
     gridtolerance="10"
     guidetolerance="10"
     inkscape:pageopacity="0"
     inkscape:pageshadow="2"
     inkscape:window-width="1920"
     inkscape:window-height="1001"
     id="namedview475"
     showgrid="false"
     inkscape:zoom="0.13462168"
     inkscape:cx="1278.594"
     inkscape:cy="455.908"
     inkscape:window-x="-9"
     inkscape:window-y="-9"
     inkscape:window-maximized="1"
     inkscape:current-layer="svg473" />
     <style>
       .top-small-logo {
          fill: white;
          stroke: white;
       }
     </style><g
     id="Layer_1"
     transform="translate(-181.052,-207.64)"><g
       id="g384"><g
         id="g318"><path
           d="m 1274.375,700.72 h 51.902 v 14.511 h -46.953 c -19.977,0 -32.265,-10.247 -32.265,-29.027 v -54.795 c 0,-18.786 12.288,-29.026 32.265,-29.026 h 46.953 v 14.511 h -51.902 c -6.825,0 -9.046,3.075 -9.046,10.755 v 62.318 c 0,7.685 2.22,10.753 9.046,10.753 z"
           id="path294"
           inkscape:connector-curvature="0"
           class="top-logo-small" /><path
           d="m 1352.912,602.382 h 18.268 v 98.338 h 59.751 v 14.511 h -78.019 z"
           id="path296"
           inkscape:connector-curvature="0"
           class="top-logo-small" /><path
           d="m 1548.564,686.204 c 0,18.78 -12.292,29.027 -32.264,29.027 h -29.881 c -19.974,0 -32.265,-10.247 -32.265,-29.027 v -54.795 c 0,-18.786 12.291,-29.026 32.265,-29.026 h 29.881 c 19.972,0 32.264,10.24 32.264,29.026 z m -67.097,14.516 h 39.78 c 6.829,0 9.052,-3.068 9.052,-10.754 v -62.318 c 0,-7.68 -2.223,-10.755 -9.052,-10.755 h -39.78 c -6.825,0 -9.045,3.075 -9.045,10.755 v 62.318 c 0,7.686 2.22,10.754 9.045,10.754 z"
           id="path298"
           inkscape:connector-curvature="0"
           class="top-logo-small" /><path
           d="m 1575.197,602.382 h 18.269 v 87.584 c 0,7.686 3.928,10.754 10.76,10.754 h 34.653 c 6.831,0 10.759,-3.068 10.759,-10.754 v -87.584 h 18.266 v 82.115 c 0,18.78 -13.997,30.733 -33.972,30.733 h -24.759 c -19.974,0 -33.976,-11.953 -33.976,-30.733 z"
           id="path300"
           inkscape:connector-curvature="0"
           class="top-logo-small" /><path
           d="m 1788.097,686.204 c 0,18.78 -13.998,29.027 -33.975,29.027 h -56.167 V 602.382 h 56.167 c 19.977,0 33.975,10.24 33.975,29.026 z m -71.871,14.516 h 42.853 c 6.827,0 10.749,-3.068 10.749,-10.754 v -62.318 c 0,-7.68 -3.922,-10.755 -10.749,-10.755 h -42.853 z"
           id="path302"
           inkscape:connector-curvature="0"
           class="top-logo-small" /><path
           d="m 1885.076,669.645 -50.364,-6.655 c -13.319,-1.706 -19.977,-13.319 -19.977,-25.272 v -4.607 c 0,-19.973 12.979,-30.728 34.32,-30.728 h 48.656 v 14.511 h -55.146 c -7.17,0 -9.559,1.539 -9.559,5.98 v 24.063 l 50.361,7.01 c 15.023,2.039 19.974,12.281 19.974,25.941 v 4.609 c 0,19.975 -12.974,30.733 -34.313,30.733 h -52.073 v -14.51 h 58.561 c 7.167,0 9.56,-1.538 9.56,-5.979 z"
           id="path304"
           inkscape:connector-curvature="0"
           class="top-logo-small" /><path
           d="m 2087.267,686.204 c 0,18.78 -12.294,29.027 -32.27,29.027 h -29.874 c -19.851,0 -32.145,-10.247 -32.145,-29.027 v -54.795 c 0,-18.786 12.294,-29.026 32.145,-29.026 h 29.874 c 19.976,0 32.27,10.24 32.27,29.026 z m -67.09,14.516 h 39.776 c 6.827,0 9.047,-3.068 9.047,-10.754 v -62.318 c 0,-7.68 -2.22,-10.755 -9.047,-10.755 h -39.776 c -6.826,0 -8.993,3.075 -8.993,10.755 v 62.318 c 0,7.686 2.167,10.754 8.993,10.754 z"
           id="path306"
           inkscape:connector-curvature="0"
           class="top-logo-small" /><path
           d="m 2119.03,602.382 h 30.215 l 52.582,100.212 V 602.382 h 18.269 v 112.849 h -30.56 l -52.241,-100.215 v 100.215 h -18.265 z"
           id="path308"
           inkscape:connector-curvature="0"
           class="top-logo-small" /><path
           d="m 2318.278,602.382 h 32.604 v 0.167 l 30.216,100.392 30.219,-100.392 v -0.167 h 32.616 v 112.849 h -18.272 V 611.766 l -32.61,103.465 h -23.905 l -32.605,-103.465 v 103.465 h -18.262 V 602.382 Z"
           id="path310"
           inkscape:connector-curvature="0"
           class="top-logo-small" /><path
           d="m 2507.952,602.382 h 23.389 l 40.978,112.849 h -18.437 l -8.879,-25.265 h -50.711 l -8.873,25.265 h -18.27 z m -8.534,73.064 h 40.628 l -20.31,-57.528 z"
           id="path312"
           inkscape:connector-curvature="0"
           class="top-logo-small" /><path
           d="m 2686.707,715.231 h -19.805 l -19.127,-40.972 h -33.968 v 40.972 h -18.271 V 602.382 h 48.826 c 25.612,0 35.341,5.292 35.341,27.992 v 21.856 c 0,12.802 -8.021,19.126 -14.852,20.49 z m -72.9,-55.486 h 38.585 c 5.29,0 9.048,-1.875 9.048,-7.339 v -28.17 c 0,-5.458 -3.758,-7.343 -9.048,-7.343 h -38.585 z"
           id="path314"
           inkscape:connector-curvature="0"
           class="top-logo-small" /><path
           d="m 2780.262,669.645 -50.36,-6.655 c -13.317,-1.706 -19.978,-13.319 -19.978,-25.272 v -4.607 c 0,-19.973 12.979,-30.728 34.317,-30.728 h 48.656 v 14.511 h -55.147 c -7.169,0 -9.56,1.539 -9.56,5.98 v 24.063 l 50.368,7.01 c 15.02,2.039 19.972,12.281 19.972,25.941 v 4.609 c 0,19.975 -12.973,30.733 -34.308,30.733 h -52.073 v -14.51 h 58.554 c 7.173,0 9.559,-1.538 9.559,-5.979 z"
           id="path316"
           inkscape:connector-curvature="0"
           class="top-logo-small" /></g><g
         id="g382"><path
           d="m 1116.45,605.613 c -4.711,-61.098 -20.992,-119.492 -47.521,-172.756 -3.218,-6.475 -6.611,-12.866 -10.135,-19.181 L 801.822,700.018 622.658,634.558 458.433,816.501 364.435,790.315 250.368,887.602 c 3.263,5.29 14.005,20.754 15.674,23.143 45.915,65.382 108.22,118.042 180.154,152.8 74.15,35.845 156.958,51.413 239.502,45.032 124.707,-9.655 238.185,-67.286 319.557,-162.283 81.353,-95 120.843,-215.987 111.195,-340.681 z"
           id="path320"
           inkscape:connector-curvature="0"
           class="top-logo-small" /><g
           id="g380"><rect
             x="891.12"
             y="253.595"
             width="31.941999"
             height="16.664"
             id="rect322"
             class="top-logo-small" /><polygon
             points="828.195,253.577 502.245,253.577 502.245,270.267 828.183,270.267 "
             id="polygon324"
             class="top-logo-small" /><rect
             x="363.185"
             y="253.58501"
             width="52.084"
             height="16.681999"
             id="rect326"
             class="top-logo-small" /><rect
             x="339.383"
             y="299.47501"
             width="629.81403"
             height="16.674"
             id="rect328"
             class="top-logo-small" /><polygon
             points="793.389,345.402 793.389,362.081 934.655,362.096 934.655,345.402 "
             id="polygon330"
             class="top-logo-small" /><rect
             x="272.52499"
             y="345.40201"
             width="340.80499"
             height="16.698"
             id="rect332"
             class="top-logo-small" /><polygon
             points="1021.457,408.128 1036.443,391.439 317.567,391.456 317.567,408.137 "
             id="polygon334"
             class="top-logo-small" /><polygon
             points="995.095,437.5 929.376,437.505 929.376,454.235 980.127,454.235 "
             id="polygon336"
             class="top-logo-small" /><polygon
             points="938.839,500.211 953.839,483.514 199.163,483.515 199.154,500.203 "
             id="polygon338"
             class="top-logo-small" /><rect
             x="201.63"
             y="529.39502"
             width="198.733"
             height="16.690001"
             id="rect340"
             class="top-logo-small" /><polygon
             points="912.617,529.395 604.384,529.395 604.384,546.084 897.657,546.084 "
             id="polygon342"
             class="top-logo-small" /><polygon
             points="871.344,575.392 311.134,575.392 311.134,592.089 856.375,592.089 "
             id="polygon344"
             class="top-logo-small" /><polygon
             points="550.313,667.455 201.629,667.451 201.629,684.087 535.279,684.083 "
             id="polygon346"
             class="top-logo-small" /><polygon
             points="352.711,759.335 250.802,759.347 250.802,776.026 333.104,776.017 "
             id="polygon348"
             class="top-logo-small" /><g
             id="g352"><polygon
               points="279.136,822.024 298.737,805.346 216.647,805.335 216.637,822.02 "
               id="polygon350"
               class="top-logo-small" /></g><polygon
             points="830.092,621.4 674.038,621.397 719.607,638.086 815.129,638.086 "
             id="polygon354"
             class="top-logo-small" /><polygon
             points="508.845,713.342 318.468,713.342 318.468,730.02 493.77,730.031 "
             id="polygon356"
             class="top-logo-small" /><polygon
             points="833.496,437.514 385.699,437.514 385.713,454.197 833.496,454.205 "
             id="polygon358"
             class="top-logo-small" /><rect
             x="992.04797"
             y="345.39401"
             width="26.205"
             height="16.694"
             id="rect360"
             class="top-logo-small" /><rect
             x="187.69901"
             y="713.328"
             width="70.735001"
             height="16.695999"
             id="rect362"
             class="top-logo-small" /><rect
             x="181.052"
             y="621.40198"
             width="168.093"
             height="16.684"
             id="rect364"
             class="top-logo-small" /><polygon
             points="591.875,621.392 436.146,621.33 436.146,638.07 576.758,638.083 "
             id="polygon366"
             class="top-logo-small" /><path
             d="M 224.607,592.089 V 575.4 h -42.259 c -0.216,1.75 -0.403,-0.989 -0.597,0.766 v 15.924 h 42.856 z"
             id="path368"
             inkscape:connector-curvature="0"
             class="top-logo-small" /><rect
             x="806.83002"
             y="207.64"
             width="24.254999"
             height="16.718"
             id="rect370"
             class="top-logo-small" /><rect
             x="462.396"
             y="207.65199"
             width="77.420998"
             height="16.690001"
             id="rect372"
             class="top-logo-small" /><rect
             x="246.062"
             y="391.45999"
             width="26.205"
             height="16.68"
             id="rect374"
             class="top-logo-small" /><rect
             x="597.87598"
             y="207.689"
             width="165.339"
             height="16.659"
             id="rect376"
             class="top-logo-small" /><polyline
             points="365.163,759.329 424.246,776.027 452.27,776.014 467.328,759.333     "
             id="polyline378"
             class="top-logo-small" /></g></g></g><path
       d="M 328.159,500.394"
       id="path386"
       inkscape:connector-curvature="0"
       style="fill:#f94600" /><path
       d="M 328.133,500.375"
       id="path388"
       inkscape:connector-curvature="0"
       style="fill:#f94600" /></g><g
     id="Layer_2"
     display="none"
     style="display:none"
     transform="translate(-181.052,-207.64)"><rect
       x="-569.74402"
       y="-279.76199"
       display="inline"
       width="212"
       height="436"
       id="rect391"
       style="display:inline;fill:none" /><text
       transform="translate(-569.7437,-256.915)"
       display="inline"
       id="text409"
       style="display:inline"><tspan
         x="0"
         y="0"
         font-size="31"
         id="tspan393"
         style="font-size:31px;font-family:Lato-Regular;fill:#f94600">#F94600</tspan><tspan
         x="0"
         y="74.400002"
         font-size="31"
         id="tspan395"
         style="font-size:31px;font-family:Lato-Regular;fill:#f94600">R 249 </tspan><tspan
         x="0"
         y="111.6"
         font-size="31"
         id="tspan397"
         style="font-size:31px;font-family:Lato-Regular;fill:#f94600">G 70 </tspan><tspan
         x="0"
         y="148.8"
         font-size="31"
         id="tspan399"
         style="font-size:31px;font-family:Lato-Regular;fill:#f94600">B 0</tspan><tspan
         x="0"
         y="223.2"
         font-size="31"
         id="tspan401"
         style="font-size:31px;font-family:Lato-Regular;fill:#f94600">C  0</tspan><tspan
         x="0"
         y="260.39999"
         font-size="31"
         id="tspan403"
         style="font-size:31px;font-family:Lato-Regular;fill:#f94600">M 82</tspan><tspan
         x="0"
         y="297.60001"
         font-size="31"
         id="tspan405"
         style="font-size:31px;font-family:Lato-Regular;fill:#f94600">Y  96</tspan><tspan
         x="0"
         y="334.79999"
         font-size="31"
         id="tspan407"
         style="font-size:31px;font-family:Lato-Regular;fill:#f94600">K  0</tspan></text>
<g
       display="inline"
       id="g415"
       style="display:inline"><line
         x1="-320.79199"
         y1="1632.51"
         x2="-320.79199"
         y2="-683.36499"
         id="line411"
         style="fill:none;stroke:#36a9e1;stroke-width:0.25" /><line
         x1="-338.52802"
         y1="1549.392"
         x2="-338.52802"
         y2="-766.48297"
         id="line413"
         style="fill:none;stroke:#36a9e1;stroke-width:0.25" /></g><line
       display="inline"
       x1="1639.125"
       y1="1826.756"
       x2="-676.75"
       y2="1826.756"
       id="line417"
       style="display:inline;fill:none;stroke:#36a9e1;stroke-width:0.25" /><line
       display="inline"
       x1="1556.006"
       y1="1844.4919"
       x2="-759.86902"
       y2="1844.4919"
       id="line419"
       style="display:inline;fill:none;stroke:#36a9e1;stroke-width:0.25" /></g><g
     id="Layer_4"
     display="none"
     style="display:none"
     transform="translate(-181.052,-207.64)"><path
       display="inline"
       d="m 1223.75,528.942 c 0,258.739 -209.672,468.411 -468.316,468.411 -258.681,0 -468.354,-209.672 -468.354,-468.411 0,-258.644 209.673,-468.316 468.354,-468.316 258.645,0 468.316,209.672 468.316,468.316 z"
       id="path422"
       inkscape:connector-curvature="0"
       style="display:inline;fill:none;stroke:#36a9e1;stroke-width:0.25" /><rect
       x="42.979"
       y="-33.549999"
       display="inline"
       width="1423.439"
       height="1323.108"
       id="rect424"
       style="display:inline;fill:none;stroke:#36a9e1;stroke-width:0.25" /></g><g
     id="Layer_5"
     display="none"
     style="display:none"
     transform="translate(-181.052,-207.64)" /><g
     id="Layer_3"
     display="none"
     style="display:none"
     transform="translate(-181.052,-207.64)" /><g
     id="Layer_6"
     display="none"
     style="display:none"
     transform="translate(-181.052,-207.64)" /><g
     id="Layer_7"
     display="none"
     style="display:none"
     transform="translate(-181.052,-207.64)" /><g
     id="ZYGZAK"
     display="none"
     style="display:none"
     transform="translate(-181.052,-207.64)"><line
       display="inline"
       x1="336.82001"
       y1="795.737"
       x2="501.13101"
       y2="655.034"
       id="line431"
       style="display:inline;fill:none;stroke:#95c11f;stroke-width:0.25" /><line
       display="inline"
       x1="317.82001"
       y1="770.737"
       x2="482.13101"
       y2="630.034"
       id="line433"
       style="display:inline;fill:none;stroke:#95c11f;stroke-width:0.25" /><g
       display="inline"
       id="g439"
       style="display:inline"><line
         x1="565.75"
         y1="706.12201"
         x2="756.328"
         y2="495.07101"
         id="line435"
         style="fill:none;stroke:#95c11f;stroke-width:0.25" /><line
         x1="544.06598"
         y1="683.09698"
         x2="734.25598"
         y2="472.737"
         id="line437"
         style="fill:none;stroke:#95c11f;stroke-width:0.25" /></g><g
       display="inline"
       id="g445"
       style="display:inline"><line
         x1="375.48801"
         y1="653.823"
         x2="583.70001"
         y2="712.5"
         id="line441"
         style="fill:none;stroke:#95c11f;stroke-width:0.25" /><line
         x1="385.75101"
         y1="624.14697"
         x2="593.96301"
         y2="682.82501"
         id="line443"
         style="fill:none;stroke:#95c11f;stroke-width:0.25" /></g><g
       display="inline"
       id="g451"
       style="display:inline"><line
         x1="703.89801"
         y1="515.59998"
         x2="907.07501"
         y2="589.862"
         id="line447"
         style="fill:none;stroke:#95c11f;stroke-width:0.25" /><line
         x1="716.37701"
         y1="486.78601"
         x2="919.55298"
         y2="561.047"
         id="line449"
         style="fill:none;stroke:#95c11f;stroke-width:0.25" /></g><g
       display="inline"
       id="g457"
       style="display:inline"><line
         x1="910.65802"
         y1="588.41602"
         x2="1176.874"
         y2="291.60999"
         id="line453"
         style="fill:none;stroke:#95c11f;stroke-width:0.25" /><line
         x1="888.89398"
         y1="565.466"
         x2="1154.724"
         y2="269.353"
         id="line455"
         style="fill:none;stroke:#95c11f;stroke-width:0.25" /></g></g><g
     id="Layer_9"
     display="none"
     style="display:none"
     transform="translate(-181.052,-207.64)"><rect
       x="286.68399"
       y="58.700001"
       display="inline"
       width="936.16602"
       height="936.17499"
       id="rect460"
       style="display:inline;fill:none;stroke:#36a9e1;stroke-width:0.25" /></g><g
     id="światło"
     display="none"
     style="display:none"
     transform="translate(-181.052,-207.64)"><rect
       x="-33.514"
       y="1209.014"
       display="inline"
       width="1576.014"
       height="156.092"
       id="rect463"
       style="display:inline;opacity:0.26000001;fill:#00f1f7" /><rect
       x="-35.125"
       y="-97.473"
       display="inline"
       width="1579.012"
       height="156.092"
       id="rect465"
       style="display:inline;opacity:0.26000001;fill:#00f1f7" /><rect
       x="-34.502998"
       y="-97.970001"
       display="inline"
       width="156.092"
       height="1462"
       id="rect467"
       style="display:inline;opacity:0.26000001;fill:#00f1f7" /><rect
       x="1387.474"
       y="-95.992996"
       display="inline"
       width="156.092"
       height="1459"
       id="rect469"
       style="display:inline;opacity:0.26000001;fill:#00f1f7" /></g><g
     id="Layer_11"
     transform="translate(-181.052,-207.64)" /></svg>