<svg id="Warstwa_1" data-name="Warstwa 1" xmlns="http://www.w3.org/2000/svg" viewBox="0 0 1419.81 641.21"><defs><style>.cls-1{opacity:0.3;}.cls-2{fill:#fff;}.cls-3{opacity:0.3;}.cls-4{fill:#bdbec1;}.cls-5{fill:#f15728;}</style></defs><title>1_View_orbits_background</title><g class="cls-1"><rect class="cls-2" x="320.6" y="320.1" width="4" height="1"/><path class="cls-2" d="M1087.68,322.1h-8v-1h8Zm-15.89,0h-8v-1h8Zm-15.89,0H1048v-1h7.94Zm-15.89,0h-7.94v-1H1040Zm-15.89,0h-7.94v-1h7.94Zm-15.89,0h-7.94v-1h7.94Zm-15.89,0H984.4v-1h7.94Zm-15.88,0h-8v-1h8Zm-15.89,0h-8v-1h8Zm-15.89,0h-7.95v-1h7.95Zm-15.89,0h-7.95v-1h7.95Zm-15.89,0H905v-1h7.94Zm-15.89,0h-7.94v-1H897Zm-15.89,0h-7.94v-1h7.94Zm-15.89,0h-7.94v-1h7.94Zm-15.88,0h-8v-1h8Zm-15.89,0h-8v-1h8Zm-15.89,0h-8v-1h8Zm-15.89,0h-7.95v-1h7.95Zm-15.89,0h-7.94v-1h7.94Zm-15.89,0H762v-1h7.94Zm-15.89,0h-7.94v-1H754Zm-15.89,0h-7.94v-1h7.94Zm-15.88,0h-8v-1h8Zm-15.89,0h-8v-1h8Zm-15.89,0h-8v-1h8Zm-15.89,0h-7.94v-1h7.94Zm-15.89,0h-7.94v-1h7.94Zm-15.89,0h-7.94v-1h7.94Zm-15.89,0H619v-1h7.94Zm-15.89,0h-7.94v-1H611Zm-15.88,0h-8v-1h8Zm-15.89,0h-8v-1h8Zm-15.89,0h-8v-1h8Zm-15.89,0h-7.94v-1h7.94Zm-15.89,0h-7.94v-1h7.94Zm-15.89,0h-7.94v-1h7.94Zm-15.89,0h-7.94v-1h7.94Zm-15.89,0H476v-1h7.94Zm-15.88,0h-7.95v-1H468Zm-15.89,0h-7.95v-1h7.95Zm-15.89,0h-7.95v-1h7.95Zm-15.89,0h-7.94v-1h7.94Zm-15.89,0h-7.94v-1h7.94Zm-15.89,0h-7.94v-1h7.94Zm-15.89,0h-7.94v-1h7.94Zm-15.89,0h-7.94v-1h7.94Zm-15.88,0h-8v-1h8Z" transform="translate(-0.41 -1)"/><rect class="cls-2" x="1095.21" y="320.1" width="4" height="1"/></g><g class="cls-3"><path class="cls-2" d="M333.13,555A228.34,228.34,0,1,1,494.61,488.1,226.86,226.86,0,0,1,333.13,555Zm0-455.61a226.61,226.61,0,0,0-160.76,66.49c-88.65,88.64-88.65,232.88,0,321.53a227.36,227.36,0,1,0,160.76-388Z" transform="translate(-0.41 -1)"/></g><g class="cls-1"><path class="cls-2" d="M1099.62,397.9a76.3,76.3,0,1,1,76.3-76.3A76.38,76.38,0,0,1,1099.62,397.9Zm0-151.59a75.3,75.3,0,1,0,75.3,75.29A75.38,75.38,0,0,0,1099.62,246.31Z" transform="translate(-0.41 -1)"/></g><g class="cls-1"><path class="cls-2" d="M1099.62,365.9a44.3,44.3,0,1,1,44.3-44.3A44.35,44.35,0,0,1,1099.62,365.9Zm0-87.59a43.3,43.3,0,1,0,43.3,43.29A43.35,43.35,0,0,0,1099.62,278.31Z" transform="translate(-0.41 -1)"/></g><g class="cls-1"><path class="cls-2" d="M1099.62,540.65a219,219,0,1,1,154.89-64.15A217.61,217.61,0,0,1,1099.62,540.65Zm0-437.1c-120.23,0-218,97.82-218,218.05s97.82,218,218,218,218.05-97.81,218.05-218S1219.85,103.55,1099.62,103.55Z" transform="translate(-0.41 -1)"/></g><path class="cls-2" d="M321,642.21A320.6,320.6,0,0,1,94.32,94.9a320.61,320.61,0,0,1,453.4,453.41A318.52,318.52,0,0,1,321,642.21ZM321,2C144.79,2,1.41,145.37,1.41,321.6S144.79,641.21,321,641.21s319.6-143.37,319.6-319.61S497.25,2,321,2Z" transform="translate(-0.41 -1)"/><path class="cls-2" d="M1099.62,642.21A320.61,320.61,0,0,1,872.92,94.9a320.61,320.61,0,0,1,453.4,453.41A318.5,318.5,0,0,1,1099.62,642.21Zm0-640.21C923.39,2,780,145.37,780,321.6s143.37,319.61,319.6,319.61,319.6-143.37,319.6-319.61S1275.85,2,1099.62,2Z" transform="translate(-0.41 -1)"/><g class="cls-1"><path class="cls-2" d="M1101.54,642.2c-2.66,0-5.35-.08-8-.16l0-1c2.64.08,5.33.13,8,.16Zm-16-.5c-2.65-.14-5.34-.31-8-.51l.08-1c2.64.2,5.32.38,8,.52Zm-16-1.21c-2.69-.27-5.37-.57-8-.89l.12-1c2.59.32,5.26.62,7.94.89Zm-15.89-2c-2.65-.4-5.31-.83-7.9-1.28l.18-1c2.58.44,5.22.87,7.87,1.27Zm-15.76-2.76c-2.61-.52-5.24-1.08-7.82-1.67l.22-1c2.57.59,5.2,1.15,7.8,1.67Zm-15.6-3.55c-2.58-.65-5.18-1.35-7.72-2.07l.27-1c2.54.72,5.13,1.42,7.7,2.07Zm-15.39-4.35c-2.53-.79-5.09-1.63-7.61-2.48l.32-1c2.52.86,5.07,1.69,7.58,2.47Zm-15.15-5.17c-2.49-.92-5-1.89-7.46-2.88l.37-.92c2.46,1,5,2,7.44,2.87Zm-14.85-6c-2.43-1-4.88-2.15-7.3-3.27l.42-.91c2.41,1.12,4.86,2.22,7.28,3.26ZM962.42,610c-2.37-1.17-4.76-2.4-7.13-3.64l.47-.89c2.36,1.24,4.74,2.46,7.1,3.63Zm-14.16-7.46c-2.32-1.3-4.65-2.65-6.93-4l.51-.86c2.27,1.35,4.6,2.69,6.91,4Zm-13.77-8.16c-2.25-1.41-4.51-2.86-6.73-4.32l.55-.84c2.21,1.46,4.47,2.91,6.71,4.31Zm-13.36-8.8c-2.16-1.5-4.35-3.05-6.5-4.62l.58-.81c2.15,1.56,4.33,3.11,6.49,4.6Zm-12.92-9.38c-2.09-1.59-4.22-3.25-6.32-4.92l.62-.78c2.1,1.67,4.22,3.31,6.31,4.9Zm-12.55-10c-2-1.68-4.1-3.42-6.14-5.18l.65-.76c2,1.75,4.1,3.49,6.13,5.17Zm-12.15-10.47c-2-1.76-4-3.57-5.91-5.39l.68-.73c2,1.81,3.94,3.62,5.9,5.38Zm-11.73-10.89c-1.91-1.85-3.82-3.72-5.71-5.6l.7-.71q2.84,2.82,5.71,5.59Zm-11.34-11.3q-2.79-2.87-5.53-5.78l.72-.69q2.75,2.91,5.53,5.78Zm-11-11.65c-1.8-2-3.58-4-5.36-6l.75-.66q2.65,3,5.35,5.93Zm-10.63-12q-2.62-3-5.2-6.09l.77-.64c1.72,2,3.44,4.07,5.18,6.08Zm-10.32-12.24q-2.53-3.09-5-6.22l.78-.63q2.5,3.14,5,6.21Zm-10-12.5c-1.65-2.09-3.28-4.2-4.91-6.32l.8-.61q2.43,3.18,4.89,6.32Zm-9.74-12.7c-1.6-2.13-3.2-4.27-4.78-6.42l.8-.6,4.77,6.42Zm-9.5-12.89q-2.34-3.24-4.66-6.51l.82-.58q2.31,3.27,4.65,6.5ZM790,446.58q-2.28-3.27-4.55-6.58l.82-.56q2.26,3.3,4.55,6.57Zm-9.07-13.19q-2.24-3.31-4.46-6.64l.83-.56q2.22,3.33,4.46,6.64ZM772,420.08q-2.2-3.34-4.39-6.7l.84-.55q2.19,3.36,4.38,6.69Zm-8.74-13.42q-2.16-3.36-4.31-6.74l.84-.54q2.14,3.38,4.31,6.74Zm-8.6-13.5-4.26-6.78.85-.53c1.42,2.26,2.83,4.52,4.26,6.77Zm-8.49-13.57q-2.12-3.4-4.21-6.81l.85-.53c1.4,2.28,2.8,4.54,4.21,6.81ZM737.81,366q-2.1-3.4-4.18-6.83l.86-.52,4.17,6.83Zm-8.34-13.67-4.14-6.84.85-.52q2.07,3.42,4.15,6.84Zm-8.28-13.69L717,331.71l.86-.51,4.14,6.88Zm-8.29-13.76L708.76,318l.86-.52,4.14,6.88Zm-8.27-13.75-4.13-6.86.85-.52,4.14,6.87Zm-8.27-13.71q-2.07-3.44-4.15-6.85l.86-.52,4.14,6.85Zm-8.3-13.68q-2.07-3.42-4.16-6.82l.85-.52,4.17,6.82Zm-8.34-13.62q-2.09-3.4-4.19-6.79l.85-.52q2.1,3.39,4.19,6.79Zm-8.4-13.55q-2.12-3.4-4.25-6.78l.84-.54c1.43,2.26,2.84,4.52,4.26,6.79ZM662.79,243c-1.43-2.26-2.87-4.5-4.31-6.74l.84-.54q2.16,3.36,4.31,6.74Zm-8.65-13.46c-1.45-2.24-2.91-4.48-4.37-6.7l.83-.55L655,229Zm-8.79-13.37q-2.22-3.33-4.45-6.65l.83-.56q2.24,3.31,4.45,6.65Zm-9-13.26c-1.51-2.2-3-4.4-4.55-6.58l.82-.57c1.52,2.18,3,4.38,4.55,6.58Zm-9.14-13.13q-2.32-3.27-4.65-6.5l.81-.59q2.34,3.24,4.65,6.51Zm-9.36-13c-1.58-2.15-3.17-4.3-4.76-6.43l.8-.6c1.6,2.14,3.19,4.28,4.77,6.44ZM608.32,164q-2.45-3.18-4.89-6.33l.78-.61c1.64,2.09,3.28,4.21,4.9,6.33Zm-9.85-12.6q-2.51-3.14-5-6.22l.77-.63q2.53,3.09,5,6.22ZM588.34,139q-2.58-3.08-5.19-6.09l.76-.65q2.61,3,5.19,6.1Zm-10.45-12.11q-2.65-3-5.34-5.94l.74-.67c1.79,2,3.58,4,5.35,6Zm-10.77-11.81q-2.75-2.91-5.52-5.78l.72-.69c1.85,1.91,3.7,3.84,5.53,5.79ZM556,103.65c-1.89-1.89-3.81-3.77-5.7-5.6l.69-.72c1.9,1.83,3.83,3.72,5.72,5.61Zm-11.5-11.09c-2-1.82-3.93-3.63-5.9-5.39l.67-.75c2,1.77,4,3.59,5.91,5.4ZM532.59,81.9c-2-1.75-4.07-3.48-6.1-5.16l.64-.77c2,1.68,4.09,3.42,6.12,5.17Zm-12.3-10.19c-2.08-1.65-4.2-3.3-6.31-4.9l.61-.79c2.11,1.6,4.23,3.25,6.32,4.91Zm-12.72-9.65c-2.15-1.56-4.34-3.12-6.51-4.62l.57-.82c2.18,1.51,4.37,3.06,6.53,4.63ZM494.44,53c-2.22-1.46-4.48-2.9-6.72-4.3l.53-.85c2.24,1.4,4.51,2.85,6.74,4.32Zm-13.52-8.42c-2.28-1.35-4.61-2.68-6.91-4l.49-.87c2.31,1.28,4.64,2.62,6.93,4ZM467,36.81c-2.36-1.23-4.76-2.45-7.13-3.61l.44-.9c2.38,1.17,4.79,2.39,7.15,3.62Zm-14.36-7c-2.39-1.1-4.85-2.19-7.29-3.23l.39-.92c2.45,1.05,4.91,2.14,7.32,3.24ZM438,23.5c-2.46-1-5-1.93-7.45-2.84l.34-.94c2.5.91,5,1.87,7.48,2.85ZM423,18c-2.51-.84-5.06-1.66-7.59-2.43l.29-1c2.54.78,5.1,1.6,7.62,2.44Zm-15.25-4.66c-2.53-.7-5.13-1.38-7.71-2l.24-1c2.59.64,5.19,1.32,7.74,2ZM392.26,9.52C389.67,9,387,8.4,384.45,7.9l.19-1c2.6.5,5.24,1,7.84,1.62Zm-15.65-3c-2.61-.44-5.26-.85-7.89-1.22l.14-1c2.64.37,5.29.78,7.91,1.22Zm-15.8-2.24c-2.61-.3-5.28-.58-7.93-.82l.09-1c2.66.24,5.34.52,8,.82ZM344.93,2.8c-2.64-.18-5.32-.33-8-.45l0-1c2.66.12,5.34.27,8,.45ZM329,2.09C326.36,2,323.67,2,321,2V1c2.66,0,5.35,0,8,.09Z" transform="translate(-0.41 -1)"/></g><g class="cls-1"><path class="cls-2" d="M319.09,642.19v-1c2.66,0,5.35-.07,8-.15l0,1C324.45,642.12,321.75,642.17,319.09,642.19Zm16-.49-.05-1c2.65-.15,5.33-.32,8-.52l.07,1C340.45,641.39,337.76,641.56,335.1,641.7Zm16-1.21-.1-1c2.68-.27,5.35-.57,7.93-.89l.13,1C356.43,639.92,353.75,640.22,351.07,640.49Zm15.89-2-.15-1c2.64-.4,5.29-.83,7.87-1.28l.17,1C372.27,637.69,369.61,638.12,367,638.52Zm15.76-2.76-.2-1c2.59-.52,5.22-1.08,7.8-1.67l.22,1C388,634.68,385.32,635.24,382.72,635.76Zm15.6-3.55-.25-1c2.57-.65,5.16-1.35,7.7-2.07l.27,1C403.5,630.85,400.9,631.55,398.32,632.21Zm15.39-4.35-.3-1c2.51-.78,5.06-1.61,7.58-2.47l.32,1C418.79,626.24,416.23,627.07,413.71,627.86Zm15.14-5.17-.35-.93c2.49-.93,5-1.89,7.44-2.87l.37.92C433.86,620.8,431.34,621.77,428.85,622.69Zm14.85-6-.4-.92c2.42-1,4.87-2.14,7.28-3.26l.42.91C448.58,614.6,446.12,615.69,443.7,616.74ZM458.22,610l-.44-.89c2.35-1.17,4.74-2.39,7.1-3.63l.47.88C463,607.62,460.58,608.85,458.22,610Zm14.16-7.45-.49-.88c2.31-1.29,4.63-2.63,6.91-4l.51.86C477,599.92,474.69,601.26,472.38,602.56Zm13.76-8.16-.53-.85c2.24-1.4,4.5-2.85,6.72-4.31l.55.84C490.65,591.54,488.39,593,486.14,594.4Zm13.37-8.8-.57-.83c2.14-1.48,4.32-3,6.48-4.6l.59.81C503.85,582.56,501.66,584.11,499.51,585.6Zm12.91-9.38-.6-.8c2.08-1.58,4.21-3.23,6.31-4.9l.62.78C516.64,573,514.52,574.63,512.42,576.22Zm12.56-10-.64-.77c2-1.68,4.09-3.42,6.12-5.17l.65.76C529.07,562.83,527,564.57,525,566.25Zm12.15-10.47-.67-.74c1.94-1.74,3.93-3.55,5.9-5.38l.68.73C541.06,552.23,539.07,554,537.13,555.78Zm11.72-10.89-.69-.72c1.89-1.82,3.81-3.7,5.71-5.59l.7.71C552.67,541.18,550.74,543.07,548.85,544.89Zm11.35-11.3-.72-.7c1.85-1.9,3.69-3.83,5.52-5.77l.73.69C563.9,529.75,562.05,531.68,560.2,533.59Zm11-11.65-.74-.68c1.79-2,3.58-3.94,5.35-5.93l.75.66Q573.87,519,571.18,521.94Zm10.63-12-.76-.65q2.61-3,5.19-6.08l.77.64Q584.42,507,581.81,510Zm10.31-12.24-.77-.64q2.53-3.07,5-6.2l.78.62C595.5,493.6,593.81,495.67,592.12,497.73Zm10-12.49-.79-.62c1.64-2.09,3.28-4.2,4.9-6.32l.79.61C605.42,481,603.78,483.14,602.14,485.24Zm9.74-12.71-.8-.6q2.4-3.19,4.77-6.42l.81.6Q614.28,469.34,611.88,472.53Zm9.5-12.89-.81-.59c1.55-2.15,3.11-4.32,4.65-6.5l.82.58Q623.72,456.4,621.38,459.64Zm9.26-13.06-.82-.57q2.29-3.27,4.56-6.57l.82.56Q632.94,443.31,630.64,446.58Zm9.07-13.19-.83-.56c1.5-2.21,3-4.42,4.47-6.64l.83.55C642.69,429,641.21,431.18,639.71,433.39Zm8.89-13.32-.83-.55q2.19-3.33,4.38-6.69l.84.55Q650.8,416.74,648.6,420.07Zm8.73-13.41-.84-.54c1.45-2.24,2.88-4.49,4.32-6.74l.84.54Q659.51,403.3,657.33,406.66Zm8.61-13.5-.85-.54,4.26-6.77.85.53Zm8.49-13.58-.85-.52,4.21-6.81.85.53Zm8.4-13.62-.85-.52,4.17-6.83.85.52Zm8.33-13.67-.85-.52,4.14-6.84.86.52Q693.24,348.87,691.16,352.29Zm8.29-13.69-.86-.52,4.15-6.88.86.51Zm8.29-13.76-.86-.52,4.14-6.88.85.52ZM716,311.09l-.86-.52,4.14-6.86.85.52Zm8.27-13.71-.86-.52q2.07-3.44,4.15-6.85l.85.52Zm8.29-13.68-.85-.52,4.16-6.82.86.52Zm8.34-13.62-.85-.52,4.2-6.79.85.52Zm8.41-13.55-.85-.53q2.12-3.41,4.25-6.79l.85.54Q751.44,253.13,749.32,256.53ZM757.85,243l-.85-.54c1.44-2.25,2.87-4.5,4.31-6.74l.85.54C760.71,238.49,759.28,240.73,757.85,243Zm8.65-13.46-.84-.55q2.18-3.36,4.38-6.7l.83.55C769.41,225.05,768,227.29,766.5,229.53Zm8.79-13.37-.84-.56q2.22-3.33,4.46-6.65l.83.56Q777.51,212.83,775.29,216.16Zm9-13.26-.82-.57c1.51-2.2,3-4.4,4.55-6.58l.82.57C787.27,198.5,785.75,200.7,784.24,202.9Zm9.14-13.13-.81-.58q2.31-3.27,4.65-6.51l.81.58Q795.69,186.5,793.38,189.77Zm9.35-13-.8-.59c1.58-2.16,3.17-4.3,4.77-6.44l.8.6Q805.1,173.57,802.73,176.8Zm9.59-12.8-.79-.61c1.62-2.12,3.25-4.24,4.89-6.34l.79.62Zm9.85-12.6-.78-.63q2.5-3.14,5-6.22l.78.63C825.51,147.24,823.84,149.31,822.17,151.4ZM832.3,139l-.76-.64c1.71-2,3.45-4.09,5.18-6.1l.76.65Q834.89,136,832.3,139Zm10.44-12.11-.75-.66c1.78-2,3.56-4,5.36-6l.74.68Q845.39,123.92,842.74,126.92Zm10.78-11.81-.73-.68q2.75-2.93,5.53-5.79l.71.69Q856.25,112.2,853.52,115.11Zm11.12-11.47-.7-.7c1.89-1.89,3.81-3.78,5.71-5.61l.7.72C868.45,99.88,866.53,101.76,864.64,103.64Zm11.51-11.08-.68-.74c1.95-1.82,3.94-3.63,5.91-5.4l.67.75C880.09,88.93,878.1,90.74,876.15,92.56ZM888,81.9l-.65-.76c2-1.74,4.07-3.48,6.12-5.17l.63.77C892.1,78.43,890.05,80.17,888,81.9Zm12.31-10.19-.62-.78c2.09-1.66,4.22-3.32,6.32-4.91l.6.79C904.56,68.41,902.44,70.05,900.35,71.71Zm12.72-9.65-.59-.81c2.15-1.56,4.35-3.12,6.53-4.63l.57.82C917.4,59,915.21,60.5,913.07,62.06ZM926.2,53l-.55-.83c2.23-1.47,4.5-2.92,6.74-4.32l.53.85C930.68,50.07,928.42,51.52,926.2,53Zm13.52-8.42-.51-.86c2.28-1.35,4.61-2.69,6.93-4l.48.87C944.32,41.88,942,43.21,939.72,44.56Zm13.92-7.75-.47-.89c2.36-1.23,4.76-2.45,7.15-3.62l.44.9C958.38,34.37,956,35.58,953.64,36.81Zm14.36-7-.42-.91c2.41-1.1,4.87-2.19,7.32-3.24l.39.92C972.85,27.57,970.4,28.66,968,29.76Zm14.67-6.26-.37-.93c2.47-1,5-1.94,7.47-2.85l.35.94C987.63,21.57,985.13,22.52,982.67,23.5Zm15-5.48-.32-.95c2.52-.84,5.08-1.66,7.62-2.44l.29,1C1002.71,16.36,1000.15,17.18,997.65,18Zm15.25-4.66-.27-1c2.54-.71,5.14-1.39,7.74-2l.24,1C1018,12,1015.43,12.66,1012.9,13.36Zm15.47-3.84-.21-1c2.59-.57,5.23-1.12,7.83-1.62l.19,1C1033.59,8.4,1031,9,1028.37,9.52Zm15.66-3-.16-1c2.62-.44,5.28-.85,7.9-1.22l.14,1C1049.29,5.64,1046.64,6.05,1044,6.49Zm15.79-2.24-.11-1c2.62-.3,5.29-.58,8-.82l.09,1C1065.1,3.67,1062.43,4,1059.82,4.25Zm15.89-1.45-.07-1c2.64-.18,5.33-.33,8-.45l0,1C1081,2.47,1078.34,2.62,1075.71,2.8Zm15.93-.71,0-1c2.64-.06,5.33-.09,8-.09V2C1097,2,1094.28,2,1091.64,2.09Z" transform="translate(-0.41 -1)"/></g><g class="cls-3"><path class="cls-2" d="M407.05,469.1c-85.09,0-154.31-66.31-154.31-147.82S322,173.46,407.05,173.46s154.31,66.31,154.31,147.82S492.13,469.1,407.05,469.1Zm0-294.64c-84.53,0-153.31,65.86-153.31,146.82S322.52,468.1,407.05,468.1s153.31-65.87,153.31-146.82S491.58,174.46,407.05,174.46Z" transform="translate(-0.41 -1)"/></g><g class="cls-3"><path class="cls-2" d="M1139.12,205.38c-23.25-35.09-56.53-66.59-98.91-93.64C953.09,56.13,837.27,25.51,714.08,25.51S475.07,56.13,388,111.74c-42.38,27.05-75.66,58.55-98.91,93.64-24.09,36.34-36.3,75-36.3,114.77S265,398.56,289,434.91C312.29,470,345.57,501.5,388,528.55c87.12,55.61,202.94,86.23,326.13,86.23s239-30.62,326.13-86.23c42.38-27,75.66-58.56,98.91-93.64,24.09-36.35,36.3-75,36.3-114.76S1163.21,241.72,1139.12,205.38Zm-78.66,308.17a223.53,223.53,0,0,0,24.34-37.75,274.82,274.82,0,0,0,30.26-113.68l-1-.05c-4.32,95.55-56.33,153.19-57,153.91q-8.43,6-17.41,11.73c-87,55.5-202.59,86.07-325.59,86.07s-238.63-30.57-325.59-86.07S253.74,398.53,253.74,320.15,301.6,168,388.49,112.58,591.08,26.51,714.08,26.51s238.63,30.57,325.59,86.07,134.75,129.17,134.75,207.57C1174.42,392,1134.16,460,1060.46,513.55Z" transform="translate(-0.41 -1)"/></g><g class="cls-3"><path class="cls-2" d="M447.18,173.46c-107.21,0-194.44,66.31-194.44,147.82,0,78.35,80.6,142.64,182.07,147.51l.66.08v-.05c3.87.18,7.77.28,11.7.28,107.22,0,194.44-66.31,194.44-147.82S554.4,173.46,447.18,173.46Zm0,294.64q-6.19,0-12.29-.31c-41.8-4.62-70.35-30.23-87-51a182.4,182.4,0,0,1-26.44-44.72l-.94.35a183.93,183.93,0,0,0,26.58,45c15.2,19,40.33,42,76.4,49.58C328,458.12,253.74,396.16,253.74,321.28c0-81,86.78-146.82,193.44-146.82s193.44,65.86,193.44,146.82S553.85,468.1,447.18,468.1Z" transform="translate(-0.41 -1)"/></g><path class="cls-4" d="M371.68,321.6A50.67,50.67,0,1,1,321,270.94,50.66,50.66,0,0,1,371.68,321.6Z" transform="translate(-0.41 -1)"/><path class="cls-5" d="M1126.63,317.4a27.34,27.34,0,1,1-31.21-22.8A27.33,27.33,0,0,1,1126.63,317.4Z" transform="translate(-0.41 -1)"/></svg>