<?xml version="1.0" encoding="utf-8"?>
<!-- Generator: Adobe Illustrator 22.0.1, SVG Export Plug-In . SVG Version: 6.00 Build 0)  -->
<svg version="1.1" id="Tryb_izolacji" xmlns="http://www.w3.org/2000/svg" xmlns:xlink="http://www.w3.org/1999/xlink" x="0px"
	 y="0px" viewBox="0 0 247.8 221.2" style="enable-background:new 0 0 247.8 221.2;" xml:space="preserve">
<style type="text/css">
	.st0{fill:#1C1C1A;}
</style>
<rect x="119.5" y="212.2" class="st0" width="8.5" height="8.5"/>
<rect x="119.5" y="195.3" class="st0" width="8.5" height="8.5"/>
<rect x="119.5" y="178.4" class="st0" width="8.5" height="8.5"/>
<path class="st0" d="M216.5,170.5c0-17.3-14-31.4-31.4-31.4s-31.4,14-31.4,31.4c0,17.3,14,31.4,31.4,31.4S216.5,187.9,216.5,170.5z
	 M160.2,170.5c0-13.8,11.2-25,25-25c13.8,0,25,11.2,25,25c0,13.8-11.2,25-25,25C171.4,195.5,160.2,184.3,160.2,170.5z"/>
<path class="st0" d="M202.9,170.5c0-9.8-7.9-17.7-17.7-17.7c-9.8,0-17.7,7.9-17.7,17.7c0,9.8,7.9,17.7,17.7,17.7
	C194.9,188.2,202.9,180.3,202.9,170.5z M173.8,170.5c0-6.3,5.1-11.3,11.3-11.3c6.3,0,11.3,5.1,11.3,11.3c0,6.3-5.1,11.3-11.3,11.3
	C178.9,181.9,173.8,176.8,173.8,170.5z"/>
<path class="st0" d="M123.9,7c64.7,0,117.3,52.6,117.3,117.3h6.4C247.5,56.1,192,0.6,123.9,0.6C55.7,0.6,0.3,56.1,0.3,124.2h6.4
	C6.6,59.6,59.2,7,123.9,7z"/>
<path class="st0" d="M31.2,170.5c0,17.3,14,31.4,31.4,31.4c17.3,0,31.4-14,31.4-31.4c0-17.3-14-31.4-31.4-31.4
	C45.2,139.2,31.2,153.2,31.2,170.5z M62.5,145.5c13.8,0,25,11.2,25,25c0,13.8-11.2,25-25,25c-13.8,0-25-11.2-25-25
	C37.5,156.7,48.8,145.5,62.5,145.5z"/>
<path class="st0" d="M62.5,188.2c9.8,0,17.7-7.9,17.7-17.7c0-9.8-7.9-17.7-17.7-17.7c-9.8,0-17.7,7.9-17.7,17.7
	C44.9,180.3,52.8,188.2,62.5,188.2z M62.5,159.2c6.3,0,11.4,5.1,11.4,11.3c0,6.3-5.1,11.3-11.4,11.3c-6.3,0-11.3-5.1-11.3-11.3
	C51.2,164.3,56.3,159.2,62.5,159.2z"/>
<path class="st0" d="M231.3,124.2h3.8c0-61.3-49.9-111.2-111.2-111.2c-61.3,0-111.2,49.9-111.2,111.2H16h2.4h26.9
	c-0.1-0.4-0.2-0.7-0.2-1.1v-4.8v-3.1V113l-0.7-0.5c-4.6-3.1-7.7-7.9-8.9-13.3l0-0.2c-0.1-0.3-0.1-0.5-0.1-0.8l-0.1-0.4l-1.6,0.2
	l1.5-0.4c0-0.2,0-0.3-0.1-0.5c0-0.2,0-0.5-0.1-0.8l0-0.4c0-0.4,0-0.8,0-1.2c0-6.2,2.7-12,7.3-16.2l0.7-0.6L42.8,77
	c-0.4-1.7-0.6-3.4-0.6-5.1c0-11.7,9.1-21.1,20.8-21.6l1.4-0.1l0.1-1.4c0-0.2,0-0.3,0.1-0.5l0.1-0.5c0.1-0.3,0.1-0.7,0.2-1l0.1-0.3
	c0-0.2,0.1-0.4,0.2-0.7c0-0.1,0.1-0.3,0.1-0.4l0.1-0.2c0-0.1,0.1-0.3,0.1-0.4l0.5-1.4c0.1-0.2,0.1-0.3,0.2-0.5l0.2-0.5
	c0.1-0.2,0.1-0.3,0.2-0.5c0.1-0.1,0.1-0.3,0.2-0.4l0.3-0.5c0.1-0.1,0.1-0.3,0.2-0.4l0.5-0.9c0.1-0.1,0.2-0.3,0.3-0.5
	c0.1-0.1,0.2-0.2,0.2-0.4c0.1-0.1,0.2-0.3,0.4-0.5l0.2-0.3c0.1-0.1,0.2-0.3,0.3-0.4c0.1-0.1,0.2-0.2,0.3-0.3
	c0.1-0.1,0.2-0.3,0.4-0.4l0.3-0.3c0.1-0.1,0.3-0.3,0.4-0.4l0.3-0.3c0.1-0.1,0.2-0.2,0.3-0.3l0.4-0.4c0.2-0.2,0.5-0.4,0.7-0.6
	l0.2-0.2c0.2-0.2,0.4-0.3,0.6-0.5l0.4-0.3c0.1-0.1,0.2-0.2,0.4-0.3l0.4-0.3c0.1-0.1,0.3-0.2,0.4-0.3l0.6-0.3
	c0.1-0.1,0.2-0.1,0.3-0.2L76,32c0.1-0.1,0.3-0.2,0.4-0.2l2.3-1c0.2-0.1,0.3-0.1,0.5-0.2l0.4-0.1c0.2-0.1,0.4-0.1,0.6-0.2l0.4-0.1
	c0.2-0.1,0.4-0.1,0.6-0.1c0.1,0,0.3-0.1,0.4-0.1c0.2,0,0.4-0.1,0.6-0.1l1.5-0.2c0.2,0,0.5,0,0.7,0l0.4,0c4-0.2,7.8,0.7,11.3,2.6
	l0.6,0.3l0.7-0.2c8-2.7,16.4-4.1,24.9-4.1c8.5,0,16.9,1.4,24.9,4.1l0.7,0.2l0.6-0.3c3.2-1.7,6.6-2.6,10.3-2.6c0.4,0,0.7,0,1.1,0
	l0.5,0c0.2,0,0.4,0,0.5,0l0.5,0.1c0.2,0,0.4,0.1,0.6,0.1l0.5,0.1c0.2,0,0.4,0.1,0.6,0.1l1.5,0.3c0.2,0,0.4,0.1,0.6,0.2l0.5,0.1
	c0.2,0.1,0.3,0.1,0.5,0.2c0.1,0,0.3,0.1,0.4,0.1l1,0.4c0.2,0.1,0.3,0.2,0.6,0.3c0.1,0.1,0.2,0.1,0.4,0.2c0.1,0.1,0.2,0.1,0.3,0.2
	l1.1,0.6c0.1,0.1,0.2,0.1,0.4,0.2c0.1,0.1,0.3,0.2,0.5,0.3l0.4,0.2c0.2,0.1,0.3,0.2,0.5,0.3l0.3,0.3c0.2,0.1,0.4,0.3,0.6,0.4
	l0.2,0.2c0.2,0.2,0.5,0.4,0.8,0.7c0.1,0,0.1,0.1,0.2,0.2c0.2,0.2,0.3,0.3,0.5,0.4l0.3,0.3c0.1,0.1,0.3,0.3,0.4,0.4l0.3,0.4
	c0.1,0.1,0.2,0.2,0.3,0.4c0.1,0.1,0.2,0.2,0.3,0.3l0.1,0.1c0.1,0.1,0.2,0.2,0.2,0.3l0.3,0.4c0.1,0.1,0.2,0.3,0.3,0.4
	c0.1,0.1,0.2,0.2,0.3,0.4c0.1,0.1,0.2,0.3,0.3,0.4l1,1.8c0.1,0.1,0.1,0.3,0.2,0.4l0.4,0.9c0.1,0.2,0.1,0.3,0.2,0.5
	c0.1,0.1,0.1,0.3,0.2,0.4c0.1,0.2,0.1,0.3,0.2,0.6l0.1,0.4c0.1,0.2,0.1,0.4,0.2,0.6l0.1,0.4c0.1,0.2,0.1,0.4,0.2,0.7l0.1,0.3
	c0.1,0.3,0.1,0.7,0.2,1l0.1,0.4c0,0.2,0.1,0.3,0.1,0.5l0.1,1.4l1.4,0.1c11.6,0.5,20.8,10,20.8,21.6c0,1.7-0.2,3.5-0.6,5.1l-0.2,0.9
	l0.7,0.6c4.6,4.1,7.3,10,7.3,16.2c0,0.4,0,0.8,0,1.3c0,0.1,0,0.2,0,0.3l0,0.2c0,0.2,0,0.5-0.1,0.7c0,0.2-0.1,0.4-0.1,0.6l-0.1,0.5
	c0,0.3-0.1,0.5-0.2,0.8l0,0.1c-1.1,5.4-4.3,10.2-8.8,13.3l-0.7,0.5v5.3h-0.1v4.8c0,0.4-0.1,0.8-0.2,1.1h29.8H231.3z"/>
<path class="st0" d="M49.5,82.6c-4.3,2.5-6.9,7.2-6.9,12.1c0,0.4,0,0.9,0.1,1.3l0,0.3c0,0.4,0.1,0.8,0.2,1.2c0.8,4,3.4,7.5,7.1,9.6
	l0.1,0c2,1.1,4.3,1.7,6.6,1.7c3.5,0,6.8-1.3,9.4-3.6c1.5-1.3,4-1.2,5.3,0.3c1.4,1.5,1.3,3.9-0.3,5.3c-4,3.6-9.1,5.5-14.5,5.5
	c-0.8,0-1.5,0-2.3-0.1l-1.8-0.2v2.3v4.8c0,0.4-0.1,0.8-0.2,1.1h66.5c-0.1-0.4-0.2-0.7-0.2-1.1v-4.8v-3.1v-4.8c0-2.1,1.7-3.8,3.8-3.8
	c2.1,0,3.8,1.7,3.8,3.8v4.8v3.1v4.8c0,0.4-0.1,0.8-0.2,1.1h66.4c-0.1-0.4-0.2-0.7-0.2-1.1v-7.1l-1.7,0.2c-0.8,0.1-1.6,0.1-2.3,0.1
	c-5.4,0-10.5-2-14.5-5.5c-1.5-1.4-1.7-3.8-0.3-5.3c1.3-1.5,3.8-1.6,5.3-0.3c2.6,2.3,5.9,3.6,9.4,3.6c2.3,0,4.6-0.6,6.7-1.7l0.1-0.1
	c3.6-2,6.2-5.5,7-9.5c0.1-0.4,0.1-0.8,0.2-1.2c0-0.1,0-0.2,0-0.3c0-0.4,0.1-0.9,0.1-1.3c0-5-2.7-9.6-6.9-12.1
	c-1.7-1-2.3-3.1-1.5-4.8c0.9-1.9,1.3-3.8,1.3-5.9c0-7.8-6.3-14.1-14.1-14.1c-0.1,0-0.2,0-0.3,0l-1.2,0l-0.4,1
	c-2,5.3-6.1,9.6-11.2,12l-0.9,0.4l0,1.1C167.2,80,173.4,86,181,86c2.1,0,3.8,1.7,3.8,3.8c0,2.1-1.7,3.8-3.8,3.8
	c-11.1,0-20.3-8.3-21.5-19.3l-0.1-1.4l-1.4-0.1c-4.5-0.2-9-1.8-12.6-4.6c-1.6-1.3-1.9-3.7-0.6-5.3c0.7-0.9,1.8-1.4,3-1.4
	c0.9,0,1.7,0.3,2.3,0.8c2.5,2,5.5,3,8.7,3c6.9,0,12.9-5.1,13.9-11.9l0-0.2c0-0.2,0.1-0.4,0.1-0.6c0-0.4,0.1-0.9,0.1-1.4
	c0-7.8-6.3-14.1-14.1-14.1c-3,0-5.8,0.9-8.2,2.6c-1,0.7-2.4,0.9-3.5,0.5c-7.9-3-16.2-4.5-24.7-4.5c-8.5,0-16.8,1.5-24.7,4.5
	c-1.2,0.4-2.5,0.3-3.5-0.5C91.8,38,89,37.1,86,37.1c-7.8,0-14.1,6.3-14.1,14.1c0,0.5,0,0.9,0.1,1.4c0,0.2,0.1,0.4,0.1,0.6l0,0.2
	c1.1,6.8,7,11.9,13.9,11.9c3.2,0,6.2-1,8.7-3c0.7-0.5,1.5-0.8,2.3-0.8c1.2,0,2.2,0.5,3,1.4c1.3,1.6,1,4-0.6,5.3
	c-3.5,2.8-8,4.5-12.6,4.6l-1.4,0.1l-0.1,1.4c-1.2,11-10.4,19.3-21.5,19.3c-2.1,0-3.8-1.7-3.8-3.8c0-2.1,1.7-3.8,3.8-3.8
	c7.7,0,13.8-6,14.1-13.7l0-1.1l-1-0.4c-5.1-2.4-9.2-6.7-11.2-12l-0.4-1l-1.2,0c-0.1,0-0.2,0-0.3,0c-7.8,0-14.1,6.3-14.1,14.1
	c0,2.1,0.4,4,1.3,5.9C51.9,79.5,51.2,81.6,49.5,82.6z M143.9,88.8c7.2,0,13.1,5.9,13.1,13.1c0,2.1-1.7,3.8-3.8,3.8
	c-2.1,0-3.8-1.7-3.8-3.8c0-3-2.5-5.5-5.5-5.5c-2.1,0-3.8-1.7-3.8-3.8C140.1,90.5,141.8,88.8,143.9,88.8z M118.7,50.4
	c0-2.1,1.7-3.8,3.8-3.8c2.1,0,3.8,1.7,3.8,3.8v37.2c0,2.1-1.7,3.8-3.8,3.8c-2.1,0-3.8-1.7-3.8-3.8V50.4z M101,88.8
	c2.1,0,3.8,1.7,3.8,3.8c0,2.1-1.7,3.8-3.8,3.8c-3,0-5.5,2.5-5.5,5.5c0,2.1-1.7,3.8-3.8,3.8c-2.1,0-3.8-1.7-3.8-3.8
	C87.9,94.7,93.8,88.8,101,88.8z"/>
</svg>
