<?xml version="1.0" encoding="utf-8"?>
<!-- Generator: Adobe Illustrator 22.0.1, SVG Export Plug-In . SVG Version: 6.00 Build 0)  -->
<svg version="1.1" id="Tryb_izolacji" xmlns="http://www.w3.org/2000/svg" xmlns:xlink="http://www.w3.org/1999/xlink" x="0px"
	 y="0px" viewBox="0 0 247.8 221.2" style="enable-background:new 0 0 247.8 221.2;" xml:space="preserve">
<style type="text/css">
	.st0{fill:white;}
</style>
<g>
	<g>
		<path class="st0" d="M209.7,67.7c-2.9,0-5.6,1.1-7.7,3.2l-2.6,2.6c-1.1,1.1-2.8,1.1-3.8,0l-2.6-2.6c-2-2.1-4.8-3.2-7.6-3.2
			c-2.9,0-5.6,1.1-7.6,3.2c-2,2-3.2,4.7-3.2,7.6c0,2.9,1.1,5.6,3.2,7.6l19.8,19.8l19.8-19.7c2.1-2.1,3.2-4.8,3.2-7.7
			c0-2.9-1.1-5.6-3.2-7.6C215.3,68.8,212.6,67.7,209.7,67.7z"/>
		<path class="st0" d="M197.6,33.9c-27.7,0-50.2,22.5-50.2,50.2c0,19.1,10.7,36.3,27.9,44.9l3.1,1.5l-1.1,3.3
			c-2.2,6.5-5.1,12.2-7.4,16.4c7.4-1.2,19.3-4.7,30.2-15.1l1-1l1.4-0.1c25.8-2.5,45.3-24,45.3-49.9
			C247.8,56.5,225.2,33.9,197.6,33.9z M221.2,90l-21.8,21.7c-0.5,0.5-1.2,0.8-1.9,0.8c-0.7,0-1.4-0.3-1.9-0.8L174,89.9
			c-3.1-3.1-4.8-7.1-4.8-11.5c0-4.3,1.7-8.4,4.7-11.5c3-3.1,7.1-4.8,11.5-4.8c4.3,0,8.4,1.7,11.5,4.8l0.7,0.7l0.7-0.7
			c3.1-3.1,7.2-4.8,11.5-4.8c4.3,0,8.4,1.7,11.5,4.8c3.1,3.1,4.7,7.1,4.7,11.5C226,82.8,224.3,86.9,221.2,90z"/>
	</g>
	<g>
		<path class="st0" d="M163.3,158.5L163.3,158.5c-0.3,0-0.5,0-0.7,0c-1.7,5.2-24.2,18.8-55.5,18.8c-32.6,0-55.7-14.7-55.7-19.4
			l0-50.3c1.3-4.6,34.1-11.2,55.7-11.2c10.5,0,23.8,1.6,34.7,3.7c-0.5-1.7-0.9-3.4-1.2-5.1c-13.6-2.4-28.2-3.4-33.4-3.4
			c-10.7,0-60.5,4.1-60.5,15.9v50.4c0,9.3,27.7,24.1,60.5,24.1c32.3,0,59.6-14.4,60.4-23.7C165.7,158.5,164.3,158.5,163.3,158.5z"/>
	</g>
	<g>
		<path class="st0" d="M157.4,126.1c-5.7-5.4-10.2-11.8-13.2-19c-14.8-3.3-36.7-4-37-4c-0.5,0-50.3,1.6-50.3,11.4v36.7
			c0,7.3,24.3,19.4,50.3,19.4c25.9,0,50.3-12.1,50.3-19.4V126.1z M134.7,120c-0.4,1.4-1.9,2.2-3.4,1.8c0,0,0,0-0.1,0
			c-20.1-5.9-40.7-3.5-58.3,5.2c-0.6,0.3-1.4,0.4-2.1,0.2c-1.4-0.4-2.2-1.9-1.8-3.4c0.2-0.8,0.8-1.4,1.6-1.7l0,0
			c18.8-9.4,40.8-11.9,62.3-5.6C134.3,117.1,135.1,118.6,134.7,120z M145.1,123.1c-0.4,1.4-1.9,2.3-3.4,1.8
			c-1.4-0.4-2.3-1.9-1.8-3.4c0.4-1.4,1.9-2.2,3.4-1.8C144.7,120.2,145.5,121.7,145.1,123.1z"/>
	</g>
	<path class="st0" d="M188.1,193.7c8.1,0.3,15.8,2.6,22.4,6.5v-5.5v-9.9v-43.9c-1.6,0.4-3.2,0.6-4.8,0.9v0.2v50.5l-2.1-0.7
		c-5.5-1.9-11.3-2.9-17.1-2.9h-19.6l2.2-2.6c8-9.4,13.7-20.4,16.7-32.2c-1.9,0.8-3.8,1.5-5.6,2.1c-9.6,31.2-38.8,54-73.1,54
		c-42.2,0-76.5-34.3-76.5-76.5s34.3-76.5,76.5-76.5c12.7,0,24.8,3.2,35.3,8.7c0.5-1.6,1.1-3.1,1.7-4.6c-11.3-5.8-23.9-9-37.1-9
		c-24.7,0-47.8,11.1-63.4,30.5l-0.5,0.6H29.7l0-14.6C29.6,50.1,44.8,35,63.3,35h103.2h0c2.2-1.4,4.5-2.7,6.9-3.8
		c-2.2-0.7-4.5-1.1-6.9-1.1H73.5C67.8,12,48.7,1.3,30.1,6.2C11.1,11.3-0.3,30.9,4.8,50c2.9,10.7,10.3,19.1,20,23.4v9.9l-1.5,0
		C10.4,83.7,0,94.4,0,107.2v22.4c0,2.9,1.1,5.6,3.2,7.6l0.5,0.5v38.7v18.3v5.5c6.4-3.7,13.7-6,21.6-6.4v-0.1h2.2l0.3,0l0,0h7h4.5h13
		l0.5,0.4c15,13.5,34.2,20.9,54.3,20.9c20.1,0,39.4-7.4,54.3-20.9l0.5-0.4L188.1,193.7z M29.2,50.9c-1.8-1.8-3.1-4-3.8-6.4
		c-2.1-7.7,2.5-15.6,10.2-17.7c5.9-1.6,11.8,0.8,15.3,5.5C41.5,35.5,33.7,42.2,29.2,50.9z M9.8,48.6c-4.3-16.3,5.4-33,21.6-37.4
		c15.3-4.1,31.1,4.3,36.5,18.9h-4.6c-2.4,0-4.7,0.2-7,0.7c-4.4-7.5-13.3-11.4-22-9.1c-10.5,2.8-16.8,13.6-14,24.1
		c1.1,4.1,3.5,7.6,6.7,10.1c-1.3,3.6-2,7.5-2.1,11.5C17.6,63.6,12.1,56.9,9.8,48.6z M4.8,129.6v-22.4c0-10.5,8.5-19.1,19-19.1h15.7
		l-1.5,2.4c-8.1,12.9-12.3,27.8-12.3,43v1.6l-1.6,0.3H10.8C7.5,135.5,4.8,132.9,4.8,129.6z M27.7,188.8c-5.8,0-11.6,1-17.1,2.9
		l-2.1,0.7v-52.1l1.7,0.1c0.7,0,14.4,0,14.4,0H26l0.1,1.4c1.6,16.4,8.2,31.7,18.9,44.4l2.2,2.6H27.7z"/>
</g>
</svg>
