<?xml version="1.0" encoding="utf-8"?>
<!-- Generator: Adobe Illustrator 22.0.1, SVG Export Plug-In . SVG Version: 6.00 Build 0)  -->
<svg version="1.1" id="Warstwa_1" xmlns="http://www.w3.org/2000/svg" xmlns:xlink="http://www.w3.org/1999/xlink" x="0px" y="0px"
	 viewBox="0 0 1586.9 644.8" style="enable-background:new 0 0 1586.9 644.8;" xml:space="preserve">
<g>
	<g>
		<g>
			<rect x="1.9" y="323.1" width="4" height="1"/>
		</g>
		<g>
			<path d="M1572.9,324.1h-8v-1h8V324.1z M1556.9,324.1h-8v-1h8V324.1z M1540.9,324.1h-8v-1h8V324.1z M1525,324.1h-8v-1h8V324.1z
				 M1509,324.1h-8v-1h8V324.1z M1493,324.1h-8v-1h8V324.1z M1477,324.1h-8v-1h8V324.1z M1461,324.1h-8v-1h8V324.1z M1445,324.1h-8
				v-1h8V324.1z M1429,324.1h-8v-1h8V324.1z M1413,324.1h-8v-1h8V324.1z M1397,324.1h-8v-1h8V324.1z M1381,324.1h-8v-1h8V324.1z
				 M1365.1,324.1h-8v-1h8V324.1z M1349.1,324.1h-8v-1h8V324.1z M1333.1,324.1h-8v-1h8V324.1z M1317.1,324.1h-8v-1h8V324.1z
				 M1301.1,324.1h-8v-1h8V324.1z M1285.1,324.1h-8v-1h8V324.1z M1269.1,324.1h-8v-1h8V324.1z M1253.1,324.1h-8v-1h8V324.1z
				 M1237.1,324.1h-8v-1h8V324.1z M1221.2,324.1h-8v-1h8V324.1z M1205.2,324.1h-8v-1h8V324.1z M1189.2,324.1h-8v-1h8V324.1z
				 M1173.2,324.1h-8v-1h8V324.1z M1157.2,324.1h-8v-1h8V324.1z M1141.2,324.1h-8v-1h8V324.1z M1125.2,324.1h-8v-1h8V324.1z
				 M1109.2,324.1h-8v-1h8V324.1z M1093.2,324.1h-8v-1h8V324.1z M1077.2,324.1h-8v-1h8V324.1z M1061.3,324.1h-8v-1h8V324.1z
				 M1045.3,324.1h-8v-1h8V324.1z M1029.3,324.1h-8v-1h8V324.1z M1013.3,324.1h-8v-1h8V324.1z M997.3,324.1h-8v-1h8V324.1z
				 M981.3,324.1h-8v-1h8V324.1z M965.3,324.1h-8v-1h8V324.1z M949.3,324.1h-8v-1h8V324.1z M933.3,324.1h-8v-1h8V324.1z
				 M917.3,324.1h-8v-1h8V324.1z M901.4,324.1h-8v-1h8V324.1z M885.4,324.1h-8v-1h8V324.1z M869.4,324.1h-8v-1h8V324.1z
				 M853.4,324.1h-8v-1h8V324.1z M837.4,324.1h-8v-1h8V324.1z M821.4,324.1h-8v-1h8V324.1z M805.4,324.1h-8v-1h8V324.1z
				 M789.4,324.1h-8v-1h8V324.1z M773.4,324.1h-8v-1h8V324.1z M757.4,324.1h-8v-1h8V324.1z M741.5,324.1h-8v-1h8V324.1z
				 M725.5,324.1h-8v-1h8V324.1z M709.5,324.1h-8v-1h8V324.1z M693.5,324.1h-8v-1h8V324.1z M677.5,324.1h-8v-1h8V324.1z
				 M661.5,324.1h-8v-1h8V324.1z M645.5,324.1h-8v-1h8V324.1z M629.5,324.1h-8v-1h8V324.1z M613.5,324.1h-8v-1h8V324.1z
				 M597.5,324.1h-8v-1h8V324.1z M581.6,324.1h-8v-1h8V324.1z M565.6,324.1h-8v-1h8V324.1z M549.6,324.1h-8v-1h8V324.1z
				 M533.6,324.1h-8v-1h8V324.1z M517.6,324.1h-8v-1h8V324.1z M501.6,324.1h-8v-1h8V324.1z M485.6,324.1h-8v-1h8V324.1z
				 M469.6,324.1h-8v-1h8V324.1z M453.6,324.1h-8v-1h8V324.1z M437.6,324.1h-8v-1h8V324.1z M421.7,324.1h-8v-1h8V324.1z
				 M405.7,324.1h-8v-1h8V324.1z M389.7,324.1h-8v-1h8V324.1z M373.7,324.1h-8v-1h8V324.1z M357.7,324.1h-8v-1h8V324.1z
				 M341.7,324.1h-8v-1h8V324.1z M325.7,324.1h-8v-1h8V324.1z M309.7,324.1h-8v-1h8V324.1z M293.7,324.1h-8v-1h8V324.1z
				 M277.7,324.1h-8v-1h8V324.1z M261.8,324.1h-8v-1h8V324.1z M245.8,324.1h-8v-1h8V324.1z M229.8,324.1h-8v-1h8V324.1z
				 M213.8,324.1h-8v-1h8V324.1z M197.8,324.1h-8v-1h8V324.1z M181.8,324.1h-8v-1h8V324.1z M165.8,324.1h-8v-1h8V324.1z
				 M149.8,324.1h-8v-1h8V324.1z M133.8,324.1h-8v-1h8V324.1z M117.8,324.1h-8v-1h8V324.1z M101.9,324.1h-8v-1h8V324.1z M85.9,324.1
				h-8v-1h8V324.1z M69.9,324.1h-8v-1h8V324.1z M53.9,324.1h-8v-1h8V324.1z M37.9,324.1h-8v-1h8V324.1z M21.9,324.1h-8v-1h8V324.1z"
				/>
		</g>
		<g>
			<rect x="1580.9" y="323.1" width="4" height="1"/>
		</g>
	</g>
	<g>
		<path d="M1090.4,642.9h-8.3v-1h7.2l0.4-0.2L1090.4,642.9z M1074.1,642.9h-8v-1h8V642.9z M1058.1,642.9h-8v-1h8V642.9z
			 M1042.1,642.9h-8v-1h8V642.9z M1026.1,642.9h-8v-1h8V642.9z M1010.1,642.9h-8v-1h8V642.9z M994.1,642.9h-8v-1h8V642.9z
			 M978.1,642.9h-8v-1h8V642.9z M962.1,642.9h-8v-1h8V642.9z M946.1,642.9h-8v-1h8V642.9z M930.1,642.9h-8v-1h8V642.9z M914.1,642.9
			h-8v-1h8V642.9z M898.1,642.9h-8v-1h8V642.9z M882.1,642.9h-8v-1h8V642.9z M866.1,642.9h-8v-1h8V642.9z M850.1,642.9h-8v-1h8
			V642.9z M834.1,642.9h-8v-1h8V642.9z M818.1,642.9h-8v-1h8V642.9z M802.1,642.9h-8v-1h8V642.9z M786.1,642.9h-8v-1h8V642.9z
			 M770.1,642.9h-8v-1h8V642.9z M754.1,642.9h-8v-1h8V642.9z M738.1,642.9h-8v-1h8V642.9z M722.1,642.9h-8v-1h8V642.9z M706.1,642.9
			h-8v-1h8V642.9z M690.1,642.9h-8v-1h8V642.9z M674.1,642.9h-8v-1h8V642.9z M658.1,642.9h-8v-1h8V642.9z M642.1,642.9h-8v-1h8
			V642.9z M626.1,642.9h-8v-1h8V642.9z M610.1,642.9h-8v-1h8V642.9z M594.1,642.9h-8v-1h8V642.9z M578.1,642.9h-8v-1h8V642.9z
			 M562.1,642.9h-8v-1h8V642.9z M546.1,642.9h-8v-1h8V642.9z M530.1,642.9h-8v-1h8V642.9z M514.1,642.9h-8v-1h8V642.9z M498.1,642.9
			h-1.7l4.4-7.7l0.9,0.5l-3.6,6.2V642.9z M1084.8,635.2l-4-6.9l0.9-0.5l4,6.9L1084.8,635.2z M505.7,628.8l-0.9-0.5l4-6.9l0.9,0.5
			L505.7,628.8z M1076.8,621.3l-4-6.9l0.9-0.5l4,6.9L1076.8,621.3z M513.7,614.9l-0.9-0.5l4-6.9l0.9,0.5L513.7,614.9z M1068.8,607.5
			l-4-6.9l0.9-0.5l4,6.9L1068.8,607.5z M521.7,601l-0.9-0.5l4-6.9l0.9,0.5L521.7,601z M1060.8,593.6l-4-6.9l0.9-0.5l4,6.9
			L1060.8,593.6z M529.7,587.2l-0.9-0.5l4-6.9l0.9,0.5L529.7,587.2z M1052.8,579.8l-4-6.9l0.9-0.5l4,6.9L1052.8,579.8z M537.7,573.3
			l-0.9-0.5l4-6.9l0.9,0.5L537.7,573.3z M1044.8,565.9l-4-6.9l0.9-0.5l4,6.9L1044.8,565.9z M545.7,559.5l-0.9-0.5l4-6.9l0.9,0.5
			L545.7,559.5z M1036.8,552.1l-4-6.9l0.9-0.5l4,6.9L1036.8,552.1z M553.7,545.6l-0.9-0.5l4-6.9l0.9,0.5L553.7,545.6z M1028.8,538.2
			l-4-6.9l0.9-0.5l4,6.9L1028.8,538.2z M561.7,531.8l-0.9-0.5l4-6.9l0.9,0.5L561.7,531.8z M1020.8,524.3l-4-6.9l0.9-0.5l4,6.9
			L1020.8,524.3z M569.7,517.9l-0.9-0.5l4-6.9l0.9,0.5L569.7,517.9z M1012.8,510.5l-4-6.9l0.9-0.5l4,6.9L1012.8,510.5z M577.7,504.1
			l-0.9-0.5l4-6.9l0.9,0.5L577.7,504.1z M1004.8,496.6l-4-6.9l0.9-0.5l4,6.9L1004.8,496.6z M585.7,490.2l-0.9-0.5l4-6.9l0.9,0.5
			L585.7,490.2z M996.8,482.8l-4-6.9l0.9-0.5l4,6.9L996.8,482.8z M593.7,476.3l-0.9-0.5l4-6.9l0.9,0.5L593.7,476.3z M988.8,468.9
			l-4-6.9l0.9-0.5l4,6.9L988.8,468.9z M601.7,462.5l-0.9-0.5l4-6.9l0.9,0.5L601.7,462.5z M980.8,455.1l-4-6.9l0.9-0.5l4,6.9
			L980.8,455.1z M609.7,448.6l-0.9-0.5l4-6.9l0.9,0.5L609.7,448.6z M972.8,441.2l-4-6.9l0.9-0.5l4,6.9L972.8,441.2z M617.7,434.8
			l-0.9-0.5l4-6.9l0.9,0.5L617.7,434.8z M964.8,427.4l-4-6.9l0.9-0.5l4,6.9L964.8,427.4z M625.7,420.9l-0.9-0.5l4-6.9l0.9,0.5
			L625.7,420.9z M956.8,413.5l-4-6.9l0.9-0.5l4,6.9L956.8,413.5z M633.7,407.1l-0.9-0.5l4-6.9l0.9,0.5L633.7,407.1z M948.8,399.6
			l-4-6.9l0.9-0.5l4,6.9L948.8,399.6z M641.7,393.2l-0.9-0.5l4-6.9l0.9,0.5L641.7,393.2z M940.8,385.8l-4-6.9l0.9-0.5l4,6.9
			L940.8,385.8z M649.7,379.3l-0.9-0.5l4-6.9l0.9,0.5L649.7,379.3z M932.8,371.9l-4-6.9l0.9-0.5l4,6.9L932.8,371.9z M657.7,365.5
			l-0.9-0.5l4-6.9l0.9,0.5L657.7,365.5z M924.8,358.1l-4-6.9l0.9-0.5l4,6.9L924.8,358.1z M665.7,351.6l-0.9-0.5l4-6.9l0.9,0.5
			L665.7,351.6z M916.8,344.2l-4-6.9l0.9-0.5l4,6.9L916.8,344.2z M673.7,337.8l-0.9-0.5l4-6.9l0.9,0.5L673.7,337.8z M908.8,330.4
			l-4-6.9l0.9-0.5l4,6.9L908.8,330.4z M681.7,323.9l-0.9-0.5l4-6.9l0.9,0.5L681.7,323.9z M900.8,316.5l-4-6.9l0.9-0.5l4,6.9
			L900.8,316.5z M689.7,310.1l-0.9-0.5l4-6.9l0.9,0.5L689.7,310.1z M892.8,302.6l-4-6.9l0.9-0.5l4,6.9L892.8,302.6z M697.7,296.2
			l-0.9-0.5l4-6.9l0.9,0.5L697.7,296.2z M884.8,288.8l-4-6.9l0.9-0.5l4,6.9L884.8,288.8z M705.7,282.3l-0.9-0.5l4-6.9l0.9,0.5
			L705.7,282.3z M876.8,274.9l-4-6.9l0.9-0.5l4,6.9L876.8,274.9z M713.7,268.5l-0.9-0.5l4-6.9l0.9,0.5L713.7,268.5z M868.8,261.1
			l-4-6.9l0.9-0.5l4,6.9L868.8,261.1z M721.7,254.6l-0.9-0.5l4-6.9l0.9,0.5L721.7,254.6z M860.8,247.2l-4-6.9l0.9-0.5l4,6.9
			L860.8,247.2z M729.7,240.8l-0.9-0.5l4-6.9l0.9,0.5L729.7,240.8z M852.8,233.4l-4-6.9l0.9-0.5l4,6.9L852.8,233.4z M737.7,226.9
			l-0.9-0.5l4-6.9l0.9,0.5L737.7,226.9z M844.8,219.5l-4-6.9l0.9-0.5l4,6.9L844.8,219.5z M745.7,213.1l-0.9-0.5l4-6.9l0.9,0.5
			L745.7,213.1z M836.8,205.6l-4-6.9l0.9-0.5l4,6.9L836.8,205.6z M753.7,199.2l-0.9-0.5l4-6.9l0.9,0.5L753.7,199.2z M828.8,191.8
			l-4-6.9l0.9-0.5l4,6.9L828.8,191.8z M761.7,185.4l-0.9-0.5l4-6.9l0.9,0.5L761.7,185.4z M820.8,177.9l-4-6.9l0.9-0.5l4,6.9
			L820.8,177.9z M769.7,171.5l-0.9-0.5l4-6.9l0.9,0.5L769.7,171.5z M812.8,164.1l-4-6.9l0.9-0.5l4,6.9L812.8,164.1z M777.7,157.6
			l-0.9-0.5l4-6.9l0.9,0.5L777.7,157.6z M804.8,150.2l-4-6.9l0.9-0.5l4,6.9L804.8,150.2z M785.7,143.8l-0.9-0.5l4-6.9l0.9,0.5
			L785.7,143.8z M796.8,136.4l-3.9-6.7l0.1-0.1l-0.3-0.2l0.6-1l4.3,7.4L796.8,136.4z"/>
	</g>
	<g>
		<path d="M1090.4,517h-8.3v-1h7.2l0.4-0.2L1090.4,517z M1074.1,517h-8v-1h8V517z M1058.1,517h-8v-1h8V517z M1042.1,517h-8v-1h8V517
			z M1026.1,517h-8v-1h8V517z M1010.1,517h-8v-1h8V517z M994.1,517h-8v-1h8V517z M978.1,517h-8v-1h8V517z M962.1,517h-8v-1h8V517z
			 M946.1,517h-8v-1h8V517z M930.1,517h-8v-1h8V517z M914.1,517h-8v-1h8V517z M898.1,517h-8v-1h8V517z M882.1,517h-8v-1h8V517z
			 M866.1,517h-8v-1h8V517z M850.1,517h-8v-1h8V517z M834.1,517h-8v-1h8V517z M818.1,517h-8v-1h8V517z M802.1,517h-8v-1h8V517z
			 M786.1,517h-8v-1h8V517z M770.1,517h-8v-1h8V517z M754.1,517h-8v-1h8V517z M738.1,517h-8v-1h8V517z M722.1,517h-8v-1h8V517z
			 M706.1,517h-8v-1h8V517z M690.1,517h-8v-1h8V517z M674.1,517h-8v-1h8V517z M658.1,517h-8v-1h8V517z M642.1,517h-8v-1h8V517z
			 M626.1,517h-8v-1h8V517z M610.1,517h-8v-1h8V517z M594.1,517h-8v-1h8V517z M578.1,517h-8v-1h8V517z M562.1,517h-8v-1h8V517z
			 M546.1,517h-8v-1h8V517z M530.1,517h-8v-1h8V517z M514.1,517h-8v-1h8V517z M498.1,517h-1.7l4.4-7.7l0.9,0.5l-3.6,6.2V517z
			 M1084.8,509.3l-4-6.9l0.9-0.5l4,6.9L1084.8,509.3z M505.7,502.9l-0.9-0.5l4-6.9l0.9,0.5L505.7,502.9z M1076.8,495.5l-4-6.9
			l0.9-0.5l4,6.9L1076.8,495.5z M513.7,489.1l-0.9-0.5l4-6.9l0.9,0.5L513.7,489.1z M1068.8,481.6l-4-6.9l0.9-0.5l4,6.9L1068.8,481.6
			z M521.7,475.2l-0.9-0.5l4-6.9l0.9,0.5L521.7,475.2z M1060.8,467.8l-4-6.9l0.9-0.5l4,6.9L1060.8,467.8z M529.7,461.3l-0.9-0.5
			l4-6.9l0.9,0.5L529.7,461.3z M1052.8,453.9l-4-6.9l0.9-0.5l4,6.9L1052.8,453.9z M537.7,447.5l-0.9-0.5l4-6.9l0.9,0.5L537.7,447.5z
			 M1044.8,440.1l-4-6.9l0.9-0.5l4,6.9L1044.8,440.1z M545.7,433.6l-0.9-0.5l4-6.9l0.9,0.5L545.7,433.6z M1036.8,426.2l-4-6.9
			l0.9-0.5l4,6.9L1036.8,426.2z M553.7,419.8l-0.9-0.5l4-6.9l0.9,0.5L553.7,419.8z M1028.8,412.4l-4-6.9l0.9-0.5l4,6.9L1028.8,412.4
			z M561.7,405.9l-0.9-0.5l4-6.9l0.9,0.5L561.7,405.9z M1020.8,398.5l-4-6.9l0.9-0.5l4,6.9L1020.8,398.5z M569.7,392.1l-0.9-0.5
			l4-6.9l0.9,0.5L569.7,392.1z M1012.8,384.6l-4-6.9l0.9-0.5l4,6.9L1012.8,384.6z M577.7,378.2l-0.9-0.5l4-6.9l0.9,0.5L577.7,378.2z
			 M1004.8,370.8l-4-6.9l0.9-0.5l4,6.9L1004.8,370.8z M585.7,364.3l-0.9-0.5l4-6.9l0.9,0.5L585.7,364.3z M996.8,356.9l-4-6.9
			l0.9-0.5l4,6.9L996.8,356.9z M593.7,350.5l-0.9-0.5l4-6.9l0.9,0.5L593.7,350.5z M988.8,343.1l-4-6.9l0.9-0.5l4,6.9L988.8,343.1z
			 M601.7,336.6l-0.9-0.5l4-6.9l0.9,0.5L601.7,336.6z M980.8,329.2l-4-6.9l0.9-0.5l4,6.9L980.8,329.2z M609.7,322.8l-0.9-0.5l4-6.9
			l0.9,0.5L609.7,322.8z M972.8,315.4l-4-6.9l0.9-0.5l4,6.9L972.8,315.4z M617.7,308.9l-0.9-0.5l4-6.9l0.9,0.5L617.7,308.9z
			 M964.8,301.5l-4-6.9l0.9-0.5l4,6.9L964.8,301.5z M625.7,295.1l-0.9-0.5l4-6.9l0.9,0.5L625.7,295.1z M956.8,287.6l-4-6.9l0.9-0.5
			l4,6.9L956.8,287.6z M633.7,281.2l-0.9-0.5l4-6.9l0.9,0.5L633.7,281.2z M948.8,273.8l-4-6.9l0.9-0.5l4,6.9L948.8,273.8z
			 M641.7,267.4l-0.9-0.5l4-6.9l0.9,0.5L641.7,267.4z M940.8,259.9l-4-6.9l0.9-0.5l4,6.9L940.8,259.9z M649.7,253.5l-0.9-0.5l4-6.9
			l0.9,0.5L649.7,253.5z M932.8,246.1l-4-6.9l0.9-0.5l4,6.9L932.8,246.1z M657.7,239.6l-0.9-0.5l4-6.9l0.9,0.5L657.7,239.6z
			 M924.8,232.2l-4-6.9l0.9-0.5l4,6.9L924.8,232.2z M665.7,225.8l-0.9-0.5l4-6.9l0.9,0.5L665.7,225.8z M916.8,218.4l-4-6.9l0.9-0.5
			l4,6.9L916.8,218.4z M673.7,211.9l-0.9-0.5l4-6.9l0.9,0.5L673.7,211.9z M908.8,204.5l-4-6.9l0.9-0.5l4,6.9L908.8,204.5z
			 M681.7,198.1l-0.9-0.5l4-6.9l0.9,0.5L681.7,198.1z M900.8,190.6l-4-6.9l0.9-0.5l4,6.9L900.8,190.6z M689.7,184.2l-0.9-0.5l4-6.9
			l0.9,0.5L689.7,184.2z M892.8,176.8l-4-6.9l0.9-0.5l4,6.9L892.8,176.8z M697.7,170.4l-0.9-0.5l4-6.9l0.9,0.5L697.7,170.4z
			 M884.8,162.9l-4-6.9l0.9-0.5l4,6.9L884.8,162.9z M705.7,156.5l-0.9-0.5l4-6.9l0.9,0.5L705.7,156.5z M876.8,149.1l-4-6.9l0.9-0.5
			l4,6.9L876.8,149.1z M713.7,142.6l-0.9-0.5l4-6.9l0.9,0.5L713.7,142.6z M868.8,135.2l-4-6.9l0.9-0.5l4,6.9L868.8,135.2z
			 M721.7,128.8l-0.9-0.5l4-6.9l0.9,0.5L721.7,128.8z M860.8,121.4l-4-6.9l0.9-0.5l4,6.9L860.8,121.4z M729.7,114.9l-0.9-0.5l4-6.9
			l0.9,0.5L729.7,114.9z M852.8,107.5l-4-6.9l0.9-0.5l4,6.9L852.8,107.5z M737.7,101.1l-0.9-0.5l4-6.9l0.9,0.5L737.7,101.1z
			 M844.8,93.7l-4-6.9l0.9-0.5l4,6.9L844.8,93.7z M745.7,87.2l-0.9-0.5l4-6.9l0.9,0.5L745.7,87.2z M836.8,79.8l-4-6.9l0.9-0.5l4,6.9
			L836.8,79.8z M753.7,73.4l-0.9-0.5l4-6.9l0.9,0.5L753.7,73.4z M828.8,65.9l-4-6.9l0.9-0.5l4,6.9L828.8,65.9z M761.7,59.5l-0.9-0.5
			l4-6.9l0.9,0.5L761.7,59.5z M820.8,52.1l-4-6.9l0.9-0.5l4,6.9L820.8,52.1z M769.7,45.6l-0.9-0.5l4-6.9l0.9,0.5L769.7,45.6z
			 M812.8,38.2l-4-6.9l0.9-0.5l4,6.9L812.8,38.2z M777.7,31.8l-0.9-0.5l4-6.9l0.9,0.5L777.7,31.8z M804.8,24.4l-4-6.9l0.9-0.5l4,6.9
			L804.8,24.4z M785.7,17.9l-0.9-0.5l4-6.9l0.9,0.5L785.7,17.9z M796.8,10.5L793,3.8l0.1-0.1l-0.3-0.2l0.6-1l4.3,7.4L796.8,10.5z"/>
	</g>
	<g>
		<path d="M793.4,517.5l-4.3-7.4l0.9-0.5l3.9,6.7l-0.2,0.1l0.3,0.2L793.4,517.5z M798,509.6l-0.9-0.5l4-6.9l0.9,0.5L798,509.6z
			 M785.1,503.2l-4-6.9l0.9-0.5l4,6.9L785.1,503.2z M806,495.7l-0.9-0.5l4-6.9l0.9,0.5L806,495.7z M777.1,489.3l-4-6.9l0.9-0.5
			l4,6.9L777.1,489.3z M814,481.9l-0.9-0.5l4-6.9l0.9,0.5L814,481.9z M769.1,475.4l-4-6.9l0.9-0.5l4,6.9L769.1,475.4z M822,468
			l-0.9-0.5l4-6.9l0.9,0.5L822,468z M761.1,461.6l-4-6.9l0.9-0.5l4,6.9L761.1,461.6z M830,454.2l-0.9-0.5l4-6.9l0.9,0.5L830,454.2z
			 M753.1,447.7l-4-6.9l0.9-0.5l4,6.9L753.1,447.7z M838,440.3l-0.9-0.5l4-6.9l0.9,0.5L838,440.3z M745.1,433.9l-4-6.9l0.9-0.5
			l4,6.9L745.1,433.9z M846,426.5l-0.9-0.5l4-6.9l0.9,0.5L846,426.5z M737.1,420l-4-6.9l0.9-0.5l4,6.9L737.1,420z M854,412.6
			l-0.9-0.5l4-6.9l0.9,0.5L854,412.6z M729.1,406.2l-4-6.9l0.9-0.5l4,6.9L729.1,406.2z M862,398.7l-0.9-0.5l4-6.9l0.9,0.5L862,398.7
			z M721.1,392.3l-4-6.9l0.9-0.5l4,6.9L721.1,392.3z M870,384.9l-0.9-0.5l4-6.9l0.9,0.5L870,384.9z M713.1,378.4l-4-6.9l0.9-0.5
			l4,6.9L713.1,378.4z M878,371l-0.9-0.5l4-6.9l0.9,0.5L878,371z M705.1,364.6l-4-6.9l0.9-0.5l4,6.9L705.1,364.6z M886,357.2
			l-0.9-0.5l4-6.9l0.9,0.5L886,357.2z M697.1,350.7l-4-6.9l0.9-0.5l4,6.9L697.1,350.7z M894,343.3l-0.9-0.5l4-6.9l0.9,0.5L894,343.3
			z M689.1,336.9l-4-6.9l0.9-0.5l4,6.9L689.1,336.9z M902,329.5l-0.9-0.5l4-6.9l0.9,0.5L902,329.5z M681.1,323l-4-6.9l0.9-0.5l4,6.9
			L681.1,323z M910,315.6l-0.9-0.5l4-6.9l0.9,0.5L910,315.6z M673.1,309.2l-4-6.9l0.9-0.5l4,6.9L673.1,309.2z M918,301.7l-0.9-0.5
			l4-6.9l0.9,0.5L918,301.7z M665.1,295.3l-4-6.9l0.9-0.5l4,6.9L665.1,295.3z M926,287.9l-0.9-0.5l4-6.9l0.9,0.5L926,287.9z
			 M657.1,281.5l-4-6.9l0.9-0.5l4,6.9L657.1,281.5z M934,274l-0.9-0.5l4-6.9l0.9,0.5L934,274z M649.1,267.6l-4-6.9l0.9-0.5l4,6.9
			L649.1,267.6z M942,260.2l-0.9-0.5l4-6.9l0.9,0.5L942,260.2z M641.1,253.7l-4-6.9l0.9-0.5l4,6.9L641.1,253.7z M950,246.3l-0.9-0.5
			l4-6.9l0.9,0.5L950,246.3z M633.1,239.9l-4-6.9l0.9-0.5l4,6.9L633.1,239.9z M958,232.5l-0.9-0.5l4-6.9l0.9,0.5L958,232.5z
			 M625.1,226l-4-6.9l0.9-0.5l4,6.9L625.1,226z M966,218.6l-0.9-0.5l4-6.9l0.9,0.5L966,218.6z M617.1,212.2l-4-6.9l0.9-0.5l4,6.9
			L617.1,212.2z M974,204.8l-0.9-0.5l4-6.9l0.9,0.5L974,204.8z M609.1,198.3l-4-6.9l0.9-0.5l4,6.9L609.1,198.3z M982,190.9l-0.9-0.5
			l4-6.9l0.9,0.5L982,190.9z M601.1,184.5l-4-6.9l0.9-0.5l4,6.9L601.1,184.5z M990,177l-0.9-0.5l4-6.9l0.9,0.5L990,177z
			 M593.1,170.6l-4-6.9l0.9-0.5l4,6.9L593.1,170.6z M998,163.2l-0.9-0.5l4-6.9l0.9,0.5L998,163.2z M585.1,156.7l-4-6.9l0.9-0.5
			l4,6.9L585.1,156.7z M1006,149.3l-0.9-0.5l4-6.9l0.9,0.5L1006,149.3z M577.1,142.9l-4-6.9l0.9-0.5l4,6.9L577.1,142.9z M1014,135.5
			l-0.9-0.5l4-6.9l0.9,0.5L1014,135.5z M569.1,129l-4-6.9l0.9-0.5l4,6.9L569.1,129z M1022,121.6l-0.9-0.5l4-6.9l0.9,0.5L1022,121.6z
			 M561.1,115.2l-4-6.9l0.9-0.5l4,6.9L561.1,115.2z M1030,107.8l-0.9-0.5l4-6.9l0.9,0.5L1030,107.8z M553.1,101.3l-4-6.9l0.9-0.5
			l4,6.9L553.1,101.3z M1038,93.9l-0.9-0.5l4-6.9l0.9,0.5L1038,93.9z M545.1,87.5l-4-6.9L542,80l4,6.9L545.1,87.5z M1046,80
			l-0.9-0.5l4-6.9l0.9,0.5L1046,80z M537.1,73.6l-4-6.9l0.9-0.5l4,6.9L537.1,73.6z M1054,66.2l-0.9-0.5l4-6.9l0.9,0.5L1054,66.2z
			 M529.1,59.8l-4-6.9l0.9-0.5l4,6.9L529.1,59.8z M1062,52.3l-0.9-0.5l4-6.9l0.9,0.5L1062,52.3z M521.1,45.9l-4-6.9l0.9-0.5l4,6.9
			L521.1,45.9z M1070,38.5l-0.9-0.5l4-6.9l0.9,0.5L1070,38.5z M513.1,32l-4-6.9l0.9-0.5l4,6.9L513.1,32z M1078,24.6l-0.9-0.5l4-6.9
			l0.9,0.5L1078,24.6z M505.1,18.2l-4-6.9l0.9-0.5l4,6.9L505.1,18.2z M1086,10.8l-0.9-0.5l3.6-6.2v-1h1.7L1086,10.8z M497.1,4.3
			l-0.7-1.2h8.3v1h-7.2L497.1,4.3z M1080.7,4.1h-8v-1h8V4.1z M1064.7,4.1h-8v-1h8V4.1z M1048.7,4.1h-8v-1h8V4.1z M1032.7,4.1h-8v-1
			h8V4.1z M1016.7,4.1h-8v-1h8V4.1z M1000.7,4.1h-8v-1h8V4.1z M984.7,4.1h-8v-1h8V4.1z M968.7,4.1h-8v-1h8V4.1z M952.7,4.1h-8v-1h8
			V4.1z M936.7,4.1h-8v-1h8V4.1z M920.7,4.1h-8v-1h8V4.1z M904.7,4.1h-8v-1h8V4.1z M888.7,4.1h-8v-1h8V4.1z M872.7,4.1h-8v-1h8V4.1z
			 M856.7,4.1h-8v-1h8V4.1z M840.7,4.1h-8v-1h8V4.1z M824.7,4.1h-8v-1h8V4.1z M808.7,4.1h-8v-1h8V4.1z M792.7,4.1h-8v-1h8V4.1z
			 M776.7,4.1h-8v-1h8V4.1z M760.7,4.1h-8v-1h8V4.1z M744.7,4.1h-8v-1h8V4.1z M728.7,4.1h-8v-1h8V4.1z M712.7,4.1h-8v-1h8V4.1z
			 M696.7,4.1h-8v-1h8V4.1z M680.7,4.1h-8v-1h8V4.1z M664.7,4.1h-8v-1h8V4.1z M648.7,4.1h-8v-1h8V4.1z M632.7,4.1h-8v-1h8V4.1z
			 M616.7,4.1h-8v-1h8V4.1z M600.7,4.1h-8v-1h8V4.1z M584.7,4.1h-8v-1h8V4.1z M568.7,4.1h-8v-1h8V4.1z M552.7,4.1h-8v-1h8V4.1z
			 M536.7,4.1h-8v-1h8V4.1z M520.7,4.1h-8v-1h8V4.1z"/>
	</g>
	<g>
		<path d="M793.4,643.4l-4.3-7.4l0.9-0.5l3.9,6.7l-0.1,0.1l0.3,0.2L793.4,643.4z M798,635.4l-0.9-0.5l4-6.9l0.9,0.5L798,635.4z
			 M785.1,629l-4-6.9l0.9-0.5l4,6.9L785.1,629z M806,621.6l-0.9-0.5l4-6.9l0.9,0.5L806,621.6z M777.1,615.1l-4-6.9l0.9-0.5l4,6.9
			L777.1,615.1z M814,607.7l-0.9-0.5l4-6.9l0.9,0.5L814,607.7z M769.1,601.3l-4-6.9l0.9-0.5l4,6.9L769.1,601.3z M822,593.9l-0.9-0.5
			l4-6.9l0.9,0.5L822,593.9z M761.1,587.4l-4-6.9l0.9-0.5l4,6.9L761.1,587.4z M830,580l-0.9-0.5l4-6.9l0.9,0.5L830,580z
			 M753.1,573.6l-4-6.9l0.9-0.5l4,6.9L753.1,573.6z M838,566.2l-0.9-0.5l4-6.9l0.9,0.5L838,566.2z M745.1,559.7l-4-6.9l0.9-0.5
			l4,6.9L745.1,559.7z M846,552.3l-0.9-0.5l4-6.9l0.9,0.5L846,552.3z M737.1,545.9l-4-6.9l0.9-0.5l4,6.9L737.1,545.9z M854,538.4
			l-0.9-0.5l4-6.9l0.9,0.5L854,538.4z M729.1,532l-4-6.9l0.9-0.5l4,6.9L729.1,532z M862,524.6l-0.9-0.5l4-6.9l0.9,0.5L862,524.6z
			 M721.1,518.2l-4-6.9l0.9-0.5l4,6.9L721.1,518.2z M870,510.7l-0.9-0.5l4-6.9l0.9,0.5L870,510.7z M713.1,504.3l-4-6.9l0.9-0.5
			l4,6.9L713.1,504.3z M878,496.9l-0.9-0.5l4-6.9l0.9,0.5L878,496.9z M705.1,490.4l-4-6.9l0.9-0.5l4,6.9L705.1,490.4z M886,483
			l-0.9-0.5l4-6.9l0.9,0.5L886,483z M697.1,476.6l-4-6.9l0.9-0.5l4,6.9L697.1,476.6z M894,469.2l-0.9-0.5l4-6.9l0.9,0.5L894,469.2z
			 M689.1,462.7l-4-6.9l0.9-0.5l4,6.9L689.1,462.7z M902,455.3l-0.9-0.5l4-6.9l0.9,0.5L902,455.3z M681.1,448.9l-4-6.9l0.9-0.5
			l4,6.9L681.1,448.9z M910,441.5l-0.9-0.5l4-6.9l0.9,0.5L910,441.5z M673.1,435l-4-6.9l0.9-0.5l4,6.9L673.1,435z M918,427.6
			l-0.9-0.5l4-6.9l0.9,0.5L918,427.6z M665.1,421.2l-4-6.9l0.9-0.5l4,6.9L665.1,421.2z M926,413.7l-0.9-0.5l4-6.9l0.9,0.5L926,413.7
			z M657.1,407.3l-4-6.9l0.9-0.5l4,6.9L657.1,407.3z M934,399.9l-0.9-0.5l4-6.9l0.9,0.5L934,399.9z M649.1,393.4l-4-6.9l0.9-0.5
			l4,6.9L649.1,393.4z M942,386l-0.9-0.5l4-6.9l0.9,0.5L942,386z M641.1,379.6l-4-6.9l0.9-0.5l4,6.9L641.1,379.6z M950,372.2
			l-0.9-0.5l4-6.9l0.9,0.5L950,372.2z M633.1,365.7l-4-6.9l0.9-0.5l4,6.9L633.1,365.7z M958,358.3l-0.9-0.5l4-6.9l0.9,0.5L958,358.3
			z M625.1,351.9l-4-6.9l0.9-0.5l4,6.9L625.1,351.9z M966,344.5l-0.9-0.5l4-6.9l0.9,0.5L966,344.5z M617.1,338l-4-6.9l0.9-0.5l4,6.9
			L617.1,338z M974,330.6l-0.9-0.5l4-6.9l0.9,0.5L974,330.6z M609.1,324.2l-4-6.9l0.9-0.5l4,6.9L609.1,324.2z M982,316.7l-0.9-0.5
			l4-6.9l0.9,0.5L982,316.7z M601.1,310.3l-4-6.9l0.9-0.5l4,6.9L601.1,310.3z M990,302.9l-0.9-0.5l4-6.9l0.9,0.5L990,302.9z
			 M593.1,296.5l-4-6.9l0.9-0.5l4,6.9L593.1,296.5z M998,289l-0.9-0.5l4-6.9l0.9,0.5L998,289z M585.1,282.6l-4-6.9l0.9-0.5l4,6.9
			L585.1,282.6z M1006,275.2l-0.9-0.5l4-6.9l0.9,0.5L1006,275.2z M577.1,268.7l-4-6.9l0.9-0.5l4,6.9L577.1,268.7z M1014,261.3
			l-0.9-0.5l4-6.9l0.9,0.5L1014,261.3z M569.1,254.9l-4-6.9l0.9-0.5l4,6.9L569.1,254.9z M1022,247.5l-0.9-0.5l4-6.9l0.9,0.5
			L1022,247.5z M561.1,241l-4-6.9l0.9-0.5l4,6.9L561.1,241z M1030,233.6l-0.9-0.5l4-6.9l0.9,0.5L1030,233.6z M553.1,227.2l-4-6.9
			l0.9-0.5l4,6.9L553.1,227.2z M1038,219.7l-0.9-0.5l4-6.9l0.9,0.5L1038,219.7z M545.1,213.3l-4-6.9l0.9-0.5l4,6.9L545.1,213.3z
			 M1046,205.9l-0.9-0.5l4-6.9l0.9,0.5L1046,205.9z M537.1,199.5l-4-6.9l0.9-0.5l4,6.9L537.1,199.5z M1054,192l-0.9-0.5l4-6.9
			l0.9,0.5L1054,192z M529.1,185.6l-4-6.9l0.9-0.5l4,6.9L529.1,185.6z M1062,178.2l-0.9-0.5l4-6.9l0.9,0.5L1062,178.2z M521.1,171.7
			l-4-6.9l0.9-0.5l4,6.9L521.1,171.7z M1070,164.3l-0.9-0.5l4-6.9l0.9,0.5L1070,164.3z M513.1,157.9l-4-6.9l0.9-0.5l4,6.9
			L513.1,157.9z M1078,150.5l-0.9-0.5l4-6.9l0.9,0.5L1078,150.5z M505.1,144l-4-6.9l0.9-0.5l4,6.9L505.1,144z M1086,136.6l-0.9-0.5
			l3.6-6.2v-1h1.7L1086,136.6z M497.1,130.2l-0.7-1.2h8.3v1h-7.2L497.1,130.2z M1080.7,129.9h-8v-1h8V129.9z M1064.7,129.9h-8v-1h8
			V129.9z M1048.7,129.9h-8v-1h8V129.9z M1032.7,129.9h-8v-1h8V129.9z M1016.7,129.9h-8v-1h8V129.9z M1000.7,129.9h-8v-1h8V129.9z
			 M984.7,129.9h-8v-1h8V129.9z M968.7,129.9h-8v-1h8V129.9z M952.7,129.9h-8v-1h8V129.9z M936.7,129.9h-8v-1h8V129.9z M920.7,129.9
			h-8v-1h8V129.9z M904.7,129.9h-8v-1h8V129.9z M888.7,129.9h-8v-1h8V129.9z M872.7,129.9h-8v-1h8V129.9z M856.7,129.9h-8v-1h8
			V129.9z M840.7,129.9h-8v-1h8V129.9z M824.7,129.9h-8v-1h8V129.9z M808.7,129.9h-8v-1h8V129.9z M792.7,129.9h-8v-1h8V129.9z
			 M776.7,129.9h-8v-1h8V129.9z M760.7,129.9h-8v-1h8V129.9z M744.7,129.9h-8v-1h8V129.9z M728.7,129.9h-8v-1h8V129.9z M712.7,129.9
			h-8v-1h8V129.9z M696.7,129.9h-8v-1h8V129.9z M680.7,129.9h-8v-1h8V129.9z M664.7,129.9h-8v-1h8V129.9z M648.7,129.9h-8v-1h8
			V129.9z M632.7,129.9h-8v-1h8V129.9z M616.7,129.9h-8v-1h8V129.9z M600.7,129.9h-8v-1h8V129.9z M584.7,129.9h-8v-1h8V129.9z
			 M568.7,129.9h-8v-1h8V129.9z M552.7,129.9h-8v-1h8V129.9z M536.7,129.9h-8v-1h8V129.9z M520.7,129.9h-8v-1h8V129.9z"/>
	</g>
</g>
</svg>
