<?xml version="1.0" encoding="utf-8"?>
<!-- Generator: Adobe Illustrator 22.0.1, SVG Export Plug-In . SVG Version: 6.00 Build 0)  -->
<svg version="1.1" id="Warstwa_1" xmlns="http://www.w3.org/2000/svg" xmlns:xlink="http://www.w3.org/1999/xlink" x="0px" y="0px"
	 viewBox="0 0 60 60" style="enable-background:new 0 0 60 60;" xml:space="preserve">
<path d="M30,3c12.6,0,22.9,10.3,22.9,22.9c0,11.8-8.9,21.6-20.6,22.7l-0.7,0.1l-1.1,0.1l-0.8,0.7L29.2,50c-2.6,2.5-5.3,4.1-7.8,5.2
	c0.4-0.9,0.7-1.8,1-2.7l0.6-1.7l0.8-2.5l-2.4-1.2l-1.6-0.8C12,42.4,7.1,34.6,7.1,25.9C7.1,13.3,17.4,3,30,3 M30,0
	C15.7,0,4.1,11.6,4.1,25.9c0,9.9,5.5,18.7,14.4,23.2l1.6,0.8l-0.6,1.7c-1.1,3.4-2.6,6.3-3.8,8.5c3.8-0.6,9.9-2.4,15.6-7.8l0.5-0.5
	l0.7-0.1c13.3-1.3,23.4-12.4,23.4-25.8C55.9,11.6,44.3,0,30,0L30,0z"/>
</svg>
