<?xml version="1.0" encoding="utf-8"?>
<!-- Generator: Adobe Illustrator 22.0.1, SVG Export Plug-In . SVG Version: 6.00 Build 0)  -->
<svg version="1.1" id="Warstwa_1" xmlns="http://www.w3.org/2000/svg" xmlns:xlink="http://www.w3.org/1999/xlink" x="0px" y="0px"
	 viewBox="0 0 1586.9 644.8" style="enable-background:new 0 0 1586.9 644.8;" xml:space="preserve">
<style>svg {
	fill: grey;
}</style>
<g>
	<g>
		<g>
			<rect x="2.5" y="322.4" width="4" height="1"/>
		</g>
		<g>
			<path d="M1573.6,323.4h-8v-1h8V323.4z M1557.6,323.4h-8v-1h8V323.4z M1541.6,323.4h-8v-1h8V323.4z M1525.6,323.4h-8v-1h8V323.4z
				 M1509.6,323.4h-8v-1h8V323.4z M1493.6,323.4h-8v-1h8V323.4z M1477.6,323.4h-8v-1h8V323.4z M1461.6,323.4h-8v-1h8V323.4z
				 M1445.6,323.4h-8v-1h8V323.4z M1429.6,323.4h-8v-1h8V323.4z M1413.7,323.4h-8v-1h8V323.4z M1397.7,323.4h-8v-1h8V323.4z
				 M1381.7,323.4h-8v-1h8V323.4z M1365.7,323.4h-8v-1h8V323.4z M1349.7,323.4h-8v-1h8V323.4z M1333.7,323.4h-8v-1h8V323.4z
				 M1317.7,323.4h-8v-1h8V323.4z M1301.7,323.4h-8v-1h8V323.4z M1285.7,323.4h-8v-1h8V323.4z M1269.7,323.4h-8v-1h8V323.4z
				 M1253.8,323.4h-8v-1h8V323.4z M1237.8,323.4h-8v-1h8V323.4z M1221.8,323.4h-8v-1h8V323.4z M1205.8,323.4h-8v-1h8V323.4z
				 M1189.8,323.4h-8v-1h8V323.4z M1173.8,323.4h-8v-1h8V323.4z M1157.8,323.4h-8v-1h8V323.4z M1141.8,323.4h-8v-1h8V323.4z
				 M1125.8,323.4h-8v-1h8V323.4z M1109.8,323.4h-8v-1h8V323.4z M1093.9,323.4h-8v-1h8V323.4z M1077.9,323.4h-8v-1h8V323.4z
				 M1061.9,323.4h-8v-1h8V323.4z M1045.9,323.4h-8v-1h8V323.4z M1029.9,323.4h-8v-1h8V323.4z M1013.9,323.4h-8v-1h8V323.4z
				 M997.9,323.4h-8v-1h8V323.4z M981.9,323.4h-8v-1h8V323.4z M965.9,323.4h-8v-1h8V323.4z M949.9,323.4h-8v-1h8V323.4z M934,323.4
				h-8v-1h8V323.4z M918,323.4h-8v-1h8V323.4z M902,323.4h-8v-1h8V323.4z M886,323.4h-8v-1h8V323.4z M870,323.4h-8v-1h8V323.4z
				 M854,323.4h-8v-1h8V323.4z M838,323.4h-8v-1h8V323.4z M822,323.4h-8v-1h8V323.4z M806,323.4h-8v-1h8V323.4z M790,323.4h-8v-1h8
				V323.4z M774.1,323.4h-8v-1h8V323.4z M758.1,323.4h-8v-1h8V323.4z M742.1,323.4h-8v-1h8V323.4z M726.1,323.4h-8v-1h8V323.4z
				 M710.1,323.4h-8v-1h8V323.4z M694.1,323.4h-8v-1h8V323.4z M678.1,323.4h-8v-1h8V323.4z M662.1,323.4h-8v-1h8V323.4z
				 M646.1,323.4h-8v-1h8V323.4z M630.1,323.4h-8v-1h8V323.4z M614.2,323.4h-8v-1h8V323.4z M598.2,323.4h-8v-1h8V323.4z
				 M582.2,323.4h-8v-1h8V323.4z M566.2,323.4h-8v-1h8V323.4z M550.2,323.4h-8v-1h8V323.4z M534.2,323.4h-8v-1h8V323.4z
				 M518.2,323.4h-8v-1h8V323.4z M502.2,323.4h-8v-1h8V323.4z M486.2,323.4h-8v-1h8V323.4z M470.2,323.4h-8v-1h8V323.4z
				 M454.3,323.4h-8v-1h8V323.4z M438.3,323.4h-8v-1h8V323.4z M422.3,323.4h-8v-1h8V323.4z M406.3,323.4h-8v-1h8V323.4z
				 M390.3,323.4h-8v-1h8V323.4z M374.3,323.4h-8v-1h8V323.4z M358.3,323.4h-8v-1h8V323.4z M342.3,323.4h-8v-1h8V323.4z
				 M326.3,323.4h-8v-1h8V323.4z M310.3,323.4h-8v-1h8V323.4z M294.4,323.4h-8v-1h8V323.4z M278.4,323.4h-8v-1h8V323.4z
				 M262.4,323.4h-8v-1h8V323.4z M246.4,323.4h-8v-1h8V323.4z M230.4,323.4h-8v-1h8V323.4z M214.4,323.4h-8v-1h8V323.4z
				 M198.4,323.4h-8v-1h8V323.4z M182.4,323.4h-8v-1h8V323.4z M166.4,323.4h-8v-1h8V323.4z M150.5,323.4h-8v-1h8V323.4z
				 M134.5,323.4h-8v-1h8V323.4z M118.5,323.4h-8v-1h8V323.4z M102.5,323.4h-8v-1h8V323.4z M86.5,323.4h-8v-1h8V323.4z M70.5,323.4
				h-8v-1h8V323.4z M54.5,323.4h-8v-1h8V323.4z M38.5,323.4h-8v-1h8V323.4z M22.5,323.4h-8v-1h8V323.4z"/>
		</g>
		<g>
			<rect x="1581.5" y="322.4" width="4" height="1"/>
		</g>
	</g>
	<g>
		<path d="M793.7,642.7L788,637l0.7-0.7l5.7,5.7L793.7,642.7z M799.7,637.3l-0.7-0.7l5.7-5.7l0.7,0.7L799.7,637.3z M782.4,631.4
			l-5.7-5.7l0.7-0.7l5.7,5.7L782.4,631.4z M811.1,626l-0.7-0.7l5.7-5.7l0.7,0.7L811.1,626z M771.1,620l-5.7-5.7l0.7-0.7l5.7,5.7
			L771.1,620z M822.4,614.7l-0.7-0.7l5.7-5.7l0.7,0.7L822.4,614.7z M759.7,608.7l-5.7-5.7l0.7-0.7l5.7,5.7L759.7,608.7z
			 M833.7,603.4l-0.7-0.7l5.7-5.7l0.7,0.7L833.7,603.4z M748.4,597.4l-5.7-5.7l0.7-0.7l5.7,5.7L748.4,597.4z M845,592.1l-0.7-0.7
			l5.7-5.7l0.7,0.7L845,592.1z M737.1,586.1l-5.7-5.7l0.7-0.7l5.7,5.7L737.1,586.1z M856.3,580.8l-0.7-0.7l5.7-5.7l0.7,0.7
			L856.3,580.8z M725.8,574.8l-5.7-5.7l0.7-0.7l5.7,5.7L725.8,574.8z M867.6,569.4l-0.7-0.7l5.7-5.7l0.7,0.7L867.6,569.4z
			 M714.5,563.5l-5.7-5.7l0.7-0.7l5.7,5.7L714.5,563.5z M878.9,558.1l-0.7-0.7l5.7-5.7l0.7,0.7L878.9,558.1z M703.2,552.2l-5.7-5.7
			l0.7-0.7l5.7,5.7L703.2,552.2z M890.2,546.8l-0.7-0.7l5.7-5.7l0.7,0.7L890.2,546.8z M691.9,540.8l-5.7-5.7l0.7-0.7l5.7,5.7
			L691.9,540.8z M901.6,535.5l-0.7-0.7l5.7-5.7l0.7,0.7L901.6,535.5z M680.6,529.5l-5.7-5.7l0.7-0.7l5.7,5.7L680.6,529.5z
			 M912.9,524.2l-0.7-0.7l5.7-5.7l0.7,0.7L912.9,524.2z M669.2,518.2l-5.7-5.7l0.7-0.7l5.7,5.7L669.2,518.2z M924.2,512.9l-0.7-0.7
			l5.7-5.7l0.7,0.7L924.2,512.9z M657.9,506.9l-5.7-5.7l0.7-0.7l5.7,5.7L657.9,506.9z M935.5,501.6l-0.7-0.7l5.7-5.7l0.7,0.7
			L935.5,501.6z M646.6,495.6l-5.7-5.7l0.7-0.7l5.7,5.7L646.6,495.6z M946.8,490.2l-0.7-0.7l5.7-5.7l0.7,0.7L946.8,490.2z
			 M635.3,484.3l-5.7-5.7l0.7-0.7l5.7,5.7L635.3,484.3z M958.1,478.9l-0.7-0.7l5.7-5.7l0.7,0.7L958.1,478.9z M624,473l-5.7-5.7
			l0.7-0.7l5.7,5.7L624,473z M969.4,467.6l-0.7-0.7l5.7-5.7l0.7,0.7L969.4,467.6z M612.7,461.6L607,456l0.7-0.7l5.7,5.7L612.7,461.6
			z M980.8,456.3l-0.7-0.7l5.7-5.7l0.7,0.7L980.8,456.3z M601.4,450.3l-5.7-5.7l0.7-0.7l5.7,5.7L601.4,450.3z M992.1,445l-0.7-0.7
			l5.7-5.7l0.7,0.7L992.1,445z M590,439l-5.7-5.7l0.7-0.7l5.7,5.7L590,439z M1003.4,433.7l-0.7-0.7l5.7-5.7l0.7,0.7L1003.4,433.7z
			 M578.7,427.7l-5.7-5.7l0.7-0.7l5.7,5.7L578.7,427.7z M1014.7,422.4l-0.7-0.7l5.7-5.7l0.7,0.7L1014.7,422.4z M567.4,416.4
			l-5.7-5.7l0.7-0.7l5.7,5.7L567.4,416.4z M1026,411.1l-0.7-0.7l5.7-5.7l0.7,0.7L1026,411.1z M556.1,405.1l-5.7-5.7l0.7-0.7l5.7,5.7
			L556.1,405.1z M1037.3,399.7l-0.7-0.7l5.7-5.7l0.7,0.7L1037.3,399.7z M544.8,393.8l-5.7-5.7l0.7-0.7l5.7,5.7L544.8,393.8z
			 M1048.6,388.4l-0.7-0.7l5.7-5.7l0.7,0.7L1048.6,388.4z M533.5,382.5l-5.7-5.7l0.7-0.7l5.7,5.7L533.5,382.5z M1060,377.1l-0.7-0.7
			l5.7-5.7l0.7,0.7L1060,377.1z M522.2,371.1l-5.7-5.7l0.7-0.7l5.7,5.7L522.2,371.1z M1071.3,365.8l-0.7-0.7l5.7-5.7l0.7,0.7
			L1071.3,365.8z M510.8,359.8l-5.7-5.7l0.7-0.7l5.7,5.7L510.8,359.8z M1082.6,354.5l-0.7-0.7l5.7-5.7l0.7,0.7L1082.6,354.5z
			 M499.5,348.5l-5.7-5.7l0.7-0.7l5.7,5.7L499.5,348.5z M1093.9,343.2l-0.7-0.7l5.7-5.7l0.7,0.7L1093.9,343.2z M488.2,337.2
			l-5.7-5.7l0.7-0.7l5.7,5.7L488.2,337.2z M1105.2,331.9l-0.7-0.7l5.7-5.7l0.7,0.7L1105.2,331.9z M476.9,325.9l-3.1-3.1l3.3-3.3
			l0.7,0.7l-2.6,2.6l2.4,2.4L476.9,325.9z M1110.6,320.5l-5.7-5.7l0.7-0.7l5.7,5.7L1110.6,320.5z M483.4,314.6l-0.7-0.7l5.7-5.7
			l0.7,0.7L483.4,314.6z M1099.3,309.2l-5.7-5.7l0.7-0.7l5.7,5.7L1099.3,309.2z M494.7,303.3l-0.7-0.7l5.7-5.7l0.7,0.7L494.7,303.3z
			 M1088,297.9l-5.7-5.7l0.7-0.7l5.7,5.7L1088,297.9z M506.1,291.9l-0.7-0.7l5.7-5.7l0.7,0.7L506.1,291.9z M1076.7,286.6l-5.7-5.7
			l0.7-0.7l5.7,5.7L1076.7,286.6z M517.4,280.6l-0.7-0.7l5.7-5.7l0.7,0.7L517.4,280.6z M1065.4,275.3l-5.7-5.7l0.7-0.7l5.7,5.7
			L1065.4,275.3z M528.7,269.3l-0.7-0.7l5.7-5.7l0.7,0.7L528.7,269.3z M1054.1,264l-5.7-5.7l0.7-0.7l5.7,5.7L1054.1,264z M540,258
			l-0.7-0.7l5.7-5.7l0.7,0.7L540,258z M1042.8,252.7l-5.7-5.7l0.7-0.7l5.7,5.7L1042.8,252.7z M551.3,246.7l-0.7-0.7l5.7-5.7l0.7,0.7
			L551.3,246.7z M1031.4,241.3l-5.7-5.7l0.7-0.7l5.7,5.7L1031.4,241.3z M562.6,235.4l-0.7-0.7l5.7-5.7l0.7,0.7L562.6,235.4z
			 M1020.1,230l-5.7-5.7l0.7-0.7l5.7,5.7L1020.1,230z M573.9,224.1l-0.7-0.7l5.7-5.7l0.7,0.7L573.9,224.1z M1008.8,218.7l-5.7-5.7
			l0.7-0.7l5.7,5.7L1008.8,218.7z M585.3,212.7l-0.7-0.7l5.7-5.7l0.7,0.7L585.3,212.7z M997.5,207.4l-5.7-5.7l0.7-0.7l5.7,5.7
			L997.5,207.4z M596.6,201.4l-0.7-0.7l5.7-5.7l0.7,0.7L596.6,201.4z M986.2,196.1l-5.7-5.7l0.7-0.7l5.7,5.7L986.2,196.1z
			 M607.9,190.1l-0.7-0.7l5.7-5.7l0.7,0.7L607.9,190.1z M974.9,184.8l-5.7-5.7l0.7-0.7l5.7,5.7L974.9,184.8z M619.2,178.8l-0.7-0.7
			l5.7-5.7l0.7,0.7L619.2,178.8z M963.6,173.5l-5.7-5.7l0.7-0.7l5.7,5.7L963.6,173.5z M630.5,167.5l-0.7-0.7l5.7-5.7l0.7,0.7
			L630.5,167.5z M952.2,162.2l-5.7-5.7l0.7-0.7l5.7,5.7L952.2,162.2z M641.8,156.2l-0.7-0.7l5.7-5.7l0.7,0.7L641.8,156.2z
			 M940.9,150.8l-5.7-5.7l0.7-0.7l5.7,5.7L940.9,150.8z M653.1,144.9l-0.7-0.7l5.7-5.7l0.7,0.7L653.1,144.9z M929.6,139.5l-5.7-5.7
			l0.7-0.7l5.7,5.7L929.6,139.5z M664.4,133.5l-0.7-0.7l5.7-5.7l0.7,0.7L664.4,133.5z M918.3,128.2l-5.7-5.7l0.7-0.7l5.7,5.7
			L918.3,128.2z M675.8,122.2l-0.7-0.7l5.7-5.7l0.7,0.7L675.8,122.2z M907,116.9l-5.7-5.7l0.7-0.7l5.7,5.7L907,116.9z M687.1,110.9
			l-0.7-0.7l5.7-5.7l0.7,0.7L687.1,110.9z M895.7,105.6l-5.7-5.7l0.7-0.7l5.7,5.7L895.7,105.6z M698.4,99.6l-0.7-0.7l5.7-5.7L704,94
			L698.4,99.6z M884.4,94.3l-5.7-5.7l0.7-0.7l5.7,5.7L884.4,94.3z M709.7,88.3l-0.7-0.7l5.7-5.7l0.7,0.7L709.7,88.3z M873,83
			l-5.7-5.7l0.7-0.7l5.7,5.7L873,83z M721,77l-0.7-0.7l5.7-5.7l0.7,0.7L721,77z M861.7,71.6l-5.7-5.7l0.7-0.7l5.7,5.7L861.7,71.6z
			 M732.3,65.7l-0.7-0.7l5.7-5.7L738,60L732.3,65.7z M850.4,60.3l-5.7-5.7l0.7-0.7l5.7,5.7L850.4,60.3z M743.6,54.4l-0.7-0.7
			l5.7-5.7l0.7,0.7L743.6,54.4z M839.1,49l-5.7-5.7l0.7-0.7l5.7,5.7L839.1,49z M755,43l-0.7-0.7l5.7-5.7l0.7,0.7L755,43z
			 M827.8,37.7l-5.7-5.7l0.7-0.7l5.7,5.7L827.8,37.7z M766.3,31.7l-0.7-0.7l5.7-5.7l0.7,0.7L766.3,31.7z M816.5,26.4l-5.7-5.7
			l0.7-0.7l5.7,5.7L816.5,26.4z M777.6,20.4l-0.7-0.7l5.7-5.7l0.7,0.7L777.6,20.4z M805.2,15.1l-5.7-5.7l0.7-0.7l5.7,5.7L805.2,15.1
			z M788.9,9.1l-0.7-0.7l5.9-5.9l0.5,0.5l-0.4,0.4l0.2,0.2L788.9,9.1z"/>
	</g>
	<g>
		<path d="M794.5,635.2h-1v-8h1V635.2z M794.5,619.2h-1v-8h1V619.2z M794.5,603.2h-1v-8h1V603.2z M794.5,587.2h-1v-8h1V587.2z
			 M794.5,571.2h-1v-8h1V571.2z M794.5,555.2h-1v-8h1V555.2z M794.5,539.2h-1l0-8h1L794.5,539.2z M794.5,523.2h-1v-8h1V523.2z
			 M794.5,507.2h-1v-8h1V507.2z M794.5,491.2h-1v-8h1V491.2z M794.5,475.2h-1v-8h1V475.2z M794.5,459.2h-1v-8h1V459.2z M794.5,443.2
			h-1v-8h1V443.2z M794.5,427.2h-1v-8h1V427.2z M794.5,411.2h-1v-8h1V411.2z M794.5,395.2h-1v-8h1V395.2z M794.5,379.2h-1v-8h1
			V379.2z M794.5,363.2h-1v-8h1V363.2z M794.5,347.2h-1v-8h1V347.2z M794.5,331.2h-1v-8h1V331.2z M794.5,315.2h-1v-8h1V315.2z
			 M794.5,299.2h-1v-8h1V299.2z M794.5,283.2h-1v-8h1V283.2z M794.5,267.2h-1v-8h1V267.2z M794.5,251.2h-1v-8h1V251.2z M794.5,235.2
			h-1v-8h1V235.2z M794.5,219.2h-1v-8h1V219.2z M794.5,203.2h-1v-8h1V203.2z M794.5,187.2h-1v-8h1V187.2z M794.5,171.2h-1v-8h1
			V171.2z M794.5,155.2h-1v-8h1V155.2z M794.5,139.2h-1v-8h1V139.2z M794.5,123.2h-1v-8h1V123.2z M794.5,107.2h-1v-8h1V107.2z
			 M794.5,91.2h-1v-8h1V91.2z M794.5,75.2h-1v-8h1V75.2z M794.5,59.2h-1v-8h1V59.2z M794.5,43.2h-1v-8h1V43.2z M794.5,27.2h-1v-8h1
			V27.2z M794.5,11.2h-1v-8h1V11.2z"/>
	</g>
	<g>
		<path d="M793.1,482.3h-8v-1h8V482.3z M777.1,482.3h-8v-1h8V482.3z M761.1,482.3h-8v-1h8V482.3z M745.1,482.3h-8v-1h8V482.3z
			 M729.1,482.3h-8v-1h8V482.3z M713.1,482.3h-8v-1h8V482.3z M697.1,482.3h-8v-1h8V482.3z M681.1,482.3h-8v-1h8V482.3z M665.1,482.3
			h-8v-1h8V482.3z M649.1,482.3h-8v-1h8V482.3z M953.1,482.3h-8v-1h8V482.3z M937.1,482.3h-8v-1h8V482.3z M921.1,482.3h-8v-1h8
			V482.3z M905.1,482.3h-8v-1h8V482.3z M889.1,482.3h-8v-1h8V482.3z M873.1,482.3h-8v-1h8V482.3z M857.1,482.3h-8v-1h8V482.3z
			 M841.1,482.3h-8v-1h8V482.3z M825.1,482.3h-8v-1h8V482.3z M809.1,482.3h-8v-1h8V482.3z M953.6,481.3h-1v-8h1V481.3z M635.5,480
			h-1v-8h1V480z M953.6,465.3h-1v-8h1V465.3z M635.5,464h-1v-8h1V464z M953.6,449.3h-1v-8h1V449.3z M635.5,448h-1v-8h1V448z
			 M953.6,433.3h-1v-8h1V433.3z M635.5,432h-1v-8h1V432z M953.6,417.3h-1v-8h1V417.3z M635.5,416h-1v-8h1V416z M953.6,401.3h-1v-8h1
			V401.3z M635.5,400h-1v-8h1V400z M953.6,385.3h-1v-8h1V385.3z M635.5,384h-1v-8h1V384z M953.6,369.3h-1v-8h1V369.3z M635.5,368h-1
			v-8h1V368z M953.6,353.3h-1v-8h1V353.3z M635.5,352h-1v-8h1V352z M953.6,337.3h-1v-8h1V337.3z M635.5,336h-1v-8h1V336z
			 M953.6,321.3h-1v-8h1V321.3z M635.5,320h-1v-8h1V320z M953.6,305.3h-1v-8h1V305.3z M635.5,304h-1v-8h1V304z M953.6,289.3h-1v-8h1
			V289.3z M635.5,288h-1v-8h1V288z M953.6,273.3h-1v-8h1V273.3z M635.5,272h-1v-8h1V272z M953.6,257.3h-1v-8h1V257.3z M635.5,256h-1
			v-8h1V256z M953.6,241.3h-1v-8h1V241.3z M635.5,240h-1v-8h1V240z M953.6,225.3h-1v-8h1V225.3z M635.5,224h-1v-8h1V224z
			 M953.6,209.3h-1v-8h1V209.3z M635.5,208h-1v-8h1V208z M953.6,193.3h-1v-8h1V193.3z M635.5,192h-1v-8h1V192z M953.6,177.3h-1v-8h1
			V177.3z M635.5,176h-1v-8h1V176z M950.7,164.2h-8v-1h8V164.2z M934.7,164.2h-8v-1h8V164.2z M918.7,164.2h-8v-1h8V164.2z
			 M902.7,164.2h-8v-1h8V164.2z M886.7,164.2h-8v-1h8V164.2z M870.7,164.2h-8v-1h8V164.2z M854.7,164.2h-8v-1h8V164.2z M838.7,164.2
			h-8v-1h8V164.2z M822.7,164.2h-8v-1h8V164.2z M806.7,164.2h-8v-1h8V164.2z M790.7,164.2h-8v-1h8V164.2z M774.7,164.2h-8v-1h8
			V164.2z M758.7,164.2h-8v-1h8V164.2z M742.7,164.2h-8v-1h8V164.2z M726.7,164.2h-8v-1h8V164.2z M710.7,164.2h-8v-1h8V164.2z
			 M694.7,164.2h-8v-1h8V164.2z M678.7,164.2h-8v-1h8V164.2z M662.7,164.2h-8v-1h8V164.2z M646.7,164.2h-8v-1h8V164.2z"/>
	</g>
</g>
</svg>
