<?xml version="1.0" encoding="utf-8"?>
<!-- Generator: Adobe Illustrator 22.0.1, SVG Export Plug-In . SVG Version: 6.00 Build 0)  -->
<svg version="1.1" id="Warstwa_1" xmlns="http://www.w3.org/2000/svg" xmlns:xlink="http://www.w3.org/1999/xlink" x="0px" y="0px"
	 viewBox="0 0 60 60" style="enable-background:new 0 0 60 60;" xml:space="preserve">
<g>
	<g>
		<g>
			<path d="M53.4,17.6l-0.3,0V9.3c0-3.6-2.9-6.5-6.5-6.5H17.8c-6,0-10.9,4.9-10.9,10.9v3.9l-0.3,0C3,17.7,0,20.8,0,24.4v6.2
				c0,0.8,0.3,1.6,0.9,2.2L1,33v17.6l0.2-0.1c1.9-1.1,4-1.7,6.2-1.8l0.3,0l1.6,1.6l0.6,0.6c4.9,5.3,11.8,8.5,19,8.8l0.3,0h1.6l0.3,0
				c7.2-0.3,14.1-3.5,19-8.8l0.6-0.6l1.6-1.6l0.3,0c2.2,0.1,4.3,0.7,6.2,1.8l0.2,0.1V33l0.1-0.1c0.6-0.6,0.9-1.4,0.9-2.2v-6.2
				C60,20.8,57,17.7,53.4,17.6z M49.4,19.7l-0.3-0.5h4.2c2.9,0,5.2,2.3,5.2,5.2v6.2c0,0.8-0.7,1.5-1.5,1.5h-4.1v-0.4
				C52.8,27.5,51.6,23.3,49.4,19.7z M47.4,46.5c3-3.5,4.8-7.8,5.3-12.4l0-0.3H53c0.2,0,3.9,0,4,0l0.3,0l0,14.2l-0.4-0.1
				c-1.5-0.5-3.2-0.8-4.8-0.8h-5.2L47.4,46.5z M17.8,4.4h28.8c2.7,0,4.9,2.2,4.9,4.9v8.3h-3.6l-0.1-0.1C43.4,12.1,36.9,9,30,9
				c-6.9,0-13.4,3.1-17.8,8.6l-0.1,0.1H8.5l0-4C8.5,8.6,12.7,4.4,17.8,4.4z M30,53C18.3,53,8.8,43.5,8.8,31.8
				c0-11.7,9.5-21.2,21.2-21.2c11.7,0,21.2,9.5,21.2,21.2C51.2,43.5,41.7,53,30,53z M14.7,48.6L14.7,48.6c4.3,3.9,9.7,5.9,15.3,5.9
				c5.6,0,11-2.1,15.2-5.9l0.1-0.1h4.6l-0.5,0.5c-4.9,5.7-12,8.9-19.5,8.9c-7.5,0-14.6-3.3-19.5-8.9l-0.5-0.5H14.7z M10.6,19.7
				c-2.3,3.6-3.5,7.8-3.5,12v0.3l-0.3,0.1H3.1c-0.8,0-1.5-0.7-1.5-1.5v-6.2c0-2.9,2.3-5.2,5.2-5.2h4.2L10.6,19.7z M2.6,48V33.8
				l0.3,0c0.2,0,3.9,0,4,0h0.3l0,0.3c0.5,4.6,2.3,8.9,5.3,12.4l0.4,0.5H7.9c-1.6,0-3.3,0.3-4.8,0.8L2.6,48z"/>
		</g>
		<g>
			<g>
				<path d="M30,19.7c-2,0-17.2,1-17.2,4.8v14c0,3,8.5,7.1,17.2,7.1c8.7,0,17.2-4,17.2-7.1v-14C47.2,20.7,32,19.7,30,19.7z
					 M14.8,24.6c0.6-1,9-2.8,15.2-2.8c6.2,0,14.7,1.9,15.2,2.8v14c-0.1,1-6.2,5.1-15.2,5.1c-8.9,0-15.1-4.1-15.2-5.1L14.8,24.6z"/>
			</g>
		</g>
	</g>
</g>
</svg>
