<?xml version="1.0" encoding="utf-8"?>
<!-- Generator: Adobe Illustrator 22.0.1, SVG Export Plug-In . SVG Version: 6.00 Build 0)  -->
<svg version="1.1" id="Warstwa_1" xmlns="http://www.w3.org/2000/svg" xmlns:xlink="http://www.w3.org/1999/xlink" x="0px" y="0px"
	 viewBox="0 0 1586.9 644.8" style="enable-background:new 0 0 1586.9 644.8;" xml:space="preserve">
<g>
	<g>
		<g>
			<rect x="2.2" y="322.4" width="4" height="1"/>
		</g>
		<g>
			<path d="M1573.2,323.4h-8v-1h8V323.4z M1557.2,323.4h-8v-1h8V323.4z M1541.2,323.4h-8v-1h8V323.4z M1525.2,323.4h-8v-1h8V323.4z
				 M1509.2,323.4h-8v-1h8V323.4z M1493.2,323.4h-8v-1h8V323.4z M1477.2,323.4h-8v-1h8V323.4z M1461.3,323.4h-8v-1h8V323.4z
				 M1445.3,323.4h-8v-1h8V323.4z M1429.3,323.4h-8v-1h8V323.4z M1413.3,323.4h-8v-1h8V323.4z M1397.3,323.4h-8v-1h8V323.4z
				 M1381.3,323.4h-8v-1h8V323.4z M1365.3,323.4h-8v-1h8V323.4z M1349.3,323.4h-8v-1h8V323.4z M1333.3,323.4h-8v-1h8V323.4z
				 M1317.3,323.4h-8v-1h8V323.4z M1301.4,323.4h-8v-1h8V323.4z M1285.4,323.4h-8v-1h8V323.4z M1269.4,323.4h-8v-1h8V323.4z
				 M1253.4,323.4h-8v-1h8V323.4z M1237.4,323.4h-8v-1h8V323.4z M1221.4,323.4h-8v-1h8V323.4z M1205.4,323.4h-8v-1h8V323.4z
				 M1189.4,323.4h-8v-1h8V323.4z M1173.4,323.4h-8v-1h8V323.4z M1157.4,323.4h-8v-1h8V323.4z M1141.5,323.4h-8v-1h8V323.4z
				 M1125.5,323.4h-8v-1h8V323.4z M1109.5,323.4h-8v-1h8V323.4z M1093.5,323.4h-8v-1h8V323.4z M1077.5,323.4h-8v-1h8V323.4z
				 M1061.5,323.4h-8v-1h8V323.4z M1045.5,323.4h-8v-1h8V323.4z M1029.5,323.4h-8v-1h8V323.4z M1013.5,323.4h-8v-1h8V323.4z
				 M997.5,323.4h-8v-1h8V323.4z M981.6,323.4h-8v-1h8V323.4z M965.6,323.4h-8v-1h8V323.4z M949.6,323.4h-8v-1h8V323.4z
				 M933.6,323.4h-8v-1h8V323.4z M917.6,323.4h-8v-1h8V323.4z M901.6,323.4h-8v-1h8V323.4z M885.6,323.4h-8v-1h8V323.4z
				 M869.6,323.4h-8v-1h8V323.4z M853.6,323.4h-8v-1h8V323.4z M837.6,323.4h-8v-1h8V323.4z M821.7,323.4h-8v-1h8V323.4z
				 M805.7,323.4h-8v-1h8V323.4z M789.7,323.4h-8v-1h8V323.4z M773.7,323.4h-8v-1h8V323.4z M757.7,323.4h-8v-1h8V323.4z
				 M741.7,323.4h-8v-1h8V323.4z M725.7,323.4h-8v-1h8V323.4z M709.7,323.4h-8v-1h8V323.4z M693.7,323.4h-8v-1h8V323.4z
				 M677.7,323.4h-8v-1h8V323.4z M661.8,323.4h-8v-1h8V323.4z M645.8,323.4h-8v-1h8V323.4z M629.8,323.4h-8v-1h8V323.4z
				 M613.8,323.4h-8v-1h8V323.4z M597.8,323.4h-8v-1h8V323.4z M581.8,323.4h-8v-1h8V323.4z M565.8,323.4h-8v-1h8V323.4z
				 M549.8,323.4h-8v-1h8V323.4z M533.8,323.4h-8v-1h8V323.4z M517.9,323.4h-8v-1h8V323.4z M501.9,323.4h-8v-1h8V323.4z
				 M485.9,323.4h-8v-1h8V323.4z M469.9,323.4h-8v-1h8V323.4z M453.9,323.4h-8v-1h8V323.4z M437.9,323.4h-8v-1h8V323.4z
				 M421.9,323.4h-8v-1h8V323.4z M405.9,323.4h-8v-1h8V323.4z M389.9,323.4h-8v-1h8V323.4z M373.9,323.4h-8v-1h8V323.4z M358,323.4
				h-8v-1h8V323.4z M342,323.4h-8v-1h8V323.4z M326,323.4h-8v-1h8V323.4z M310,323.4h-8v-1h8V323.4z M294,323.4h-8v-1h8V323.4z
				 M278,323.4h-8v-1h8V323.4z M262,323.4h-8v-1h8V323.4z M246,323.4h-8v-1h8V323.4z M230,323.4h-8v-1h8V323.4z M214,323.4h-8v-1h8
				V323.4z M198.1,323.4h-8v-1h8V323.4z M182.1,323.4h-8v-1h8V323.4z M166.1,323.4h-8v-1h8V323.4z M150.1,323.4h-8v-1h8V323.4z
				 M134.1,323.4h-8v-1h8V323.4z M118.1,323.4h-8v-1h8V323.4z M102.1,323.4h-8v-1h8V323.4z M86.1,323.4h-8v-1h8V323.4z M70.1,323.4
				h-8v-1h8V323.4z M54.1,323.4h-8v-1h8V323.4z M38.2,323.4h-8v-1h8V323.4z M22.2,323.4h-8v-1h8V323.4z"/>
		</g>
		<g>
			<rect x="1581.2" y="322.4" width="4" height="1"/>
		</g>
	</g>
	<g>
		<path d="M793.7,551.3c-0.7,0-1.3,0-2,0l0-1c2.7,0,5.3,0,8-0.1l0,1C797.7,551.3,795.7,551.3,793.7,551.3z M783.7,551.1
			c-2.6-0.1-5.3-0.3-8-0.5l0.1-1c2.6,0.2,5.3,0.4,8,0.5L783.7,551.1z M807.7,550.9l-0.1-1c2.7-0.2,5.3-0.4,8-0.6l0.1,1
			C813.1,550.5,810.4,550.7,807.7,550.9z M767.7,549.8c-2.6-0.3-5.3-0.6-7.9-1l0.1-1c2.6,0.4,5.3,0.7,7.9,1L767.7,549.8z
			 M823.7,549.3l-0.1-1c2.6-0.3,5.3-0.7,7.9-1.2l0.2,1C829,548.6,826.3,549,823.7,549.3z M751.9,547.5c-2.6-0.5-5.3-1-7.9-1.6l0.2-1
			c2.6,0.6,5.2,1.1,7.8,1.6L751.9,547.5z M839.5,546.7l-0.2-1c2.6-0.5,5.2-1.1,7.8-1.7l0.2,1C844.7,545.6,842.1,546.2,839.5,546.7z
			 M736.2,544c-2.6-0.7-5.2-1.4-7.7-2.1l0.3-1c2.5,0.8,5.1,1.5,7.7,2.1L736.2,544z M855.1,543l-0.3-1c2.6-0.7,5.1-1.5,7.6-2.3l0.3,1
			C860.2,541.5,857.6,542.2,855.1,543z M720.9,539.4c-2.5-0.8-5.1-1.8-7.6-2.7l0.4-0.9c2.5,0.9,5,1.8,7.5,2.7L720.9,539.4z
			 M870.4,538.1l-0.3-0.9c2.5-0.9,5-1.8,7.5-2.8l0.4,0.9C875.4,536.3,872.9,537.2,870.4,538.1z M705.8,533.8c-2.5-1-4.9-2.1-7.4-3.2
			l0.4-0.9c2.4,1.1,4.9,2.2,7.3,3.2L705.8,533.8z M885.2,532.2l-0.4-0.9c2.4-1.1,4.9-2.2,7.2-3.3l0.4,0.9
			C890.1,530,887.7,531.1,885.2,532.2z M691.2,527.1c-2.4-1.2-4.8-2.4-7.1-3.7l0.5-0.9c2.3,1.3,4.7,2.5,7.1,3.7L691.2,527.1z
			 M899.6,525.3l-0.5-0.9c2.3-1.2,4.7-2.5,7-3.8l0.5,0.9C904.3,522.8,902,524.1,899.6,525.3z M677.1,519.4c-2.3-1.4-4.6-2.8-6.8-4.2
			l0.5-0.8c2.2,1.4,4.5,2.8,6.8,4.2L677.1,519.4z M913.5,517.4l-0.5-0.9c2.2-1.4,4.5-2.8,6.7-4.3l0.6,0.8
			C918.1,514.5,915.8,516,913.5,517.4z M663.6,510.7c-2.2-1.5-4.4-3.1-6.5-4.7l0.6-0.8c2.1,1.6,4.3,3.2,6.5,4.7L663.6,510.7z
			 M926.9,508.5l-0.6-0.8c2.1-1.5,4.3-3.1,6.4-4.8l0.6,0.8C931.2,505.3,929,506.9,926.9,508.5z M650.8,501.1
			c-2.1-1.7-4.2-3.4-6.2-5.1l0.7-0.8c2,1.7,4.1,3.4,6.1,5.1L650.8,501.1z M939.5,498.7l-0.6-0.8c2-1.7,4.1-3.5,6-5.2l0.7,0.7
			C943.6,495.2,941.6,497,939.5,498.7z M638.7,490.6c-2-1.8-3.9-3.7-5.8-5.5l0.7-0.7c1.9,1.9,3.8,3.7,5.8,5.5L638.7,490.6z
			 M951.5,488l-0.7-0.7c1.9-1.8,3.8-3.7,5.7-5.6l0.7,0.7C955.3,484.3,953.4,486.2,951.5,488z M627.3,479.3c-1.8-1.9-3.6-3.9-5.4-5.9
			l0.8-0.7c1.8,2,3.6,4,5.4,5.9L627.3,479.3z M962.7,476.5l-0.7-0.7c1.8-2,3.6-4,5.3-6l0.8,0.6C966.2,472.5,964.5,474.6,962.7,476.5
			z M616.7,467.3c-1.7-2.1-3.3-4.2-5-6.3l0.8-0.6c1.6,2.1,3.3,4.2,4.9,6.3L616.7,467.3z M973,464.3l-0.8-0.6
			c1.6-2.1,3.3-4.2,4.8-6.4l0.8,0.6C976.3,460,974.7,462.2,973,464.3z M607,454.5c-1.5-2.2-3-4.4-4.5-6.6l0.8-0.5
			c1.5,2.2,3,4.4,4.5,6.6L607,454.5z M982.5,451.4l-0.8-0.6c1.5-2.2,3-4.4,4.4-6.7l0.8,0.5C985.5,446.9,984,449.2,982.5,451.4z
			 M598.3,441.1c-1.4-2.3-2.7-4.6-4-6.9l0.9-0.5c1.3,2.3,2.6,4.6,4,6.9L598.3,441.1z M991.1,437.8l-0.9-0.5c1.3-2.3,2.7-4.6,3.9-7
			l0.9,0.5C993.8,433.1,992.4,435.5,991.1,437.8z M590.4,427.2c-1.2-2.4-2.4-4.8-3.5-7.2l0.9-0.4c1.1,2.4,2.3,4.8,3.5,7.1
			L590.4,427.2z M998.7,423.6l-0.9-0.4c1.2-2.4,2.3-4.8,3.4-7.2l0.9,0.4C1001,418.8,999.9,421.2,998.7,423.6z M583.6,412.7
			c-1-2.4-2.1-4.9-3-7.4l0.9-0.4c1,2.5,2,4.9,3,7.4L583.6,412.7z M1005.3,409l-0.9-0.4c1-2.5,2-5,2.9-7.5l0.9,0.3
			C1007.3,404,1006.3,406.5,1005.3,409z M577.9,397.8c-0.9-2.5-1.7-5.1-2.5-7.6l1-0.3c0.8,2.5,1.6,5.1,2.5,7.6L577.9,397.8z
			 M1010.8,393.9l-1-0.3c0.8-2.5,1.6-5.1,2.3-7.6l1,0.3C1012.4,388.8,1011.6,391.4,1010.8,393.9z M573.2,382.5
			c-0.7-2.6-1.3-5.2-1.9-7.8l1-0.2c0.6,2.6,1.2,5.2,1.9,7.7L573.2,382.5z M1015.2,378.5l-1-0.2c0.6-2.6,1.2-5.2,1.8-7.8l1,0.2
			C1016.5,373.3,1015.9,375.9,1015.2,378.5z M569.5,366.9c-0.5-2.6-1-5.3-1.4-7.9l1-0.2c0.4,2.6,0.9,5.3,1.4,7.9L569.5,366.9z
			 M1018.6,362.8l-1-0.2c0.5-2.6,0.9-5.2,1.2-7.9l1,0.1C1019.4,357.5,1019,360.2,1018.6,362.8z M567,351c-0.3-2.6-0.6-5.3-0.8-8
			l1-0.1c0.2,2.6,0.5,5.3,0.8,7.9L567,351z M1020.8,346.9l-1-0.1c0.3-2.6,0.5-5.3,0.7-7.9l1,0.1
			C1021.3,341.6,1021.1,344.3,1020.8,346.9z M565.6,335.1c-0.1-2.7-0.2-5.4-0.3-8l1,0c0,2.6,0.1,5.3,0.3,8L565.6,335.1z M1021.9,331
			l-1,0c0.1-2.6,0.1-5.3,0.1-8h1C1022,325.6,1022,328.3,1021.9,331z M1021,322.8c0-2.7-0.1-5.4-0.1-8l1,0c0.1,2.6,0.1,5.3,0.1,8
			L1021,322.8z M566.3,319.1l-1,0c0-2.7,0.1-5.4,0.3-8l1,0.1C566.5,313.7,566.4,316.4,566.3,319.1z M1020.5,306.8
			c-0.2-2.6-0.4-5.3-0.7-7.9l1-0.1c0.3,2.7,0.5,5.3,0.7,8L1020.5,306.8z M567.2,303.1l-1-0.1c0.2-2.7,0.5-5.3,0.8-8l1,0.1
			C567.7,297.8,567.4,300.5,567.2,303.1z M1018.8,290.9c-0.4-2.6-0.8-5.3-1.3-7.9l1-0.2c0.5,2.6,0.9,5.3,1.3,7.9L1018.8,290.9z
			 M569.1,287.3l-1-0.2c0.4-2.6,0.9-5.3,1.4-7.9l1,0.2C570,282,569.5,284.7,569.1,287.3z M1016,275.2c-0.6-2.6-1.2-5.2-1.8-7.8
			l1-0.2c0.6,2.6,1.3,5.2,1.8,7.8L1016,275.2z M572.1,271.6l-1-0.2c0.6-2.6,1.3-5.2,1.9-7.8l1,0.3
			C573.4,266.4,572.7,269,572.1,271.6z M1012.1,259.8c-0.7-2.5-1.5-5.1-2.3-7.6l1-0.3c0.8,2.5,1.6,5.1,2.4,7.7L1012.1,259.8z
			 M576.3,256.2l-1-0.3c0.8-2.6,1.6-5.1,2.5-7.6l0.9,0.3C577.9,251.1,577.1,253.7,576.3,256.2z M1007.2,244.6
			c-0.9-2.5-1.9-5-2.9-7.4l0.9-0.4c1,2.5,2,5,2.9,7.5L1007.2,244.6z M581.5,241.1l-0.9-0.4c1-2.5,2-5,3-7.4l0.9,0.4
			C583.5,236.1,582.5,238.6,581.5,241.1z M1001.2,229.8c-1.1-2.4-2.2-4.8-3.4-7.2l0.9-0.4c1.2,2.4,2.3,4.8,3.4,7.2L1001.2,229.8z
			 M587.8,226.4l-0.9-0.4c1.1-2.4,2.3-4.8,3.5-7.2l0.9,0.5C590.1,221.5,588.9,224,587.8,226.4z M994.1,215.6c-1.3-2.3-2.6-4.7-3.9-7
			l0.9-0.5c1.3,2.3,2.7,4.6,3.9,7L994.1,215.6z M595.1,212.1l-0.9-0.5c1.3-2.3,2.7-4.7,4-6.9l0.9,0.5
			C597.7,207.5,596.4,209.8,595.1,212.1z M986.1,201.8c-1.4-2.2-2.9-4.5-4.4-6.7l0.8-0.6c1.5,2.2,3,4.4,4.4,6.7L986.1,201.8z
			 M603.4,198.5l-0.8-0.5c1.5-2.2,3-4.5,4.5-6.6l0.8,0.6C606.3,194,604.8,196.3,603.4,198.5z M977.1,188.6c-1.6-2.1-3.2-4.3-4.8-6.3
			l0.8-0.6c1.7,2.1,3.3,4.2,4.8,6.4L977.1,188.6z M612.6,185.4l-0.8-0.6c1.6-2.1,3.3-4.2,5-6.3l0.8,0.6
			C615.9,181.2,614.2,183.3,612.6,185.4z M967.3,176.1c-1.7-2-3.5-4-5.3-6l0.7-0.7c1.8,2,3.6,4,5.3,6L967.3,176.1z M622.7,173.1
			l-0.8-0.7c1.8-2,3.6-4,5.4-5.9l0.7,0.7C626.3,169.1,624.4,171.1,622.7,173.1z M956.5,164.3c-1.9-1.9-3.8-3.8-5.7-5.6l0.7-0.7
			c1.9,1.8,3.8,3.7,5.7,5.6L956.5,164.3z M633.6,161.4l-0.7-0.7c1.9-1.9,3.8-3.7,5.8-5.5l0.7,0.7
			C637.5,157.7,635.5,159.6,633.6,161.4z M945,153.3c-2-1.8-4-3.5-6-5.2l0.6-0.8c2,1.7,4.1,3.5,6.1,5.2L945,153.3z M645.4,150.6
			l-0.7-0.8c2-1.7,4.1-3.5,6.2-5.1l0.6,0.8C649.4,147.2,647.4,148.9,645.4,150.6z M932.7,143c-2.1-1.6-4.2-3.2-6.4-4.8l0.6-0.8
			c2.2,1.6,4.3,3.2,6.4,4.8L932.7,143z M657.8,140.6l-0.6-0.8c2.1-1.6,4.3-3.2,6.5-4.7l0.6,0.8C662.1,137.5,659.9,139.1,657.8,140.6
			z M919.8,133.7c-2.2-1.5-4.5-2.9-6.7-4.3l0.5-0.9c2.3,1.4,4.5,2.9,6.8,4.3L919.8,133.7z M670.9,131.6l-0.5-0.8
			c2.2-1.4,4.5-2.9,6.8-4.2l0.5,0.9C675.4,128.7,673.1,130.1,670.9,131.6z M906.2,125.3c-2.3-1.3-4.7-2.6-7-3.8l0.5-0.9
			c2.4,1.2,4.7,2.5,7,3.9L906.2,125.3z M684.6,123.4l-0.5-0.9c2.3-1.3,4.7-2.5,7.1-3.7l0.4,0.9C689.3,120.9,686.9,122.1,684.6,123.4
			z M892,117.9c-2.4-1.2-4.8-2.3-7.3-3.3l0.4-0.9c2.4,1.1,4.9,2.2,7.3,3.3L892,117.9z M698.8,116.3l-0.4-0.9
			c2.4-1.1,4.9-2.2,7.3-3.2l0.4,0.9C703.7,114.1,701.2,115.2,698.8,116.3z M877.4,111.5c-2.5-1-5-1.9-7.5-2.8l0.3-0.9
			c2.5,0.9,5,1.8,7.5,2.8L877.4,111.5z M713.5,110.1l-0.4-0.9c2.5-0.9,5-1.8,7.5-2.7l0.3,0.9C718.5,108.3,716,109.2,713.5,110.1z
			 M862.3,106.1c-2.5-0.8-5.1-1.6-7.7-2.3l0.3-1c2.6,0.7,5.1,1.5,7.7,2.3L862.3,106.1z M728.6,105l-0.3-1c2.6-0.8,5.2-1.5,7.7-2.2
			l0.3,1C733.7,103.6,731.2,104.3,728.6,105z M846.9,101.8c-2.6-0.6-5.2-1.2-7.8-1.7l0.2-1c2.6,0.5,5.2,1.1,7.8,1.7L846.9,101.8z
			 M744.1,101l-0.2-1c2.6-0.6,5.2-1.1,7.9-1.6l0.2,1C749.3,99.9,746.6,100.4,744.1,101z M831.3,98.7c-2.6-0.4-5.3-0.8-7.9-1.2l0.1-1
			c2.6,0.3,5.3,0.7,7.9,1.2L831.3,98.7z M759.7,98.1l-0.1-1c2.6-0.4,5.3-0.7,7.9-1l0.1,1C765,97.4,762.4,97.7,759.7,98.1z
			 M815.4,96.6c-2.6-0.3-5.3-0.5-8-0.6l0.1-1c2.7,0.2,5.3,0.4,8,0.6L815.4,96.6z M775.6,96.3l-0.1-1c2.7-0.2,5.3-0.4,8-0.5l0,1
			C780.9,95.9,778.2,96.1,775.6,96.3z M799.5,95.7c-2-0.1-4-0.1-6-0.1c-0.7,0-1.3,0-2,0l0-1c0.7,0,1.4,0,2.2,0c1.9,0,3.9,0,5.9,0.1
			L799.5,95.7z"/>
	</g>
	<g>
		<path d="M793.7,643.5l-1,0l0-1l1,0c2.3,0,4.7,0,7-0.1l0,1C798.4,643.5,796,643.5,793.7,643.5z M784.6,643.4
			c-2.7-0.1-5.4-0.2-8-0.3l0.1-1c2.6,0.1,5.3,0.2,8,0.3L784.6,643.4z M808.7,643.2l0-1c2.7-0.1,5.4-0.3,8-0.5l0.1,1
			C814,642.9,811.3,643.1,808.7,643.2z M768.6,642.6c-2.7-0.2-5.3-0.4-8-0.7l0.1-1c2.6,0.3,5.3,0.5,8,0.7L768.6,642.6z M824.6,642.1
			l-0.1-1c2.7-0.3,5.3-0.5,7.9-0.9l0.1,1C830,641.5,827.3,641.8,824.6,642.1z M752.7,641c-2.7-0.3-5.3-0.7-7.9-1.1l0.2-1
			c2.6,0.4,5.2,0.8,7.9,1.1L752.7,641z M840.5,640.1l-0.1-1c2.6-0.4,5.3-0.8,7.9-1.3l0.2,1C845.8,639.3,843.2,639.8,840.5,640.1z
			 M736.9,638.5c-2.6-0.5-5.3-1-7.9-1.5l0.2-1c2.6,0.5,5.2,1,7.8,1.5L736.9,638.5z M856.3,637.4l-0.2-1c2.6-0.5,5.2-1.1,7.8-1.7
			l0.2,1C861.6,636.4,859,636.9,856.3,637.4z M721.2,635.3c-2.6-0.6-5.2-1.2-7.8-1.9l0.3-1c2.5,0.7,5.2,1.3,7.8,1.9L721.2,635.3z
			 M872,633.9l-0.2-1c2.6-0.6,5.2-1.3,7.7-2l0.3,1C877.1,632.6,874.5,633.3,872,633.9z M705.7,631.3c-2.6-0.7-5.1-1.5-7.7-2.3l0.3-1
			c2.5,0.8,5.1,1.6,7.7,2.3L705.7,631.3z M887.4,629.6l-0.3-1c2.5-0.8,5.1-1.6,7.6-2.4l0.3,0.9C892.5,628,889.9,628.9,887.4,629.6z
			 M690.3,626.5c-2.5-0.9-5.1-1.8-7.6-2.7l0.3-0.9c2.5,0.9,5,1.8,7.6,2.7L690.3,626.5z M902.6,624.6l-0.3-0.9c2.5-0.9,5-1.8,7.5-2.8
			l0.4,0.9C907.6,622.7,905.1,623.7,902.6,624.6z M675.3,621c-2.5-1-5-2-7.4-3.1l0.4-0.9c2.4,1,4.9,2.1,7.4,3.1L675.3,621z
			 M917.5,618.8l-0.4-0.9c2.4-1,4.9-2.1,7.3-3.2l0.4,0.9C922.4,616.7,919.9,617.7,917.5,618.8z M660.5,614.7
			c-2.5-1.1-4.9-2.3-7.3-3.4l0.4-0.9c2.4,1.2,4.8,2.3,7.2,3.4L660.5,614.7z M932.1,612.2l-0.4-0.9c2.4-1.1,4.8-2.3,7.1-3.5l0.5,0.9
			C936.9,609.9,934.5,611.1,932.1,612.2z M646.1,607.6c-2.4-1.2-4.8-2.5-7.1-3.8l0.5-0.9c2.3,1.3,4.7,2.6,7.1,3.8L646.1,607.6z
			 M946.3,605l-0.5-0.9c2.3-1.3,4.7-2.6,7-3.9l0.5,0.9C951,602.4,948.6,603.7,946.3,605z M632,599.9c-2.3-1.4-4.6-2.7-6.9-4.1
			l0.5-0.8c2.2,1.4,4.6,2.8,6.9,4.1L632,599.9z M960.2,597l-0.5-0.9c2.3-1.4,4.5-2.8,6.8-4.2l0.5,0.8
			C964.7,594.2,962.4,595.6,960.2,597z M618.4,591.4c-2.2-1.5-4.5-3-6.7-4.5l0.6-0.8c2.2,1.5,4.4,3,6.6,4.5L618.4,591.4z
			 M973.6,588.3l-0.6-0.8c2.2-1.5,4.4-3,6.5-4.6l0.6,0.8C978,585.3,975.8,586.8,973.6,588.3z M605.2,582.3c-2.1-1.6-4.3-3.2-6.4-4.8
			l0.6-0.8c2.1,1.6,4.3,3.2,6.4,4.8L605.2,582.3z M986.6,579l-0.6-0.8c2.1-1.6,4.2-3.2,6.3-4.9l0.6,0.8
			C990.9,575.8,988.7,577.4,986.6,579z M592.4,572.5c-2.1-1.7-4.1-3.4-6.2-5.1l0.6-0.8c2,1.7,4.1,3.4,6.2,5.1L592.4,572.5z
			 M999.1,569.1l-0.6-0.8c2-1.7,4.1-3.4,6.1-5.2l0.7,0.8C1003.2,565.6,1001.2,567.4,999.1,569.1z M580.2,562.2c-2-1.8-4-3.6-5.9-5.4
			l0.7-0.7c1.9,1.8,3.9,3.6,5.9,5.4L580.2,562.2z M1011.2,558.5l-0.7-0.7c1.9-1.8,3.9-3.6,5.8-5.5l0.7,0.7
			C1015.1,554.8,1013.1,556.7,1011.2,558.5z M568.5,551.2c-1.9-1.9-3.8-3.8-5.6-5.7l0.7-0.7c1.8,1.9,3.7,3.8,5.6,5.7L568.5,551.2z
			 M1022.7,547.3l-0.7-0.7c1.9-1.9,3.7-3.8,5.5-5.8l0.7,0.7C1026.4,543.5,1024.5,545.4,1022.7,547.3z M557.4,539.7
			c-1.8-2-3.6-4-5.3-6l0.8-0.7c1.7,2,3.5,4,5.3,5.9L557.4,539.7z M1033.6,535.6l-0.7-0.7c1.8-2,3.5-4,5.2-6l0.8,0.6
			C1037.1,531.6,1035.4,533.6,1033.6,535.6z M546.9,527.6c-1.7-2.1-3.4-4.1-5-6.2l0.8-0.6c1.6,2.1,3.3,4.2,5,6.2L546.9,527.6z
			 M1043.9,523.4l-0.8-0.6c1.7-2.1,3.3-4.2,4.9-6.3l0.8,0.6C1047.3,519.2,1045.6,521.3,1043.9,523.4z M537,515.1
			c-1.6-2.1-3.2-4.3-4.7-6.5l0.8-0.6c1.5,2.2,3.1,4.3,4.7,6.4L537,515.1z M1053.6,510.6l-0.8-0.6c1.6-2.2,3.1-4.4,4.6-6.5l0.8,0.6
			C1056.8,506.2,1055.2,508.4,1053.6,510.6z M527.7,502c-1.5-2.2-3-4.4-4.4-6.7l0.8-0.5c1.4,2.2,2.9,4.5,4.4,6.7L527.7,502z
			 M1062.7,497.4l-0.8-0.5c1.4-2.2,2.9-4.5,4.3-6.8l0.9,0.5C1065.6,492.9,1064.2,495.2,1062.7,497.4z M519.1,488.5
			c-1.4-2.3-2.7-4.6-4-6.9l0.9-0.5c1.3,2.3,2.7,4.6,4,6.9L519.1,488.5z M1071.1,483.7l-0.9-0.5c1.3-2.3,2.7-4.6,3.9-7l0.9,0.5
			C1073.8,479.1,1072.4,481.4,1071.1,483.7z M511.2,474.7c-1.3-2.3-2.5-4.7-3.7-7.1l0.9-0.5c1.2,2.4,2.4,4.7,3.7,7.1L511.2,474.7z
			 M1078.8,469.6l-0.9-0.5c1.2-2.3,2.4-4.7,3.6-7.2l0.9,0.4C1081.2,464.9,1080,467.3,1078.8,469.6z M504,460.4
			c-1.1-2.4-2.3-4.8-3.3-7.3l0.9-0.4c1.1,2.4,2.2,4.9,3.3,7.2L504,460.4z M1085.8,455.2l-0.9-0.4c1.1-2.4,2.2-4.9,3.2-7.3l0.9,0.4
			C1088,450.3,1086.9,452.8,1085.8,455.2z M497.5,445.8c-1-2.5-2-4.9-3-7.4l0.9-0.4c0.9,2.5,1.9,4.9,3,7.4L497.5,445.8z
			 M1092.1,440.4l-0.9-0.4c1-2.5,1.9-5,2.8-7.5l0.9,0.3C1094,435.4,1093.1,437.9,1092.1,440.4z M491.7,430.9
			c-0.9-2.5-1.8-5.1-2.6-7.6l1-0.3c0.8,2.5,1.7,5,2.6,7.6L491.7,430.9z M1097.6,425.3l-0.9-0.3c0.9-2.5,1.7-5.1,2.5-7.6l1,0.3
			C1099.3,420.2,1098.4,422.8,1097.6,425.3z M486.7,415.7c-0.8-2.5-1.5-5.1-2.2-7.7l1-0.3c0.7,2.6,1.4,5.1,2.2,7.7L486.7,415.7z
			 M1102.3,410l-1-0.3c0.7-2.5,1.4-5.1,2.1-7.7l1,0.2C1103.7,404.8,1103,407.4,1102.3,410z M482.5,400.2c-0.6-2.6-1.3-5.2-1.8-7.8
			l1-0.2c0.6,2.6,1.2,5.2,1.8,7.8L482.5,400.2z M1106.3,394.4l-1-0.2c0.6-2.6,1.2-5.2,1.7-7.8l1,0.2
			C1107.4,389.2,1106.9,391.9,1106.3,394.4z M479,384.6c-0.5-2.6-1-5.3-1.4-7.9l1-0.2c0.4,2.6,0.9,5.3,1.4,7.9L479,384.6z
			 M1109.4,378.7l-1-0.2c0.5-2.6,0.9-5.2,1.3-7.9l1,0.1C1110.3,373.5,1109.9,376.1,1109.4,378.7z M476.3,368.8
			c-0.4-2.6-0.7-5.3-1-7.9l1-0.1c0.3,2.6,0.7,5.3,1,7.9L476.3,368.8z M1111.8,362.9l-1-0.1c0.3-2.6,0.6-5.3,0.9-7.9l1,0.1
			C1112.4,357.6,1112.1,360.3,1111.8,362.9z M474.5,352.9c-0.2-2.6-0.5-5.3-0.6-8l1-0.1c0.2,2.6,0.4,5.3,0.6,8L474.5,352.9z
			 M1113.4,347l-1-0.1c0.2-2.6,0.4-5.3,0.5-8l1,0C1113.8,341.6,1113.6,344.3,1113.4,347z M473.4,336.9c-0.1-2.7-0.2-5.3-0.2-8l1,0
			c0,2.6,0.1,5.3,0.2,8L473.4,336.9z M1114.2,331l-1,0c0.1-2.7,0.1-5.3,0.1-8h1C1114.3,325.6,1114.2,328.3,1114.2,331z M474.1,320.9
			l-1,0c0-2.7,0.1-5.4,0.1-8l1,0C474.1,315.6,474.1,318.3,474.1,320.9z M1113.3,319c0-2.7-0.1-5.4-0.2-8l1,0c0.1,2.6,0.2,5.3,0.2,8
			L1113.3,319z M474.6,304.9l-1-0.1c0.1-2.7,0.3-5.4,0.5-8l1,0.1C474.9,299.6,474.7,302.3,474.6,304.9z M1112.7,303.1
			c-0.2-2.7-0.4-5.3-0.6-8l1-0.1c0.2,2.6,0.4,5.3,0.6,8L1112.7,303.1z M475.8,289l-1-0.1c0.3-2.6,0.6-5.3,0.9-8l1,0.1
			C476.4,283.7,476.1,286.4,475.8,289z M1111.3,287.2c-0.3-2.6-0.6-5.3-1-7.9l1-0.1c0.4,2.6,0.7,5.3,1,7.9L1111.3,287.2z
			 M477.9,273.2l-1-0.2c0.4-2.6,0.9-5.3,1.3-7.9l1,0.2C478.8,267.9,478.3,270.6,477.9,273.2z M1109.1,271.4
			c-0.4-2.6-0.9-5.3-1.4-7.9l1-0.2c0.5,2.6,1,5.3,1.4,7.9L1109.1,271.4z M480.8,257.5l-1-0.2c0.5-2.6,1.1-5.2,1.7-7.8l1,0.2
			C481.9,252.3,481.3,254.9,480.8,257.5z M1106.2,255.7c-0.5-2.6-1.1-5.2-1.8-7.8l1-0.2c0.6,2.6,1.2,5.2,1.8,7.8L1106.2,255.7z
			 M484.4,241.9l-1-0.3c0.7-2.6,1.4-5.2,2.1-7.7l1,0.3C485.8,236.8,485.1,239.4,484.4,241.9z M1102.5,240.1
			c-0.7-2.6-1.4-5.1-2.2-7.7l1-0.3c0.8,2.6,1.5,5.2,2.2,7.7L1102.5,240.1z M488.9,226.6l-1-0.3c0.8-2.6,1.7-5.1,2.5-7.6l0.9,0.3
			C490.5,221.5,489.7,224,488.9,226.6z M1097.9,224.8c-0.8-2.5-1.7-5.1-2.5-7.6l0.9-0.3c0.9,2.5,1.7,5.1,2.6,7.6L1097.9,224.8z
			 M494.1,211.4l-0.9-0.3c0.9-2.5,1.9-5,2.9-7.5l0.9,0.4C496,206.4,495,208.9,494.1,211.4z M1092.7,209.7c-0.9-2.5-1.9-5-2.9-7.4
			l0.9-0.4c1,2.4,2,5,2.9,7.5L1092.7,209.7z M500,196.6l-0.9-0.4c1.1-2.4,2.2-4.9,3.3-7.3l0.9,0.4
			C502.2,191.7,501.1,194.1,500,196.6z M1086.6,195c-1.1-2.4-2.2-4.9-3.3-7.3l0.9-0.4c1.1,2.4,2.2,4.8,3.3,7.3L1086.6,195z
			 M506.7,182l-0.9-0.4c1.2-2.4,2.4-4.8,3.6-7.2l0.9,0.5C509.1,177.2,507.9,179.6,506.7,182z M1079.9,180.6
			c-1.2-2.4-2.4-4.8-3.6-7.1l0.9-0.5c1.2,2.3,2.5,4.7,3.7,7.1L1079.9,180.6z M514.2,167.9l-0.9-0.5c1.3-2.3,2.6-4.7,4-7l0.9,0.5
			C516.8,163.2,515.4,165.5,514.2,167.9z M1072.4,166.5c-1.3-2.3-2.6-4.6-4-6.9l0.9-0.5c1.4,2.3,2.7,4.6,4,6.9L1072.4,166.5z
			 M522.3,154.1l-0.8-0.5c1.4-2.3,2.9-4.5,4.3-6.8l0.8,0.5C525.1,149.6,523.7,151.8,522.3,154.1z M1064.3,152.8
			c-1.4-2.2-2.9-4.5-4.3-6.7l0.8-0.6c1.5,2.2,2.9,4.5,4.3,6.7L1064.3,152.8z M531.1,140.7l-0.8-0.6c1.5-2.2,3.1-4.4,4.7-6.5l0.8,0.6
			C534.2,136.4,532.6,138.5,531.1,140.7z M1055.4,139.5c-1.5-2.2-3.1-4.4-4.7-6.5l0.8-0.6c1.6,2.1,3.1,4.3,4.7,6.5L1055.4,139.5z
			 M540.5,127.8l-0.8-0.6c1.6-2.1,3.3-4.2,5-6.3l0.8,0.6C543.8,123.6,542.1,125.7,540.5,127.8z M1046,126.7c-1.6-2.1-3.3-4.2-5-6.2
			l0.8-0.6c1.7,2,3.4,4.2,5,6.3L1046,126.7z M550.6,115.4l-0.8-0.6c1.7-2,3.5-4,5.3-6l0.7,0.7C554.1,111.4,552.3,113.4,550.6,115.4z
			 M1035.8,114.4c-1.7-2-3.5-4-5.3-6l0.7-0.7c1.8,2,3.6,4,5.3,6L1035.8,114.4z M561.3,103.5l-0.7-0.7c1.8-1.9,3.7-3.9,5.6-5.8
			l0.7,0.7C565,99.7,563.1,101.6,561.3,103.5z M1025.1,102.5c-1.8-1.9-3.7-3.9-5.6-5.7l0.7-0.7c1.9,1.9,3.8,3.8,5.6,5.7
			L1025.1,102.5z M572.5,92.2l-0.7-0.7c1.9-1.8,3.9-3.7,5.8-5.5l0.7,0.7C576.4,88.5,574.4,90.4,572.5,92.2z M1013.8,91.2
			c-1.9-1.8-3.9-3.7-5.9-5.4l0.7-0.7c2,1.8,3.9,3.6,5.9,5.4L1013.8,91.2z M584.3,81.5l-0.7-0.8c2-1.7,4.1-3.5,6.1-5.2l0.6,0.8
			C588.4,78,586.3,79.7,584.3,81.5z M1002,80.5c-2-1.7-4.1-3.5-6.1-5.1l0.6-0.8c2,1.7,4.1,3.4,6.1,5.1L1002,80.5z M596.6,71.3
			l-0.6-0.8c2.1-1.6,4.2-3.3,6.4-4.9l0.6,0.8C600.8,68,598.7,69.7,596.6,71.3z M989.6,70.4c-2.1-1.6-4.2-3.3-6.4-4.8l0.6-0.8
			c2.1,1.6,4.3,3.2,6.4,4.8L989.6,70.4z M609.4,61.8l-0.6-0.8c2.2-1.5,4.4-3.1,6.6-4.5l0.6,0.8C613.8,58.7,611.6,60.2,609.4,61.8z
			 M976.7,60.9c-2.2-1.5-4.4-3-6.6-4.5l0.6-0.8c2.2,1.5,4.4,3,6.6,4.5L976.7,60.9z M622.7,52.9l-0.5-0.8c2.2-1.4,4.5-2.8,6.8-4.2
			l0.5,0.9C627.2,50.1,624.9,51.5,622.7,52.9z M963.4,52.1c-2.2-1.4-4.5-2.8-6.8-4.2l0.5-0.9c2.3,1.4,4.6,2.8,6.8,4.2L963.4,52.1z
			 M636.3,44.7l-0.5-0.9c2.3-1.3,4.7-2.6,7-3.9l0.5,0.9C641,42.1,638.6,43.4,636.3,44.7z M949.7,43.9c-2.3-1.3-4.7-2.6-7-3.8
			l0.5-0.9c2.4,1.2,4.7,2.5,7.1,3.8L949.7,43.9z M650.4,37.2l-0.4-0.9c2.4-1.2,4.8-2.4,7.2-3.5l0.4,0.9
			C655.2,34.8,652.7,36,650.4,37.2z M935.5,36.5c-2.4-1.2-4.8-2.3-7.2-3.5l0.4-0.9c2.4,1.1,4.9,2.3,7.2,3.5L935.5,36.5z M664.8,30.4
			l-0.4-0.9c2.4-1.1,4.9-2.1,7.3-3.1l0.4,0.9C669.7,28.3,667.2,29.3,664.8,30.4z M921,29.7c-2.5-1.1-4.9-2.1-7.4-3.1l0.4-0.9
			c2.5,1,5,2,7.4,3.1L921,29.7z M679.5,24.3l-0.4-0.9c2.5-1,5-1.9,7.5-2.8l0.3,0.9C684.5,22.4,682,23.4,679.5,24.3z M906.1,23.7
			c-2.5-0.9-5-1.8-7.5-2.7l0.3-0.9c2.5,0.9,5.1,1.8,7.6,2.7L906.1,23.7z M694.6,19l-0.3-1c2.5-0.8,5.1-1.6,7.6-2.4l0.3,1
			C699.7,17.4,697.1,18.2,694.6,19z M891,18.4c-2.5-0.8-5.1-1.6-7.6-2.3l0.3-1c2.5,0.7,5.1,1.5,7.7,2.3L891,18.4z M709.9,14.4
			l-0.3-1c2.6-0.7,5.2-1.4,7.8-2l0.2,1C715.1,13.1,712.5,13.7,709.9,14.4z M875.7,14c-2.6-0.7-5.2-1.3-7.7-1.9l0.2-1
			c2.6,0.6,5.2,1.3,7.8,2L875.7,14z M725.4,10.6l-0.2-1c2.6-0.6,5.2-1.1,7.8-1.6l0.2,1C730.6,9.5,728,10.1,725.4,10.6z M860.1,10.3
			c-2.6-0.5-5.2-1.1-7.8-1.6l0.2-1c2.6,0.5,5.3,1,7.9,1.6L860.1,10.3z M741.1,7.6l-0.2-1c2.6-0.4,5.3-0.8,7.9-1.2l0.1,1
			C746.4,6.8,743.7,7.2,741.1,7.6z M844.4,7.3c-2.6-0.4-5.3-0.8-7.9-1.2l0.1-1c2.6,0.4,5.3,0.7,7.9,1.2L844.4,7.3z M756.9,5.4
			l-0.1-1c2.6-0.3,5.3-0.6,8-0.8l0.1,1C762.2,4.9,759.5,5.1,756.9,5.4z M828.6,5.2c-2.6-0.3-5.3-0.5-8-0.8l0.1-1
			c2.6,0.2,5.3,0.5,8,0.8L828.6,5.2z M772.8,4l-0.1-1c2.7-0.2,5.3-0.3,8-0.4l0,1C778.1,3.7,775.5,3.8,772.8,4z M812.7,3.9
			c-2.6-0.2-5.3-0.3-8-0.4l0-1c2.7,0.1,5.3,0.2,8,0.4L812.7,3.9z M788.8,3.4l0-1c2.7,0,5.3,0,8,0l0,1C794.1,3.3,791.4,3.3,788.8,3.4
			z"/>
	</g>
</g>
</svg>
