<?xml version="1.0" encoding="utf-8"?>
<!-- Generator: Adobe Illustrator 22.0.1, SVG Export Plug-In . SVG Version: 6.00 Build 0)  -->
<svg version="1.1" id="Warstwa_1" xmlns="http://www.w3.org/2000/svg" xmlns:xlink="http://www.w3.org/1999/xlink" x="0px" y="0px"
	 viewBox="0 0 1586.9 644.8" style="enable-background:new 0 0 1586.9 644.8;" xml:space="preserve">
<style>svg {
	fill: #717171;
	opacity: 0.5;
}</style>
<g>
	<g>
		<g>
			<rect x="9.8" y="322.3" width="4" height="1"/>
		</g>
		<g>
			<path d="M776.4,323.3h-7.9v-1h7.9V323.3z M760.5,323.3h-7.9v-1h7.9V323.3z M744.7,323.3h-7.9v-1h7.9V323.3z M728.8,323.3h-7.9v-1
				h7.9V323.3z M712.9,323.3h-7.9v-1h7.9V323.3z M697,323.3H689v-1h7.9V323.3z M681.1,323.3h-7.9v-1h7.9V323.3z M665.2,323.3h-7.9
				v-1h7.9V323.3z M649.3,323.3h-7.9v-1h7.9V323.3z M633.4,323.3h-7.9v-1h7.9V323.3z M617.5,323.3h-7.9v-1h7.9V323.3z M601.7,323.3
				h-7.9v-1h7.9V323.3z M585.8,323.3h-7.9v-1h7.9V323.3z M569.9,323.3h-7.9v-1h7.9V323.3z M554,323.3H546v-1h7.9V323.3z
				 M538.1,323.3h-7.9v-1h7.9V323.3z M522.2,323.3h-7.9v-1h7.9V323.3z M506.3,323.3h-7.9v-1h7.9V323.3z M490.4,323.3h-7.9v-1h7.9
				V323.3z M474.5,323.3h-7.9v-1h7.9V323.3z M458.7,323.3h-7.9v-1h7.9V323.3z M442.8,323.3h-7.9v-1h7.9V323.3z M426.9,323.3h-7.9v-1
				h7.9V323.3z M411,323.3H403v-1h7.9V323.3z M395.1,323.3h-7.9v-1h7.9V323.3z M379.2,323.3h-7.9v-1h7.9V323.3z M363.3,323.3h-7.9
				v-1h7.9V323.3z M347.4,323.3h-7.9v-1h7.9V323.3z M331.5,323.3h-7.9v-1h7.9V323.3z M315.7,323.3h-7.9v-1h7.9V323.3z M299.8,323.3
				h-7.9v-1h7.9V323.3z M283.9,323.3h-7.9v-1h7.9V323.3z M268,323.3h-7.9v-1h7.9V323.3z M252.1,323.3h-7.9v-1h7.9V323.3z
				 M236.2,323.3h-7.9v-1h7.9V323.3z M220.3,323.3h-7.9v-1h7.9V323.3z M204.4,323.3h-7.9v-1h7.9V323.3z M188.6,323.3h-7.9v-1h7.9
				V323.3z M172.7,323.3h-7.9v-1h7.9V323.3z M156.8,323.3h-7.9v-1h7.9V323.3z M140.9,323.3h-7.9v-1h7.9V323.3z M125,323.3h-7.9v-1
				h7.9V323.3z M109.1,323.3h-7.9v-1h7.9V323.3z M93.2,323.3h-7.9v-1h7.9V323.3z M77.3,323.3h-7.9v-1h7.9V323.3z M61.4,323.3h-7.9
				v-1h7.9V323.3z M45.6,323.3h-7.9v-1h7.9V323.3z M29.7,323.3h-7.9v-1h7.9V323.3z"/>
		</g>
		<g>
			<rect x="784.4" y="322.3" width="4" height="1"/>
		</g>
	</g>
	<g>
		<path d="M790.3,643.4c-2.7,0-5.4-0.1-8-0.2l0-1c2.6,0.1,5.3,0.1,8,0.2L790.3,643.4z M774.3,642.9c-2.7-0.1-5.3-0.3-8-0.5l0.1-1
			c2.6,0.2,5.3,0.4,8,0.5L774.3,642.9z M758.3,641.7c-2.7-0.3-5.4-0.6-8-0.9l0.1-1c2.6,0.3,5.3,0.6,7.9,0.9L758.3,641.7z
			 M742.4,639.7c-2.7-0.4-5.3-0.8-7.9-1.3l0.2-1c2.6,0.5,5.2,0.9,7.9,1.3L742.4,639.7z M726.7,637c-2.6-0.5-5.2-1.1-7.8-1.7l0.2-1
			c2.6,0.6,5.2,1.1,7.8,1.7L726.7,637z M711.1,633.4c-2.6-0.7-5.2-1.4-7.7-2.1l0.3-1c2.5,0.7,5.1,1.4,7.7,2.1L711.1,633.4z
			 M695.7,629.1c-2.5-0.8-5.1-1.6-7.6-2.5l0.3-0.9c2.5,0.9,5.1,1.7,7.6,2.5L695.7,629.1z M680.5,623.9c-2.5-0.9-5-1.9-7.5-2.9
			l0.4-0.9c2.5,1,5,1.9,7.4,2.9L680.5,623.9z M665.7,617.9c-2.4-1-4.9-2.1-7.3-3.3l0.4-0.9c2.4,1.1,4.9,2.2,7.3,3.3L665.7,617.9z
			 M651.2,611.2c-2.4-1.2-4.8-2.4-7.1-3.6l0.5-0.9c2.4,1.2,4.7,2.5,7.1,3.6L651.2,611.2z M637,603.8c-2.3-1.3-4.6-2.6-6.9-4l0.5-0.9
			c2.3,1.4,4.6,2.7,6.9,4L637,603.8z M623.3,595.6c-2.2-1.4-4.5-2.9-6.7-4.3l0.6-0.8c2.2,1.5,4.5,2.9,6.7,4.3L623.3,595.6z
			 M609.9,586.8c-2.1-1.5-4.3-3-6.5-4.6l0.6-0.8c2.2,1.6,4.3,3.1,6.5,4.6L609.9,586.8z M597,577.4c-2.1-1.6-4.2-3.2-6.3-4.9l0.6-0.8
			c2.1,1.7,4.2,3.3,6.3,4.9L597,577.4z M584.4,567.5c-2-1.7-4.1-3.4-6.1-5.2l0.7-0.8c2,1.8,4.1,3.5,6.1,5.2L584.4,567.5z M572.3,557
			c-1.9-1.7-3.9-3.6-5.9-5.4l0.7-0.7c2,1.8,4,3.6,5.9,5.4L572.3,557z M560.5,546.1c-1.9-1.8-3.8-3.7-5.7-5.6l0.7-0.7
			c1.9,1.9,3.8,3.8,5.7,5.6L560.5,546.1z M549.2,534.8c-1.9-1.9-3.7-3.8-5.5-5.8l0.7-0.7c1.8,1.9,3.7,3.9,5.5,5.8L549.2,534.8z
			 M538.2,523.1c-1.8-2-3.6-3.9-5.4-5.9l0.7-0.7c1.8,2,3.6,4,5.3,5.9L538.2,523.1z M527.6,511.2c-1.7-2-3.5-4-5.2-6.1l0.8-0.6
			c1.7,2,3.4,4.1,5.2,6.1L527.6,511.2z M517.3,498.9c-1.7-2.1-3.4-4.1-5-6.2l0.8-0.6c1.7,2.1,3.3,4.2,5,6.2L517.3,498.9z
			 M507.3,486.4c-1.6-2.1-3.3-4.2-4.9-6.3l0.8-0.6c1.6,2.1,3.3,4.2,4.9,6.3L507.3,486.4z M497.5,473.7c-1.6-2.1-3.2-4.3-4.8-6.4
			l0.8-0.6c1.6,2.1,3.2,4.3,4.8,6.4L497.5,473.7z M488,460.8c-1.6-2.2-3.1-4.3-4.7-6.5l0.8-0.6c1.5,2.2,3.1,4.3,4.7,6.5L488,460.8z
			 M478.8,447.8c-1.5-2.2-3-4.4-4.6-6.6l0.8-0.6c1.5,2.2,3,4.4,4.6,6.6L478.8,447.8z M469.7,434.6c-1.5-2.2-3-4.4-4.5-6.6l0.8-0.6
			c1.5,2.2,3,4.4,4.5,6.6L469.7,434.6z M460.8,421.3c-1.5-2.2-2.9-4.5-4.4-6.7l0.8-0.5c1.5,2.2,2.9,4.5,4.4,6.7L460.8,421.3z
			 M452.1,407.9c-1.4-2.2-2.9-4.5-4.3-6.7l0.8-0.5c1.4,2.3,2.9,4.5,4.3,6.7L452.1,407.9z M443.5,394.4c-1.4-2.3-2.8-4.5-4.3-6.8
			l0.8-0.5c1.4,2.3,2.8,4.5,4.3,6.8L443.5,394.4z M435,380.8c-1.4-2.3-2.8-4.5-4.2-6.8l0.9-0.5c1.4,2.3,2.8,4.5,4.2,6.8L435,380.8z
			 M426.6,367.2c-1.4-2.3-2.8-4.5-4.2-6.8l0.9-0.5c1.4,2.3,2.8,4.6,4.2,6.8L426.6,367.2z M418.2,353.5c-1.4-2.3-2.8-4.6-4.1-6.8
			l0.9-0.5c1.4,2.3,2.8,4.6,4.1,6.8L418.2,353.5z M409.9,339.8l-4.1-6.9l0.9-0.5l4.1,6.9L409.9,339.8z M401.7,326l-4.1-6.9l0.9-0.5
			l4.1,6.9L401.7,326z M393.4,312.3l-4.1-6.9l0.9-0.5l4.1,6.9L393.4,312.3z M385.1,298.6c-1.4-2.3-2.8-4.6-4.1-6.8l0.9-0.5
			c1.4,2.3,2.8,4.6,4.1,6.8L385.1,298.6z M376.8,284.9c-1.4-2.3-2.8-4.5-4.2-6.8l0.9-0.5c1.4,2.3,2.8,4.5,4.2,6.8L376.8,284.9z
			 M368.5,271.3c-1.4-2.3-2.8-4.5-4.2-6.8l0.8-0.5c1.4,2.3,2.8,4.5,4.2,6.8L368.5,271.3z M360.1,257.7c-1.4-2.3-2.8-4.5-4.3-6.8
			l0.8-0.5c1.4,2.3,2.8,4.5,4.3,6.8L360.1,257.7z M351.5,244.2c-1.4-2.3-2.9-4.5-4.3-6.7l0.8-0.5c1.4,2.2,2.9,4.5,4.3,6.7
			L351.5,244.2z M342.9,230.7c-1.5-2.2-2.9-4.5-4.4-6.7l0.8-0.5c1.5,2.2,2.9,4.5,4.4,6.7L342.9,230.7z M334.1,217.4
			c-1.5-2.2-3-4.4-4.5-6.6l0.8-0.6c1.5,2.2,3,4.4,4.5,6.6L334.1,217.4z M325.2,204.1c-1.5-2.2-3-4.4-4.5-6.6l0.8-0.6
			c1.5,2.2,3,4.4,4.5,6.6L325.2,204.1z M316,191c-1.5-2.2-3.1-4.3-4.6-6.5l0.8-0.6c1.6,2.2,3.1,4.3,4.7,6.5L316,191z M306.7,178
			c-1.6-2.2-3.2-4.3-4.8-6.4l0.8-0.6c1.6,2.1,3.2,4.3,4.8,6.4L306.7,178z M297.1,165.2c-1.6-2.1-3.3-4.2-4.9-6.3l0.8-0.6
			c1.6,2.1,3.3,4.2,4.9,6.3L297.1,165.2z M287.2,152.6c-1.7-2.1-3.3-4.2-5-6.2l0.8-0.6c1.7,2.1,3.4,4.1,5,6.2L287.2,152.6z
			 M277.1,140.2c-1.7-2-3.4-4.1-5.2-6.1l0.8-0.7c1.7,2,3.5,4.1,5.2,6.1L277.1,140.2z M266.7,128.1c-1.8-2-3.6-4-5.3-5.9l0.7-0.7
			c1.8,2,3.6,4,5.4,6L266.7,128.1z M255.9,116.3c-1.8-1.9-3.7-3.9-5.5-5.8l0.7-0.7c1.9,1.9,3.7,3.8,5.5,5.8L255.9,116.3z
			 M244.8,104.8c-1.9-1.9-3.8-3.8-5.7-5.6l0.7-0.7c1.9,1.8,3.8,3.7,5.7,5.6L244.8,104.8z M233.2,93.8c-1.9-1.8-3.9-3.6-5.9-5.4
			l0.7-0.7c2,1.8,4,3.6,5.9,5.4L233.2,93.8z M221.3,83.1c-2-1.7-4.1-3.5-6.1-5.2l0.6-0.8c2,1.7,4.1,3.4,6.1,5.2L221.3,83.1z
			 M209,72.9c-2.1-1.7-4.2-3.3-6.3-4.9l0.6-0.8c2.1,1.6,4.2,3.3,6.3,4.9L209,72.9z M196.3,63.3c-2.1-1.6-4.3-3.1-6.5-4.6l0.6-0.8
			c2.2,1.5,4.4,3.1,6.5,4.6L196.3,63.3z M183.2,54.2c-2.2-1.5-4.5-2.9-6.7-4.3L177,49c2.2,1.4,4.5,2.9,6.7,4.3L183.2,54.2z
			 M169.7,45.8c-2.3-1.3-4.6-2.7-6.9-4l0.5-0.9c2.3,1.3,4.6,2.6,6.9,4L169.7,45.8z M155.8,38c-2.4-1.2-4.8-2.5-7.1-3.6l0.4-0.9
			c2.4,1.2,4.8,2.4,7.1,3.6L155.8,38z M141.4,31c-2.4-1.1-4.8-2.2-7.3-3.2l0.4-0.9c2.5,1,4.9,2.1,7.3,3.2L141.4,31z M126.7,24.7
			c-2.5-1-5-1.9-7.5-2.8l0.3-0.9c2.5,0.9,5,1.9,7.5,2.8L126.7,24.7z M111.8,19.2c-2.5-0.8-5.1-1.7-7.6-2.4l0.3-1
			c2.5,0.8,5.1,1.6,7.6,2.4L111.8,19.2z M96.5,14.6c-2.5-0.7-5.1-1.4-7.7-2l0.2-1c2.6,0.6,5.2,1.3,7.7,2L96.5,14.6z M81,10.7
			c-2.6-0.6-5.2-1.1-7.8-1.6l0.2-1c2.6,0.5,5.2,1,7.8,1.6L81,10.7z M65.4,7.7c-2.6-0.4-5.3-0.8-7.9-1.2l0.1-1
			c2.6,0.4,5.3,0.8,7.9,1.2L65.4,7.7z M49.6,5.5c-2.6-0.3-5.3-0.6-7.9-0.8l0.1-1c2.7,0.2,5.3,0.5,8,0.8L49.6,5.5z M33.7,4
			c-2.6-0.2-5.3-0.3-8-0.4l0-1c2.7,0.1,5.3,0.3,8,0.4L33.7,4z M17.8,3.3c-2.6-0.1-5.3-0.1-8-0.1v-1c2.7,0,5.4,0,8,0.1L17.8,3.3z"/>
	</g>
	<g>
		<path d="M7.9,643.4l0-1c2.7,0,5.3-0.1,8-0.2l0,1C13.2,643.3,10.5,643.4,7.9,643.4z M23.9,642.9l-0.1-1c2.6-0.1,5.3-0.3,8-0.5
			l0.1,1C29.2,642.6,26.5,642.8,23.9,642.9z M39.8,641.7l-0.1-1c2.7-0.3,5.3-0.6,7.9-0.9l0.1,1C45.2,641.1,42.5,641.4,39.8,641.7z
			 M55.7,639.7l-0.1-1c2.6-0.4,5.3-0.8,7.9-1.3l0.2,1C61,638.9,58.4,639.3,55.7,639.7z M71.5,637l-0.2-1c2.6-0.5,5.2-1.1,7.8-1.7
			l0.2,1C76.7,635.9,74.1,636.4,71.5,637z M87.1,633.4l-0.2-1c2.6-0.7,5.2-1.4,7.7-2.1l0.3,1C92.3,632.1,89.7,632.8,87.1,633.4z
			 M102.5,629.1l-0.3-1c2.5-0.8,5.1-1.6,7.6-2.5l0.3,0.9C107.5,627.4,105,628.3,102.5,629.1z M117.6,623.9l-0.3-0.9
			c2.5-0.9,5-1.9,7.4-2.9l0.4,0.9C122.6,622,120.1,623,117.6,623.9z M132.5,617.9l-0.4-0.9c2.4-1,4.9-2.1,7.3-3.3l0.4,0.9
			C137.3,615.8,134.9,616.9,132.5,617.9z M147,611.2l-0.4-0.9c2.4-1.2,4.7-2.4,7.1-3.6l0.5,0.9C151.7,608.8,149.3,610,147,611.2z
			 M161.1,603.8l-0.5-0.9c2.3-1.3,4.6-2.6,6.9-4l0.5,0.9C165.8,601.1,163.4,602.5,161.1,603.8z M174.9,595.6l-0.5-0.8
			c2.2-1.4,4.5-2.8,6.7-4.3l0.6,0.8C179.4,592.7,177.1,594.2,174.9,595.6z M188.3,586.8l-0.6-0.8c2.1-1.5,4.3-3,6.5-4.6l0.6,0.8
			C192.6,583.8,190.4,585.3,188.3,586.8z M201.2,577.4l-0.6-0.8c2.1-1.6,4.2-3.2,6.3-4.9l0.6,0.8
			C205.4,574.2,203.3,575.8,201.2,577.4z M213.7,567.5l-0.6-0.8c2-1.7,4.1-3.4,6.1-5.2l0.7,0.8C217.8,564,215.8,565.8,213.7,567.5z
			 M225.9,557l-0.7-0.7c1.9-1.7,3.9-3.6,5.9-5.4l0.7,0.7C229.8,553.4,227.8,555.2,225.9,557z M237.6,546.1l-0.7-0.7
			c1.9-1.8,3.8-3.7,5.7-5.6l0.7,0.7C241.4,542.4,239.5,544.3,237.6,546.1z M249,534.8l-0.7-0.7c1.9-1.9,3.7-3.8,5.5-5.8l0.7,0.7
			C252.7,531,250.8,532.9,249,534.8z M259.9,523.1l-0.7-0.7c1.8-2,3.6-3.9,5.3-5.9l0.7,0.7C263.5,519.2,261.7,521.2,259.9,523.1z
			 M270.6,511.2l-0.8-0.7c1.7-2,3.5-4,5.2-6.1l0.8,0.6C274,507.1,272.3,509.2,270.6,511.2z M280.9,498.9l-0.8-0.6
			c1.7-2.1,3.4-4.1,5-6.2l0.8,0.6C284.3,494.8,282.6,496.9,280.9,498.9z M290.9,486.4l-0.8-0.6c1.6-2.1,3.3-4.2,4.9-6.3l0.8,0.6
			C294.2,482.2,292.5,484.3,290.9,486.4z M300.6,473.7l-0.8-0.6c1.6-2.1,3.2-4.3,4.8-6.4l0.8,0.6
			C303.8,469.5,302.2,471.6,300.6,473.7z M310.1,460.8l-0.8-0.6c1.6-2.2,3.1-4.3,4.7-6.5l0.8,0.6
			C313.2,456.5,311.7,458.7,310.1,460.8z M319.4,447.8l-0.8-0.6c1.5-2.2,3-4.4,4.6-6.6l0.8,0.6C322.4,443.4,320.9,445.6,319.4,447.8
			z M328.5,434.6l-0.8-0.6c1.5-2.2,3-4.4,4.5-6.6l0.8,0.6C331.5,430.2,330,432.4,328.5,434.6z M337.4,421.3l-0.8-0.5
			c1.5-2.2,2.9-4.5,4.4-6.7l0.8,0.5C340.3,416.8,338.8,419,337.4,421.3z M346.1,407.9l-0.8-0.5c1.4-2.2,2.9-4.5,4.3-6.7l0.8,0.5
			C349,403.4,347.5,405.6,346.1,407.9z M354.7,394.4l-0.8-0.5c1.4-2.3,2.8-4.5,4.3-6.8l0.8,0.5C357.5,389.8,356.1,392.1,354.7,394.4
			z M363.2,380.8l-0.8-0.5c1.4-2.3,2.8-4.5,4.2-6.8l0.9,0.5C366,376.2,364.6,378.5,363.2,380.8z M371.6,367.2l-0.9-0.5
			c1.4-2.3,2.8-4.5,4.2-6.8l0.9,0.5C374.4,362.6,373,364.9,371.6,367.2z M379.9,353.5l-0.9-0.5c1.4-2.3,2.8-4.6,4.1-6.8l0.9,0.5
			C382.7,348.9,381.3,351.2,379.9,353.5z M388.2,339.8l-0.9-0.5l4.1-6.9l0.9,0.5L388.2,339.8z M396.5,326l-0.9-0.5l4.1-6.9l0.9,0.5
			L396.5,326z M404.8,312.3l-0.9-0.5l4.1-6.9l0.9,0.5L404.8,312.3z M413,298.6l-0.9-0.5c1.4-2.3,2.8-4.6,4.1-6.8l0.9,0.5
			C415.8,294,414.4,296.3,413,298.6z M421.3,284.9l-0.9-0.5c1.4-2.3,2.8-4.5,4.2-6.8l0.9,0.5C424.1,280.4,422.7,282.6,421.3,284.9z
			 M429.7,271.3l-0.9-0.5c1.4-2.3,2.8-4.5,4.2-6.8l0.8,0.5C432.5,266.8,431.1,269,429.7,271.3z M438.1,257.7l-0.8-0.5
			c1.4-2.3,2.8-4.5,4.3-6.8l0.8,0.5C440.9,253.2,439.5,255.5,438.1,257.7z M446.6,244.2l-0.8-0.5c1.4-2.3,2.9-4.5,4.3-6.7l0.8,0.5
			C449.5,239.7,448,241.9,446.6,244.2z M455.3,230.7l-0.8-0.5c1.5-2.2,2.9-4.5,4.4-6.7l0.8,0.5C458.2,226.3,456.7,228.5,455.3,230.7
			z M464,217.4l-0.8-0.6c1.5-2.2,3-4.4,4.5-6.6l0.8,0.6C467,212.9,465.5,215.1,464,217.4z M473,204.1l-0.8-0.6
			c1.5-2.2,3-4.4,4.6-6.6l0.8,0.6C476,199.7,474.5,201.9,473,204.1z M482.1,191l-0.8-0.6c1.5-2.2,3.1-4.4,4.7-6.5l0.8,0.6
			C485.2,186.6,483.7,188.8,482.1,191z M491.5,178l-0.8-0.6c1.6-2.2,3.2-4.3,4.8-6.4l0.8,0.6C494.7,173.7,493.1,175.8,491.5,178z
			 M501.1,165.2l-0.8-0.6c1.6-2.1,3.3-4.2,4.9-6.3l0.8,0.6C504.3,161,502.7,163.1,501.1,165.2z M510.9,152.6l-0.8-0.6
			c1.7-2.1,3.3-4.2,5-6.2l0.8,0.6C514.3,148.4,512.6,150.5,510.9,152.6z M521.1,140.2l-0.8-0.6c1.7-2,3.4-4.1,5.2-6.1l0.8,0.7
			C524.5,136.2,522.8,138.2,521.1,140.2z M531.5,128.1l-0.7-0.7c1.8-2,3.6-4,5.4-6l0.7,0.7C535.1,124.1,533.3,126.1,531.5,128.1z
			 M542.3,116.3l-0.7-0.7c1.8-1.9,3.7-3.9,5.5-5.8l0.7,0.7C545.9,112.4,544.1,114.4,542.3,116.3z M553.4,104.8l-0.7-0.7
			c1.9-1.9,3.8-3.8,5.7-5.6l0.7,0.7C557.2,101.1,555.3,103,553.4,104.8z M564.9,93.8l-0.7-0.7c2-1.8,3.9-3.6,5.9-5.4l0.7,0.7
			C568.8,90.1,566.9,91.9,564.9,93.8z M576.8,83.1l-0.7-0.8c2-1.7,4.1-3.5,6.1-5.2l0.6,0.8C580.9,79.6,578.8,81.4,576.8,83.1z
			 M589.1,72.9l-0.6-0.8c2.1-1.7,4.2-3.3,6.3-4.9l0.6,0.8C593.3,69.6,591.2,71.3,589.1,72.9z M601.8,63.3l-0.6-0.8
			c2.2-1.6,4.4-3.1,6.5-4.6l0.6,0.8C606.2,60.1,604,61.7,601.8,63.3z M615,54.2l-0.5-0.8c2.2-1.5,4.5-2.9,6.7-4.3l0.5,0.8
			C619.4,51.3,617.2,52.7,615,54.2z M628.5,45.8l-0.5-0.9c2.3-1.4,4.6-2.7,6.9-4l0.5,0.9C633.1,43.1,630.8,44.4,628.5,45.8z
			 M642.4,38l-0.5-0.9c2.4-1.2,4.8-2.5,7.1-3.6l0.4,0.9C647.2,35.6,644.8,36.8,642.4,38z M656.8,31l-0.4-0.9
			c2.4-1.1,4.9-2.2,7.3-3.2l0.4,0.9C661.6,28.8,659.1,29.9,656.8,31z M671.4,24.7l-0.4-0.9c2.5-1,5-1.9,7.5-2.8l0.3,0.9
			C676.4,22.8,673.9,23.7,671.4,24.7z M686.4,19.2l-0.3-0.9c2.5-0.8,5.1-1.7,7.6-2.4l0.3,1C691.5,17.6,688.9,18.4,686.4,19.2z
			 M701.7,14.6l-0.3-1c2.5-0.7,5.1-1.4,7.7-2l0.2,1C706.8,13.2,704.2,13.9,701.7,14.6z M717.1,10.7l-0.2-1c2.6-0.6,5.2-1.1,7.8-1.6
			l0.2,1C722.4,9.6,719.7,10.1,717.1,10.7z M732.8,7.7l-0.2-1c2.6-0.4,5.3-0.8,7.9-1.2l0.1,1C738,6.8,735.4,7.3,732.8,7.7z
			 M748.6,5.5l-0.1-1c2.6-0.3,5.3-0.6,8-0.8l0.1,1C753.9,4.9,751.2,5.2,748.6,5.5z M764.5,4l-0.1-1c2.6-0.2,5.3-0.3,8-0.4l0,1
			C769.8,3.7,767.1,3.8,764.5,4z M780.4,3.3l0-1c2.6-0.1,5.3-0.1,8-0.1v1C785.7,3.2,783,3.2,780.4,3.3z"/>
	</g>
	<g>
		<g>
			<rect x="798.8" y="322.3" width="4" height="1"/>
		</g>
		<g>
			<path d="M1565.4,323.3h-7.9v-1h7.9V323.3z M1549.5,323.3h-7.9v-1h7.9V323.3z M1533.6,323.3h-7.9v-1h7.9V323.3z M1517.8,323.3
				h-7.9v-1h7.9V323.3z M1501.9,323.3h-7.9v-1h7.9V323.3z M1486,323.3h-7.9v-1h7.9V323.3z M1470.1,323.3h-7.9v-1h7.9V323.3z
				 M1454.2,323.3h-7.9v-1h7.9V323.3z M1438.3,323.3h-7.9v-1h7.9V323.3z M1422.4,323.3h-7.9v-1h7.9V323.3z M1406.5,323.3h-7.9v-1
				h7.9V323.3z M1390.6,323.3h-7.9v-1h7.9V323.3z M1374.8,323.3h-7.9v-1h7.9V323.3z M1358.9,323.3h-7.9v-1h7.9V323.3z M1343,323.3
				h-7.9v-1h7.9V323.3z M1327.1,323.3h-7.9v-1h7.9V323.3z M1311.2,323.3h-7.9v-1h7.9V323.3z M1295.3,323.3h-7.9v-1h7.9V323.3z
				 M1279.4,323.3h-7.9v-1h7.9V323.3z M1263.5,323.3h-7.9v-1h7.9V323.3z M1247.6,323.3h-7.9v-1h7.9V323.3z M1231.8,323.3h-7.9v-1
				h7.9V323.3z M1215.9,323.3h-7.9v-1h7.9V323.3z M1200,323.3h-7.9v-1h7.9V323.3z M1184.1,323.3h-7.9v-1h7.9V323.3z M1168.2,323.3
				h-7.9v-1h7.9V323.3z M1152.3,323.3h-7.9v-1h7.9V323.3z M1136.4,323.3h-7.9v-1h7.9V323.3z M1120.5,323.3h-7.9v-1h7.9V323.3z
				 M1104.6,323.3h-7.9v-1h7.9V323.3z M1088.8,323.3h-7.9v-1h7.9V323.3z M1072.9,323.3h-7.9v-1h7.9V323.3z M1057,323.3h-7.9v-1h7.9
				V323.3z M1041.1,323.3h-7.9v-1h7.9V323.3z M1025.2,323.3h-7.9v-1h7.9V323.3z M1009.3,323.3h-7.9v-1h7.9V323.3z M993.4,323.3h-7.9
				v-1h7.9V323.3z M977.5,323.3h-7.9v-1h7.9V323.3z M961.7,323.3h-7.9v-1h7.9V323.3z M945.8,323.3h-7.9v-1h7.9V323.3z M929.9,323.3
				h-7.9v-1h7.9V323.3z M914,323.3H906v-1h7.9V323.3z M898.1,323.3h-7.9v-1h7.9V323.3z M882.2,323.3h-7.9v-1h7.9V323.3z
				 M866.3,323.3h-7.9v-1h7.9V323.3z M850.4,323.3h-7.9v-1h7.9V323.3z M834.5,323.3h-7.9v-1h7.9V323.3z M818.7,323.3h-7.9v-1h7.9
				V323.3z"/>
		</g>
		<g>
			<rect x="1573.4" y="322.3" width="4" height="1"/>
		</g>
	</g>
	<g>
		<path d="M1579.3,643.4c-2.7,0-5.4-0.1-8-0.2l0-1c2.6,0.1,5.3,0.1,8,0.2L1579.3,643.4z M1563.3,642.9c-2.7-0.1-5.3-0.3-8-0.5l0.1-1
			c2.6,0.2,5.3,0.4,8,0.5L1563.3,642.9z M1547.3,641.7c-2.7-0.3-5.4-0.6-8-0.9l0.1-1c2.6,0.3,5.3,0.6,7.9,0.9L1547.3,641.7z
			 M1531.4,639.7c-2.7-0.4-5.3-0.8-7.9-1.3l0.2-1c2.6,0.4,5.2,0.9,7.9,1.3L1531.4,639.7z M1515.7,637c-2.6-0.5-5.2-1.1-7.8-1.7
			l0.2-1c2.6,0.6,5.2,1.1,7.8,1.7L1515.7,637z M1500.1,633.4c-2.6-0.7-5.2-1.4-7.7-2.1l0.3-1c2.5,0.7,5.1,1.4,7.7,2.1L1500.1,633.4z
			 M1484.7,629.1c-2.5-0.8-5.1-1.6-7.6-2.5l0.3-0.9c2.5,0.9,5.1,1.7,7.6,2.5L1484.7,629.1z M1469.5,623.9c-2.5-0.9-5-1.9-7.5-2.9
			l0.4-0.9c2.5,1,5,1.9,7.4,2.9L1469.5,623.9z M1454.7,617.9c-2.4-1-4.9-2.1-7.3-3.3l0.4-0.9c2.4,1.1,4.9,2.2,7.3,3.3L1454.7,617.9z
			 M1440.2,611.2c-2.4-1.2-4.8-2.4-7.1-3.6l0.5-0.9c2.4,1.2,4.7,2.5,7.1,3.6L1440.2,611.2z M1426,603.8c-2.3-1.3-4.7-2.6-6.9-4
			l0.5-0.9c2.3,1.3,4.6,2.7,6.9,4L1426,603.8z M1412.2,595.6c-2.2-1.4-4.5-2.9-6.7-4.3l0.6-0.8c2.2,1.5,4.5,2.9,6.7,4.3
			L1412.2,595.6z M1398.9,586.8c-2.2-1.5-4.3-3-6.5-4.6l0.6-0.8c2.1,1.6,4.3,3.1,6.5,4.6L1398.9,586.8z M1386,577.4
			c-2.1-1.6-4.2-3.2-6.3-4.9l0.6-0.8c2.1,1.7,4.2,3.3,6.3,4.9L1386,577.4z M1373.4,567.5c-2-1.7-4.1-3.4-6.1-5.2l0.7-0.8
			c2,1.8,4.1,3.5,6.1,5.2L1373.4,567.5z M1361.3,557c-2-1.8-4-3.6-5.9-5.4l0.7-0.7c2,1.8,3.9,3.6,5.9,5.4L1361.3,557z M1349.5,546.1
			c-1.9-1.8-3.8-3.7-5.7-5.6l0.7-0.7c1.9,1.9,3.8,3.7,5.7,5.6L1349.5,546.1z M1338.2,534.8c-1.9-1.9-3.7-3.8-5.5-5.8l0.7-0.7
			c1.8,1.9,3.7,3.9,5.5,5.8L1338.2,534.8z M1327.2,523.1c-1.8-2-3.6-3.9-5.4-5.9l0.7-0.7c1.8,2,3.6,4,5.3,5.9L1327.2,523.1z
			 M1316.6,511.2c-1.7-2-3.5-4-5.2-6.1l0.8-0.6c1.7,2,3.4,4.1,5.2,6.1L1316.6,511.2z M1306.3,498.9c-1.7-2.1-3.4-4.1-5-6.2l0.8-0.6
			c1.7,2.1,3.3,4.2,5,6.2L1306.3,498.9z M1296.2,486.4c-1.6-2.1-3.3-4.2-4.9-6.3l0.8-0.6c1.6,2.1,3.3,4.2,4.9,6.3L1296.2,486.4z
			 M1286.5,473.7c-1.6-2.1-3.2-4.3-4.8-6.4l0.8-0.6c1.6,2.1,3.2,4.3,4.8,6.4L1286.5,473.7z M1277,460.8c-1.6-2.2-3.1-4.3-4.7-6.5
			l0.8-0.6c1.5,2.2,3.1,4.3,4.7,6.5L1277,460.8z M1267.7,447.8c-1.5-2.2-3-4.4-4.6-6.6l0.8-0.6c1.5,2.2,3,4.4,4.6,6.6L1267.7,447.8z
			 M1258.7,434.6c-1.5-2.2-3-4.4-4.5-6.6l0.8-0.6c1.5,2.2,3,4.4,4.5,6.6L1258.7,434.6z M1249.8,421.3c-1.5-2.2-2.9-4.5-4.4-6.7
			l0.8-0.5c1.5,2.2,2.9,4.5,4.4,6.7L1249.8,421.3z M1241,407.9c-1.4-2.2-2.9-4.5-4.3-6.7l0.8-0.5c1.4,2.3,2.9,4.5,4.3,6.7
			L1241,407.9z M1232.4,394.4c-1.4-2.3-2.8-4.5-4.3-6.8l0.8-0.5c1.4,2.3,2.8,4.5,4.3,6.8L1232.4,394.4z M1224,380.8
			c-1.4-2.3-2.8-4.5-4.2-6.8l0.9-0.5c1.4,2.3,2.8,4.5,4.2,6.8L1224,380.8z M1215.6,367.2c-1.4-2.3-2.8-4.5-4.2-6.8l0.9-0.5
			c1.4,2.3,2.8,4.6,4.2,6.8L1215.6,367.2z M1207.2,353.5c-1.4-2.3-2.8-4.6-4.1-6.8l0.9-0.5c1.4,2.3,2.8,4.6,4.1,6.8L1207.2,353.5z
			 M1198.9,339.8l-4.1-6.9l0.9-0.5l4.1,6.9L1198.9,339.8z M1190.6,326l-4.1-6.9l0.9-0.5l4.1,6.9L1190.6,326z M1182.4,312.3l-4.1-6.9
			l0.9-0.5l4.1,6.9L1182.4,312.3z M1174.1,298.6c-1.4-2.3-2.8-4.6-4.1-6.8l0.9-0.5c1.4,2.3,2.8,4.6,4.1,6.8L1174.1,298.6z
			 M1165.8,284.9c-1.4-2.3-2.8-4.5-4.2-6.8l0.9-0.5c1.4,2.3,2.8,4.5,4.2,6.8L1165.8,284.9z M1157.5,271.3c-1.4-2.3-2.8-4.5-4.2-6.8
			l0.8-0.5c1.4,2.3,2.8,4.5,4.2,6.8L1157.5,271.3z M1149.1,257.7c-1.4-2.3-2.8-4.5-4.3-6.8l0.8-0.5c1.4,2.3,2.8,4.5,4.3,6.8
			L1149.1,257.7z M1140.5,244.2c-1.4-2.3-2.9-4.5-4.3-6.7l0.8-0.5c1.4,2.2,2.9,4.5,4.3,6.7L1140.5,244.2z M1131.9,230.7
			c-1.5-2.2-2.9-4.5-4.4-6.7l0.8-0.5c1.5,2.2,2.9,4.5,4.4,6.7L1131.9,230.7z M1123.1,217.4c-1.5-2.2-3-4.4-4.5-6.6l0.8-0.6
			c1.5,2.2,3,4.4,4.5,6.6L1123.1,217.4z M1114.1,204.1c-1.5-2.2-3-4.4-4.5-6.6l0.8-0.6c1.5,2.2,3,4.4,4.5,6.6L1114.1,204.1z
			 M1105,191c-1.5-2.2-3.1-4.3-4.6-6.5l0.8-0.6c1.6,2.2,3.1,4.3,4.7,6.5L1105,191z M1095.6,178c-1.6-2.2-3.2-4.3-4.8-6.4l0.8-0.6
			c1.6,2.1,3.2,4.3,4.8,6.4L1095.6,178z M1086.1,165.2c-1.6-2.1-3.3-4.2-4.9-6.3l0.8-0.6c1.6,2.1,3.3,4.2,4.9,6.3L1086.1,165.2z
			 M1076.2,152.6c-1.7-2.1-3.3-4.2-5-6.2l0.8-0.6c1.7,2.1,3.4,4.1,5,6.2L1076.2,152.6z M1066.1,140.2c-1.7-2-3.4-4.1-5.2-6.1
			l0.8-0.7c1.7,2,3.5,4.1,5.2,6.1L1066.1,140.2z M1055.6,128.1c-1.8-2-3.6-4-5.3-5.9l0.7-0.7c1.8,2,3.6,4,5.4,6L1055.6,128.1z
			 M1044.9,116.3c-1.8-1.9-3.7-3.9-5.5-5.8l0.7-0.7c1.9,1.9,3.7,3.8,5.5,5.8L1044.9,116.3z M1033.7,104.8c-1.9-1.9-3.8-3.8-5.7-5.6
			l0.7-0.7c1.9,1.8,3.8,3.7,5.7,5.6L1033.7,104.8z M1022.2,93.8c-2-1.8-3.9-3.6-5.9-5.4l0.7-0.7c2,1.8,4,3.6,5.9,5.4L1022.2,93.8z
			 M1010.3,83.1c-2-1.7-4.1-3.5-6.1-5.2l0.6-0.8c2,1.7,4.1,3.4,6.1,5.2L1010.3,83.1z M998,72.9c-2.1-1.7-4.2-3.3-6.3-4.9l0.6-0.8
			c2.1,1.6,4.2,3.2,6.3,4.9L998,72.9z M985.3,63.3c-2.1-1.6-4.3-3.1-6.5-4.6l0.6-0.8c2.2,1.5,4.4,3.1,6.5,4.6L985.3,63.3z
			 M972.2,54.2c-2.2-1.5-4.5-2.9-6.7-4.3L966,49c2.3,1.4,4.5,2.9,6.7,4.3L972.2,54.2z M958.7,45.8c-2.3-1.3-4.6-2.7-6.9-4l0.5-0.9
			c2.3,1.3,4.6,2.6,6.9,4L958.7,45.8z M944.7,38c-2.3-1.2-4.7-2.4-7.1-3.6l0.4-0.9c2.4,1.2,4.8,2.4,7.1,3.6L944.7,38z M930.4,31
			c-2.4-1.1-4.9-2.2-7.3-3.2l0.4-0.9c2.4,1,4.9,2.1,7.3,3.2L930.4,31z M915.7,24.7c-2.5-1-5-1.9-7.5-2.8l0.3-0.9
			c2.5,0.9,5,1.9,7.5,2.8L915.7,24.7z M900.7,19.2c-2.5-0.8-5.1-1.7-7.6-2.4l0.3-1c2.5,0.8,5.1,1.6,7.6,2.4L900.7,19.2z M885.5,14.6
			c-2.5-0.7-5.1-1.4-7.7-2l0.2-1c2.6,0.6,5.2,1.3,7.7,2L885.5,14.6z M870,10.7c-2.6-0.6-5.2-1.1-7.8-1.6l0.2-1
			c2.6,0.5,5.2,1,7.8,1.6L870,10.7z M854.4,7.7c-2.6-0.4-5.3-0.8-7.9-1.2l0.1-1c2.6,0.4,5.3,0.8,7.9,1.2L854.4,7.7z M838.6,5.5
			c-2.6-0.3-5.3-0.6-7.9-0.8l0.1-1c2.7,0.2,5.3,0.5,8,0.8L838.6,5.5z M822.7,4c-2.6-0.2-5.3-0.3-8-0.4l0-1c2.7,0.1,5.3,0.3,8,0.4
			L822.7,4z M806.7,3.3c-2.6-0.1-5.3-0.1-8-0.1v-1c2.7,0,5.4,0,8,0.1L806.7,3.3z"/>
	</g>
	<g>
		<path d="M796.8,643.4l0-1c2.7,0,5.3-0.1,8-0.2l0,1C802.2,643.3,799.5,643.4,796.8,643.4z M812.8,642.9l-0.1-1
			c2.6-0.1,5.3-0.3,8-0.5l0.1,1C818.2,642.6,815.5,642.8,812.8,642.9z M828.8,641.7l-0.1-1c2.7-0.3,5.3-0.6,7.9-0.9l0.1,1
			C834.2,641.1,831.5,641.4,828.8,641.7z M844.7,639.7l-0.1-1c2.6-0.4,5.3-0.8,7.9-1.3l0.2,1C850,638.9,847.4,639.3,844.7,639.7z
			 M860.5,637l-0.2-1c2.6-0.5,5.2-1.1,7.8-1.7l0.2,1C865.7,635.9,863.1,636.4,860.5,637z M876.1,633.4l-0.2-1
			c2.6-0.7,5.2-1.4,7.7-2.1l0.3,1C881.2,632.1,878.6,632.8,876.1,633.4z M891.5,629.1l-0.3-1c2.5-0.8,5.1-1.6,7.6-2.5l0.3,0.9
			C896.5,627.4,894,628.3,891.5,629.1z M906.6,623.9l-0.3-0.9c2.5-0.9,5-1.9,7.4-2.9l0.4,0.9C911.6,622,909.1,623,906.6,623.9z
			 M921.4,617.9l-0.4-0.9c2.4-1,4.9-2.1,7.3-3.3l0.4,0.9C926.3,615.8,923.9,616.9,921.4,617.9z M936,611.2l-0.4-0.9
			c2.4-1.2,4.7-2.4,7.1-3.6l0.5,0.9C940.7,608.8,938.3,610,936,611.2z M950.1,603.8l-0.5-0.9c2.3-1.3,4.6-2.6,6.9-4l0.5,0.9
			C954.8,601.1,952.4,602.5,950.1,603.8z M963.9,595.6l-0.5-0.8c2.2-1.4,4.5-2.9,6.7-4.3l0.6,0.8
			C968.4,592.7,966.1,594.2,963.9,595.6z M977.3,586.8l-0.6-0.8c2.2-1.5,4.3-3,6.5-4.6l0.6,0.8C981.6,583.7,979.4,585.3,977.3,586.8
			z M990.2,577.4l-0.6-0.8c2.1-1.6,4.2-3.2,6.3-4.9l0.6,0.8C994.4,574.2,992.3,575.8,990.2,577.4z M1002.7,567.5l-0.6-0.8
			c2-1.7,4.1-3.4,6.1-5.2l0.7,0.8C1006.8,564,1004.8,565.8,1002.7,567.5z M1014.9,557l-0.7-0.7c2-1.8,3.9-3.6,5.9-5.4l0.7,0.7
			C1018.8,553.4,1016.8,555.2,1014.9,557z M1026.6,546.1l-0.7-0.7c1.9-1.8,3.8-3.7,5.7-5.6l0.7,0.7
			C1030.4,542.4,1028.5,544.2,1026.6,546.1z M1037.9,534.8l-0.7-0.7c1.9-1.9,3.7-3.8,5.5-5.8l0.7,0.7
			C1041.6,531,1039.8,532.9,1037.9,534.8z M1048.9,523.1l-0.7-0.7c1.8-2,3.6-3.9,5.3-5.9l0.7,0.7
			C1052.5,519.2,1050.7,521.2,1048.9,523.1z M1059.6,511.2l-0.8-0.7c1.7-2,3.5-4,5.2-6.1l0.8,0.6
			C1063,507.1,1061.3,509.2,1059.6,511.2z M1069.9,498.9l-0.8-0.6c1.7-2.1,3.4-4.1,5-6.2l0.8,0.6
			C1073.2,494.8,1071.6,496.9,1069.9,498.9z M1079.9,486.4l-0.8-0.6c1.6-2.1,3.3-4.2,4.9-6.3l0.8,0.6
			C1083.2,482.2,1081.5,484.3,1079.9,486.4z M1089.6,473.7l-0.8-0.6c1.6-2.1,3.2-4.3,4.8-6.4l0.8,0.6
			C1092.8,469.5,1091.2,471.6,1089.6,473.7z M1099.1,460.8l-0.8-0.6c1.6-2.2,3.1-4.3,4.7-6.5l0.8,0.6
			C1102.2,456.5,1100.7,458.7,1099.1,460.8z M1108.4,447.8l-0.8-0.6c1.5-2.2,3-4.4,4.6-6.6l0.8,0.6
			C1111.4,443.4,1109.9,445.6,1108.4,447.8z M1117.5,434.6l-0.8-0.6c1.5-2.2,3-4.4,4.5-6.6l0.8,0.6
			C1120.4,430.2,1119,432.4,1117.5,434.6z M1126.3,421.3l-0.8-0.5c1.5-2.2,2.9-4.5,4.4-6.7l0.8,0.5
			C1129.3,416.8,1127.8,419,1126.3,421.3z M1135.1,407.9l-0.8-0.5c1.4-2.2,2.9-4.5,4.3-6.7l0.8,0.5
			C1138,403.4,1136.5,405.6,1135.1,407.9z M1143.7,394.4l-0.8-0.5c1.4-2.3,2.8-4.5,4.3-6.8l0.8,0.5
			C1146.5,389.8,1145.1,392.1,1143.7,394.4z M1152.2,380.8l-0.8-0.5c1.4-2.3,2.8-4.5,4.2-6.8l0.9,0.5
			C1155,376.2,1153.6,378.5,1152.2,380.8z M1160.6,367.2l-0.9-0.5c1.4-2.3,2.8-4.5,4.2-6.8l0.9,0.5
			C1163.4,362.6,1162,364.9,1160.6,367.2z M1168.9,353.5l-0.9-0.5c1.4-2.3,2.8-4.6,4.1-6.8l0.9,0.5
			C1171.7,348.9,1170.3,351.2,1168.9,353.5z M1177.2,339.8l-0.9-0.5l4.1-6.9l0.9,0.5L1177.2,339.8z M1185.5,326l-0.9-0.5l4.1-6.9
			l0.9,0.5L1185.5,326z M1193.8,312.3l-0.9-0.5l4.1-6.9l0.9,0.5L1193.8,312.3z M1202,298.6l-0.9-0.5c1.4-2.3,2.8-4.6,4.1-6.8
			l0.9,0.5C1204.8,294,1203.4,296.3,1202,298.6z M1210.3,284.9l-0.9-0.5c1.4-2.3,2.8-4.5,4.2-6.8l0.9,0.5
			C1213.1,280.4,1211.7,282.6,1210.3,284.9z M1218.7,271.3l-0.9-0.5c1.4-2.3,2.8-4.5,4.2-6.8l0.8,0.5
			C1221.5,266.8,1220.1,269,1218.7,271.3z M1227.1,257.7l-0.8-0.5c1.4-2.3,2.8-4.5,4.3-6.8l0.8,0.5
			C1229.9,253.2,1228.5,255.5,1227.1,257.7z M1235.6,244.2l-0.8-0.5c1.4-2.3,2.9-4.5,4.3-6.7l0.8,0.5
			C1238.5,239.7,1237,241.9,1235.6,244.2z M1244.2,230.7l-0.8-0.5c1.5-2.2,2.9-4.5,4.4-6.7l0.8,0.5
			C1247.2,226.3,1245.7,228.5,1244.2,230.7z M1253,217.4l-0.8-0.6c1.5-2.2,3-4.4,4.5-6.6l0.8,0.6
			C1256,212.9,1254.5,215.1,1253,217.4z M1262,204.1l-0.8-0.6c1.5-2.2,3-4.4,4.5-6.6l0.8,0.6C1265,199.7,1263.5,201.9,1262,204.1z
			 M1271.1,191l-0.8-0.6c1.5-2.2,3.1-4.4,4.7-6.5l0.8,0.6C1274.2,186.6,1272.7,188.8,1271.1,191z M1280.5,178l-0.8-0.6
			c1.6-2.2,3.2-4.3,4.8-6.4l0.8,0.6C1283.6,173.7,1282.1,175.8,1280.5,178z M1290.1,165.2l-0.8-0.6c1.6-2.1,3.3-4.2,4.9-6.3l0.8,0.6
			C1293.3,161,1291.7,163.1,1290.1,165.2z M1299.9,152.6l-0.8-0.6c1.7-2.1,3.3-4.2,5-6.2l0.8,0.6
			C1303.3,148.4,1301.6,150.5,1299.9,152.6z M1310,140.2l-0.8-0.6c1.7-2,3.4-4.1,5.2-6.1l0.8,0.7
			C1313.5,136.2,1311.8,138.2,1310,140.2z M1320.5,128.1l-0.7-0.7c1.8-2,3.6-4,5.4-6l0.7,0.7C1324,124.1,1322.3,126.1,1320.5,128.1z
			 M1331.3,116.3l-0.7-0.7c1.8-1.9,3.7-3.9,5.5-5.8l0.7,0.7C1334.9,112.4,1333.1,114.4,1331.3,116.3z M1342.4,104.8l-0.7-0.7
			c1.9-1.9,3.8-3.8,5.7-5.6l0.7,0.7C1346.2,101.1,1344.3,103,1342.4,104.8z M1353.9,93.8l-0.7-0.7c2-1.8,3.9-3.6,5.9-5.4l0.7,0.7
			C1357.8,90.1,1355.8,91.9,1353.9,93.8z M1365.8,83.1l-0.7-0.8c2-1.7,4.1-3.5,6.1-5.2l0.6,0.8C1369.8,79.6,1367.8,81.4,1365.8,83.1
			z M1378.1,72.9l-0.6-0.8c2.1-1.7,4.2-3.3,6.3-4.9l0.6,0.8C1382.3,69.6,1380.2,71.3,1378.1,72.9z M1390.8,63.3l-0.6-0.8
			c2.1-1.6,4.3-3.1,6.5-4.6l0.6,0.8C1395.1,60.1,1393,61.7,1390.8,63.3z M1403.9,54.2l-0.5-0.8c2.2-1.5,4.5-2.9,6.7-4.3l0.5,0.8
			C1408.4,51.3,1406.2,52.7,1403.9,54.2z M1417.5,45.8l-0.5-0.9c2.3-1.3,4.6-2.7,6.9-4l0.5,0.9C1422.1,43.1,1419.7,44.4,1417.5,45.8
			z M1431.4,38l-0.5-0.9c2.4-1.2,4.8-2.5,7.1-3.6l0.4,0.9C1436.1,35.6,1433.7,36.8,1431.4,38z M1445.7,31l-0.4-0.9
			c2.4-1.1,4.9-2.2,7.3-3.2l0.4,0.9C1450.6,28.8,1448.1,29.9,1445.7,31z M1460.4,24.7l-0.4-0.9c2.5-1,5-1.9,7.5-2.8l0.3,0.9
			C1465.4,22.8,1462.9,23.7,1460.4,24.7z M1475.4,19.2l-0.3-0.9c2.5-0.8,5.1-1.7,7.6-2.4l0.3,1C1480.5,17.6,1477.9,18.4,1475.4,19.2
			z M1490.6,14.6l-0.3-1c2.5-0.7,5.1-1.4,7.7-2l0.2,1C1495.8,13.2,1493.2,13.9,1490.6,14.6z M1506.1,10.7l-0.2-1
			c2.6-0.6,5.2-1.1,7.8-1.6l0.2,1C1511.3,9.6,1508.7,10.1,1506.1,10.7z M1521.8,7.7l-0.2-1c2.6-0.4,5.3-0.8,7.9-1.2l0.1,1
			C1527,6.8,1524.4,7.2,1521.8,7.7z M1537.6,5.5l-0.1-1c2.6-0.3,5.3-0.6,8-0.8l0.1,1C1542.8,4.9,1540.2,5.2,1537.6,5.5z M1553.5,4
			l-0.1-1c2.6-0.2,5.3-0.3,8-0.4l0,1C1558.8,3.7,1556.1,3.8,1553.5,4z M1569.4,3.3l0-1c2.6-0.1,5.3-0.1,8-0.1v1
			C1574.7,3.2,1572,3.2,1569.4,3.3z"/>
	</g>
</g>
</svg>
