<?xml version="1.0" encoding="utf-8"?>
<!-- Generator: Adobe Illustrator 22.0.1, SVG Export Plug-In . SVG Version: 6.00 Build 0)  -->
<svg version="1.1" id="Warstwa_1" xmlns="http://www.w3.org/2000/svg" xmlns:xlink="http://www.w3.org/1999/xlink" x="0px" y="0px"
	 viewBox="0 0 60 60" style="enable-background:new 0 0 60 60;" xml:space="preserve">
<style type="text/css">
	.st0{fill:#F15627;}
	.st0{fill:#444444;}
</style>
<g>
	<g>
		<path class="st0" d="M38.4,32.9L38.4,32.9l-0.1-0.2c0.6-6.8-1.8-13.5-6.6-18.3c-0.1-0.1-0.2-0.2-0.4-0.2c-0.2,0-0.3,0.1-0.4,0.2
			c-3.4,3.4-5.6,7.7-6.4,12.3H22l0-0.1c0.1-0.6,0.2-1.1,0.2-1.4c0-1.5-1.2-2.7-2.7-2.7c-1.5,0-2.7,1.2-2.7,2.7
			c0,0.7,0.3,2.3,0.8,3.5l0,0l0,0c-0.5,1.3-0.8,2.8-0.8,3.5c0,1.5,1.2,2.7,2.7,2.7c1.5,0,2.7-1.2,2.7-2.7c0-0.3-0.1-0.8-0.2-1.4
			l0-0.1h2.3c0,0.7,0,1.3,0.1,2l0,0.1l-0.1,0.1c-1.7,1.8-2.6,4.1-2.6,6.6c0,2.5,0.9,4.8,2.7,6.6c0.2,0.2,0.7,0.2,0.8,0
			c0.1-0.1,0.1-0.3,0.1-0.5l-0.1-0.3c-0.1-0.4-0.2-0.8-0.2-1.3c0-1.3,0.4-2.5,1.1-3.6l0.1-0.2l0.2,0.1c0.1,0,0.2,0.1,0.3,0.1h9.1
			c0.1,0,0.2,0,0.3-0.1l0.2-0.1l0.1,0.2c0.7,1,1.1,2.3,1.1,3.6c0,0.4-0.1,0.7-0.1,1.1c0,0.2-0.1,0.3-0.1,0.5c0,0.2,0,0.4,0.1,0.5
			c0.1,0.1,0.2,0.2,0.4,0.2c0.2,0,0.3-0.1,0.4-0.1c1.7-1.8,2.7-4.2,2.7-6.6C41,37,40.1,34.6,38.4,32.9z M27.7,20.9
			c0.9-1.9,2.1-3.6,3.5-5.2l0.2-0.2l0.2,0.2c1.4,1.5,2.6,3.3,3.5,5.2l0.2,0.3h-7.8L27.7,20.9z M21.2,29.5c-0.2,0-0.4,0.1-0.5,0.2
			c-0.1,0.2-0.2,0.4-0.1,0.5c0.2,0.9,0.4,1.6,0.4,2c0,0.8-0.7,1.5-1.5,1.5c-0.8,0-1.5-0.7-1.5-1.5c0-0.6,0.3-2.2,0.8-3.3
			c0.1-0.2,0.1-0.3,0-0.5c-0.5-1.1-0.8-2.7-0.8-3.3c0-0.8,0.7-1.5,1.5-1.5c0.8,0,1.5,0.7,1.5,1.5c0,0.3-0.1,1.1-0.4,2
			c-0.1,0.2,0,0.4,0.1,0.5c0.1,0.2,0.3,0.2,0.5,0.2h3.2c-0.1,0.5-0.1,1.1-0.1,1.6H21.2z M25.8,39.1c-0.9,1.1-1.5,2.4-1.7,3.8
			L24,43.7L23.6,43c-0.5-1.1-0.8-2.3-0.8-3.5c0-1.7,0.5-3.3,1.4-4.7l0.4-0.6l0.1,0.7c0.1,0.2,0.8,3.3,1.2,4l0.1,0.1L25.8,39.1z
			 M35.6,39.1l-0.1,0.1l-8.4,0l-0.1-0.1c-2.2-5.2-2.3-11.3-0.2-16.6l0.1-0.2h8.7l0.1,0.2C37.9,27.8,37.8,33.9,35.6,39.1z M38.8,43.7
			l-0.1-0.8c-0.2-1.4-0.8-2.7-1.7-3.8L36.9,39l0.1-0.1c0.4-1.1,1.1-3.9,1.2-4l0.1-0.6l0.3,0.5c0.9,1.4,1.4,3,1.4,4.7
			c0,1.2-0.3,2.4-0.8,3.5L38.8,43.7z"/>
		<path class="st0" d="M28.5,42.4c-0.1-0.1-0.2-0.2-0.4-0.2c-0.3,0-0.6,0.3-0.6,0.6v4c0,0.2,0.1,0.3,0.2,0.4
			c0.1,0.1,0.2,0.2,0.4,0.2h0c0.1,0,0.3-0.1,0.4-0.2c0.1-0.1,0.2-0.2,0.2-0.4l0-4C28.7,42.6,28.6,42.5,28.5,42.4z"/>
		<path class="st0" d="M31.9,42.6c-0.1-0.3-0.3-0.4-0.5-0.4c-0.1,0-0.3,0.1-0.4,0.2c-0.1,0.1-0.1,0.2-0.1,0.3c0,0.1,0,0.1,0,0.1v8
			c0,0,0,0.1,0,0.1c0.1,0.3,0.3,0.4,0.5,0.4c0.3,0,0.5-0.2,0.5-0.4c0,0,0-0.1,0-0.1l0-8C31.9,42.7,31.9,42.7,31.9,42.6z"/>
		<path class="st0" d="M34.6,42.2c-0.3,0-0.6,0.3-0.6,0.6v4c0,0.3,0.2,0.6,0.6,0.6c0.3,0,0.6-0.3,0.6-0.6l0-4c0-0.2-0.1-0.3-0.2-0.4
			C34.9,42.3,34.8,42.2,34.6,42.2z"/>
		<path class="st0" d="M19.5,31c-0.3,0-0.5,0.2-0.5,0.5c0,0.3,0.2,0.5,0.5,0.5c0.3,0,0.5-0.2,0.5-0.5C20,31.2,19.8,31,19.5,31z"/>
		<path class="st0" d="M19.5,25.3c-0.3,0-0.5,0.2-0.5,0.5c0,0.3,0.2,0.5,0.5,0.5c0.3,0,0.5-0.2,0.5-0.5C20,25.5,19.8,25.3,19.5,25.3
			z"/>
	</g>
	<g>
		<path class="st0" d="M20.9,52.5c-0.3,0-0.5,0.2-0.5,0.5c0,0.3,0.2,0.5,0.5,0.5c0.3,0,0.5-0.2,0.5-0.5
			C21.5,52.7,21.3,52.5,20.9,52.5z"/>
		<path class="st0" d="M21.5,49.5l0-3.8c0-0.3-0.2-0.5-0.5-0.5c-0.3,0-0.5,0.2-0.5,0.5V47v2.5v1.4c0,0.3,0.2,0.5,0.5,0.5
			c0.3,0,0.5-0.2,0.5-0.5L21.5,49.5L21.5,49.5z"/>
	</g>
	<g>
		<path class="st0" d="M17.1,36.4c-0.3,0-0.5,0.2-0.5,0.5c0,0.3,0.2,0.5,0.5,0.5c0.3,0,0.5-0.2,0.5-0.5
			C17.6,36.6,17.4,36.4,17.1,36.4z"/>
		<path class="st0" d="M17.1,38.5c-0.3,0-0.5,0.2-0.5,0.5v2.8v1.1v1.2v1.5v1.2v1v2.8c0,0.3,0.2,0.5,0.5,0.5c0.3,0,0.5-0.2,0.5-0.5
			V48v-1v-1.2v-1.5v-1.2v-1.1v-2.8C17.6,38.8,17.4,38.5,17.1,38.5z"/>
		<path class="st0" d="M41.2,35.3c1.4,0.1,2.7-0.9,3-2.2c0,0,0,0,0,0c0-0.1,0-0.2,0.1-0.4c0-0.1,0-0.2,0-0.3c0,0,0,0,0,0
			c0-0.1,0-0.1,0-0.2c0-0.1,0-0.2,0-0.4c0-0.1,0-0.1,0-0.2c0-0.1-0.1-0.2-0.1-0.4c0-0.1,0-0.1-0.1-0.2C44.1,31,44,30.8,44,30.7
			c0,0,0-0.1-0.1-0.1c-0.1-0.1-0.2-0.3-0.3-0.4c0,0,0,0-0.1-0.1c-0.1-0.1-0.2-0.2-0.4-0.3c0,0,0,0-0.1,0c-0.1-0.1-0.2-0.2-0.4-0.2
			c-0.4-0.2-0.8-0.3-1.2-0.3c0,0,0,0,0,0c0,0,0,0,0,0c-0.2,0-0.4,0-0.6,0c0,0-0.1,0-0.1,0c-0.2,0-0.3,0.1-0.4,0.1
			c-0.1,0-0.1,0-0.1,0.1c-0.1,0.1-0.2,0.1-0.4,0.2c-0.1,0-0.1,0.1-0.2,0.1c-0.1,0.1-0.2,0.1-0.3,0.2c-0.1,0.1-0.1,0.1-0.2,0.2
			c-0.1,0.1-0.1,0.1-0.2,0.2c-0.1,0.1-0.1,0.2-0.2,0.2c0,0-0.1,0.1-0.1,0.1l0,0c-0.3,0.4-0.4,0.9-0.4,1.4
			C38.3,33.8,39.6,35.2,41.2,35.3z"/>
		<path class="st0" d="M43.8,27.5c-2.1-1.1-4.5-0.6-6.1,0.9l-0.1,1.4l0.2,0.1c1.2-1.7,3.5-2.4,5.5-1.4c2.1,1.1,2.9,3.7,1.9,5.8
			c-0.9,1.8-3.1,2.7-5,2.2l-0.5,1c2.5,0.8,5.2-0.3,6.4-2.7C47.5,32.1,46.4,28.8,43.8,27.5z"/>
		<path class="st0" d="M25.8,53.2c-1.9,0-3.4,1.5-3.4,3.4c0,1.9,1.5,3.4,3.4,3.4c1.9,0,3.4-1.5,3.4-3.4
			C29.2,54.7,27.7,53.2,25.8,53.2z M25.8,59.2c-1.5,0-2.7-1.2-2.7-2.7c0-1.5,1.2-2.7,2.7-2.7c1.5,0,2.7,1.2,2.7,2.7
			C28.5,58.1,27.3,59.2,25.8,59.2z"/>
		<path class="st0" d="M44,41.1l-1.8,4.3l1.2-0.7c-0.4,6.3-5.6,11.4-12,11.4v0c-0.3,0-0.5,0.2-0.5,0.5c0,0.3,0.2,0.5,0.5,0.5v0
			c0,0,0,0,0,0c0,0,0,0,0,0c0,0,0,0,0,0c7,0,12.8-5.6,13.1-12.5l1.2,0.7L44,41.1z"/>
	</g>
	<g>
		<path class="st0" d="M47.8,11.6c-1.2-1.2-2.7-1.8-4.4-1.8c-0.2,0-0.4,0-0.5,0l-0.4,0.1l-0.1-0.4C42.1,7,40.9,4.7,39.1,3
			c-2.1-1.9-4.8-3-7.6-3c-2.1,0-4.1,0.6-5.8,1.7c-1.6,1-2.9,2.3-3.7,3.8l-0.1,0.3l-0.3-0.1c-0.3-0.1-0.6-0.2-0.9-0.2
			c-0.6-0.1-1.1-0.2-1.7-0.2c-2.3,0-4.4,0.9-6,2.5c-1.6,1.6-2.5,3.7-2.5,6c0,2.3,0.9,4.4,2.5,6c1.6,1.6,3.7,2.5,6,2.5h6
			c0.1-0.3,0.3-0.7,0.4-1h-6.4c-2,0-3.9-0.8-5.3-2.2c-1.4-1.4-2.2-3.3-2.2-5.3c0-2,0.8-3.9,2.2-5.3c1.4-1.4,3.3-2.2,5.3-2.2
			c0.5,0,1,0,1.5,0.1c0.5,0.1,1,0.3,1.4,0.4L22.2,7l0.2-0.4c0.8-1.7,2.1-3.1,3.7-4.1c1.6-1,3.4-1.5,5.3-1.5c2.6,0,5,1,6.9,2.7
			c1.9,1.8,3,4.1,3.2,6.7l0,0.6l0.6-0.1c0.2,0,0.4-0.1,0.6-0.1l0,0c0.2,0,0.4,0,0.6,0c1.4,0,2.7,0.5,3.7,1.5c1,1,1.5,2.3,1.5,3.7
			c0,1.4-0.5,2.7-1.5,3.7c-1,1-2.3,1.5-3.7,1.5h-5.9c0.1,0.3,0.3,0.7,0.4,1h5.5c1.7,0,3.2-0.6,4.4-1.8c1.2-1.2,1.8-2.7,1.8-4.4
			C49.6,14.4,49,12.8,47.8,11.6z"/>
	</g>
	<path class="st0" d="M46.4,13c-0.8-0.8-1.9-1.2-3-1.2c-0.2,0-0.4,0-0.6,0c-0.2,0-0.3,0.1-0.5,0.1l-1.6,0.4l-0.1-1.7
		c-0.1-2.3-1.2-4.5-2.9-6.1c-1.7-1.6-3.9-2.5-6.3-2.5c-1.7,0-3.4,0.5-4.8,1.4C25.2,4.2,24,5.5,23.3,7l-0.6,1.2l-1.2-0.5
		c-0.4-0.2-0.8-0.3-1.3-0.4c-2.3-0.4-4.4,0.3-5.9,1.8c-1.2,1.2-1.9,2.9-1.9,4.6c0,1.7,0.7,3.4,1.9,4.6c1.2,1.2,2.9,1.9,4.6,1.9h6.5
		V14c0-0.1,0-0.2,0.1-0.2l-1.3,0.7l1.8-4.3l1.8,4.3l-1.3-0.7c0,0.1,0.1,0.1,0.1,0.2v4.8c1-1.8,2.3-3.6,3.9-5.1
		c0.1-0.1,0.3-0.2,0.4-0.3l0-4.1c0-0.1,0-0.2,0.1-0.2l-1.3,0.7l1.8-4.3l1.8,4.3l-1.3-0.7c0,0.1,0.1,0.1,0.1,0.2v4.1
		c0.2,0.1,0.4,0.2,0.6,0.3c1.5,1.5,2.7,3.1,3.7,4.8V14c0-0.1,0-0.2,0.1-0.2l-1.3,0.7l1.8-4.3l1.8,4.3l-1.3-0.7
		c0,0.1,0.1,0.1,0.1,0.2v6.3h6.2c1.1,0,2.2-0.5,3-1.3c0.8-0.8,1.3-1.9,1.3-3C47.7,14.9,47.2,13.8,46.4,13z"/>
</g>
</svg>
