<?xml version="1.0" encoding="utf-8"?>
<!-- Generator: Adobe Illustrator 22.0.1, SVG Export Plug-In . SVG Version: 6.00 Build 0)  -->
<svg version="1.1" id="Warstwa_2" xmlns="http://www.w3.org/2000/svg" xmlns:xlink="http://www.w3.org/1999/xlink" x="0px" y="0px"
	 viewBox="0 0 1920 972" style="enable-background:new 0 0 1920 972;" xml:space="preserve">
  <style>
    /* <![CDATA[ */
    svg {
    	background-color: #ff5719;
    }
    circle {
      fill: white;
      opacity: 0.5;
    }
    /* ]]> */
  </style>
<g>
	<circle cx="133.9" cy="205.5" r="1.7"/>
	<circle cx="201.6" cy="328.6" r="1.7"/>
	<circle cx="80.9" cy="33.4" r="1.7"/>
	<circle cx="97.9" cy="102.9" r="1.7"/>
	<circle cx="251.9" cy="35.1" r="1.7"/>
	<circle cx="274.1" cy="150.9" r="1.7"/>
	<circle cx="244.4" cy="223.9" r="1.7"/>
	<circle cx="317.1" cy="116.6" r="1.7"/>
	<circle cx="332.9" cy="152.7" r="1.7"/>
	<circle cx="320.6" cy="235.6" r="1.7"/>
	<circle cx="346.9" cy="301.4" r="1.7"/>
	<circle cx="368.1" cy="45.9" r="1.7"/>
	<circle cx="403.1" cy="29.9" r="1.7"/>
	<circle cx="478.9" cy="14.9" r="1.7"/>
	<circle cx="530.6" cy="49.3" r="1.7"/>
	<circle cx="497.6" cy="122.1" r="1.7"/>
	<circle cx="412.9" cy="261.9" r="1.7"/>
	<circle cx="514.4" cy="259.9" r="1.7"/>
	<circle cx="438.1" cy="174.9" r="1.7"/>
	<circle cx="427.1" cy="56.1" r="1.7"/>
	<circle cx="412.9" cy="125.6" r="1.7"/>
	<circle cx="39.7" cy="146.8" r="1.7"/>
	<circle cx="125.6" cy="150.9" r="1.7"/>
	<circle cx="94.4" cy="248.6" r="1.7"/>
	<circle cx="127.4" cy="432.6" r="1.7"/>
	<circle cx="266.9" cy="375.4" r="1.7"/>
	<circle cx="345.1" cy="383.9" r="1.7"/>
	<circle cx="370.4" cy="415.4" r="1.7"/>
	<circle cx="357.1" cy="556.6" r="1.7"/>
	<circle cx="483.9" cy="567.1" r="1.7"/>
	<circle cx="380.9" cy="668.2" r="1.7"/>
	<circle cx="275.9" cy="579.9" r="1.7"/>
	<circle cx="346.9" cy="478.9" r="1.7"/>
	<circle cx="372.1" cy="355.6" r="1.7"/>
	<circle cx="156.1" cy="581.6" r="1.7"/>
	<circle cx="237.6" cy="671.6" r="1.7"/>
	<circle cx="134.6" cy="693.4" r="1.7"/>
	<circle cx="150.4" cy="864.4" r="1.7"/>
	<circle cx="291.1" cy="730.1" r="1.7"/>
	<circle cx="392.1" cy="957.6" r="1.7"/>
	<circle cx="345.9" cy="891.4" r="1.7"/>
	<circle cx="456.4" cy="831.1" r="1.7"/>
	<circle cx="404.1" cy="891.4" r="1.7"/>
	<circle cx="382.6" cy="785.1" r="1.7"/>
	<circle cx="668.6" cy="940.6" r="1.7"/>
	<circle cx="847.9" cy="720.6" r="1.7"/>
	<circle cx="922.9" cy="891.9" r="1.7"/>
	<circle cx="996.6" cy="917.1" r="1.7"/>
	<circle cx="815.1" cy="736.4" r="1.7"/>
	<circle cx="871.9" cy="797.9" r="1.7"/>
	<circle cx="1011.1" cy="856.1" r="1.7"/>
	<circle cx="983.4" cy="725.8" r="1.7"/>
	<circle cx="1222.1" cy="825.6" r="1.7"/>
	<circle cx="1050.4" cy="823.9" r="1.7"/>
	<circle cx="961.5" cy="799.6" r="1.7"/>
	<circle cx="1122.1" cy="920.6" r="1.7"/>
	<circle cx="1097.6" cy="854.4" r="1.7"/>
	<circle cx="1152.1" cy="781.7" r="1.7"/>
	<circle cx="1095.9" cy="682.4" r="1.7"/>
	<circle cx="1278.9" cy="823.9" r="1.7"/>
	<circle cx="1425.6" cy="918.9" r="1.7"/>
	<circle cx="1454.1" cy="748.6" r="1.7"/>
	<circle cx="1805.9" cy="764.9" r="1.7"/>
	<circle cx="1777.4" cy="654.9" r="1.7"/>
	<circle cx="1813.9" cy="572.4" r="1.7"/>
	<circle cx="1863.9" cy="481.6" r="1.7"/>
	<circle cx="1839.9" cy="372.9" r="1.7"/>
	<circle cx="1733.1" cy="338.1" r="1.7"/>
	<circle cx="1500.4" cy="364.9" r="1.7"/>
	<circle cx="1329.6" cy="339.9" r="1.7"/>
	<circle cx="1623.4" cy="382.1" r="1.7"/>
	<circle cx="1777.4" cy="366.6" r="1.7"/>
	<circle cx="1685.4" cy="238.9" r="1.7"/>
	<circle cx="1557.1" cy="264.9" r="1.7"/>
	<circle cx="1466.6" cy="497.6" r="1.7"/>
	<circle cx="1239.8" cy="587.6" r="1.7"/>
	<circle cx="1306.2" cy="553.2" r="1.7"/>
	<circle cx="1389.4" cy="491.5" r="1.7"/>
	<circle cx="1433.6" cy="593.6" r="1.7"/>
	<circle cx="1901.1" cy="329.1" r="1.7"/>
	<circle cx="1613.4" cy="722.4" r="1.7"/>
	<circle cx="1529.6" cy="565.1" r="1.7"/>
	<circle cx="1726.4" cy="603.4" r="1.7"/>
	<circle cx="1674.9" cy="489.8" r="1.7"/>
	<circle cx="1775.7" cy="502.1" r="1.7"/>
	<circle cx="1676.6" cy="430.9" r="1.7"/>
	<circle cx="1753.9" cy="450.4" r="1.7"/>
	<circle cx="1855.1" cy="429.1" r="1.7"/>
	<circle cx="1839.9" cy="317.6" r="1.7"/>
	<circle cx="1687.1" cy="301.6" r="1.7"/>
	<circle cx="1746.4" cy="226.4" r="1.7"/>
	<circle cx="1642.6" cy="186.6" r="1.7"/>
	<circle cx="1515.4" cy="192.9" r="1.7"/>
	<circle cx="1327.9" cy="102.9" r="1.7"/>
	<circle cx="1309.6" cy="280.8" r="1.7"/>
	<circle cx="1255.2" cy="392.3" r="1.7"/>
	<circle cx="1274.1" cy="28.6" r="1.7"/>
	<circle cx="1134.1" cy="136.4" r="1.7"/>
	<circle cx="1095.1" cy="75.1" r="1.7"/>
	<circle cx="1279.9" cy="119.4" r="1.7"/>
	<circle cx="1452.1" cy="303.4" r="1.7"/>
	<circle cx="1548.6" cy="144.1" r="1.7"/>
	<circle cx="1466.6" cy="224.6" r="1.7"/>
	<circle cx="1433.6" cy="89.6" r="1.7"/>
	<circle cx="1392.9" cy="237.1" r="1.7"/>
	<circle cx="1309.6" cy="196.3" r="1.7"/>
	<circle cx="1287.1" cy="235.4" r="1.7"/>
	<circle cx="1122.6" cy="282.6" r="1.7"/>
	<circle cx="1002.6" cy="296.6" r="1.7"/>
	<circle cx="1193.6" cy="87.9" r="1.7"/>
	<circle cx="1209.1" cy="310.6" r="1.7"/>
	<circle cx="1069.1" cy="222.9" r="1.7"/>
	<circle cx="959.8" cy="80.3" r="1.7"/>
	<circle cx="867.1" cy="25.2" r="1.7"/>
	<circle cx="1022.9" cy="78.6" r="1.7"/>
	<circle cx="901.1" cy="173.1" r="1.7"/>
	<circle cx="823.2" cy="87.9" r="1.7"/>
	<circle cx="721.2" cy="89.6" r="1.7"/>
	<circle cx="761.6" cy="210.4" r="1.7"/>
	<circle cx="779.6" cy="125.4" r="1.7"/>
	<circle cx="643.6" cy="149.2" r="1.7"/>
	<circle cx="730.1" cy="150.9" r="1.7"/>
	<circle cx="585.9" cy="187.4" r="1.7"/>
	<circle cx="571.4" cy="417.1" r="1.7"/>
	<circle cx="633.1" cy="246.9" r="1.7"/>
	<circle cx="454.7" cy="388.8" r="1.7"/>
	<circle cx="816.1" cy="30.4" r="1.7"/>
	<circle cx="641.9" cy="75.4" r="1.7"/>
	<circle cx="640.1" cy="16.6" r="1.7"/>
	<circle cx="997.6" cy="190.4" r="1.7"/>
	<circle cx="961.5" cy="242.1" r="1.7"/>
	<circle cx="1075.4" cy="308.9" r="1.7"/>
	<circle cx="982.6" cy="469.4" r="1.7"/>
	<circle cx="1050.9" cy="620.4" r="1.7"/>
	<circle cx="939.6" cy="431.9" r="1.7"/>
	<circle cx="824.9" cy="510.4" r="1.7"/>
	<circle cx="826.6" cy="310.6" r="1.7"/>
	<circle cx="994.1" cy="353.6" r="1.7"/>
	<circle cx="977.1" cy="318.6" r="1.7"/>
	<circle cx="730.1" cy="406.8" r="1.7"/>
	<circle cx="485.6" cy="484.1" r="1.7"/>
	<circle cx="634.9" cy="622.1" r="1.7"/>
	<circle cx="585.9" cy="745.1" r="1.7"/>
	<circle cx="731.9" cy="558.4" r="1.7"/>
	<circle cx="845.6" cy="263.6" r="1.7"/>
	<circle cx="867.1" cy="166.6" r="1.7"/>
	<circle cx="690.6" cy="330.6" r="1.7"/>
	<circle cx="647.1" cy="480.6" r="1.7"/>
	<circle cx="554.4" cy="531.6" r="1.7"/>
	<circle cx="587.6" cy="336.9" r="1.7"/>
	<circle cx="789.9" cy="408.6" r="1.7"/>
	<circle cx="514.4" cy="637.9" r="1.7"/>
	<circle cx="724.6" cy="258.1" r="1.7"/>
	<circle cx="1063.6" cy="405.1" r="1.7"/>
	<circle cx="941.4" cy="541.9" r="1.7"/>
	<circle cx="816.6" cy="540.1" r="1.7"/>
	<circle cx="981.7" cy="641.4" r="1.7"/>
	<circle cx="903.6" cy="595.4" r="1.7"/>
	<circle cx="763.6" cy="639.6" r="1.7"/>
	<circle cx="842.2" cy="584.9" r="1.7"/>
	<circle cx="1099.4" cy="449.4" r="1.7"/>
	<circle cx="1054.4" cy="533.9" r="1.7"/>
	<circle cx="1170.6" cy="476.4" r="1.7"/>
	<circle cx="1251.8" cy="513.8" r="1.7"/>
	<circle cx="1153.9" cy="591.9" r="1.7"/>
	<circle cx="1241.5" cy="664.1" r="1.7"/>
	<circle cx="1097.6" cy="593.6" r="1.7"/>
	<circle cx="1101.1" cy="387.1" r="1.7"/>
	<circle cx="1182.4" cy="403.4" r="1.7"/>
	<circle cx="1402.9" cy="277.4" r="1.7"/>
	<circle cx="1391.2" cy="390.6" r="1.7"/>
	<circle cx="1311.4" cy="467.6" r="1.7"/>
	<circle cx="1665.6" cy="18.6" r="1.7"/>
	<circle cx="1560.6" cy="93.1" r="1.7"/>
	<circle cx="1777.4" cy="264.9" r="1.7"/>
	<circle cx="1804.4" cy="184.9" r="1.7"/>
	<circle cx="1764.9" cy="30.4" r="1.7"/>
	<circle cx="1887.6" cy="51.6" r="1.7"/>
	<circle cx="1806.1" cy="240.6" r="1.7"/>
	<circle cx="1791.6" cy="89.6" r="1.7"/>
	<circle cx="1641.1" cy="585.9" r="1.7"/>
	<circle cx="1870.9" cy="541.9" r="1.7"/>
	<circle cx="1619.9" cy="483.4" r="1.7"/>
	<circle cx="1739.1" cy="776.1" r="1.7"/>
	<circle cx="1564.1" cy="913.9" r="1.7"/>
	<circle cx="1877.1" cy="890.6" r="1.7"/>
	<circle cx="1807.6" cy="847.6" r="1.7"/>
	<circle cx="1652.7" cy="786.9" r="1.7"/>
	<circle cx="1401.9" cy="711.9" r="1.7"/>
	<circle cx="1335.6" cy="622.1" r="1.7"/>
	<circle cx="1479.4" cy="678.4" r="1.7"/>
	<circle cx="1512.2" cy="662.4" r="1.7"/>
	<circle cx="1513.9" cy="803.9" r="1.7"/>
	<circle cx="1615.1" cy="845.9" r="1.7"/>
	<circle cx="1251.8" cy="918.9" r="1.7"/>
	<circle cx="1699.2" cy="905.9" r="1.7"/>
	<circle cx="1211.1" cy="727.6" r="1.7"/>
	<circle cx="1269.4" cy="750.3" r="1.7"/>
	<circle cx="1333.9" cy="746.9" r="1.7"/>
	<circle cx="1369.1" cy="852.7" r="1.7"/>
	<circle cx="1071.4" cy="938.9" r="1.7"/>
	<circle cx="822.1" cy="849.6" r="1.7"/>
	<circle cx="847.9" cy="949.9" r="1.7"/>
	<circle cx="940.6" cy="956.6" r="1.7"/>
	<circle cx="534.1" cy="855.4" r="1.7"/>
	<circle cx="690.4" cy="817.4" r="1.7"/>
	<circle cx="763.4" cy="746.9" r="1.7"/>
	<circle cx="630.9" cy="842.4" r="1.7"/>
	<circle cx="723.1" cy="785.1" r="1.7"/>
	<circle cx="716.6" cy="722.4" r="1.7"/>
	<circle cx="480.4" cy="858.9" r="1.7"/>
	<circle cx="493.1" cy="801.1" r="1.7"/>
	<circle cx="419.4" cy="737.9" r="1.7"/>
	<circle cx="482.1" cy="737.9" r="1.7"/>
	<circle cx="353.4" cy="831.1" r="1.7"/>
	<circle cx="270.6" cy="802.9" r="1.7"/>
	<circle cx="292.9" cy="907.6" r="1.7"/>
	<circle cx="220.9" cy="827.6" r="1.7"/>
	<circle cx="179.9" cy="922.4" r="1.7"/>
	<circle cx="239.4" cy="915.6" r="1.7"/>
	<circle cx="66.4" cy="829.4" r="1.7"/>
	<circle cx="116.9" cy="778.4" r="1.7"/>
	<circle cx="230.9" cy="728.4" r="1.7"/>
	<circle cx="42.9" cy="529.9" r="1.7"/>
	<circle cx="59.9" cy="565.4" r="1.7"/>
	<circle cx="244.4" cy="501.1" r="1.7"/>
	<circle cx="85.6" cy="344.1" r="1.7"/>
	<circle cx="18.4" cy="450.9" r="1.7"/>
	<circle cx="123.9" cy="335.1" r="1.7"/>
	<circle cx="141.4" cy="499.4" r="1.7"/>
	<circle cx="66.9" cy="314.4" r="1.7"/>
</g>
</svg>
