<?xml version="1.0" encoding="utf-8"?>
<!-- Generator: Adobe Illustrator 22.0.1, SVG Export Plug-In . SVG Version: 6.00 Build 0)  -->
<svg version="1.1" id="bot-icon" xmlns="http://www.w3.org/2000/svg" xmlns:xlink="http://www.w3.org/1999/xlink" x="0px" y="0px"
	 viewBox="0 0 120 120" style="enable-background:new 0 0 120 120;" xml:space="preserve">
<style type="text/css">
	.bot-st0{fill: white;}
	.bot-st0-mind{fill:#ff5719;}
	text {
		color: white;
		fill: white;
		font-family: 'Olney';
		font-size: 19px;
	}
</style>
<rect x="36.3" y="82.7" class="bot-st0" width="2.5" height="2.5"/>
<rect x="36.3" y="77.7" class="bot-st0" width="2.5" height="2.5"/>
<rect x="36.3" y="72.7" class="bot-st0" width="2.5" height="2.5"/>
<path class="bot-st0" d="M64.9,70.4c0-5.1-4.1-9.2-9.2-9.2s-9.2,4.1-9.2,9.2c0,5.1,4.1,9.2,9.2,9.2S64.9,75.5,64.9,70.4z M48.3,70.4
	c0-4.1,3.3-7.4,7.4-7.4c4.1,0,7.4,3.3,7.4,7.4c0,4.1-3.3,7.4-7.4,7.4C51.6,77.8,48.3,74.5,48.3,70.4z"/>
<path class="bot-st0" d="M60.8,70.4c0-2.9-2.3-5.2-5.2-5.2c-2.9,0-5.2,2.3-5.2,5.2c0,2.9,2.3,5.2,5.2,5.2C58.5,75.6,60.8,73.3,60.8,70.4
	z M52.3,70.4c0-1.8,1.5-3.3,3.3-3.3c1.8,0,3.3,1.5,3.3,3.3c0,1.8-1.5,3.3-3.3,3.3C53.8,73.8,52.3,72.3,52.3,70.4z"/>
<path class="bot-st0" d="M54.3,90c0-0.5-0.4-0.9-0.9-0.9c-0.5,0-0.9,0.4-0.9,0.9c0,0.5,0.4,0.9,0.9,0.9C53.9,90.9,54.3,90.5,54.3,90z"/>
<path class="bot-st0" d="M58.6,105.4c0-0.5-0.4-0.9-0.9-0.9c-0.5,0-0.9,0.4-0.9,0.9c0,0.5,0.4,0.9,0.9,0.9
	C58.1,106.3,58.6,105.9,58.6,105.4z"/>
<path class="bot-st0" d="M36.6,113.1c0,0.5,0.4,0.9,0.9,0.9c0.5,0,0.9-0.4,0.9-0.9c0-0.5-0.4-0.9-0.9-0.9
	C37.1,112.2,36.6,112.6,36.6,113.1z"/>
<path class="bot-st0" d="M10.3,70.4c0,5.1,4.1,9.2,9.2,9.2c5.1,0,9.2-4.1,9.2-9.2c0-5.1-4.1-9.2-9.2-9.2C14.4,61.2,10.3,65.3,10.3,70.4z
	 M19.5,63c4.1,0,7.4,3.3,7.4,7.4c0,4.1-3.3,7.4-7.4,7.4c-4.1,0-7.4-3.3-7.4-7.4C12.2,66.3,15.5,63,19.5,63z"/>
<path class="bot-st0" d="M19.5,75.6c2.9,0,5.2-2.3,5.2-5.2c0-2.9-2.3-5.2-5.2-5.2c-2.9,0-5.2,2.3-5.2,5.2C14.3,73.3,16.6,75.6,19.5,75.6
	z M19.5,67.1c1.8,0,3.3,1.5,3.3,3.3c0,1.8-1.5,3.3-3.3,3.3c-1.8,0-3.3-1.5-3.3-3.3C16.2,68.6,17.7,67.1,19.5,67.1z"/>
<path class="bot-st0" d="M72.1,83.6c0,6.8-2,13.1-5.3,18.4l-10-10c-0.4-0.4-1-0.4-1.3,0c-0.4,0.4-0.4,1,0,1.3l0.3,0.3l0,0l9.9,9.9
	c-6.3,8.8-16.5,14.5-28.1,14.5c-11.6,0-22-5.8-28.2-14.7l10-10c0.4-0.4,0.4-1,0-1.4c-0.4-0.4-1-0.4-1.3,0c0,0,0,0,0,0l0,0
	c0,0,0,0,0,0l-9.7,9.7C5,96.5,3,90.3,3,83.6H1.2c0,20.1,16.3,36.4,36.4,36.4C57.7,120,74,103.7,74,83.6H72.1z"/>
<path class="bot-st0" d="M53.9,98.3c-0.3,0-0.5,0.1-0.6,0.3c-4.5,3.1-9.9,4.9-15.7,4.9c-6.2,0-11.9-2.1-16.5-5.5
	c-0.2-0.2-0.4-0.3-0.6-0.3c-0.5,0-0.8,0.4-0.8,0.8c0,0.2,0.1,0.4,0.2,0.5l0,0c0,0,0,0,0.1,0c0.1,0.1,0.2,0.2,0.3,0.2
	c4.9,3.6,10.9,5.8,17.4,5.8c6.1,0,11.8-1.9,16.5-5.1c0.2,0,0.4-0.2,0.5-0.3c0,0,0,0,0.1,0l0,0c0.1-0.1,0.1-0.3,0.1-0.4
	C54.8,98.7,54.4,98.3,53.9,98.3z"/>
<path class="bot-st0-mind" d="M119.5,31.9C119.5,14.3,105.1,0,87.5,0C69.9,0,55.6,14.3,55.6,31.9c0,12.2,6.8,23.1,17.8,28.6l2,1l-0.7,2.1
	c-1.4,4.1-3.2,7.8-4.7,10.4c4.7-0.7,12.3-3,19.2-9.6l0.6-0.6l0.9-0.1C107.1,62.1,119.5,48.4,119.5,31.9z"/>
  <text x = "67" y = "37" font-size = "16" font-color="white">
    Click
  </text>
<g>
	<path class="bot-st0" d="M57.7,54.4l-0.5,0.1c-0.2,0-0.5,0-0.7,0c-1.6,0-3.1-0.6-4.3-1.6c-0.5-0.4-0.5-1.1-0.1-1.6
		c0.4-0.4,1.1-0.5,1.6-0.1c0.8,0.7,1.7,1.1,2.8,1.1c0.7,0,1.3-0.2,2-0.5c-1.1-1.7-2.1-3.4-3-5.3c0,0,0,0.1,0,0.1
		c0,0.6-0.5,1.1-1.1,1.1c-3.3,0-6-2.4-6.3-5.7l0-0.4l-0.4,0c-1.3-0.1-2.7-0.5-3.7-1.4c-0.5-0.4-0.6-1.1-0.2-1.6
		c0.2-0.3,0.5-0.4,0.9-0.4c0.3,0,0.5,0.1,0.7,0.2c0.7,0.6,1.6,0.9,2.6,0.9c2,0,3.8-1.5,4.1-3.5l0,0c0-0.1,0-0.1,0-0.2
		c0-0.1,0-0.3,0-0.4c0-2.3-1.9-4.1-4.1-4.1c-0.9,0-1.7,0.3-2.4,0.8c-0.3,0.2-0.7,0.3-1,0.1c-2.3-0.9-4.8-1.3-7.3-1.3
		c-2.5,0-5,0.4-7.3,1.3c-0.3,0.1-0.7,0.1-1-0.1c-0.7-0.5-1.5-0.8-2.4-0.8c-2.3,0-4.2,1.9-4.2,4.1c0,0.1,0,0.3,0,0.4
		c0,0.1,0,0.1,0,0.2l0,0c0.3,2,2.1,3.5,4.1,3.5c0.9,0,1.8-0.3,2.6-0.9c0.2-0.2,0.4-0.2,0.7-0.2c0.3,0,0.7,0.2,0.9,0.4
		c0.4,0.5,0.3,1.2-0.2,1.6c-1,0.8-2.4,1.3-3.7,1.4l-0.4,0l0,0.4c-0.3,3.2-3.1,5.7-6.3,5.7c-0.6,0-1.1-0.5-1.1-1.1
		c0-0.6,0.5-1.1,1.1-1.1c2.3,0,4.1-1.8,4.1-4l0-0.3L23.8,41c-1.5-0.7-2.7-2-3.3-3.5l-0.1-0.3l-0.4,0c0,0-0.1,0-0.1,0
		c-2.3,0-4.1,1.9-4.1,4.1c0,0.6,0.1,1.2,0.4,1.7c0.2,0.5,0,1.1-0.4,1.4c-1.3,0.7-2,2.1-2,3.6c0,0.1,0,0.3,0,0.4l0,0.1
		c0,0.1,0,0.2,0.1,0.4c0.2,1.2,1,2.2,2.1,2.8l0,0c0.6,0.3,1.3,0.5,1.9,0.5c1,0,2-0.4,2.8-1.1c0.4-0.4,1.2-0.4,1.6,0.1
		c0.4,0.5,0.4,1.2-0.1,1.6c-1.2,1.1-2.7,1.6-4.3,1.6c-0.2,0-0.5,0-0.7,0l-0.5-0.1V55v1.4c0,0.1,0,0.2-0.1,0.3h19.6
		c0-0.1-0.1-0.2-0.1-0.3V55v-0.9v-1.4c0-0.6,0.5-1.1,1.1-1.1c0.6,0,1.1,0.5,1.1,1.1v1.4V55v1.4c0,0.1,0,0.2-0.1,0.3h19.6
		c0-0.1-0.1-0.2-0.1-0.3V54.4z M30.8,48.6c-0.9,0-1.6,0.7-1.6,1.6c0,0.6-0.5,1.1-1.1,1.1c-0.6,0-1.1-0.5-1.1-1.1
		c0-2.1,1.7-3.8,3.8-3.8c0.6,0,1.1,0.5,1.1,1.1C32,48.1,31.5,48.6,30.8,48.6z M38.3,46c0,0.6-0.5,1.1-1.1,1.1
		c-0.6,0-1.1-0.5-1.1-1.1V35c0-0.6,0.5-1.1,1.1-1.1c0.6,0,1.1,0.5,1.1,1.1V46z M46.2,51.3c-0.6,0-1.1-0.5-1.1-1.1
		c0-0.9-0.7-1.6-1.6-1.6c-0.6,0-1.1-0.5-1.1-1.1c0-0.6,0.5-1.1,1.1-1.1c2.1,0,3.8,1.7,3.8,3.8C47.3,50.8,46.8,51.3,46.2,51.3z"/>
	<path class="bot-st0" d="M50.3,41.2l0,0.3c0.1,2.3,1.9,4,4.1,4c0.3,0,0.6,0.1,0.8,0.3c-0.9-2.2-1.7-4.5-2.2-6.9
		c-0.6,0.9-1.5,1.6-2.5,2.1L50.3,41.2z"/>
</g>
<g>
	<path class="bot-st0" d="M52.4,30.8c0-1,0.1-2,0.2-3c-4.5-2.3-9.6-3.7-15-3.7C19.5,24,4.8,38.7,4.8,56.8h1h0.7h7.9
		c0-0.1-0.1-0.2-0.1-0.3V55v-0.9v-0.7l-0.2-0.1c-1.3-0.9-2.3-2.3-2.6-3.9l0,0c0-0.1,0-0.2,0-0.2l0-0.1L11,49.1l0.5-0.1
		c0-0.1,0-0.1,0-0.2c0-0.1,0-0.1,0-0.2l0-0.1c0-0.1,0-0.2,0-0.4c0-1.8,0.8-3.5,2.1-4.8l0.2-0.2l-0.1-0.3c-0.1-0.5-0.2-1-0.2-1.5
		c0-3.4,2.7-6.2,6.1-6.4l0.4,0l0-0.4c0,0,0-0.1,0-0.1l0-0.1c0-0.1,0-0.2,0.1-0.3l0-0.1c0-0.1,0-0.1,0-0.2c0,0,0-0.1,0-0.1l0-0.1
		c0,0,0-0.1,0-0.1l0.1-0.4c0,0,0-0.1,0.1-0.1l0.1-0.1c0,0,0-0.1,0.1-0.1c0,0,0-0.1,0.1-0.1l0.1-0.1c0,0,0-0.1,0.1-0.1l0.2-0.3
		c0,0,0.1-0.1,0.1-0.1c0,0,0-0.1,0.1-0.1c0,0,0.1-0.1,0.1-0.1l0.1-0.1c0,0,0.1-0.1,0.1-0.1c0,0,0.1-0.1,0.1-0.1c0,0,0.1-0.1,0.1-0.1
		l0.1-0.1c0,0,0.1-0.1,0.1-0.1l0.1-0.1c0,0,0.1-0.1,0.1-0.1l0.1-0.1c0.1-0.1,0.1-0.1,0.2-0.2l0.1-0.1c0.1,0,0.1-0.1,0.2-0.1l0.1-0.1
		c0,0,0.1-0.1,0.1-0.1l0.1-0.1c0,0,0.1-0.1,0.1-0.1l0.2-0.1c0,0,0.1,0,0.1,0l0.1-0.1c0,0,0.1,0,0.1-0.1l0.7-0.3c0,0,0.1,0,0.2-0.1
		l0.1,0c0.1,0,0.1,0,0.2,0l0.1,0c0.1,0,0.1,0,0.2,0c0,0,0.1,0,0.1,0c0.1,0,0.1,0,0.2,0l0.4-0.1c0.1,0,0.1,0,0.2,0l0.1,0
		c1.2-0.1,2.3,0.2,3.3,0.8l0.2,0.1l0.2-0.1c2.4-0.8,4.8-1.2,7.3-1.2c2.5,0,5,0.4,7.3,1.2l0.2,0.1l0.2-0.1c0.9-0.5,1.9-0.8,3-0.8
		c0.1,0,0.2,0,0.3,0l0.2,0c0.1,0,0.1,0,0.1,0l0.1,0c0.1,0,0.1,0,0.2,0l0.1,0c0.1,0,0.1,0,0.2,0l0.4,0.1c0.1,0,0.1,0,0.2,0l0.1,0
		c0,0,0.1,0,0.2,0.1c0,0,0.1,0,0.1,0l0.3,0.1c0,0,0.1,0,0.2,0.1c0,0,0.1,0,0.1,0.1c0,0,0.1,0,0.1,0l0.3,0.2c0,0,0.1,0,0.1,0.1
		c0,0,0.1,0.1,0.1,0.1l0.1,0.1c0,0,0.1,0.1,0.1,0.1l0.1,0.1c0.1,0,0.1,0.1,0.2,0.1l0.1,0.1c0.1,0.1,0.1,0.1,0.2,0.2c0,0,0,0,0.1,0.1
		C52.3,30.7,52.3,30.7,52.4,30.8L52.4,30.8z"/>
</g>
<g>
	<path class="bot-st0" d="M53.3,23.9c-4.8-2.3-10.1-3.6-15.7-3.6c-20.1,0-36.4,16.3-36.4,36.4H3c0-19,15.5-34.5,34.5-34.5
		c5.5,0,10.7,1.3,15.3,3.6C53,25.2,53.1,24.6,53.3,23.9z"/>
</g>
</svg>
