<?xml version="1.0" encoding="utf-8"?>
<!-- Generator: Adobe Illustrator 22.0.1, SVG Export Plug-In . SVG Version: 6.00 Build 0)  -->
<svg version="1.1" id="instagram_svg" xmlns="http://www.w3.org/2000/svg" xmlns:xlink="http://www.w3.org/1999/xlink" x="0px" y="0px"
	 viewBox="0 0 60 60" style="enable-background:new 0 0 60 60;" xml:space="preserve">
<style type="text/css">
	.st0{fill:#231F20;}
	.st0{fill:white;}
	.insta-svg {fill:white;}
	svg:hover .insta-svg {fill:black;}
    .active-path {
        display: none;
    }
    svg:hover .active-path {
        display: block;
        fill: #ff5719;
    }

    .value-active svg:hover .face-svg {
        fill:#ff5917;
    }

    .value-active svg:hover .insta-svg {
        fill:#ff5917;
    }
</style>
<path class="active-path" d="M30,0C13.4,0,0,13.4,0,30s13.4,30,30,30s30-13.4,30-30S46.6,0,30,0L30,0z"/>
<path class="insta-svg border-black" d="M30,2c15.4,0,28,12.6,28,28S45.4,58,30,58S2,45.4,2,30S14.6,2,30,2 M30,0C13.4,0,0,13.4,0,30s13.4,30,30,30
	s30-13.4,30-30S46.6,0,30,0L30,0z"/>
<g>
	<path class="insta-svg" d="M35.6,17.6H24.4c-3.8,0-6.8,3.1-6.8,6.8v11.1c0,3.8,3.1,6.8,6.8,6.8h11.1c3.8,0,6.8-3.1,6.8-6.8V24.4
		C42.4,20.7,39.3,17.6,35.6,17.6L35.6,17.6z M40.2,35.6c0,2.6-2.1,4.6-4.6,4.6H24.4c-2.6,0-4.6-2.1-4.6-4.6V24.4
		c0-2.6,2.1-4.6,4.6-4.6h11.1c2.6,0,4.6,2.1,4.6,4.6V35.6z M40.2,35.6"/>
	<path class="insta-svg" d="M30,23.6c-3.5,0-6.4,2.9-6.4,6.4c0,3.5,2.9,6.4,6.4,6.4c3.5,0,6.4-2.9,6.4-6.4C36.4,26.5,33.5,23.6,30,23.6
		L30,23.6z M30,34.2c-2.3,0-4.2-1.9-4.2-4.2c0-2.3,1.9-4.2,4.2-4.2s4.2,1.9,4.2,4.2C34.2,32.3,32.3,34.2,30,34.2L30,34.2z M30,34.2"
		/>
	<path class="insta-svg" d="M36.7,21.7c-0.4,0-0.8,0.2-1.1,0.5c-0.3,0.3-0.5,0.7-0.5,1.1c0,0.4,0.2,0.8,0.5,1.1c0.3,0.3,0.7,0.5,1.1,0.5
		c0.4,0,0.8-0.2,1.1-0.5c0.3-0.3,0.5-0.7,0.5-1.1c0-0.4-0.2-0.8-0.5-1.1C37.5,21.9,37.1,21.7,36.7,21.7L36.7,21.7z M36.7,21.7"/>
</g>
</svg>
