<?xml version="1.0" encoding="utf-8"?>
<!-- Generator: Adobe Illustrator 22.0.1, SVG Export Plug-In . SVG Version: 6.00 Build 0)  -->
<svg version="1.1" id="Warstwa_1" xmlns="http://www.w3.org/2000/svg" xmlns:xlink="http://www.w3.org/1999/xlink" x="0px" y="0px"
	 viewBox="0 0 60 60" style="enable-background:new 0 0 60 60;" xml:space="preserve">
<style>
    svg {
	   fill: #717171;
    }
    .value-active svg {
        fill: black;
    }
</style>
<path d="M49.5,41.8L47,39.7l-0.4-0.4c0.1-0.9,0.1-3.3,0.1-9.9l0-11.8c0-7.1-4.8-13.7-12.8-17.4c-0.7-0.3-1.6-0.3-2.3,0
	c-8,3.8-12.8,10.3-12.8,17.4l0,21.8l-0.3,0.3l-2.5,2.1c-0.8,0.7-1.4,1.9-1.4,2.9l0,6c0,1.5,1.2,2.7,2.7,2.7h5.4L19.7,60h5.5l5.5,0
	l-2.9-6.6l9.8,0L34.8,60l5.5,0h5.5l-2.9-6.6h5.4c1.5,0,2.7-1.2,2.7-2.7l0-6C50.9,43.7,50.4,42.5,49.5,41.8z M21.7,17.6
	c0-6,4.1-11.5,11-14.8c6.9,3.3,11,8.8,11,14.8l0,2.7l-2.9,0l-1.3,0l-17.8,0L21.7,17.6z M21.7,23.2h17.8c0,0,0,0,0,0h4.2l0,13.8
	l-11-9.1l0,0l0,0l-11.1,9.2c0.1-0.6,0.1-1.3,0.1-2.3V23.2z M47.6,50.2l-29.8,0l0-5.4c0-0.2,0.2-0.4,0.2-0.5l14.7-12.1l0,0l14.7,12.1
	c0.1,0.1,0.2,0.3,0.2,0.5L47.6,50.2z"/>
</svg>
