<?xml version="1.0" encoding="utf-8"?>
<!-- Generator: Adobe Illustrator 22.0.1, SVG Export Plug-In . SVG Version: 6.00 Build 0)  -->
<svg version="1.1" id="Warstwa_1" xmlns="http://www.w3.org/2000/svg" xmlns:xlink="http://www.w3.org/1999/xlink" x="0px" y="0px"
	 viewBox="0 0 438.7 172" style="enable-background:new 0 0 438.7 172;" xml:space="preserve">
<style type="text/css">
	svg {
		fill: #ff5719;
	}
	.st0{stroke:#ff5719;stroke-width:0.25;stroke-miterlimit:10;}
</style>
<g>
	<g>
		<path class="st0" d="M207.4,122.8v0.5h-11.1c-0.9,0-1.6,0.7-1.6,1.6c0,0.9,0.7,1.6,1.6,1.6h11.1v3.8l-5.5,5.5h-5.6
			c-0.4,0-0.8,0.2-1.1,0.5l-3.1,3.1h-1.7l4-4c0.3-0.3,0.5-0.7,0.5-1.1c0-0.4-0.2-0.8-0.5-1.1c-0.3-0.3-0.7-0.5-1.1-0.5
			c-0.4,0-0.8,0.2-1.1,0.5l-6.3,6.2h-8.1l4-4c0.3-0.3,0.5-0.7,0.5-1.1c0-0.4-0.2-0.8-0.5-1.1c-0.3-0.3-0.7-0.5-1.1-0.5
			c-0.4,0-0.8,0.2-1.1,0.5l-21.4,21.4h-5.6c-0.6,0-1.2,0.4-1.4,0.9v-4h7.7c0.4,0,0.8-0.2,1.1-0.5l6.3-6.3c0.3-0.3,0.5-0.7,0.5-1.1
			c0-0.4-0.2-0.8-0.5-1.1c-0.3-0.3-0.7-0.5-1.1-0.5c-0.4,0-0.8,0.2-1.1,0.5l-5.8,5.8h-7v-3.1h7.7c0.4,0,0.8-0.2,1.1-0.5l12.5-12.5
			l0,0l0,0l9.5-9.5h8.1l-7.2,7.2c-0.3,0.3-0.5,0.7-0.5,1.1c0,0.4,0.2,0.8,0.5,1.1c0.3,0.3,0.7,0.5,1.1,0.5c0.4,0,0.8-0.2,1.1-0.5
			l9.5-9.5H207.4 M171.3,139c0.4,0,0.8-0.2,1.1-0.5l6.3-6.3c0.3-0.3,0.5-0.7,0.5-1.1c0-0.4-0.2-0.8-0.5-1.1
			c-0.3-0.3-0.7-0.5-1.1-0.5c-0.4,0-0.8,0.2-1.1,0.5l-6.3,6.3c-0.6,0.6-0.6,1.6,0,2.2C170.5,138.9,170.9,139,171.3,139 M183.8,139
			c0.4,0,0.8-0.2,1.1-0.5l5.8-5.8l8.2,0l0.2,0l3.5,0c0.9,0,1.6-0.7,1.6-1.6c0-0.9-0.7-1.6-1.6-1.6h-3.7l-8.8,0c0,0-0.1,0-0.1,0
			c-0.4,0-0.8,0.2-1.1,0.5l-6.3,6.3c-0.3,0.3-0.5,0.7-0.5,1.1c0,0.4,0.2,0.8,0.5,1.1C183,138.9,183.4,139,183.8,139 M173.5,143.8
			v5.5v0.8h0.8h0.9l-11.3,11.3c-0.6,0.6-0.6,1.6,0,2.2c0.3,0.3,0.7,0.5,1.1,0.5c0.4,0,0.8-0.2,1.1-0.5l13.5-13.5h8.1l-5.1,5.1
			c-0.3,0.3-0.5,0.7-0.5,1.1s0.2,0.8,0.5,1.1c0.3,0.3,0.7,0.5,1.1,0.5c0.4,0,0.8-0.2,1.1-0.5l7.3-7.3h1.8l-2.7,2.7
			c-0.6,0.6-0.6,1.6,0,2.2c0.3,0.3,0.7,0.5,1.1,0.5c0.4,0,0.8-0.2,1.1-0.5l4.9-4.9h13.3v1l-3.6,3.6h-5.6c-0.9,0-1.6,0.7-1.6,1.6
			c0,0.9,0.7,1.6,1.6,1.6h6.3c0.4,0,0.8-0.2,1.1-0.5l1.8-1.8v1.8l-3.6,3.6h-11.9c-0.4,0-0.8,0.2-1.1,0.5l-5.3,5.3h-1.8l9.3-9.3
			c0.6-0.6,0.6-1.6,0-2.2c-0.3-0.3-0.7-0.5-1.1-0.5c-0.4,0-0.8,0.2-1.1,0.5l-11.6,11.6h-1.8c0,0,0,0,0,0l6.3-6.3
			c0.3-0.3,0.5-0.7,0.5-1.1c0-0.4-0.2-0.8-0.5-1.1c-0.3-0.3-0.7-0.5-1.1-0.5c-0.4,0-0.8,0.2-1.1,0.5l-6.3,6.3
			c-0.3,0.3-0.5,0.7-0.5,1.1c0,0.4,0.2,0.8,0.5,1.1c0,0,0,0,0,0h-4l6.9-7c0.3-0.3,0.5-0.7,0.5-1.1c0-0.4-0.2-0.8-0.5-1.1
			c-0.3-0.3-0.7-0.5-1.1-0.5c-0.4,0-0.8,0.2-1.1,0.5l-9.1,9.2h-1.9l3.1-3.1c0.3-0.3,0.5-0.7,0.5-1.1c0-0.4-0.2-0.8-0.5-1.1
			c-0.3-0.3-0.7-0.5-1.1-0.5c-0.4,0-0.8,0.2-1.1,0.5l-5.3,5.3h-13.8v-2.6h7.7c0.4,0,0.8-0.2,1.1-0.5l6.3-6.3c0.6-0.6,0.6-1.6,0-2.2
			c-0.3-0.3-0.7-0.5-1.1-0.5c-0.4,0-0.8,0.2-1.1,0.5l-5.8,5.8h-7v-4c0.3,0.5,0.8,0.9,1.4,0.9h6.3c0.4,0,0.8-0.2,1.1-0.5L173.5,143.8
			 M174.7,160.7c0.4,0,0.8-0.2,1.1-0.5l6.3-6.3c0.3-0.3,0.5-0.7,0.5-1.1s-0.2-0.8-0.5-1.1c-0.3-0.3-0.7-0.5-1.1-0.5
			c-0.4,0-0.8,0.2-1.1,0.5l-6.3,6.3c-0.3,0.3-0.5,0.7-0.5,1.1c0,0.4,0.2,0.8,0.5,1.1C173.9,160.5,174.3,160.7,174.7,160.7
			 M208.2,122.1h-14.2l-9.7,9.7c-0.2,0.2-0.4,0.2-0.6,0.2c-0.2,0-0.4-0.1-0.6-0.2c-0.3-0.3-0.3-0.8,0-1.1l8.6-8.6h-10.3l-9.7,9.7
			c0,0,0,0,0,0l-12.5,12.5c-0.1,0.1-0.3,0.2-0.6,0.2h-8.5v4.7h8.2l6-6c0.2-0.2,0.4-0.2,0.6-0.2c0.2,0,0.4,0.1,0.6,0.2
			c0.3,0.3,0.3,0.8,0,1.1l-6.3,6.3c-0.1,0.1-0.3,0.2-0.6,0.2h-8.5v10.9h8.2l6-6c0.2-0.2,0.4-0.2,0.6-0.2c0.2,0,0.4,0.1,0.6,0.2
			c0.3,0.3,0.3,0.8,0,1.1l-6.3,6.3c-0.1,0.1-0.3,0.2-0.6,0.2h-8.5v4.2h14.9l5.5-5.5c0.2-0.2,0.4-0.2,0.6-0.2c0.2,0,0.4,0.1,0.6,0.2
			c0.3,0.3,0.3,0.8,0,1.1l-4.4,4.4h4.1c0,0,0,0,0,0l9.3-9.4c0.2-0.2,0.4-0.2,0.6-0.2c0.2,0,0.4,0.1,0.6,0.2c0.3,0.3,0.3,0.8,0,1.1
			l-8.2,8.3H184l11.8-11.8c0.2-0.2,0.4-0.2,0.6-0.2c0.2,0,0.4,0.1,0.6,0.2c0.3,0.3,0.3,0.8,0,1.1l-10.7,10.7h4l5.5-5.5
			c0.1-0.1,0.3-0.2,0.6-0.2h12.2l4.1-4.1v-4l-3.2,3.2c-0.1,0.1-0.3,0.2-0.6,0.2h-6.3c-0.4,0-0.8-0.4-0.8-0.8s0.3-0.8,0.8-0.8h5.9
			l4.1-4.1v-2.1h-14.4l-5.2,5.2c-0.2,0.2-0.4,0.2-0.6,0.2c-0.2,0-0.4-0.1-0.6-0.2c-0.3-0.3-0.3-0.8,0-1.1l4-4h-4l-7.5,7.5
			c-0.2,0.2-0.4,0.2-0.6,0.2c-0.2,0-0.4-0.1-0.6-0.2c-0.3-0.3-0.3-0.8,0-1.1l6.4-6.4h-10.3L165.6,163c-0.2,0.2-0.4,0.2-0.6,0.2
			c-0.2,0-0.4-0.1-0.6-0.2c-0.3-0.3-0.3-0.8,0-1.1l12.7-12.7h-2.9v-7.4l-15,14.9c-0.1,0.1-0.3,0.2-0.6,0.2h-6.3
			c-0.4,0-0.8-0.4-0.8-0.8s0.3-0.8,0.8-0.8h5.9l21.7-21.6c0.2-0.2,0.4-0.2,0.6-0.2c0.2,0,0.4,0.1,0.6,0.2c0.3,0.3,0.3,0.8,0,1.1
			l-5.3,5.3h10.3l6.5-6.4c0.2-0.2,0.4-0.2,0.6-0.2c0.2,0,0.4,0.1,0.6,0.2c0.3,0.3,0.3,0.8,0,1.1l-5.4,5.3h4l3.4-3.4
			c0.1-0.1,0.3-0.2,0.6-0.2h5.9l6-6v-5h-11.9c-0.4,0-0.8-0.3-0.8-0.8c0-0.4,0.4-0.8,0.8-0.8h11.9V122.1L208.2,122.1z M171.3,138.2
			c-0.2,0-0.4-0.1-0.6-0.2c-0.3-0.3-0.3-0.8,0-1.1l6.3-6.3c0.2-0.2,0.4-0.2,0.6-0.2c0.2,0,0.4,0.1,0.6,0.2c0.3,0.3,0.3,0.8,0,1.1
			l-6.3,6.3C171.7,138.2,171.5,138.2,171.3,138.2L171.3,138.2z M183.8,138.2c-0.2,0-0.4-0.1-0.6-0.2c-0.3-0.3-0.3-0.8,0-1.1l6.3-6.3
			c0.2-0.2,0.3-0.2,0.5-0.2c0,0,0,0,0.1,0l8.8,0h0h3.7c0.4,0,0.8,0.3,0.8,0.8c0,0.4-0.3,0.8-0.8,0.8l-3.7,0l0,0l-8.5,0l-6,6
			C184.2,138.2,184,138.2,183.8,138.2L183.8,138.2z M174.7,159.9c-0.2,0-0.4-0.1-0.6-0.2c-0.3-0.3-0.3-0.8,0-1.1l6.3-6.3
			c0.2-0.2,0.4-0.2,0.6-0.2c0.2,0,0.4,0.1,0.6,0.2c0.3,0.3,0.3,0.8,0,1.1l-6.3,6.3C175.1,159.8,174.9,159.9,174.7,159.9L174.7,159.9
			z M180.8,166.3c-0.2,0-0.4-0.1-0.6-0.2c-0.3-0.3-0.3-0.8,0-1.1l6.3-6.3c0.2-0.2,0.4-0.2,0.6-0.2c0.2,0,0.4,0.1,0.6,0.2
			c0.3,0.3,0.3,0.8,0,1.1l-6.3,6.3C181.2,166.2,181,166.3,180.8,166.3L180.8,166.3z"/>
		<path class="st0" d="M210.8,95.7l-2.6,2.6h-11.9c-0.4,0-0.8,0.2-1.1,0.5l-6.3,6.3c-0.6,0.6-0.6,1.6,0,2.2c0.3,0.3,0.7,0.5,1.1,0.5
			c0.4,0,0.8-0.2,1.1-0.5l5.8-5.8h11.9c0.4,0,0.8-0.2,1.1-0.5l0.9-0.9v1.8l-2.7,2.7h-5.6c-0.9,0-1.6,0.7-1.6,1.6
			c0,0.9,0.7,1.6,1.6,1.6h6.3c0.4,0,0.8-0.2,1.1-0.5l0.9-0.9v6h-18.5l5.1-5.1c0.3-0.3,0.5-0.7,0.5-1.1c0-0.4-0.2-0.8-0.5-1.1
			c-0.3-0.3-0.7-0.5-1.1-0.5c-0.4,0-0.8,0.2-1.1,0.5l-7.3,7.3h-1.8l2-2c0.3-0.3,0.5-0.7,0.5-1.1c0-0.4-0.2-0.8-0.5-1.1
			c-0.3-0.3-0.7-0.5-1.1-0.5c-0.4,0-0.8,0.2-1.1,0.5l-4.3,4.3h-7.4h-0.8v0.8v7.4l-9.6,9.6c-0.3,0.3-0.5,0.7-0.5,1.1
			c0,0.4,0.2,0.8,0.5,1.1c0.3,0.3,0.7,0.5,1.1,0.5c0.4,0,0.8-0.2,1.1-0.5l9.5-9.5h1.8l-7.2,7.2l0,0l-0.1,0.1l-12,12.1h-7V139h1.4
			c0.4,0,0.8-0.2,1.1-0.5l6.2-6.2l0,0l0.1-0.1l9.4-9.3c0.6-0.6,0.6-1.6,0-2.2c-0.3-0.3-0.7-0.5-1.1-0.5c-0.4,0-0.8,0.2-1.1,0.5
			l-9.3,9.3l0,0l-0.1,0.1l-5.8,5.8h-0.8v-9.4h7.7c0.4,0,0.8-0.2,1.1-0.5l12.5-12.5c0.6-0.6,0.6-1.6,0-2.2c-0.3-0.3-0.7-0.5-1.1-0.5
			c-0.4,0-0.8,0.2-1.1,0.5l-12,12.1h-7v-3.1h7.7c0.9,0,1.6-0.7,1.6-1.6c0-0.9-0.7-1.6-1.6-1.6h-7.7V114h7.7c0.4,0,0.8-0.2,1.1-0.5
			l6.3-6.3c0.6-0.6,0.6-1.6,0-2.2c-0.3-0.3-0.7-0.5-1.1-0.5c-0.4,0-0.8,0.2-1.1,0.5l-5.8,5.8h-7v-4c0.3,0.5,0.8,0.9,1.4,0.9h6.3
			c0.4,0,0.8-0.2,1.1-0.5l11.6-11.6h1.8l-3.1,3.1c-0.3,0.3-0.5,0.7-0.5,1.1c0,0.4,0.2,0.8,0.5,1.1c0.3,0.3,0.7,0.5,1.1,0.5
			c0.4,0,0.8-0.2,1.1-0.5l5.4-5.3h1.7l-15.6,15.6c-0.6,0.6-0.6,1.6,0,2.2c0.3,0.3,0.7,0.5,1.1,0.5c0.4,0,0.8-0.2,1.1-0.5L184,95.7
			h1.8l-3.1,3.1c-0.3,0.3-0.5,0.7-0.5,1.1c0,0.4,0.2,0.8,0.5,1.1c0.3,0.3,0.7,0.5,1.1,0.5c0.4,0,0.8-0.2,1.1-0.5l5.3-5.3h1.8
			l-9.3,9.3c-0.6,0.6-0.6,1.6,0,2.2c0.3,0.3,0.7,0.5,1.1,0.5c0.4,0,0.8-0.2,1.1-0.5l11.6-11.6H210.8 M174.7,110.6
			c0.4,0,0.8-0.2,1.1-0.5l6.3-6.3c0.3-0.3,0.5-0.7,0.5-1.1c0-0.4-0.2-0.8-0.5-1.1c-0.3-0.3-0.7-0.5-1.1-0.5c-0.4,0-0.8,0.2-1.1,0.5
			l-6.3,6.3c-0.3,0.3-0.5,0.7-0.5,1.1s0.2,0.8,0.5,1.1C173.9,110.4,174.3,110.6,174.7,110.6 M167,95.7l-8.9,8.9h-5.6
			c-0.6,0-1.2,0.4-1.4,0.9v-4h7.7c0.4,0,0.8-0.2,1.1-0.5l5.3-5.3H167 M211.7,94.9h-15.5l-11.8,11.8c-0.2,0.2-0.4,0.2-0.6,0.2
			c-0.2,0-0.4-0.1-0.6-0.2c-0.3-0.3-0.3-0.8,0-1.1L194,94.9h-4l-5.5,5.5c-0.2,0.2-0.4,0.2-0.6,0.2c-0.2,0-0.4-0.1-0.6-0.2
			c-0.3-0.3-0.3-0.8,0-1.1l4.4-4.4h-4l-18,18c-0.2,0.2-0.4,0.2-0.6,0.2c-0.2,0-0.4-0.1-0.6-0.2c-0.3-0.3-0.3-0.8,0-1.1l16.9-16.9h-4
			l-5.6,5.5c-0.2,0.2-0.4,0.2-0.6,0.2c-0.2,0-0.4-0.1-0.6-0.2c-0.3-0.3-0.3-0.8,0-1.1l4.5-4.4h-4.1l-11.8,11.8
			c-0.1,0.1-0.3,0.2-0.6,0.2h-6.3c-0.4,0-0.8-0.4-0.8-0.8c0-0.4,0.3-0.8,0.8-0.8h5.9l10.5-10.5h-4.1l-5.5,5.5
			c-0.1,0.1-0.3,0.2-0.6,0.2h-8.5v10.9h8.2l6-6c0.2-0.2,0.4-0.2,0.6-0.2c0.2,0,0.4,0.1,0.6,0.2c0.3,0.3,0.3,0.8,0,1.1l-6.3,6.3
			c-0.1,0.1-0.3,0.2-0.6,0.2h-8.5v4.7h8.5c0.4,0,0.8,0.3,0.8,0.8c0,0.4-0.4,0.8-0.8,0.8h-8.5v4.7h8.2l12.3-12.3
			c0.2-0.2,0.4-0.2,0.6-0.2c0.2,0,0.4,0.1,0.6,0.2c0.3,0.3,0.3,0.8,0,1.1l-12.5,12.5c-0.1,0.1-0.3,0.2-0.6,0.2h-8.5v10.9h1.9l6-6
			c0,0,0,0,0,0l9.4-9.3c0.2-0.2,0.4-0.2,0.5-0.2c0.2,0,0.4,0.1,0.6,0.2c0.3,0.3,0.3,0.8,0,1.1l-9.4,9.3c0,0,0,0,0,0l-6.2,6.2
			c-0.1,0.1-0.3,0.2-0.6,0.2h-2.2v4.7h8.2l12.3-12.3c0,0,0,0,0,0l8.6-8.6h-4l-9.7,9.7c-0.2,0.2-0.4,0.2-0.6,0.2
			c-0.2,0-0.4-0.1-0.6-0.2c-0.3-0.3-0.3-0.8,0-1.1l9.8-9.8v-7.7h7.7l4.5-4.5c0.2-0.2,0.4-0.2,0.6-0.2c0.2,0,0.4,0.1,0.6,0.2
			c0.3,0.3,0.3,0.8,0,1.1l-3.4,3.4h4l7.5-7.5c0.2-0.2,0.4-0.2,0.6-0.2c0.2,0,0.4,0.1,0.6,0.2c0.3,0.3,0.3,0.8,0,1.1l-6.4,6.4h21.2
			v-8.7l-2.3,2.3c-0.1,0.1-0.3,0.2-0.6,0.2h-6.3c-0.4,0-0.8-0.4-0.8-0.8c0-0.4,0.3-0.8,0.8-0.8h5.9l3.1-3.1v-4l-2.3,2.3
			c-0.1,0.1-0.3,0.2-0.6,0.2h-12.2l-6,6c-0.2,0.2-0.4,0.2-0.6,0.2c-0.2,0-0.4-0.1-0.6-0.2c-0.3-0.3-0.3-0.8,0-1.1l6.3-6.3
			c0.1-0.1,0.3-0.2,0.6-0.2h12.2l3.1-3.1V94.9L211.7,94.9z M174.7,109.8c-0.2,0-0.4-0.1-0.6-0.2c-0.3-0.3-0.3-0.8,0-1.1l6.3-6.3
			c0.2-0.2,0.4-0.2,0.6-0.2c0.2,0,0.4,0.1,0.6,0.2c0.3,0.3,0.3,0.8,0,1.1l-6.3,6.3C175.1,109.7,174.9,109.8,174.7,109.8L174.7,109.8
			z"/>
		<path class="st0" d="M160.7,95.7l-2.6,2.6h-7v-2.6H160.7 M162.7,94.9h-12.4v4.2h8.2L162.7,94.9L162.7,94.9z"/>
		<path class="st0" d="M207.4,134.8v4.6h-10.9l0.4-0.4h5.6c0.4,0,0.8-0.2,1.1-0.5L207.4,134.8 M208.2,132.9l-5.1,5.1
			c-0.1,0.1-0.3,0.2-0.6,0.2h-5.9l-2,2h13.6V132.9L208.2,132.9z"/>
		<path class="st0" d="M211.8,161.8v4.9h-17.4l2.6-2.6h11.9c0.4,0,0.8-0.2,1.1-0.5L211.8,161.8 M212.6,159.8l-3.2,3.2
			c-0.1,0.1-0.3,0.2-0.6,0.2h-12.2l-4.2,4.2h20.1V159.8L212.6,159.8z"/>
	</g>
	<g>
		<path class="st0" d="M253.4,95.7l-3.1,3.1c-0.3,0.3-0.5,0.7-0.5,1.1c0,0.4,0.2,0.8,0.5,1.1c0.3,0.3,0.7,0.5,1.1,0.5
			c0.4,0,0.8-0.2,1.1-0.5l5.2-5.2c0.6,0,1.1,0.1,1.7,0.1l-9.1,9.1c-0.6,0.6-0.6,1.6,0,2.2c0.3,0.3,0.7,0.5,1.1,0.5
			c0.4,0,0.8-0.2,1.1-0.5l10.8-10.8c2.2,0.4,4.3,1,6.2,1.8H264c-0.4,0-0.8,0.2-1.1,0.5l-6.3,6.3c-0.6,0.6-0.6,1.6,0,2.2
			c0.3,0.3,0.7,0.5,1.1,0.5c0.4,0,0.8-0.2,1.1-0.5l5.8-5.8H275c0.4,0.3,0.7,0.6,1,0.8c0.4,0.3,0.7,0.7,1.1,1l-1.3,1.3h-5.6
			c-0.9,0-1.6,0.7-1.6,1.6c0,0.9,0.7,1.6,1.6,1.6h6.3c0.4,0,0.8-0.2,1.1-0.5l1.6-1.6c0.2,0.3,0.5,0.7,0.7,1.1l-4,4H264
			c-0.4,0-0.8,0.2-1.1,0.5l-3.2,3.2c-0.3-0.3-0.6-0.5-1-0.8l6.4-6.4c0.6-0.6,0.6-1.6,0-2.2c-0.3-0.3-0.7-0.5-1.1-0.5
			s-0.8,0.2-1.1,0.5l-7.5,7.5c-0.5-0.1-1.1-0.1-1.6-0.2l2-2c0.3-0.3,0.5-0.7,0.5-1.1c0-0.4-0.2-0.8-0.5-1.1
			c-0.3-0.3-0.7-0.5-1.1-0.5c-0.4,0-0.8,0.2-1.1,0.5l-4.3,4.3h-4.7h-0.8v0.8v4.7l-12.2,12.2c-0.3,0.3-0.5,0.7-0.5,1.1
			c0,0.4,0.2,0.8,0.5,1.1c0.3,0.3,0.7,0.5,1.1,0.5c0.4,0,0.8-0.2,1.1-0.5l10-10v1.8l-5.9,5.9l0,0l-0.1,0.1l-12.1,12.1h-4.4v-3.6
			l6.1-6.1l0,0l0,0l9.4-9.3c0.6-0.6,0.6-1.6,0-2.2c-0.3-0.3-0.7-0.5-1.1-0.5c-0.4,0-0.8,0.2-1.1,0.5l-9.3,9.3l0,0l-0.1,0.1l-4,4
			v-7.5h5.1c0.4,0,0.8-0.2,1.1-0.5l12.5-12.5c0.6-0.6,0.6-1.6,0-2.2c-0.3-0.3-0.7-0.5-1.1-0.5c-0.4,0-0.8,0.2-1.1,0.5l-12.1,12.1
			h-4.4v-3.1h5.1c0.9,0,1.6-0.7,1.6-1.6c0-0.9-0.7-1.6-1.6-1.6h-5.1V114h5.1c0.4,0,0.8-0.2,1.1-0.5l6.3-6.3c0.6-0.6,0.6-1.6,0-2.2
			c-0.3-0.3-0.7-0.5-1.1-0.5s-0.8,0.2-1.1,0.5l-5.8,5.8h-4.4v-3.1h5.1c0.4,0,0.8-0.2,1.1-0.5l11.6-11.6h1.8l-3.1,3.1
			c-0.3,0.3-0.5,0.7-0.5,1.1c0,0.4,0.2,0.8,0.5,1.1c0.3,0.3,0.7,0.5,1.1,0.5c0.4,0,0.8-0.2,1.1-0.5l5.4-5.3h1.7l-15.6,15.6
			c-0.6,0.6-0.6,1.6,0,2.2c0.3,0.3,0.7,0.5,1.1,0.5c0.4,0,0.8-0.2,1.1-0.5l17.8-17.8H253.4 M242.3,110.6c0.4,0,0.8-0.2,1.1-0.5
			l6.3-6.3c0.3-0.3,0.5-0.7,0.5-1.1c0-0.4-0.2-0.8-0.5-1.1c-0.3-0.3-0.7-0.5-1.1-0.5c-0.4,0-0.8,0.2-1.1,0.5l-6.3,6.3
			c-0.6,0.6-0.6,1.6,0,2.2C241.5,110.4,241.9,110.6,242.3,110.6 M254.6,94.9h-3.3l-18,18c-0.2,0.2-0.4,0.2-0.6,0.2
			c-0.2,0-0.4-0.1-0.6-0.2c-0.3-0.3-0.3-0.8,0-1.1l16.9-16.9h-4l-5.6,5.5c-0.2,0.2-0.4,0.2-0.6,0.2c-0.2,0-0.4-0.1-0.6-0.2
			c-0.3-0.3-0.3-0.8,0-1.1l4.5-4.4h-4.1L227,106.7c-0.1,0.1-0.3,0.2-0.6,0.2h-5.9v4.7h5.5l6-6c0.2-0.2,0.4-0.2,0.6-0.2
			c0.2,0,0.4,0.1,0.6,0.2c0.3,0.3,0.3,0.8,0,1.1L227,113c-0.1,0.1-0.3,0.2-0.6,0.2h-5.9v4.7h5.9c0.4,0,0.8,0.3,0.8,0.8
			c0,0.4-0.4,0.8-0.8,0.8h-5.9v4.7h5.5l12.3-12.3c0.2-0.2,0.4-0.2,0.6-0.2c0.2,0,0.4,0.1,0.6,0.2c0.3,0.3,0.3,0.8,0,1.1L227,125.5
			c-0.1,0.1-0.3,0.2-0.6,0.2h-5.9V136l5.3-5.3c0,0,0,0,0,0l9.4-9.3c0.2-0.2,0.4-0.2,0.5-0.2c0.2,0,0.4,0.1,0.6,0.2
			c0.3,0.3,0.3,0.8,0,1.1l-9.4,9.3c0,0,0,0,0,0l-6.2,6.2c0,0-0.1,0.1-0.2,0.1v4.8h5.5l12.3-12.3c0,0,0,0,0,0l6.2-6.2v-4l-11.3,11.3
			c-0.2,0.2-0.4,0.2-0.6,0.2c-0.2,0-0.4-0.1-0.6-0.2c-0.3-0.3-0.3-0.8,0-1.1l12.4-12.4v-5.1h5.1l4.5-4.5c0.2-0.2,0.4-0.2,0.6-0.2
			c0.2,0,0.4,0.1,0.6,0.2c0.3,0.3,0.3,0.8,0,1.1l-3.4,3.4h1.5c0.8,0,1.6,0.1,2.3,0.2l7.8-7.8c0.2-0.2,0.4-0.2,0.6-0.2
			c0.2,0,0.4,0.1,0.6,0.2c0.3,0.3,0.3,0.8,0,1.1l-7.2,7.2c0.8,0.4,1.5,0.8,2.1,1.5c0.1,0.1,0.2,0.2,0.2,0.3l3.8-3.8
			c0.1-0.1,0.3-0.2,0.6-0.2h12.2l4.7-4.7c-0.5-0.8-1-1.6-1.6-2.4l-2.2,2.2c-0.1,0.1-0.3,0.2-0.6,0.2h-6.3c-0.4,0-0.8-0.4-0.8-0.8
			c0-0.4,0.3-0.8,0.8-0.8h5.9l2.1-2c-0.5-0.6-1.1-1.1-1.7-1.6c-0.4-0.4-0.8-0.7-1.3-1h-11l-6,6c-0.2,0.2-0.4,0.2-0.6,0.2
			c-0.2,0-0.4-0.1-0.6-0.2c-0.3-0.3-0.3-0.8,0-1.1l6.3-6.3c0.1-0.1,0.3-0.2,0.6-0.2h9c-2.8-1.6-6.1-2.8-9.8-3.5L252,106.7
			c-0.2,0.2-0.4,0.2-0.6,0.2c-0.2,0-0.4-0.1-0.6-0.2c-0.3-0.3-0.3-0.8,0-1.1l10.3-10.3c-1.2-0.2-2.4-0.3-3.7-0.3l-5.5,5.5
			c-0.2,0.2-0.4,0.2-0.6,0.2c-0.2,0-0.4-0.1-0.6-0.2c-0.3-0.3-0.3-0.8,0-1.1l4.4-4.4C255.1,95,254.8,94.9,254.6,94.9L254.6,94.9z
			 M242.3,109.8c-0.2,0-0.4-0.1-0.6-0.2c-0.3-0.3-0.3-0.8,0-1.1l6.3-6.3c0.2-0.2,0.4-0.2,0.6-0.2c0.2,0,0.4,0.1,0.6,0.2
			c0.3,0.3,0.3,0.8,0,1.1l-6.3,6.3C242.7,109.7,242.5,109.8,242.3,109.8L242.3,109.8z"/>
		<path class="st0" d="M228.4,95.7l-2.6,2.6h-4.4v-2.6H228.4 M230.3,94.9h-9.7v4.2h5.5L230.3,94.9L230.3,94.9z"/>
		<path class="st0" d="M243.8,159.9v6.8H237l2.8-2.8l0.2,0l0.2-0.3L243.8,159.9 M244.6,158l-5.1,5.1l0,0l-4.4,4.4h9.5V158L244.6,158
			z"/>
		<path class="st0" d="M281.4,109.7c0.8,1.9,1.4,4,1.7,6.3l-7.3,7.3H264c-0.9,0-1.6,0.7-1.6,1.6c0,0.9,0.7,1.6,1.6,1.6h12.5
			c0.4,0,0.8-0.2,1.1-0.5l5.9-5.9c0,0.3,0,0.5,0,0.7c0,0.4,0,0.8,0,1.1l-8,7.9l0,0l-0.1,0.1l-5.8,5.8H264c-0.4,0-0.8,0.2-1.1,0.5
			l-11.5,11.5h-6.8h-0.8v0.8v6.8l-8.9,8.9h-0.3l-0.1,0.4l-2,2h-11.2v-2.6h5.1c0.4,0,0.8-0.2,1.1-0.5l6.3-6.3c0.6-0.6,0.6-1.6,0-2.2
			c-0.3-0.3-0.7-0.5-1.1-0.5s-0.8,0.2-1.1,0.5l-5.8,5.8h-4.4v-3.1h5.1c0.4,0,0.8-0.2,1.1-0.5l21.9-21.8c0.3-0.3,0.5-0.7,0.5-1.1
			c0-0.4-0.2-0.8-0.5-1.1c-0.3-0.3-0.7-0.5-1.1-0.5c-0.4,0-0.8,0.2-1.1,0.5l-21.4,21.4h-4.4v-3.1h5.1c0.4,0,0.8-0.2,1.1-0.5l6.3-6.3
			c0.3-0.3,0.5-0.7,0.5-1.1c0-0.4-0.2-0.8-0.5-1.1c-0.3-0.3-0.7-0.5-1.1-0.5s-0.8,0.2-1.1,0.5l-5.8,5.8h-4.4v-3.1h5.1
			c0.4,0,0.8-0.2,1.1-0.5l12.5-12.5l0,0l0,0l3.7-3.7v1.8v0.8h0.8h8.8c0.8,0,1.6-0.1,2.3-0.2l-5.3,5.3c-0.3,0.3-0.5,0.7-0.5,1.1
			c0,0.4,0.2,0.8,0.5,1.1c0.3,0.3,0.7,0.5,1.1,0.5c0.4,0,0.8-0.2,1.1-0.5l5.8-5.8l8.2,0l0.2,0l3.5,0c0.9,0,1.6-0.7,1.6-1.6
			c0-0.9-0.7-1.6-1.6-1.6h-3.7l-7.7,0c0.4-0.3,0.8-0.6,1.1-1c1.4-1.5,2.1-3.5,2.3-6l2.3-2.3h11.9c0.9,0,1.6-0.7,1.6-1.6
			c0-0.9-0.7-1.6-1.6-1.6H264c-0.4,0-0.8,0.2-1.1,0.5l-0.9,0.9c-0.1-0.5-0.3-0.9-0.5-1.3l3.1-3.1h11.9c0.4,0,0.8-0.2,1.1-0.5
			L281.4,109.7 M251.4,145.3c0.4,0,0.8-0.2,1.1-0.5l9.4-9.3c0.3-0.3,0.5-0.7,0.5-1.1c0-0.4-0.2-0.8-0.5-1.1
			c-0.3-0.3-0.7-0.5-1.1-0.5c-0.4,0-0.8,0.2-1.1,0.5l-9.4,9.3c-0.3,0.3-0.5,0.7-0.5,1.1c0,0.4,0.2,0.8,0.5,1.1
			C250.6,145.1,251,145.3,251.4,145.3 M238.9,151.6c0.4,0,0.8-0.2,1.1-0.5l9.4-9.3c0.3-0.3,0.5-0.7,0.5-1.1c0-0.4-0.2-0.8-0.5-1.1
			c-0.3-0.3-0.7-0.5-1.1-0.5c-0.4,0-0.8,0.2-1.1,0.5l-9.4,9.3c-0.3,0.3-0.5,0.7-0.5,1.1c0,0.4,0.2,0.8,0.5,1.1
			C238.1,151.4,238.5,151.6,238.9,151.6 M281.6,108.4L277,113c-0.1,0.1-0.3,0.2-0.6,0.2h-12.2l-3.8,3.8c0.5,0.9,0.8,1.9,0.9,3.1l2-2
			c0.1-0.1,0.3-0.2,0.6-0.2h12.5c0.4,0,0.8,0.3,0.8,0.8c0,0.4-0.4,0.8-0.8,0.8h-12.2l-2.8,2.8c-0.1,2.5-0.8,4.4-2.1,5.9
			c-1.4,1.6-3.4,2.3-6.1,2.3h-8.8v-3.7l-5.1,5.1c0,0,0,0,0,0L227,144.3c-0.1,0.1-0.3,0.2-0.6,0.2h-5.9v4.7h5.5l6-6
			c0.2-0.2,0.4-0.2,0.6-0.2c0.2,0,0.4,0.1,0.6,0.2c0.3,0.3,0.3,0.8,0,1.1l-6.3,6.3c-0.1,0.1-0.3,0.2-0.6,0.2h-5.9v4.7h5.5l21.7-21.6
			c0.2-0.2,0.4-0.2,0.6-0.2c0.2,0,0.4,0.1,0.6,0.2c0.3,0.3,0.3,0.8,0,1.1L227,156.8c-0.1,0.1-0.3,0.2-0.6,0.2h-5.9v4.7h5.5l6-6
			c0.2-0.2,0.4-0.2,0.6-0.2c0.2,0,0.4,0.1,0.6,0.2c0.3,0.3,0.3,0.8,0,1.1L227,163c-0.1,0.1-0.3,0.2-0.6,0.2h-5.9v4.2h12.3l2.3-2.3
			l0,0l9.4-9.4v-7.1h7.1l11.7-11.7c0.1-0.1,0.3-0.2,0.6-0.2h5.9l6-6c0,0,0,0,0,0l8.3-8.2c0-0.5,0-1,0-1.5c0-0.9,0-1.7-0.1-2.6
			l-7.2,7.2c-0.1,0.1-0.3,0.2-0.6,0.2H264c-0.4,0-0.8-0.3-0.8-0.8c0-0.4,0.4-0.8,0.8-0.8h12.2l7.8-7.8
			C283.6,113.4,282.8,110.7,281.6,108.4L281.6,108.4z M251.4,138.2c-0.2,0-0.4-0.1-0.6-0.2c-0.3-0.3-0.3-0.8,0-1.1l6.3-6.3
			c0.2-0.2,0.4-0.2,0.5-0.2c0,0,0,0,0.1,0l8.8,0h0h3.7c0.4,0,0.8,0.3,0.8,0.8c0,0.4-0.3,0.8-0.8,0.8l-3.7,0l0,0l-8.5,0l-6,6
			C251.8,138.2,251.6,138.2,251.4,138.2L251.4,138.2z M251.4,144.5c-0.2,0-0.4-0.1-0.6-0.2c-0.3-0.3-0.3-0.8,0-1.1l9.4-9.3
			c0.2-0.2,0.4-0.2,0.6-0.2c0.2,0,0.4,0.1,0.6,0.2c0.3,0.3,0.3,0.8,0,1.1l-9.4,9.3C251.8,144.4,251.6,144.5,251.4,144.5L251.4,144.5
			z M238.9,150.8c-0.2,0-0.4-0.1-0.6-0.2c-0.3-0.3-0.3-0.8,0-1.1l9.4-9.3c0.2-0.2,0.4-0.2,0.5-0.2c0.2,0,0.4,0.1,0.6,0.2
			c0.3,0.3,0.3,0.8,0,1.1l-9.4,9.3C239.3,150.7,239.1,150.8,238.9,150.8L238.9,150.8z"/>
		<path class="st0" d="M234.6,95.7l-8.9,8.9h-4.4v-3.1h5.1c0.4,0,0.8-0.2,1.1-0.5l5.3-5.3H234.6 M236.6,94.9h-4.1l-5.5,5.5
			c-0.1,0.1-0.3,0.2-0.6,0.2h-5.9v4.7h5.5L236.6,94.9L236.6,94.9z"/>
		<path class="st0" d="M283,127c-0.9,5.7-3.3,10.3-7,13.8c-0.5,0.5-1,0.9-1.6,1.4H264c-0.4,0-0.8,0.2-1.1,0.5l-5.2,5.2
			c-0.6,0-1.2,0.1-1.9,0.1l8.8-8.8h5.6c0.4,0,0.8-0.2,1.1-0.5l6.2-6.2l0,0l0,0L283,127 M284.1,124.8l-7.1,7c0,0,0,0,0,0l-6.2,6.2
			c-0.1,0.1-0.3,0.2-0.6,0.2h-5.9l-10.4,10.4h0.7c1.2,0,2.3,0,3.4-0.1l5.4-5.4c0.1-0.1,0.3-0.2,0.6-0.2h10.7c0.7-0.5,1.3-1,1.9-1.6
			C280.9,137.2,283.4,131.7,284.1,124.8L284.1,124.8z"/>
		<path class="st0" d="M268.9,145.3c-1.9,0.8-3.9,1.4-6.2,1.8l1.8-1.8H268.9 M272.3,144.5h-8l-3.8,3.8
			C265,147.7,269,146.5,272.3,144.5L272.3,144.5z"/>
	</g>
	<g>
		<path class="st0" d="M66.4,107.4l-5.9,12.5c-1.4-0.8-2.8-1.5-4.3-2.2l2.6-2.6L66.4,107.4 M69.1,103.6l-10.8,10.8l-3.4,3.4
			c2.1,1,4.1,2,6,3.1L69.1,103.6L69.1,103.6z"/>
		<path class="st0" d="M61.8,99.5c1.9,0.8,3.7,1.7,5.4,2.6l-10.6,10.6l-3.5,3.5c-1.8-0.8-3.5-1.4-5.1-2c-1.9-0.7-3.8-1.3-5.5-1.7
			l3.4-3.4h5.6c0.4,0,0.8-0.2,1.1-0.5L61.8,99.5 M61.6,98.6l-9.6,9.5c-0.1,0.1-0.3,0.2-0.6,0.2h-5.9l-4.6,4.6c2,0.4,4.3,1.1,6.8,2
			c1.9,0.7,3.8,1.4,5.6,2.2l3.9-3.9L68.5,102C66.3,100.7,64,99.6,61.6,98.6L61.6,98.6z"/>
		<path class="st0" d="M37,94.8l-4.6,4.6l-0.1,0.1l0,0l-7,7c-0.6,0.6-0.6,1.6,0,2.2c0.3,0.3,0.7,0.5,1.1,0.5c0.4,0,0.8-0.2,1.1-0.5
			l7.2-7.2l4-4l2.7-2.7c4.1,0.2,8.3,0.9,12.3,2l-2.9,2.9H38.9c-0.4,0-0.8,0.2-1.1,0.5l-6.3,6.3c-0.6,0.6-0.6,1.6,0,2.2
			c0.3,0.3,0.7,0.5,1.1,0.5c0.4,0,0.8-0.2,1.1-0.5l5.8-5.8h11.9c0.4,0,0.8-0.2,1.1-0.5l4.6-4.6c0.4,0.1,0.9,0.3,1.3,0.5l-7.7,7.7
			h-5.6c-0.1,0-0.3,0-0.4,0.1c-0.1,0-0.1,0-0.2,0.1c-0.2,0.1-0.4,0.2-0.5,0.3l-5.3,5.3c-1.1-0.1-2-0.2-2.9-0.2c-4.3,0-5.2,2.2-5.2,4
			c0,1.2,0.4,2.2,1.2,3.1l-2.5,2.5l-1.3,1.3l-2.7,2.7l-2.2,2.2l-4,4c-0.6,0.6-0.6,1.6,0,2.2c0.3,0.3,0.7,0.5,1.1,0.5
			c0.4,0,0.8-0.2,1.1-0.5l4-4l2.2-2.2l2.7-2.7l1.3-1.3l3-3c0.4,0.2,0.8,0.3,1.3,0.5l-10.6,10.6c-0.3,0.3-0.5,0.7-0.5,1.1
			c0,0.4,0.2,0.8,0.5,1.1c0.3,0.3,0.7,0.5,1.1,0.5c0.4,0,0.8-0.2,1.1-0.5L39.2,122c1.2,0.4,2.5,0.7,3.9,1.1c0.8,0.2,1.6,0.4,2.3,0.7
			l-3.7,3.7c-0.6,0.6-0.6,1.6,0,2.2c0.3,0.3,0.7,0.5,1.1,0.5c0.4,0,0.8-0.2,1.1-0.5l4.9-4.9c2.2,0.7,4.2,1.4,6,2.1l-4.4,4.4l0,0
			l-0.1,0.1l-5.8,5.8h-5.6c-0.4,0-0.8,0.2-1.1,0.5l-2.6,2.6c-0.4-0.1-0.9-0.2-1.4-0.4l3.1-3.1c0.3-0.3,0.5-0.7,0.5-1.1
			c0-0.4-0.2-0.8-0.5-1.1c-0.3-0.3-0.7-0.5-1.1-0.5c-0.4,0-0.8,0.2-1.1,0.5l-4.4,4.4c-0.5-0.1-1-0.3-1.4-0.4l4.5-4.5l8.2,0l0.2,0
			l3.5,0c0.9,0,1.6-0.7,1.6-1.6c0-0.9-0.7-1.6-1.6-1.6h-3.7l-8.8,0c0,0-0.1,0-0.1,0c-0.4,0-0.8,0.2-1.1,0.5l-6.1,6.1
			c-2.1-0.7-4-1.4-5.6-2c-1.5-0.6-2.9-1.4-4.3-2.4l12-12c0.3-0.3,0.5-0.7,0.5-1.1c0-0.4-0.2-0.8-0.5-1.1c-0.3-0.3-0.7-0.5-1.1-0.5
			c-0.4,0-0.8,0.2-1.1,0.5l-12.2,12.2c-0.3-0.3-0.6-0.6-0.9-0.9l9.1-9.1c0.6-0.6,0.6-1.6,0-2.2c-0.3-0.3-0.7-0.5-1.1-0.5
			c-0.4,0-0.8,0.2-1.1,0.5l-8.8,8.8c-1.1-1.7-1.8-3.7-2.2-5.9l7-7c0.6-0.6,0.6-1.6,0-2.2c-0.3-0.3-0.7-0.5-1.1-0.5
			c-0.4,0-0.8,0.2-1.1,0.5l-5.1,5.1c0-2.1,0.3-4,0.7-5.9c0.1,0.3,0.2,0.5,0.4,0.7c0.3,0.3,0.7,0.5,1.1,0.5c0.4,0,0.8-0.2,1.1-0.5
			l6.3-6.3c0.3-0.3,0.5-0.7,0.5-1.1c0-0.4-0.2-0.8-0.5-1.1c-0.3-0.3-0.7-0.5-1.1-0.5c-0.4,0-0.8,0.2-1.1,0.5L9,110.3
			c0.6-1.6,1.4-3.2,2.4-4.6c2.4-3.4,5.8-6,10.1-7.9l-2.2,2.2c-0.3,0.3-0.5,0.7-0.5,1.1c0,0.4,0.2,0.8,0.5,1.1
			c0.3,0.3,0.7,0.5,1.1,0.5c0.4,0,0.8-0.2,1.1-0.5l6.5-6.5c0.7-0.1,1.4-0.3,2.1-0.4l-4.9,4.9c-0.3,0.3-0.5,0.7-0.5,1.1
			c0,0.4,0.2,0.8,0.5,1.1c0.3,0.3,0.7,0.5,1.1,0.5c0.4,0,0.8-0.2,1.1-0.5l7.6-7.6C35.8,94.8,36.5,94.8,37,94.8 M14.7,121
			c0.4,0,0.8-0.2,1.1-0.5l9.3-9.4c0.3-0.3,0.5-0.7,0.5-1.1c0-0.4-0.2-0.8-0.5-1.1c-0.3-0.3-0.7-0.5-1.1-0.5c-0.4,0-0.8,0.2-1.1,0.5
			l-9.3,9.4c-0.6,0.6-0.6,1.6,0,2.2C13.9,120.8,14.3,121,14.7,121 M23.4,118.5c0.4,0,0.8-0.2,1.1-0.5l6.3-6.3
			c0.3-0.3,0.5-0.7,0.5-1.1c0-0.4-0.2-0.8-0.5-1.1c-0.3-0.3-0.7-0.5-1.1-0.5c-0.4,0-0.8,0.2-1.1,0.5l-6.3,6.3
			c-0.6,0.6-0.6,1.6,0,2.2C22.6,118.3,23,118.5,23.4,118.5 M38,93.9c-1.1,0-2.1,0-3.2,0.1l-7.8,7.8c-0.2,0.2-0.4,0.2-0.6,0.2
			c-0.2,0-0.4-0.1-0.6-0.2c-0.3-0.3-0.3-0.8,0-1.1l6.5-6.5c-1.6,0.2-3.2,0.4-4.7,0.7l-6.7,6.6c-0.2,0.2-0.4,0.2-0.6,0.2
			c-0.2,0-0.4-0.1-0.6-0.2c-0.3-0.3-0.3-0.8,0-1.1l4.8-4.7c-1,0.3-2.1,0.7-3,1.1c-4.7,1.9-8.3,4.7-10.9,8.3
			c-2.6,3.6-3.8,7.8-3.8,12.7c0,0.6,0,1.2,0.1,1.8l6.4-6.4c0.2-0.2,0.4-0.2,0.6-0.2c0.2,0,0.4,0.1,0.6,0.2c0.3,0.3,0.3,0.8,0,1.1
			l-7.2,7.2c0.4,2.9,1.4,5.4,2.9,7.4l9.5-9.5c0.2-0.2,0.4-0.2,0.6-0.2c0.2,0,0.4,0.1,0.6,0.2c0.3,0.3,0.3,0.8,0,1.1l-9.6,9.6
			c0.6,0.7,1.3,1.4,2,2l0.2-0.2c0,0,0,0,0,0l12.5-12.5c0.2-0.2,0.4-0.2,0.6-0.2c0.2,0,0.4,0.1,0.6,0.2c0.3,0.3,0.3,0.8,0,1.1
			l-12.5,12.5c0,0,0,0,0,0l-0.1,0.1c1.6,1.2,3.3,2.3,5.2,3c1.8,0.8,3.9,1.5,6.2,2.2c0-0.1,0.1-0.2,0.2-0.2l6.3-6.3
			c0.2-0.2,0.4-0.2,0.5-0.2c0,0,0,0,0.1,0l8.8,0h0h3.7c0.4,0,0.8,0.3,0.8,0.8c0,0.4-0.3,0.8-0.8,0.8l-3.7,0l0,0l-8.5,0l-5.6,5.6
			c1,0.3,2.1,0.6,3.2,0.9l4.8-4.7c0.2-0.2,0.4-0.2,0.6-0.2c0.2,0,0.4,0.1,0.6,0.2c0.3,0.3,0.3,0.8,0,1.1l-4.1,4.1
			c1.1,0.3,2.2,0.6,3.2,0.8l2.9-2.9c0.1-0.1,0.3-0.2,0.6-0.2h5.9l6-6c0,0,0,0,0,0l5.3-5.3c0,0,0,0,0,0c-2.2-0.9-4.7-1.8-7.6-2.8
			l-5.3,5.3c-0.2,0.2-0.4,0.2-0.6,0.2c-0.2,0-0.4-0.1-0.6-0.2c-0.3-0.3-0.3-0.8,0-1.1l4.7-4.7c-1.2-0.4-2.4-0.7-3.6-1.1
			c-1.6-0.4-3.1-0.9-4.4-1.3l-12,12c-0.2,0.2-0.4,0.2-0.6,0.2c-0.2,0-0.4-0.1-0.6-0.2c-0.3-0.3-0.3-0.8,0-1.1l11.5-11.5
			c-1.2-0.4-2.1-0.8-2.9-1.1l-3.4,3.4l-1.3,1.3l-2.7,2.7l-2.2,2.2l-4,4c-0.2,0.2-0.4,0.2-0.6,0.2c-0.2,0-0.4-0.1-0.6-0.2
			c-0.3-0.3-0.3-0.8,0-1.1l4-4l2.2-2.2l2.7-2.7l1.3-1.3l3.1-3.1c-1-0.8-1.6-1.8-1.6-3.1c0-2.1,1.5-3.2,4.4-3.2c1,0,2,0.1,3.1,0.3
			l5.6-5.6c0.1-0.1,0.2-0.1,0.3-0.2c0,0,0.1,0,0.1,0c0.1,0,0.1,0,0.2,0h5.9L60,98c-1-0.4-2-0.7-3-1l-4.9,4.9
			c-0.1,0.1-0.3,0.2-0.6,0.2H39.3l-6,6c-0.2,0.2-0.4,0.2-0.6,0.2c-0.2,0-0.4-0.1-0.6-0.2c-0.3-0.3-0.3-0.8,0-1.1l6.3-6.3
			c0.1-0.1,0.3-0.2,0.6-0.2h12.2l4.1-4.1c-0.1,0-0.2-0.1-0.3-0.1c-4.6-1.3-9.2-2.1-13.8-2.3L38.2,97l-4,4l-7.2,7.2
			c-0.2,0.2-0.4,0.2-0.6,0.2c-0.2,0-0.4-0.1-0.6-0.2c-0.3-0.3-0.3-0.8,0-1.1l7.2-7.2c0,0,0,0,0,0l5.9-5.9C38.6,94,38.3,93.9,38,93.9
			L38,93.9z M10,112.3c-0.2,0-0.4-0.1-0.6-0.2c-0.3-0.3-0.3-0.8,0-1.1l6.3-6.3c0.2-0.2,0.4-0.2,0.6-0.2c0.2,0,0.4,0.1,0.6,0.2
			c0.3,0.3,0.3,0.8,0,1.1l-6.3,6.3C10.4,112.2,10.2,112.3,10,112.3L10,112.3z M14.7,120.2c-0.2,0-0.4-0.1-0.6-0.2
			c-0.3-0.3-0.3-0.8,0-1.1l9.3-9.4c0.2-0.2,0.4-0.2,0.6-0.2c0.2,0,0.4,0.1,0.6,0.2c0.3,0.3,0.3,0.8,0,1.1l-9.3,9.4
			C15.1,120.1,14.9,120.2,14.7,120.2L14.7,120.2z M23.4,117.7c-0.2,0-0.4-0.1-0.6-0.2c-0.3-0.3-0.3-0.8,0-1.1l6.3-6.3
			c0.2-0.2,0.4-0.2,0.6-0.2c0.2,0,0.4,0.1,0.6,0.2c0.3,0.3,0.3,0.8,0,1.1l-6.3,6.3C23.8,117.6,23.6,117.7,23.4,117.7L23.4,117.7z"/>
		<path class="st0" d="M57.9,128.4c0.4,0.2,0.7,0.4,1.1,0.6l-8.7,8.7c-0.3,0.3-0.5,0.7-0.5,1.1c0,0.4,0.2,0.8,0.5,1.1
			c0.3,0.3,0.7,0.5,1.1,0.5c0.4,0,0.8-0.2,1.1-0.5l9-9c0.3,0.3,0.6,0.6,0.9,0.9l-11.7,11.7h-7.4c-0.4-0.3-0.9-0.6-1.5-0.9
			c-0.9-0.4-1.9-0.8-3.2-1.3l0.9-0.9h5.6c0.4,0,0.8-0.2,1.1-0.5l6.2-6.2l0,0l0.1-0.1L57.9,128.4 M57.8,127.5l-5.8,5.7c0,0,0,0,0,0
			l-6.2,6.2c-0.1,0.1-0.3,0.2-0.6,0.2h-5.9l-2.1,2.1c1.8,0.6,3.3,1.1,4.4,1.6c0.6,0.3,1.1,0.6,1.5,1h8l12.3-12.3c0,0,0,0,0,0
			l0.2-0.2c-0.7-0.7-1.4-1.3-2.1-1.9l-9.5,9.5c-0.2,0.2-0.4,0.2-0.6,0.2c-0.2,0-0.4-0.1-0.6-0.2c-0.3-0.3-0.3-0.8,0-1.1l9.3-9.3
			C59.4,128.4,58.6,127.9,57.8,127.5L57.8,127.5z"/>
		<path class="st0" d="M25,148.8c0.4,0.2,0.8,0.3,1.3,0.5l-3.8,3.8l-0.2,0.2l-6,6c-0.6,0.6-0.6,1.6,0,2.2c0.3,0.3,0.7,0.5,1.1,0.5
			c0.4,0,0.8-0.2,1.1-0.5l6-6l0.2-0.2l4.9-4.9c2.4,0.7,4.6,1.2,6.6,1.5l-8.4,8.4l-0.1,0l-0.1,0.1l-6,6c-0.5-0.1-0.9-0.3-1.3-0.4
			l4.9-5c0.3-0.3,0.5-0.7,0.5-1.1c0-0.4-0.2-0.8-0.5-1.1c-0.3-0.3-0.7-0.5-1.1-0.5c-0.4,0-0.8,0.2-1.1,0.5l-6,6.1
			c-2-0.7-3.9-1.5-5.7-2.4L25,148.8 M24.8,147.9L9.9,162.7c2.3,1.2,4.7,2.2,7.3,3.1l6.4-6.4c0.2-0.2,0.4-0.2,0.6-0.2
			c0.2,0,0.4,0.1,0.6,0.2c0.3,0.3,0.3,0.8,0,1.1l-5.8,5.9c0.1,0,0.2,0.1,0.3,0.1c0.9,0.3,1.9,0.6,2.8,0.8c0,0,0-0.1,0.1-0.1l6.3-6.3
			c0,0,0,0,0,0l9.8-9.8c-2.5-0.1-5.4-0.7-8.6-1.7l-5.2,5.2l-0.2,0.2l-6,6c-0.2,0.2-0.4,0.2-0.6,0.2c-0.2,0-0.4-0.1-0.6-0.2
			c-0.3-0.3-0.3-0.8,0-1.1l6-6l0.2-0.2l4.7-4.7C26.8,148.7,25.8,148.3,24.8,147.9C24.8,147.9,24.8,147.9,24.8,147.9L24.8,147.9z"/>
		<path class="st0" d="M64.6,134.2c1.2,1.5,2.1,3.3,2.7,5.3l-10.6,10.6l0,0l-0.1,0.1l-5.8,5.8h-5.6h-6.3c-0.4,0-0.8,0.2-1.1,0.5
			l-6.3,6.3l0,0l0,0l-4.9,4.9c-0.5-0.1-1-0.2-1.5-0.3l4.1-4.1l0.1,0l0.1-0.1l11.2-11.2c1.1-0.2,2-0.5,2.7-1c1.3-0.8,1.9-2.1,1.9-3.7
			c0-0.2,0-0.4,0-0.5h6.2c0.4,0,0.8-0.2,1.1-0.5L64.6,134.2 M64.7,133l-0.1,0.1c0,0,0,0,0,0L52,145.7c-0.1,0.1-0.3,0.2-0.6,0.2h-7.2
			c0.2,0.4,0.3,0.9,0.3,1.3c0,1.4-0.5,2.4-1.6,3.1c-0.7,0.5-1.6,0.7-2.7,0.9l-11.4,11.4c0,0,0,0,0,0l-5.2,5.2
			c1.1,0.3,2.2,0.5,3.3,0.7l5.2-5.2c0,0,0,0,0,0l6.3-6.3c0.1-0.1,0.3-0.2,0.6-0.2h6.3h5.9l6-6c0,0,0,0,0,0l11.1-11
			c-0.6-2.3-1.6-4.4-3.1-6.1C65,133.4,64.8,133.2,64.7,133L64.7,133z"/>
		<path class="st0" d="M16.6,144.7c0.4,0.2,0.8,0.5,1.1,0.7l-4.9,4.9c-0.3,0.3-0.5,0.7-0.5,1.1c0,0.4,0.2,0.8,0.5,1.1
			c0.3,0.3,0.7,0.5,1.1,0.5c0.4,0,0.8-0.2,1.1-0.5l5.6-5.6c0.4,0.2,0.8,0.4,1.2,0.6L8.3,161c-0.4-0.2-0.8-0.4-1.1-0.7l4.2-4.2
			c0.6-0.6,0.6-1.6,0-2.2c-0.3-0.3-0.7-0.5-1.1-0.5c-0.4,0-0.8,0.2-1.1,0.5l-4.7,4.7c-0.4-0.3-0.7-0.5-1-0.7L16.6,144.7 M16.5,143.7
			L2.2,157.9c0.8,0.6,1.5,1.1,2.4,1.7l5.1-5.1c0.2-0.2,0.4-0.2,0.6-0.2c0.2,0,0.4,0.1,0.6,0.2c0.3,0.3,0.3,0.8,0,1.1l-4.9,4.9
			c0.8,0.5,1.7,1,2.6,1.5l14.8-14.8c-0.9-0.4-1.8-0.8-2.7-1.3l-6,6c-0.2,0.2-0.4,0.2-0.5,0.2c-0.2,0-0.4-0.1-0.6-0.2
			c-0.3-0.3-0.3-0.8,0-1.1l5.7-5.6C18.2,144.7,17.3,144.2,16.5,143.7L16.5,143.7z"/>
		<path class="st0" d="M11.4,141c0.8,0.6,1.6,1.3,2.5,1.9l-6.8,6.8L11.4,141 M11.1,139.8l-6.8,13.9l10.9-10.9
			C13.7,141.9,12.3,140.9,11.1,139.8L11.1,139.8z"/>
		<path class="st0" d="M68.1,143.3c0.1,0.6,0.1,1.1,0.1,1.7l-5.3,5.3c-0.3,0.3-0.5,0.7-0.5,1.1c0,0.4,0.2,0.8,0.5,1.1
			c0.3,0.3,0.7,0.5,1.1,0.5c0.4,0,0.8-0.2,1.1-0.5l2.9-2.9c-0.5,3.5-1.7,6.5-3.7,9.1c-2.6,3.4-6.2,6-10.7,7.7
			c-4.5,1.7-9.6,2.5-15.1,2.5c-0.7,0-1.5,0-2.3-0.1l3.4-3.4h11.9c0.4,0,0.8-0.2,1.1-0.5l6.3-6.3c0.3-0.3,0.5-0.7,0.5-1.1
			s-0.2-0.8-0.5-1.1c-0.3-0.3-0.7-0.5-1.1-0.5s-0.8,0.2-1.1,0.5l-5.8,5.8H38.9c-0.4,0-0.8,0.2-1.1,0.5l-5.7,5.7
			c-0.6-0.1-1.1-0.1-1.6-0.2l9.1-9.1h5.5l0,0h0.1h6.3c0.4,0,0.8-0.2,1.1-0.5L68.1,143.3 M68.6,141.6L52,158.2
			c-0.1,0.1-0.3,0.2-0.6,0.2h-6.3c0,0,0,0,0,0h-5.9l-10.5,10.5c1.2,0.2,2.4,0.3,3.6,0.5l6-6c0.1-0.1,0.3-0.2,0.6-0.2h12.2l6-6
			c0.2-0.2,0.4-0.2,0.6-0.2c0.2,0,0.4,0.1,0.6,0.2c0.3,0.3,0.3,0.8,0,1.1l-6.3,6.3c-0.1,0.1-0.3,0.2-0.6,0.2H39.3l-4.9,4.9
			c1.4,0.1,2.7,0.2,4.1,0.2c5.7,0,10.8-0.9,15.4-2.6c4.6-1.7,8.3-4.4,11-7.9c2.5-3.2,3.8-7.1,4-11.7l-4.4,4.4
			c-0.2,0.2-0.4,0.2-0.6,0.2c-0.2,0-0.4-0.1-0.6-0.2c-0.3-0.3-0.3-0.8,0-1.1l5.6-5.5C69,144,68.9,142.8,68.6,141.6L68.6,141.6z"/>
	</g>
	<g>
		<path class="st0" d="M140.4,95.7l-11.1,11.1h-5.6c-0.9,0-1.6,0.7-1.6,1.6s0.7,1.6,1.6,1.6h6.3c0.4,0,0.8-0.2,1.1-0.5L141.6,99v8
			l-6,6h-10.6v0h-0.8h-6.7c-0.4,0-0.8,0.2-1.1,0.5l-6.3,6.3c-0.6,0.6-0.6,1.6,0,2.2c0.3,0.3,0.7,0.5,1.1,0.5c0.4,0,0.8-0.2,1.1-0.5
			l5.8-5.8h2.8v3.1h-3.4c-0.4,0-0.8,0.2-1.1,0.5l-12.5,12.5c-0.3,0.3-0.5,0.7-0.5,1.1c0,0.4,0.2,0.8,0.5,1.1
			c0.3,0.3,0.7,0.5,1.1,0.5c0.4,0,0.8-0.2,1.1-0.5l12.1-12.1h2.8v3.1h-3.4c-0.9,0-1.6,0.7-1.6,1.6s0.7,1.6,1.6,1.6h3.4v3.1H120
			l-8.8,0c0,0-0.1,0-0.1,0c-0.4,0-0.8,0.2-1.1,0.5l-6.3,6.3c-0.3,0.3-0.5,0.7-0.5,1.1c0,0.4,0.2,0.8,0.5,1.1
			c0.3,0.3,0.7,0.5,1.1,0.5c0.4,0,0.8-0.2,1.1-0.5l5.8-5.8l8.2,0l0.2,0l0,0h0.6v3.1h-3.4c-0.4,0-0.8,0.2-1.1,0.5l-12.5,12.5
			c-0.3,0.3-0.5,0.7-0.5,1.1c0,0.4,0.2,0.8,0.5,1.1c0.3,0.3,0.7,0.5,1.1,0.5c0.4,0,0.8-0.2,1.1-0.5l12.1-12.1h2.8v3.1h-3.4
			c-0.4,0-0.8,0.2-1.1,0.5l-12.5,12.5c-0.3,0.3-0.5,0.7-0.5,1.1s0.2,0.8,0.5,1.1c0.3,0.3,0.7,0.5,1.1,0.5s0.8-0.2,1.1-0.5l12.1-12.1
			h2.8v3.1h-3.4c-0.4,0-0.8,0.2-1.1,0.5l-6.3,6.3c-0.6,0.6-0.6,1.6,0,2.2c0.3,0.3,0.7,0.5,1.1,0.5c0.4,0,0.8-0.2,1.1-0.5l5.8-5.8
			h2.8v9.4h-3.4c-0.4,0-0.8,0.2-1.1,0.5l-3.1,3.1h-1.8l7.1-7.1c0.3-0.3,0.5-0.7,0.5-1.1s-0.2-0.8-0.5-1.1c-0.3-0.3-0.7-0.5-1.1-0.5
			c-0.4,0-0.8,0.2-1.1,0.5l-9.3,9.3h-1.8l4.1-4.1c0.3-0.3,0.5-0.7,0.5-1.1c0-0.4-0.2-0.8-0.5-1.1c-0.3-0.3-0.7-0.5-1.1-0.5
			c-0.4,0-0.8,0.2-1.1,0.5l-6.3,6.3c0,0,0,0,0,0.1H99l4.7-4.8c0.3-0.3,0.5-0.7,0.5-1.1c0-0.4-0.2-0.8-0.5-1.1
			c-0.3-0.3-0.7-0.5-1.1-0.5c-0.4,0-0.8,0.2-1.1,0.5l-3,3v-8.1l7.5-7.5l0,0l0,0l9.4-9.3c0.3-0.3,0.5-0.7,0.5-1.1
			c0-0.4-0.2-0.8-0.5-1.1c-0.3-0.3-0.7-0.5-1.1-0.5c-0.4,0-0.8,0.2-1.1,0.5l-9.3,9.2l-0.1,0l-0.1,0.1l-5.3,5.3v-1.7l4.5-4.4
			c0.3-0.3,0.5-0.7,0.5-1.1c0-0.4-0.2-0.8-0.5-1.1c-0.3-0.3-0.7-0.5-1.1-0.5c-0.4,0-0.8,0.2-1.1,0.5l-2.3,2.2v-1.8l4.4-4.4
			c0.3-0.3,0.5-0.7,0.5-1.1c0-0.4-0.2-0.8-0.5-1.1c-0.3-0.3-0.7-0.5-1.1-0.5c-0.4,0-0.8,0.2-1.1,0.5l-2.2,2.2v-8.1l7.5-7.5l0,0
			l0.1-0.1l12.5-12.5c0.3-0.3,0.5-0.7,0.5-1.1c0-0.4-0.2-0.8-0.5-1.1c-0.3-0.3-0.7-0.5-1.1-0.5c-0.4,0-0.8,0.2-1.1,0.5l-12.4,12.4
			l0,0l-0.1,0.1l-5.3,5.3v-11.3v-0.8h-0.8h-1.4l0.5-0.5l0,0l0.2-0.2l6.3-6.3c0.3-0.3,0.5-0.7,0.5-1.1c0-0.4-0.2-0.8-0.5-1.1
			c-0.3-0.3-0.7-0.5-1.1-0.5c-0.4,0-0.8,0.2-1.1,0.5l-3.7,3.7l0,0l-0.2,0.2l-5.3,5.3h-1.8l16-16l0,0l0,0l1.3-1.3h1.8l-5.3,5.3
			c-0.3,0.3-0.5,0.7-0.5,1.1c0,0.4,0.2,0.8,0.5,1.1c0.3,0.3,0.7,0.5,1.1,0.5s0.8-0.2,1.1-0.5l7.5-7.5h1.8l-4.6,4.6l-0.1,0.1h0
			l-6.8,6.8c-0.6,0.6-0.6,1.6,0,2.2c0.3,0.3,0.7,0.5,1.1,0.5s0.8-0.2,1.1-0.5l6.9-6.9l4.3-4.3l2.6-2.6h14.3l-4.8,4.8h-11.9
			c-0.4,0-0.8,0.2-1.1,0.5l-6.3,6.3c-0.6,0.6-0.6,1.6,0,2.2c0.3,0.3,0.7,0.5,1.1,0.5c0.4,0,0.8-0.2,1.1-0.5l5.8-5.8h11.9
			c0.4,0,0.8-0.2,1.1-0.5l0.9-0.9l0,0l0.1-0.1l6.5-6.5H140.4 M101.9,119.3c0.4,0,0.8-0.2,1.1-0.5l6.3-6.3c0.3-0.3,0.5-0.7,0.5-1.1
			c0-0.4-0.2-0.8-0.5-1.1c-0.3-0.3-0.7-0.5-1.1-0.5c-0.4,0-0.8,0.2-1.1,0.5l-6.3,6.3c-0.3,0.3-0.5,0.7-0.5,1.1
			c0,0.4,0.2,0.8,0.5,1.1C101.1,119.1,101.5,119.3,101.9,119.3 M142.3,94.9h-4l-6.7,6.7c0,0,0,0-0.1,0l-1,1
			c-0.1,0.1-0.3,0.2-0.6,0.2h-12.2l-6,6c-0.2,0.2-0.4,0.2-0.6,0.2c-0.2,0-0.4-0.1-0.6-0.2c-0.3-0.3-0.3-0.8,0-1.1l6.3-6.3
			c0.1-0.1,0.3-0.2,0.6-0.2h12.2l6-6c0,0,0,0,0.1,0l0.4-0.4h-16.6l-2.8,2.8l-4.3,4.3l-6.9,6.9c-0.2,0.2-0.4,0.2-0.6,0.2
			c-0.2,0-0.4-0.1-0.6-0.2c-0.3-0.3-0.3-0.8,0-1.1l6.9-6.9c0,0,0,0,0,0l6-6h-4l-7.8,7.8c-0.2,0.2-0.4,0.2-0.6,0.2
			c-0.2,0-0.4-0.1-0.6-0.2c-0.3-0.3-0.3-0.8,0-1.1l6.6-6.6h-4l-1.5,1.5c0,0,0,0,0,0L88,113.9h4l5.5-5.5c0,0,0,0,0,0l3.9-3.9
			c0.2-0.2,0.4-0.2,0.6-0.2c0.2,0,0.4,0.1,0.6,0.2c0.3,0.3,0.3,0.8,0,1.1l-6.3,6.3l0,0l-2.1,2.1h3.4v13.2l6.7-6.7c0,0,0,0,0,0
			l12.5-12.5c0.2-0.2,0.4-0.2,0.6-0.2c0.2,0,0.4,0.1,0.6,0.2c0.3,0.3,0.3,0.8,0,1.1l-12.5,12.5c0,0,0,0,0,0l-7.8,7.8v10.3l3.6-3.6
			c0.2-0.2,0.4-0.2,0.6-0.2c0.2,0,0.4,0.1,0.6,0.2c0.3,0.3,0.3,0.8,0,1.1l-4.7,4.7v4.1l3.6-3.6c0.2-0.2,0.4-0.2,0.5-0.2
			c0.2,0,0.4,0.1,0.6,0.2c0.3,0.3,0.3,0.8,0,1.1l-4.7,4.7v4l6.7-6.7c0,0,0,0,0,0l9.4-9.3c0.2-0.2,0.4-0.2,0.6-0.2
			c0.2,0,0.4,0.1,0.6,0.2c0.3,0.3,0.3,0.8,0,1.1l-9.4,9.3c0,0,0,0,0,0l-7.8,7.8v10.3l4.3-4.4c0.2-0.2,0.4-0.2,0.6-0.2
			c0.2,0,0.4,0.1,0.6,0.2c0.3,0.3,0.3,0.8,0,1.1l-5.5,5.5v0.6h3.5c0-0.1,0.1-0.2,0.2-0.3l6.3-6.3c0.2-0.2,0.4-0.2,0.6-0.2
			c0.2,0,0.4,0.1,0.6,0.2c0.3,0.3,0.3,0.8,0,1.1l-5.4,5.4h4l9.6-9.6c0.2-0.2,0.4-0.2,0.6-0.2c0.2,0,0.4,0.1,0.6,0.2
			c0.3,0.3,0.3,0.8,0,1.1l-8.5,8.5h4l3.3-3.3c0.1-0.1,0.3-0.2,0.6-0.2h4.2V153h-3.9l-6,6c-0.2,0.2-0.4,0.2-0.6,0.2
			c-0.2,0-0.4-0.1-0.6-0.2c-0.3-0.3-0.3-0.8,0-1.1l6.3-6.3c0.1-0.1,0.3-0.2,0.6-0.2h4.2v-4.7h-3.9L105.5,159
			c-0.2,0.2-0.4,0.2-0.6,0.2c-0.2,0-0.4-0.1-0.6-0.2c-0.3-0.3-0.3-0.8,0-1.1l12.5-12.5c0.1-0.1,0.3-0.2,0.6-0.2h4.2v-4.7h-3.9
			l-12.3,12.3c-0.2,0.2-0.4,0.2-0.6,0.2c-0.2,0-0.4-0.1-0.6-0.2c-0.3-0.3-0.3-0.8,0-1.1l12.5-12.5c0.1-0.1,0.3-0.2,0.6-0.2h4.2v-4.7
			H120l0,0l-8.5,0l-6,6c-0.2,0.2-0.4,0.2-0.6,0.2c-0.2,0-0.4-0.1-0.6-0.2c-0.3-0.3-0.3-0.8,0-1.1l6.3-6.3c0.2-0.2,0.3-0.2,0.5-0.2
			c0,0,0,0,0.1,0l8.8,0h0h1.6V128h-4.2c-0.4,0-0.8-0.3-0.8-0.8s0.4-0.8,0.8-0.8h4.2v-4.7h-3.9L105.5,134c-0.2,0.2-0.4,0.2-0.6,0.2
			c-0.2,0-0.4-0.1-0.6-0.2c-0.3-0.3-0.3-0.8,0-1.1l12.5-12.5c0.1-0.1,0.3-0.2,0.6-0.2h4.2v-4.7h-3.9l-6,6c-0.2,0.2-0.4,0.2-0.6,0.2
			c-0.2,0-0.4-0.1-0.6-0.2c-0.3-0.3-0.3-0.8,0-1.1l6.3-6.3c0.1-0.1,0.3-0.2,0.6-0.2h6.7v0h11.7l6.5-6.5V97.1L130.5,109
			c-0.1,0.1-0.3,0.2-0.6,0.2h-6.3c-0.4,0-0.8-0.4-0.8-0.8c0-0.4,0.3-0.8,0.8-0.8h5.9L142.3,94.9L142.3,94.9z M101.9,118.5
			c-0.2,0-0.4-0.1-0.6-0.2c-0.3-0.3-0.3-0.8,0-1.1l6.3-6.3c0.2-0.2,0.4-0.2,0.6-0.2c0.2,0,0.4,0.1,0.6,0.2c0.3,0.3,0.3,0.8,0,1.1
			l-6.3,6.3C102.3,118.4,102.1,118.5,101.9,118.5L101.9,118.5z"/>
		<path class="st0" d="M90.3,95.7l-11.1,11.1h-1.4v-3.1h2c0.2,0,0.4,0,0.6-0.1c0.1-0.1,0.2-0.1,0.3-0.2c0.1,0,0.2-0.1,0.2-0.2
			l7.6-7.5H90.3 M92.3,94.9h-4l-7.8,7.8c0,0-0.1,0.1-0.1,0.1c0,0-0.1,0.1-0.1,0.1c-0.1,0-0.2,0.1-0.3,0.1h0h0h-2.8v4.7h2.5
			L92.3,94.9L92.3,94.9z"/>
		<path class="st0" d="M102.8,95.7l-17.3,17.3h-1.8l3.6-3.6c0.3-0.3,0.5-0.7,0.5-1.1c0-0.4-0.2-0.8-0.5-1.1
			c-0.3-0.3-0.7-0.5-1.1-0.5s-0.8,0.2-1.1,0.5l-5.8,5.8h-1.4V110h2c0.4,0,0.8-0.2,1.1-0.5l13.8-13.8h1.8l-5.3,5.3
			c-0.3,0.3-0.5,0.7-0.5,1.1c0,0.4,0.2,0.8,0.5,1.1c0.3,0.3,0.7,0.5,1.1,0.5c0.4,0,0.8-0.2,1.1-0.5l7.6-7.5H102.8 M104.8,94.9h-4
			l-7.8,7.8c-0.2,0.2-0.4,0.2-0.5,0.2c-0.2,0-0.4-0.1-0.6-0.2c-0.3-0.3-0.3-0.8,0-1.1l6.7-6.6h-4.1l-14,14c-0.1,0.1-0.3,0.2-0.6,0.2
			h-2.8v4.7h2.5l6-6c0.2-0.2,0.4-0.2,0.6-0.2s0.4,0.1,0.6,0.2c0.3,0.3,0.3,0.8,0,1.1l-4.9,4.9h4l18.5-18.5c0,0,0,0,0,0L104.8,94.9
			L104.8,94.9z"/>
		<path class="st0" d="M84.1,95.7l-4.8,4.8h-1.4v-4.8H84.1 M86,94.9h-9v6.4h2.5l6-6c0.1-0.1,0.1-0.1,0.2-0.1L86,94.9L86,94.9z"/>
		<path class="st0" d="M141.6,111.5v1.5H140L141.6,111.5 M142.3,109.6l-4.3,4.3h4.3V109.6L142.3,109.6z"/>
		<path class="st0" d="M120.9,166.3v0.4h-3.2l0.4-0.4H120.9 M121.7,165.5h-3.9l-2,2h5.9V165.5L121.7,165.5z"/>
	</g>
</g>
<g>
	<path d="M356.6,2.8l-35.4,35.4h-4l8-8c1.4-1.4,1.4-3.7,0-5c-0.7-0.7-1.6-1-2.5-1s-1.8,0.4-2.5,1l-9.1,9.1v-4.1c0,0,0,0,0,0
		l27.4-27.4h4.1l-8.3,8.2c-0.7,0.7-1.1,1.6-1.1,2.5c0,1,0.4,1.8,1,2.5c0.7,0.7,1.6,1.1,2.5,1.1c0.9,0,1.8-0.4,2.5-1l13.4-13.3H356.6
		 M361,1h-9l-13.9,13.8c-0.3,0.3-0.8,0.5-1.2,0.5c-0.5,0-0.9-0.2-1.3-0.5c-0.7-0.7-0.7-1.8,0-2.5L347,1h-9.2l-28,27.9
		c-0.2,0.2-0.4,0.3-0.6,0.4v9.3l12.2-12.2c0.3-0.3,0.8-0.5,1.2-0.5c0.5,0,0.9,0.2,1.2,0.5c0.7,0.7,0.7,1.8,0,2.5L312.8,40h9.1L361,1
		L361,1z"/>
	<path d="M427.3,2.8l-7.2,7.2h-26.8c-0.9,0-1.9,0.4-2.5,1l-14.1,14.1c-1.4,1.4-1.4,3.6,0,5c0.7,0.7,1.6,1,2.5,1c1,0,1.8-0.4,2.5-1
		l13.1-13.1h26.8c1,0,1.9-0.4,2.5-1l3.2-3.2v4.1l-7.2,7.2h-12.7c-2,0-3.6,1.6-3.6,3.6c0,2,1.6,3.6,3.6,3.6h14.1c0.9,0,1.9-0.4,2.5-1
		l3.2-3.2v3.8l-8.5,7.4h-25.5c-0.9,0-1.9,0.4-2.5,1l-14.1,14.1c-1.4,1.4-1.4,3.6,0,5c0.7,0.7,1.6,1,2.5,1c1,0,1.8-0.4,2.5-1
		l13.1-13.1h15.9l-21.4,18.8l-2.7,2.4l3.5,0.7l7.7,1.6c9,1.9,16.8,5.6,23,11l-1.6,1.6l0,0l-0.2,0.2L406,94.7h-12.7
		c-0.9,0-1.9,0.4-2.5,1l-7.8,7.8c-0.8-1.1-1.7-2.1-2.8-2.9c-2.2-1.8-5.2-3-8.8-3.6l9.2-9.2l18.5,0l0.4,0l7.8,0c2,0,3.6-1.6,3.6-3.6
		c0-2-1.6-3.6-3.6-3.6h-8.3l-19.8,0c-0.1,0-0.1,0-0.2,0c-1,0-1.8,0.4-2.5,1l-14.1,14.1c-0.2,0.2-0.4,0.4-0.5,0.6H358l1.6-1.6l1-1
		l0.2-0.2l0,0l21-21c0.7-0.7,1-1.6,1-2.5c0-1-0.4-1.8-1-2.5c-0.7-0.7-1.6-1-2.5-1c-1,0-1.8,0.4-2.5,1l-23.1,23.1l-5.7,5.7h-12.3v-6
		l3.6-3.6l0,0l0.1-0.1l28.1-28.1l0,0l0.1-0.1l28.3-28.3c1.4-1.4,1.4-3.7,0-5c-0.7-0.7-1.6-1-2.5-1c-1,0-1.8,0.4-2.5,1l-28.1,28.1
		l0,0l-0.2,0.2l-27,27v-9.4l31.2-29.6l3.3-3.1h-4.5h-34.3l35.4-35.4h4.1l-8.2,8.2c-0.7,0.7-1,1.6-1,2.5c0,1,0.4,1.8,1,2.5
		c0.7,0.7,1.6,1,2.5,1c0.9,0,1.8-0.4,2.5-1l13.3-13.3h4.1l-22.3,22.3c-1.4,1.4-1.4,3.7,0,5c0.7,0.7,1.6,1,2.5,1c0.9,0,1.8-0.4,2.5-1
		L394.8,3h26.8c0.4,0,0.7-0.1,1.1-0.2H427.3 M344.5,37.7c0.9,0,1.8-0.4,2.5-1l14.1-14.1c0.7-0.7,1-1.6,1-2.5c0-1-0.4-1.8-1-2.5
		c-0.7-0.7-1.6-1-2.5-1c-1,0-1.8,0.4-2.5,1L342,31.6c-0.7,0.7-1,1.6-1,2.5c0,1,0.4,1.8,1,2.5S343.6,37.7,344.5,37.7 M351,87.7
		c0.9,0,1.8-0.4,2.5-1l14.1-14.1c0.7-0.7,1-1.6,1-2.5c0-1-0.4-1.8-1-2.5c-0.7-0.7-1.6-1-2.5-1c-1,0-1.8,0.4-2.5,1l-14.1,14.1
		c-0.7,0.7-1,1.6-1,2.5c0,1,0.4,1.8,1,2.5C349.1,87.4,350,87.7,351,87.7 M429.1,1h-6.8c-0.2,0.1-0.5,0.2-0.7,0.2h-27.5l-27.7,27.7
		c-0.3,0.3-0.8,0.5-1.2,0.5c-0.5,0-0.9-0.2-1.2-0.5c-0.7-0.7-0.7-1.8,0-2.5L389.2,1h-9.1l-13.8,13.8c-0.3,0.3-0.8,0.5-1.2,0.5
		c-0.5,0-0.9-0.2-1.2-0.5c-0.7-0.7-0.7-1.8,0-2.5L375.1,1H366l-39,39h38.6l-31.8,30.1v14.5l1.8-1.8c0,0,0,0,0,0l28.2-28.2
		c0,0,0,0,0,0l28.2-28.2c0.3-0.3,0.8-0.5,1.2-0.5c0.5,0,0.9,0.2,1.2,0.5c0.7,0.7,0.7,1.8,0,2.5l-28.3,28.3c0,0,0,0,0,0l-28.2,28.2
		c0,0,0,0,0,0l-4.3,4.3v8.5h14.8l6.2-6.2L378,68.8c0.3-0.3,0.8-0.5,1.3-0.5c0.5,0,0.9,0.2,1.2,0.5c0.7,0.7,0.7,1.8,0,2.5l-21.3,21.3
		c0,0,0,0,0,0l-1,1l-4.6,4.6h9.7c0-0.4,0.2-0.8,0.5-1.1L378,82.9c0.3-0.3,0.8-0.5,1.2-0.5c0,0,0.1,0,0.1,0l19.9,0h0h8.3
		c1,0,1.8,0.8,1.8,1.8c0,1-0.8,1.8-1.8,1.8l-8.3,0l0,0l-19.3,0l-12.4,12.4c5,0.4,8.8,1.6,11.6,3.7c1.6,1.2,2.7,2.7,3.6,4.4l9.4-9.4
		c0.3-0.3,0.8-0.5,1.2-0.5h13.4l13.6-13.6c0,0,0,0,0,0l3.1-3.1c-6.7-6.3-15.1-10.6-25.2-12.7l-7.7-1.6l25-21.9h-21.4l-13.6,13.6
		c-0.3,0.3-0.8,0.5-1.2,0.5c-0.5,0-0.9-0.2-1.2-0.5c-0.7-0.7-0.7-1.8,0-2.5l14.1-14.1c0.3-0.3,0.8-0.5,1.2-0.5h26.2l9.6-8.4v-8.9
		l-6.3,6.3c-0.3,0.3-0.8,0.5-1.2,0.5h-14.1c-1,0-1.8-0.8-1.8-1.8c0-1,0.8-1.8,1.8-1.8h13.4l8.2-8.2V8.5l-6.3,6.3
		c-0.3,0.3-0.8,0.5-1.2,0.5h-27.5l-13.6,13.6c-0.3,0.3-0.8,0.5-1.2,0.5c-0.5,0-0.9-0.2-1.2-0.5c-0.7-0.7-0.7-1.8,0-2.5l14.1-14.1
		c0.3-0.3,0.8-0.5,1.2-0.5h27.5l8.2-8.2V1L429.1,1z M344.5,35.9c-0.5,0-0.9-0.2-1.2-0.5c-0.7-0.7-0.7-1.8,0-2.5l14.1-14.1
		c0.3-0.3,0.8-0.5,1.3-0.5c0.5,0,0.9,0.2,1.2,0.5c0.7,0.7,0.7,1.8,0,2.5l-14.1,14.1C345.4,35.7,345,35.9,344.5,35.9L344.5,35.9z
		 M351,85.9c-0.5,0-0.9-0.2-1.2-0.5c-0.7-0.7-0.7-1.8,0-2.5l14.1-14.1c0.3-0.3,0.8-0.5,1.3-0.5c0.5,0,0.9,0.2,1.2,0.5
		c0.7,0.7,0.7,1.8,0,2.5l-14.1,14.1C351.9,85.8,351.4,85.9,351,85.9L351,85.9z"/>
	<path d="M425.8,85c2.9,3.4,5.1,7.3,6.6,11.5l-12.4,12.4h-4.4h-11.3h-8.7c-2,0-3.6,1.6-3.6,3.6c0,0.9,0.4,1.8,1,2.5
		c0.7,0.7,1.6,1,2.5,1h8.7h11.3h5.9c0.9,0,1.9-0.4,2.5-1l10.5-10.5c0.2,1.2,0.4,2.5,0.5,3.8l-1,1c-0.3,0.2-0.6,0.4-0.8,0.6
		L420.1,123h-26.8c-0.9,0-1.9,0.4-2.5,1l-14.1,14.1c-1.4,1.4-1.4,3.6,0,5c0.7,0.7,1.6,1,2.5,1c1,0,1.8-0.4,2.5-1l13.1-13.1h26.8
		c1,0,1.9-0.4,2.5-1l1-1c0.3-0.2,0.6-0.4,0.8-0.6l9-9c-0.7,6.8-2.7,13-5.9,18.7h-1.6h-6.6h-13.3c-2,0-3.6,1.6-3.6,3.6
		c0,1,0.4,1.8,1,2.5c0.7,0.7,1.6,1,2.5,1h13.3h3.2c-2.2,2.5-4.6,4.9-7.3,7h-23.4c-0.9,0-1.9,0.4-2.5,1l-12.9,12.9
		c-1.4,0.1-2.8,0.2-4.3,0.3l22.3-22.3c1.4-1.4,1.4-3.7,0-5c-0.7-0.7-1.6-1-2.5-1c-1,0-1.8,0.4-2.5,1l-27.3,27.3
		c-1.5-0.1-3-0.2-4.5-0.3c0.6-0.2,1.2-0.5,1.7-1l14.1-14.1c0.7-0.7,1-1.6,1-2.5c0-1-0.4-1.8-1-2.5c-0.7-0.7-1.6-1-2.5-1
		c-1,0-1.8,0.4-2.5,1l-14.1,14.1c-1.4,1.4-1.4,3.7,0,5c0.3,0.3,0.7,0.6,1.1,0.7c-3.1-0.3-6.3-0.8-9.4-1.4l14.9-15
		c0.7-0.7,1-1.6,1-2.5c0-1-0.4-1.8-1.1-2.5c-0.7-0.7-1.6-1-2.5-1c-1,0-1.9,0.4-2.5,1.1l-18.1,18.2c-1.1-0.3-2.2-0.6-3.3-0.9l3.5-3.5
		c1.4-1.4,1.4-3.7,0-5c-0.7-0.7-1.6-1-2.5-1s-1.8,0.4-2.5,1l-6.1,6.1c-1-0.4-2-0.7-3-1.1l29-29c3.4,0.6,6.8,0.9,10.2,0.9
		c17.7,0,21.4-8.9,21.4-16.3c0-0.6,0-1.3-0.1-1.9l9.1-9.1h12.7c0.9,0,1.8-0.4,2.5-1l14-14l0,0l0.1-0.1L425.8,85 M344.5,150.7
		c0.9,0,1.8-0.4,2.5-1l14.1-14.1c0.7-0.7,1-1.6,1-2.5c0-1-0.4-1.8-1-2.5c-0.7-0.7-1.6-1-2.5-1c-1,0-1.8,0.4-2.5,1L342,144.6
		c-1.4,1.4-1.4,3.7,0,5C342.7,150.3,343.6,150.7,344.5,150.7 M333.4,120.9c0.9,0.5,1.8,0.9,2.7,1.4l-1.7,1.7
		c-0.7,0.7-1.1,1.6-1.1,2.5c0,1,0.4,1.8,1,2.5c0.7,0.7,1.6,1.1,2.5,1.1c0.9,0,1.8-0.4,2.5-1l3.8-3.8c1,0.4,2,0.7,3,1l-25.9,25.9
		c-0.7,0.7-1,1.5-1,2.4c-1.3-0.6-2.5-1.2-3.7-1.8l9.7-9.7c1.4-1.4,1.4-3.7,0-5c-0.7-0.7-1.6-1-2.5-1s-1.8,0.4-2.5,1L309,149.4
		c-2.3-1.4-4.4-2.8-6.3-4.2l0.5-0.9h5.4c0.9,0,1.9-0.4,2.5-1L333.4,120.9 M425.9,82.4l-3.1,3.1c0,0,0,0,0,0l-14.1,14.1
		c-0.3,0.3-0.8,0.5-1.2,0.5h-13.4l-10.3,10.3c0.1,0.8,0.2,1.7,0.2,2.6c0,9.7-6.5,14.5-19.6,14.5c-3.6,0-7.2-0.3-10.8-1l-29.7,29.7
		c-0.3,0.3-0.8,0.5-1.2,0.5c-0.5,0-0.9-0.2-1.2-0.5c-0.7-0.7-0.7-1.8,0-2.5l28.1-28.1c-2.3-0.6-4.6-1.3-6.9-2.2l-4.6,4.6
		c-0.3,0.3-0.8,0.5-1.2,0.5c-0.5,0-0.9-0.2-1.3-0.5c-0.7-0.7-0.7-1.8,0-2.5l3.6-3.5c-2-0.9-4-1.9-6-3.1l-23.3,23.2
		c-0.3,0.3-0.8,0.5-1.2,0.5H302l-1.7,3.2c2.7,2.1,5.7,4.1,8.9,6l12.2-12.2c0.3-0.3,0.8-0.5,1.2-0.5c0.5,0,0.9,0.2,1.2,0.5
		c0.7,0.7,0.7,1.8,0,2.5l-11.5,11.5c4.9,2.7,10.3,5,16.2,7l6.9-6.9c0.3-0.3,0.8-0.5,1.2-0.5c0.5,0,0.9,0.2,1.2,0.5
		c0.7,0.7,0.7,1.8,0,2.5l-5.6,5.6c2.4,0.8,4.8,1.4,7.3,2l18.8-19c0.3-0.3,0.8-0.5,1.3-0.5c0.4,0,0.9,0.2,1.2,0.5
		c0.7,0.7,0.7,1.8,0,2.5l-17.2,17.4c6.8,1.4,13.6,2.3,20.5,2.6l27.8-27.8c0.3-0.3,0.8-0.5,1.2-0.5c0.5,0,0.9,0.2,1.2,0.5
		c0.7,0.7,0.7,1.8,0,2.5l-25.4,25.4c3.3,0,6.5-0.1,9.6-0.4l13.4-13.4c0.3-0.3,0.8-0.5,1.2-0.5h24c4-3.1,7.5-6.6,10.4-10.6h-0.3h-6.7
		h-13.3c-0.5,0-0.9-0.2-1.2-0.5c-0.3-0.3-0.5-0.8-0.5-1.3c0-1,0.8-1.8,1.8-1.8h13.3h6.6h2.6c4.5-7.5,6.8-15.8,7-25.1l-12.3,12.3
		c-0.2,0.2-0.4,0.3-0.6,0.4l-1.3,1.3c-0.3,0.3-0.8,0.5-1.2,0.5h-27.5l-13.6,13.6c-0.3,0.3-0.8,0.5-1.2,0.5c-0.5,0-0.9-0.2-1.2-0.5
		c-0.7-0.7-0.7-1.8,0-2.5l14.1-14.1c0.3-0.3,0.8-0.5,1.2-0.5h27.5l13.6-13.6c0.2-0.2,0.4-0.3,0.6-0.4l1.8-1.8
		c-0.2-2.8-0.6-5.5-1.2-8.1l-12.8,12.8c-0.3,0.3-0.8,0.5-1.2,0.5h-5.9h-11.3h-8.7c-0.5,0-0.9-0.2-1.2-0.5c-0.3-0.3-0.5-0.8-0.5-1.3
		c0-1,0.8-1.8,1.8-1.8h8.7h11.3h5.2L434.6,97c-1.8-5.2-4.5-9.9-8.1-14.1C426.3,82.7,426.1,82.6,425.9,82.4L425.9,82.4z M344.5,148.9
		c-0.5,0-0.9-0.2-1.2-0.5c-0.7-0.7-0.7-1.8,0-2.5l14.1-14.1c0.3-0.3,0.8-0.5,1.3-0.5c0.5,0,0.9,0.2,1.2,0.5c0.7,0.7,0.7,1.8,0,2.5
		l-14.1,14.1C345.4,148.7,345,148.9,344.5,148.9L344.5,148.9z M358.2,163.4c-0.5,0-0.9-0.2-1.2-0.5c-0.7-0.7-0.7-1.8,0-2.5
		l14.1-14.1c0.3-0.3,0.8-0.5,1.3-0.5c0.5,0,0.9,0.2,1.2,0.5c0.7,0.7,0.7,1.8,0,2.5l-14.1,14.1C359.1,163.3,358.7,163.4,358.2,163.4
		L358.2,163.4z"/>
	<path d="M314.3,2.8L311,6V2.8H314.3 M318.6,1h-9.3c0,0,0,0,0,0v9.3L318.6,1L318.6,1z"/>
	<path d="M405.1,158.4c-0.3,0.2-0.6,0.3-1,0.4c-4.4,2-9.2,3.5-14.3,4.6l5.1-5.1H405.1 M412.2,156.6h-18.2l-9.7,9.7
		c7.4-1.1,14.2-3,20.4-5.8C407.4,159.3,409.9,158,412.2,156.6L412.2,156.6z"/>
	<path d="M328.4,2.8L311,20.2v-4.1c0,0,0,0,0,0l13.3-13.3H328.4 M332.8,1h-9.2l-13.8,13.8c-0.2,0.2-0.4,0.3-0.6,0.4v9.3L332.8,1
		L332.8,1z"/>
	<path d="M320.1,112c2.3,1.9,4.7,3.6,7,5.2l-20,20h-0.2L320.1,112 M319.5,109.2l-15.6,29.7h3.9l22.1-22.1
		C326.5,114.6,323,112.1,319.5,109.2L319.5,109.2z"/>
</g>
</svg>
