<?xml version="1.0" encoding="utf-8"?>
<!-- Generator: Adobe Illustrator 22.0.1, SVG Export Plug-In . SVG Version: 6.00 Build 0)  -->
<svg version="1.1" id="Warstwa_1" xmlns="http://www.w3.org/2000/svg" xmlns:xlink="http://www.w3.org/1999/xlink" x="0px" y="0px"
	 viewBox="0 0 60 60" style="enable-background:new 0 0 60 60;" xml:space="preserve">
<style type="text/css">
	.st0{fill:#F15627;}
	.st0{fill:#444444;}
	.st0{fill: red;}
</style>
<g>
	<rect x="29.2" y="37.5" class="st0" width="1.5" height="1.5"/>
	<rect x="29.2" y="34.5" class="st0" width="1.5" height="1.5"/>
	<rect x="29.2" y="31.5" class="st0" width="1.5" height="1.5"/>
	<path class="st0" d="M46.4,30.1c0-3.1-2.5-5.6-5.6-5.6s-5.6,2.5-5.6,5.6c0,3.1,2.5,5.6,5.6,5.6S46.4,33.2,46.4,30.1z M36.4,30.1
		c0-2.4,2-4.4,4.4-4.4c2.4,0,4.4,2,4.4,4.4c0,2.4-2,4.4-4.4,4.4C38.4,34.6,36.4,32.6,36.4,30.1z"/>
	<path class="st0" d="M44,30.1c0-1.7-1.4-3.1-3.1-3.1c-1.7,0-3.1,1.4-3.1,3.1c0,1.7,1.4,3.1,3.1,3.1C42.6,33.3,44,31.9,44,30.1z
		 M38.9,30.1c0-1.1,0.9-2,2-2c1.1,0,2,0.9,2,2c0,1.1-0.9,2-2,2C39.8,32.1,38.9,31.2,38.9,30.1z"/>
	<path class="st0" d="M30,1.1c11.5,0,20.8,9.3,20.8,20.8h1.1C51.9,9.8,42.1,0,30,0C17.9,0,8.1,9.8,8.1,21.9h1.1
		C9.2,10.5,18.5,1.1,30,1.1z"/>
	<path class="st0" d="M40.1,41.9c0-0.3-0.3-0.6-0.6-0.6c-0.3,0-0.6,0.3-0.6,0.6c0,0.3,0.3,0.6,0.6,0.6
		C39.8,42.5,40.1,42.2,40.1,41.9z"/>
	<path class="st0" d="M42.6,51.2c0-0.3-0.3-0.6-0.6-0.6c-0.3,0-0.6,0.3-0.6,0.6c0,0.3,0.3,0.6,0.6,0.6
		C42.4,51.8,42.6,51.5,42.6,51.2z"/>
	<path class="st0" d="M29.4,55.9c0,0.3,0.3,0.6,0.6,0.6c0.3,0,0.6-0.3,0.6-0.6c0-0.3-0.3-0.6-0.6-0.6C29.7,55.3,29.4,55.5,29.4,55.9
		z"/>
	<path class="st0" d="M13.6,30.1c0,3.1,2.5,5.6,5.6,5.6c3.1,0,5.6-2.5,5.6-5.6c0-3.1-2.5-5.6-5.6-5.6C16.1,24.6,13.6,27.1,13.6,30.1
		z M19.1,25.7c2.4,0,4.4,2,4.4,4.4c0,2.4-2,4.4-4.4,4.4c-2.4,0-4.4-2-4.4-4.4C14.7,27.7,16.7,25.7,19.1,25.7z"/>
	<path class="st0" d="M19.1,33.3c1.7,0,3.1-1.4,3.1-3.1c0-1.7-1.4-3.1-3.1-3.1c-1.7,0-3.1,1.4-3.1,3.1C16,31.9,17.4,33.3,19.1,33.3z
		 M19.1,28.1c1.1,0,2,0.9,2,2c0,1.1-0.9,2-2,2c-1.1,0-2-0.9-2-2C17.1,29,18,28.1,19.1,28.1z"/>
	<path class="st0" d="M49.1,21.9h0.7c0-10.9-8.8-19.7-19.7-19.7c-10.9,0-19.7,8.8-19.7,19.7h0.6h0.4h4.8c0-0.1,0-0.1,0-0.2v-0.8
		v-0.5v-0.4l-0.1-0.1c-0.8-0.6-1.4-1.4-1.6-2.4l0,0c0,0,0-0.1,0-0.1l0-0.1l-0.3,0l0.3-0.1c0,0,0-0.1,0-0.1c0,0,0-0.1,0-0.1l0-0.1
		c0-0.1,0-0.1,0-0.2c0-1.1,0.5-2.1,1.3-2.9l0.1-0.1l0-0.2c-0.1-0.3-0.1-0.6-0.1-0.9c0-2.1,1.6-3.8,3.7-3.8l0.2,0l0-0.2
		c0,0,0-0.1,0-0.1l0-0.1c0-0.1,0-0.1,0-0.2l0-0.1c0,0,0-0.1,0-0.1c0,0,0,0,0-0.1l0,0c0,0,0,0,0-0.1l0.1-0.3c0,0,0-0.1,0-0.1l0-0.1
		c0,0,0-0.1,0-0.1c0,0,0-0.1,0-0.1l0-0.1c0,0,0,0,0-0.1L20,6.9c0,0,0-0.1,0.1-0.1c0,0,0,0,0-0.1c0,0,0-0.1,0.1-0.1l0-0.1
		c0,0,0,0,0.1-0.1c0,0,0,0,0-0.1c0,0,0-0.1,0.1-0.1l0.1-0.1c0,0,0,0,0.1-0.1l0.1-0.1c0,0,0,0,0.1-0.1l0.1-0.1c0,0,0.1-0.1,0.1-0.1
		l0,0c0,0,0.1-0.1,0.1-0.1l0.1-0.1c0,0,0,0,0.1,0l0.1,0c0,0,0,0,0.1,0l0.1-0.1c0,0,0,0,0,0l0.1,0c0,0,0.1,0,0.1,0L22,5.3
		c0,0,0.1,0,0.1,0l0.1,0c0,0,0.1,0,0.1,0l0.1,0c0,0,0.1,0,0.1,0c0,0,0,0,0.1,0c0,0,0.1,0,0.1,0l0.3,0c0,0,0.1,0,0.1,0l0.1,0
		c0.7,0,1.4,0.1,2,0.5l0.1,0.1l0.1,0c1.4-0.5,2.9-0.7,4.4-0.7c1.5,0,3,0.2,4.4,0.7l0.1,0l0.1-0.1c0.6-0.3,1.2-0.5,1.8-0.5
		c0.1,0,0.1,0,0.2,0l0.1,0c0,0,0.1,0,0.1,0l0.1,0c0,0,0.1,0,0.1,0l0.1,0c0,0,0.1,0,0.1,0l0.3,0.1c0,0,0.1,0,0.1,0l0.1,0
		c0,0,0.1,0,0.1,0c0,0,0.1,0,0.1,0l0.2,0.1c0,0,0.1,0,0.1,0c0,0,0,0,0.1,0c0,0,0,0,0.1,0l0.2,0.1c0,0,0,0,0.1,0c0,0,0.1,0,0.1,0.1
		l0.1,0c0,0,0.1,0,0.1,0.1l0.1,0c0,0,0.1,0.1,0.1,0.1l0,0c0,0,0.1,0.1,0.1,0.1c0,0,0,0,0,0c0,0,0.1,0.1,0.1,0.1L39,6.3
		c0,0,0,0,0.1,0.1l0.1,0.1c0,0,0,0,0.1,0.1c0,0,0,0,0.1,0.1l0,0c0,0,0,0,0,0.1l0,0.1c0,0,0,0.1,0.1,0.1c0,0,0,0,0,0.1c0,0,0,0,0,0.1
		l0.2,0.3c0,0,0,0,0,0.1l0.1,0.2c0,0,0,0.1,0,0.1c0,0,0,0.1,0,0.1c0,0,0,0.1,0,0.1l0,0.1c0,0,0,0.1,0,0.1l0,0.1c0,0,0,0.1,0,0.1
		l0,0.1c0,0.1,0,0.1,0,0.2l0,0.1c0,0,0,0.1,0,0.1l0,0.2l0.2,0c2.1,0.1,3.7,1.8,3.7,3.8c0,0.3,0,0.6-0.1,0.9l0,0.2l0.1,0.1
		c0.8,0.7,1.3,1.8,1.3,2.9c0,0.1,0,0.1,0,0.2c0,0,0,0,0,0.1l0,0c0,0,0,0.1,0,0.1c0,0,0,0.1,0,0.1l0,0.1c0,0,0,0.1,0,0.1l0,0
		c-0.2,1-0.8,1.8-1.6,2.4l-0.1,0.1v0.9h0v0.8c0,0.1,0,0.1,0,0.2h5.3H49.1z"/>
	<path class="st0" d="M16.8,14.5c-0.8,0.4-1.2,1.3-1.2,2.2c0,0.1,0,0.2,0,0.2l0,0.1c0,0.1,0,0.1,0,0.2c0.1,0.7,0.6,1.3,1.3,1.7l0,0
		c0.4,0.2,0.8,0.3,1.2,0.3c0.6,0,1.2-0.2,1.7-0.6c0.3-0.2,0.7-0.2,0.9,0c0.2,0.3,0.2,0.7-0.1,0.9c-0.7,0.6-1.6,1-2.6,1
		c-0.1,0-0.3,0-0.4,0l-0.3,0v0.4v0.8c0,0.1,0,0.1,0,0.2h11.8c0-0.1,0-0.1,0-0.2v-0.8v-0.5v-0.8c0-0.4,0.3-0.7,0.7-0.7
		c0.4,0,0.7,0.3,0.7,0.7v0.8v0.5v0.8c0,0.1,0,0.1,0,0.2h11.8c0-0.1,0-0.1,0-0.2v-1.3l-0.3,0c-0.1,0-0.3,0-0.4,0
		c-0.9,0-1.9-0.3-2.6-1c-0.3-0.2-0.3-0.7-0.1-0.9c0.2-0.3,0.7-0.3,0.9-0.1c0.5,0.4,1.1,0.6,1.7,0.6c0.4,0,0.8-0.1,1.2-0.3l0,0
		c0.6-0.4,1.1-1,1.2-1.7c0-0.1,0-0.1,0-0.2c0,0,0,0,0-0.1c0-0.1,0-0.2,0-0.2c0-0.9-0.5-1.7-1.2-2.2c-0.3-0.2-0.4-0.5-0.3-0.9
		c0.2-0.3,0.2-0.7,0.2-1c0-1.4-1.1-2.5-2.5-2.5c0,0,0,0-0.1,0l-0.2,0l-0.1,0.2c-0.4,0.9-1.1,1.7-2,2.1l-0.2,0.1l0,0.2
		c0,1.4,1.1,2.4,2.5,2.4c0.4,0,0.7,0.3,0.7,0.7c0,0.4-0.3,0.7-0.7,0.7c-2,0-3.6-1.5-3.8-3.4l0-0.2l-0.2,0c-0.8,0-1.6-0.3-2.2-0.8
		c-0.3-0.2-0.3-0.7-0.1-0.9c0.1-0.2,0.3-0.3,0.5-0.3c0.2,0,0.3,0,0.4,0.1c0.4,0.4,1,0.5,1.6,0.5c1.2,0,2.3-0.9,2.5-2.1l0,0
		c0,0,0-0.1,0-0.1c0-0.1,0-0.2,0-0.2c0-1.4-1.1-2.5-2.5-2.5c-0.5,0-1,0.2-1.5,0.5c-0.2,0.1-0.4,0.2-0.6,0.1
		c-1.4-0.5-2.9-0.8-4.4-0.8c-1.5,0-3,0.3-4.4,0.8c-0.2,0.1-0.4,0-0.6-0.1c-0.4-0.3-0.9-0.5-1.5-0.5c-1.4,0-2.5,1.1-2.5,2.5
		c0,0.1,0,0.2,0,0.2c0,0,0,0.1,0,0.1l0,0c0.2,1.2,1.2,2.1,2.5,2.1c0.6,0,1.1-0.2,1.6-0.5c0.1-0.1,0.3-0.1,0.4-0.1
		c0.2,0,0.4,0.1,0.5,0.3c0.2,0.3,0.2,0.7-0.1,0.9c-0.6,0.5-1.4,0.8-2.2,0.8l-0.2,0l0,0.2c-0.2,2-1.8,3.4-3.8,3.4
		c-0.4,0-0.7-0.3-0.7-0.7c0-0.4,0.3-0.7,0.7-0.7c1.4,0,2.5-1.1,2.5-2.4l0-0.2l-0.2-0.1c-0.9-0.4-1.6-1.2-2-2.1l-0.1-0.2l-0.2,0
		c0,0,0,0-0.1,0c-1.4,0-2.5,1.1-2.5,2.5c0,0.4,0.1,0.7,0.2,1C17.2,14,17.1,14.4,16.8,14.5z M33.5,15.6c1.3,0,2.3,1,2.3,2.3
		c0,0.4-0.3,0.7-0.7,0.7c-0.4,0-0.7-0.3-0.7-0.7c0-0.5-0.4-1-1-1c-0.4,0-0.7-0.3-0.7-0.7C32.9,15.9,33.2,15.6,33.5,15.6z M29.1,8.8
		c0-0.4,0.3-0.7,0.7-0.7c0.4,0,0.7,0.3,0.7,0.7v6.6c0,0.4-0.3,0.7-0.7,0.7c-0.4,0-0.7-0.3-0.7-0.7V8.8z M25.9,15.6
		c0.4,0,0.7,0.3,0.7,0.7c0,0.4-0.3,0.7-0.7,0.7c-0.5,0-1,0.4-1,1c0,0.4-0.3,0.7-0.7,0.7c-0.4,0-0.7-0.3-0.7-0.7
		C23.6,16.7,24.7,15.6,25.9,15.6z"/>
	<path class="st0" d="M50.8,38.1c0,4.1-1.2,7.9-3.2,11.1l-6-6c-0.2-0.2-0.6-0.2-0.8,0c-0.2,0.2-0.2,0.6,0,0.8l0.2,0.2l0,0l6,6
		c-3.8,5.3-10,8.8-16.9,8.8c-7,0-13.2-3.5-17-8.8l6-6c0.2-0.2,0.2-0.6,0-0.8c-0.2-0.2-0.6-0.2-0.8,0c0,0,0,0,0,0l0,0c0,0,0,0,0,0
		L12.3,49c-2-3.2-3.1-6.9-3.1-11H8.1C8.1,50.2,17.9,60,30,60c12.1,0,21.9-9.8,21.9-21.9H50.8z"/>
	<path class="st0" d="M39.8,46.9c-0.2,0-0.3,0.1-0.4,0.2c-2.7,1.8-5.9,2.9-9.5,2.9c-3.7,0-7.2-1.2-10-3.3c-0.1-0.1-0.2-0.2-0.4-0.2
		c-0.3,0-0.5,0.2-0.5,0.5c0,0.1,0,0.2,0.1,0.3l0,0c0,0,0,0,0,0c0.1,0.1,0.1,0.1,0.2,0.1c2.9,2.2,6.6,3.5,10.5,3.5
		c3.7,0,7.1-1.2,10-3.1c0.1,0,0.2-0.1,0.3-0.2c0,0,0,0,0,0l0,0c0-0.1,0.1-0.2,0.1-0.3C40.4,47.2,40.1,46.9,39.8,46.9z"/>
</g>
</svg>
