<?xml version="1.0" encoding="utf-8"?>
<!-- Generator: Adobe Illustrator 22.0.1, SVG Export Plug-In . SVG Version: 6.00 Build 0)  -->
<svg version="1.1" id="Warstwa_1" xmlns="http://www.w3.org/2000/svg" xmlns:xlink="http://www.w3.org/1999/xlink" x="0px" y="0px"
	 viewBox="0 0 60 60" style="enable-background:new 0 0 60 60;" xml:space="preserve">
<style type="text/css">
	.st0{fill:#F15627;}
		.st0{fill:#444444;}
</style>
<g>
	<path class="st0" d="M28.3,42.3L28.3,42.3l0-1.8h0c0-0.3-0.2-0.6-0.5-0.6c-0.3,0-0.5,0.3-0.5,0.6l0,1.8c0,0.3,0.2,0.6,0.5,0.6
		C28,42.9,28.3,42.6,28.3,42.3z"/>
	<path class="st0" d="M32.2,45.6c0.3,0,0.5-0.3,0.5-0.6h0l0-4.2h0c0-0.3-0.2-0.6-0.5-0.6c-0.3,0-0.5,0.3-0.5,0.6h0V45h0l0,0
		C31.7,45.3,31.9,45.6,32.2,45.6z"/>
	<path class="st0" d="M32.2,33.3c-0.3,0-0.5,0.3-0.5,0.6l0,1.8c0,0.3,0.2,0.6,0.5,0.6c0.3,0,0.5-0.3,0.5-0.6h0v-1.8h0
		C32.7,33.5,32.5,33.3,32.2,33.3z"/>
	<path class="st0" d="M25.5,23.4c0.3,0,0.5-0.2,0.5-0.5v-4.1h4.3c0.3,0,0.5-0.2,0.5-0.5c0-0.3-0.2-0.5-0.5-0.5h-4.3v-1
		c0-2.1,1.5-4.1,3.9-5.3c2.5,1.2,3.9,3.1,3.9,5.3v1h-1.5c-0.3,0-0.5,0.2-0.5,0.5c0,0.3,0.2,0.5,0.5,0.5h1.5V21
		c0,0.3,0.2,0.5,0.5,0.5c0.2,0,0.3-0.1,0.4-0.2c0.1-0.1,0.1-0.2,0.1-0.3v-4.2c0-2.5-1.7-4.9-4.6-6.2c-0.2-0.1-0.6-0.1-0.8,0
		c-2.9,1.3-4.6,3.7-4.6,6.2v6.1C25,23.2,25.2,23.4,25.5,23.4z"/>
	<path class="st0" d="M42.8,42V24.2c0-0.1,0-0.2-0.1-0.2l1.3,0.7l-1.8-4.3l-1.8,4.3l1.3-0.7c0,0.1-0.1,0.1-0.1,0.2v17
		c-1.8-1.3-3.9-2.2-6.1-2.9l0-6h0c0-0.3-0.2-0.6-0.5-0.6c-0.3,0-0.5,0.3-0.5,0.6h0v5.7c-1.5-0.3-3-0.5-4.6-0.5c-0.6,0-1.1,0-1.7,0.1
		v-5.3l0,0c0-0.3-0.2-0.6-0.5-0.6c-0.3,0-0.5,0.3-0.5,0.6l0,0v5.4c-0.6,0.1-1.2,0.2-1.8,0.3v-5.7h0c0-0.3-0.2-0.6-0.5-0.6
		c-0.3,0-0.5,0.3-0.5,0.6h0v6c-8.6,2.5-15,10.4-15,19.8h1.1c0-10.8,8.8-19.6,19.6-19.6c10.8,0,19.6,8.8,19.6,19.6h1.1
		C50.6,51.6,47.5,45.8,42.8,42z"/>
	<path class="st0" d="M41.9,52.5l-1.7-0.1l-0.4-1.7c-0.3-1.5-1.6-2.5-3.1-2.5c0,0,0,0-0.1,0l-0.1,0c-0.1,0-0.1,0-0.2,0
		c-0.9,0-1.8,0.5-2.4,1.3l-1.1,1.6l-1.7-0.8c-0.8-0.4-1.7-0.4-2.4-0.1L27,50.9l-1-1.5c-0.6-0.8-1.4-1.2-2.4-1.3c0,0,0,0-0.1,0
		l-0.2,0c-1.5,0-2.8,1.1-3.1,2.5l-0.4,1.7l-1.7,0.1c-1.2,0.1-2.1,1-2.1,2.2c0,1.2,1,2.2,2.2,2.2c0.3,0,0.6-0.1,0.9-0.2l1.4-0.6
		l1.1,1c0.8,0.8,2.2,0.8,3,0l1-1l1.3,0.5c0.4,0.2,0.9,0.2,1.4,0.1l0.4-0.1l2.6,0l0.2,0.1c0.5,0.1,0.9,0.1,1.4-0.1l1.3-0.5l1,1
		c0.8,0.8,2.2,0.8,3.1,0l1.1-1l1.4,0.6c0.3,0.1,0.6,0.2,0.9,0.2c1.2,0,2.2-1,2.2-2.2C44,53.5,43.1,52.6,41.9,52.5z"/>
	<path class="st0" d="M42,50.3c-0.5-2.4-2.8-4.3-5.3-4.3c0,0-0.1,0-0.1,0c0,0-0.1,0-0.1,0c-1.8,0-3.4,0.9-4.3,2.3
		c-0.7-0.3-1.4-0.5-2.2-0.5c-0.7,0-1.4,0.1-2,0.4c-0.9-1.3-2.5-2.2-4.3-2.2c0,0-0.1,0-0.1,0c0,0-0.1,0-0.1,0c-2.6,0-4.8,1.9-5.3,4.3
		c-2.4,0.1-4.3,2.1-4.3,4.5c0,2.5,2,4.5,4.5,4.5c0.7,0,1.3-0.1,1.9-0.4c0.8,0.8,1.9,1.2,3.1,1.2c1.1,0,2.2-0.4,3.1-1.2
		c0.5,0.2,1,0.3,1.6,0.3c0.4,0,0.8-0.1,1.2-0.2h2c0.4,0.1,0.8,0.2,1.2,0.2c0.5,0,1.1-0.1,1.6-0.3c0.8,0.8,1.9,1.2,3.1,1.2
		c1.1,0,2.2-0.4,3.1-1.2c0.6,0.3,1.2,0.4,1.9,0.4c2.5,0,4.5-2,4.5-4.5C46.2,52.3,44.3,50.4,42,50.3z M41.8,58.1
		c-0.5,0-1-0.1-1.4-0.3l-0.6-0.3L39.2,58c-0.6,0.6-1.5,0.9-2.3,0.9c-0.9,0-1.7-0.3-2.4-0.9L34,57.5l-0.6,0.2
		c-0.7,0.3-1.4,0.3-2.1,0.1l-0.1,0h-2.3l-0.1,0c-0.7,0.2-1.5,0.2-2.1-0.1L26,57.5L25.5,58c-0.6,0.6-1.5,0.9-2.3,0.9
		c-0.9,0-1.7-0.3-2.3-0.9l-0.5-0.5l-0.6,0.3c-0.5,0.2-0.9,0.3-1.4,0.3c-1.9,0-3.4-1.5-3.4-3.4c0-1.8,1.4-3.3,3.3-3.4l0.8,0l0.2-0.8
		c0.4-2,2.2-3.5,4.3-3.5l0.1,0l0.1,0c1.4,0,2.6,0.7,3.4,1.8l0.5,0.7l0.8-0.3c1.1-0.5,2.3-0.4,3.4,0.1l0.8,0.4l0.5-0.7
		c0.8-1.1,2.1-1.8,3.4-1.8l0.1,0l0.2,0c2.1,0,3.9,1.5,4.3,3.5l0.2,0.8l0.8,0c1.8,0.1,3.3,1.6,3.3,3.4C45.2,56.6,43.7,58.1,41.8,58.1
		z"/>
	<path class="st0" d="M49.7,33.1c-0.2,0.2-0.2,0.5,0,0.8c0.2,0.2,0.5,0.2,0.8,0c0.2-0.2,0.2-0.5,0-0.8
		C50.3,32.9,49.9,32.9,49.7,33.1z"/>
	<path class="st0" d="M35.8,6.2C35.8,6.2,35.8,6.2,35.8,6.2c8,2.5,13.8,9.9,13.8,18.7c0,0.2,0,0.3,0.1,0.4c0.2,0.2,0.5,0.2,0.8,0
		c0.1-0.1,0.2-0.2,0.2-0.4h0c0-9.3-6.2-17.2-14.8-19.8c0,0,0,0,0,0c-0.2,0-0.4,0-0.5,0.1c-0.2,0.2-0.2,0.5,0,0.8
		C35.5,6.2,35.6,6.2,35.8,6.2z"/>
	<path class="st0" d="M50.1,28.9c-0.3,0-0.5,0.3-0.5,0.6l0,1.8c0,0.3,0.2,0.6,0.5,0.6c0.3,0,0.5-0.3,0.5-0.6h0v-1.8h0
		C50.6,29.1,50.4,28.9,50.1,28.9z"/>
	<path class="st0" d="M30,8.6c1.9,0,3.5-1.6,3.5-3.5c0-1.9-1.6-3.5-3.5-3.5c-1.9,0-3.5,1.6-3.5,3.5C26.5,7,28,8.6,30,8.6z"/>
	<path class="st0" d="M33.5,1C33.8,1,34,0.8,34,0.5C34,0.2,33.8,0,33.5,0C33.2,0,33,0.2,33,0.5C33,0.8,33.2,1,33.5,1z"/>
	<path class="st0" d="M20.5,7.9C20.5,7.9,20.5,7.9,20.5,7.9c1.2-0.7,2.4-1.2,3.7-1.6c0.1,0,0.3-0.1,0.4-0.2c0.2-0.2,0.2-0.5,0-0.8
		c-0.1-0.1-0.3-0.2-0.5-0.1c0,0,0,0,0,0c-1.5,0.4-2.9,1-4.2,1.8c0,0,0,0,0,0c0,0,0,0-0.1,0c0,0,0,0,0,0c0,0-0.1,0-0.1,0.1
		c-0.2,0.2-0.2,0.5,0,0.8C19.9,8.1,20.2,8.1,20.5,7.9z"/>
	<path class="st0" d="M41.8,14.1c-0.7-1.4-2.6-1.9-5.5-1.7v0c0,0,0,0,0,0c-0.3,0-0.6,0.3-0.6,0.6c0,0.3,0.3,0.6,0.6,0.6c0,0,0,0,0,0
		v0c0.5,0,0.9-0.1,1.3-0.1c1,0,2.6,0.1,3.1,1.1c0.5,1-0.4,2.9-2.5,4.9c-1.3,1.3-2.9,2.5-4.7,3.8l-3.6-3l-5.4,4.4
		c-0.3,0.2-0.4,0.6-0.4,0.9v1.9c0,0.2,0.1,0.4,0.2,0.5c-2.2,0.9-4.4,1.5-6.2,1.9l0.6-1.3L14.6,31l4.5,1.2l-0.8-1
		c2.3-0.4,4.8-1.2,7.5-2.3v0.9c0,0.5,0.4,0.8,0.9,0.8H29c0.5,0,0.9-0.4,0.9-0.8v-1.3h0.4v1.3c0,0.5,0.4,0.8,0.9,0.8h2.3
		c0.5,0,0.9-0.4,0.9-0.8v-1.3h0.8c0.5,0,0.9-0.4,0.9-0.8v-1.9c0-0.3-0.2-0.7-0.4-0.9l-0.8-0.7c1.8-1.2,3.3-2.5,4.6-3.7
		C41.6,17.9,42.6,15.7,41.8,14.1z M25.2,27.5v-1.7c0-0.1,0-0.1,0.1-0.2l4.7-3.9l2.7,2.2c-1.3,0.8-2.6,1.6-4,2.3
		c-0.9,0.4-1.8,0.9-2.6,1.2H25.2z M28.8,29.6h-1.9l0-1.1h1.9V29.6z M33.1,29.6h-1.9v-1.1h1.9V29.6z M34.7,25.6c0,0,0.1,0.1,0.1,0.2
		v1.7h-5.9c0.1-0.1,0.2-0.1,0.4-0.2c1.6-0.8,3.1-1.7,4.4-2.5L34.7,25.6z"/>
	<path class="st0" d="M11.5,28.9c0.3,0,0.6-0.3,0.6-0.6h0l0.1-0.2c0.2-1,1.1-2.3,2.6-3.8c2.1-2.1,5.1-4.2,8.6-6.1v0
		c0.2-0.1,0.4-0.3,0.4-0.6c0-0.3-0.3-0.6-0.6-0.6c-0.1,0-0.2,0-0.3,0.1h0c-3.6,1.9-6.7,4.2-8.9,6.3c-1.7,1.7-2.6,3.2-2.9,4.5
		l-0.1,0.4C10.9,28.7,11.1,28.9,11.5,28.9z"/>
</g>
</svg>
