<?xml version="1.0" encoding="utf-8"?>
<!-- Generator: Adobe Illustrator 22.0.1, SVG Export Plug-In . SVG Version: 6.00 Build 0)  -->
<svg version="1.1" id="view1back" xmlns="http://www.w3.org/2000/svg" xmlns:xlink="http://www.w3.org/1999/xlink" x="0px" y="0px"
								 viewBox="0 0 1450.3 643.5" style="enable-background:new 0 0 1450.3 643.5;" xml:space="preserve">
	<style type="text/css">
		.st10{opacity:0.3;}
		.st1{fill:#FFFFFF;}
		.st2{fill:#BDBEC1;}
		.st3{fill:#F15728;}
		.st4{fill: blue;}
		.st100 {opacity: 1; z-index:100;}
		.red-color {fill: red;}
		#view1back .mob-circles {
		    display: none;
		}
		.upper-circles{
			opacity: 0.4;
		}
		#mob-planet1,
		#mob-planet2 {
			opacity: 1;
		}
	</style>
	<g>
		<g class="st10">
			<g>
				<rect x="322" y="321.1" class="st1" width="4" height="1"/>
			</g>
			<g>
				<path class="st1" d="M1088.7,322.1h-7.9v-1h7.9V322.1z M1072.8,322.1h-7.9v-1h7.9V322.1z M1056.9,322.1h-7.9v-1h7.9V322.1z
					 M1041,322.1h-7.9v-1h7.9V322.1z M1025.1,322.1h-7.9v-1h7.9V322.1z M1009.2,322.1h-7.9v-1h7.9V322.1z M993.3,322.1h-7.9v-1h7.9
					V322.1z M977.5,322.1h-7.9v-1h7.9V322.1z M961.6,322.1h-7.9v-1h7.9V322.1z M945.7,322.1h-7.9v-1h7.9V322.1z M929.8,322.1h-7.9v-1
					h7.9V322.1z M913.9,322.1H906v-1h7.9V322.1z M898,322.1h-7.9v-1h7.9V322.1z M882.1,322.1h-7.9v-1h7.9V322.1z M866.2,322.1h-7.9
					v-1h7.9V322.1z M850.3,322.1h-7.9v-1h7.9V322.1z M834.5,322.1h-7.9v-1h7.9V322.1z M818.6,322.1h-7.9v-1h7.9V322.1z M802.7,322.1
					h-7.9v-1h7.9V322.1z M786.8,322.1h-7.9v-1h7.9V322.1z M770.9,322.1H763v-1h7.9V322.1z M755,322.1h-7.9v-1h7.9V322.1z
					 M739.1,322.1h-7.9v-1h7.9V322.1z M723.2,322.1h-7.9v-1h7.9V322.1z M707.3,322.1h-7.9v-1h7.9V322.1z M691.5,322.1h-7.9v-1h7.9
					V322.1z M675.6,322.1h-7.9v-1h7.9V322.1z M659.7,322.1h-7.9v-1h7.9V322.1z M643.8,322.1h-7.9v-1h7.9V322.1z M627.9,322.1H620v-1
					h7.9V322.1z M612,322.1h-7.9v-1h7.9V322.1z M596.1,322.1h-7.9v-1h7.9V322.1z M580.2,322.1h-7.9v-1h7.9V322.1z M564.3,322.1h-7.9
					v-1h7.9V322.1z M548.5,322.1h-7.9v-1h7.9V322.1z M532.6,322.1h-7.9v-1h7.9V322.1z M516.7,322.1h-7.9v-1h7.9V322.1z M500.8,322.1
					h-7.9v-1h7.9V322.1z M484.9,322.1H477v-1h7.9V322.1z M469,322.1h-7.9v-1h7.9V322.1z M453.1,322.1h-7.9v-1h7.9V322.1z
					 M437.2,322.1h-7.9v-1h7.9V322.1z M421.4,322.1h-7.9v-1h7.9V322.1z M405.5,322.1h-7.9v-1h7.9V322.1z M389.6,322.1h-7.9v-1h7.9
					V322.1z M373.7,322.1h-7.9v-1h7.9V322.1z M357.8,322.1h-7.9v-1h7.9V322.1z M341.9,322.1H334v-1h7.9V322.1z"/>
			</g>
			<g>
				<rect x="1096.6" y="321.1" class="st1" width="4" height="1"/>
			</g>
		</g>
		<g class="st10">
			<path class="st1" d="M334.1,555c-61,0-118.3-23.8-161.5-66.9s-66.9-100.5-66.9-161.5s23.8-118.3,66.9-161.5s100.5-66.9,161.5-66.9
				c61,0,118.3,23.8,161.5,66.9c43.1,43.1,66.9,100.5,66.9,161.5c0,61-23.8,118.3-66.9,161.5C452.5,531.2,395.1,555,334.1,555z
				 M334.1,99.4c-58.2,0-116.4,22.2-160.8,66.5c-88.6,88.6-88.6,232.9,0,321.5c44.3,44.3,102.6,66.5,160.8,66.5
				c58.2,0,116.4-22.2,160.8-66.5c42.9-42.9,66.6-100,66.6-160.8c0-60.7-23.6-117.8-66.6-160.8C450.6,121.5,392.4,99.4,334.1,99.4z"
				/>
		</g>
		<g>
			<path class="st1" d="M1100.6,642.2c-85.6,0-166.1-33.3-226.7-93.9C813.4,487.8,780,407.2,780,321.6c0-85.6,33.3-166.1,93.9-226.7
				C934.5,34.3,1015,1,1100.6,1c85.6,0,166.1,33.3,226.7,93.9c60.6,60.6,93.9,141.1,93.9,226.7c0,85.6-33.3,166.1-93.9,226.7
				C1266.8,608.9,1186.3,642.2,1100.6,642.2z M1100.6,2C924.4,2,781,145.4,781,321.6c0,176.2,143.4,319.6,319.6,319.6
				c176.2,0,319.6-143.4,319.6-319.6C1420.2,145.4,1276.9,2,1100.6,2z"/>
		</g>
		<g class="st10">
			<path class="st1" d="M408,469.1c-85.1,0-154.3-66.3-154.3-147.8c0-81.5,69.2-147.8,154.3-147.8s154.3,66.3,154.3,147.8
				C562.4,402.8,493.1,469.1,408,469.1z M408,174.5c-84.5,0-153.3,65.9-153.3,146.8c0,81,68.8,146.8,153.3,146.8
				s153.3-65.9,153.3-146.8C561.4,240.3,492.6,174.5,408,174.5z"/>
		</g>
		<g class="st10">
			<path class="st1" d="M1140.1,205.4c-23.2-35.1-56.5-66.6-98.9-93.6c-87.1-55.6-202.9-86.2-326.1-86.2
				c-123.2,0-239,30.6-326.1,86.2c-42.4,27.1-75.7,58.6-98.9,93.6c-24.1,36.3-36.3,75-36.3,114.8c0,39.8,12.2,78.4,36.3,114.8
				c23.3,35.1,56.5,66.6,98.9,93.6c87.1,55.6,202.9,86.2,326.1,86.2c123.2,0,239-30.6,326.1-86.2c42.4-27.1,75.7-58.6,98.9-93.6
				c24.1-36.3,36.3-75,36.3-114.8C1176.4,280.3,1164.2,241.7,1140.1,205.4z M1061.5,513.6c4.6-5.6,14.4-18.5,24.3-37.7
				c12.6-24.2,28-63.5,30.3-113.7l-1,0c-4.3,95.5-56.3,153.2-57,153.9c-5.6,4-11.4,7.9-17.4,11.7c-87,55.5-202.6,86.1-325.6,86.1
				c-123,0-238.6-30.6-325.6-86.1c-86.9-55.5-134.7-129.2-134.7-207.6c0-78.4,47.9-152.1,134.7-207.6c87-55.5,202.6-86.1,325.6-86.1
				s238.6,30.6,325.6,86.1c86.9,55.5,134.7,129.2,134.7,207.6C1175.4,392,1135.2,460,1061.5,513.6z"/>
		</g>
		<g class="st10">
			<path class="st1" d="M448.2,173.5c-107.2,0-194.4,66.3-194.4,147.8c0,78.3,80.6,142.6,182.1,147.5c0.2,0,0.4,0.1,0.7,0.1l0,0
				c3.9,0.2,7.8,0.3,11.7,0.3c107.2,0,194.4-66.3,194.4-147.8C642.6,239.8,555.4,173.5,448.2,173.5z M448.2,468.1
				c-4.1,0-8.2-0.1-12.3-0.3c-41.8-4.6-70.3-30.2-87-51c-18.1-22.6-26.4-44.5-26.4-44.7l-0.9,0.3c0.1,0.2,8.4,22.2,26.6,45
				c15.2,19,40.3,42,76.4,49.6c-95.5-8.9-169.8-70.8-169.8-145.7c0-81,86.8-146.8,193.4-146.8c106.7,0,193.4,65.9,193.4,146.8
				C641.6,402.2,554.8,468.1,448.2,468.1z"/>
		</g>
		<g class="planet-opacity">
			<path class="st2" d="M372.7,321.6c0,28-22.7,50.7-50.7,50.7c-28,0-50.7-22.7-50.7-50.7c0-28,22.7-50.7,50.7-50.7
				C350,270.9,372.7,293.6,372.7,321.6z"/>
		</g>
		<g class="planet-opacity">
			<circle fill="#ff5917" r="27" cx="1101" stroke-width="2" cy="320" />
<!-- 			<path class="st3" d="M1127.6,317.4c2.3,14.9-7.9,28.9-22.8,31.2c-14.9,2.3-28.9-7.9-31.2-22.8c-2.3-14.9,7.9-28.9,22.8-31.2
				C1111.3,292.3,1125.3,302.5,1127.6,317.4z"/>
 -->		</g>
	</g>


	<g>
		<circle fill="transparent" id="left_line" stroke="#BDBEC1" r="320" cx="320" stroke-width="2" cy="320" />
	</g>
	<g>
		<circle fill="transparent" id="right_line" stroke="#BDBEC1" r="75" cx="1101" stroke-width="2" cy="322" class="st10" />
	</g>
	<g>
		<circle fill="transparent" id="right_line2" stroke="#BDBEC1" r="43" cx="1101" stroke-width="2" cy="321" class="st10" />
	</g>
	<g>
		<circle fill="transparent" id="right_line3" stroke="#BDBEC1" r="220" cx="1101" stroke-width="2" cy="321" class="st10" />
	</g>

	<g class="st100 planet-opacity">
		<circle class="st100" id = "left_planet" cx="100" cy="90" r="12" stroke="grey" stroke-width="3" fill="grey" />
	</g>
	<g class="st100 planet-opacity">
		<circle id = "small_planet" cx="1100" cy="247" r="2" stroke="#ff5917" stroke-width="3" fill="#ff5917" />
	</g>
	<g class="st100 planet-opacity">
		<circle id = "small_planet2" cx="1100" cy="278" r="2" stroke="#ff5917" stroke-width="3" fill="#ff5917" />
	</g>
	<g class="st100 planet-opacity">
		<circle id = "small_planet3" cx="1100" cy="101" r="2" stroke="#ff5917" stroke-width="3" fill="#ff5917" />
	</g>

	<g class="mob-circles upper-circles">
		<g class="mob-circles">
			<circle fill="transparent" id = "mob-line1" stroke="grey" r="350" cx="730" stroke-width="6" cy="320" />
		</g>

		<g class="st100 mob-circles">
			<circle id = "mob-planet1" class="st100" cx="580" cy="4" r="10" stroke="#ff5917" stroke-width="5" fill="#ff5917" />
		</g>

		<g class="mob-circles">
			<circle fill="transparent" stroke="grey" id = "mob-line2" r="250" cx="730" stroke-width="6" cy="322" class="st10" />
		</g>
		<g class="st100 mob-circles">
			<circle cx="480" id = "mob-planet2" cy="340" r="10" stroke="#ff5917" stroke-width="5" fill="#ff5917" />
		</g>
	</g>

</svg>