<?xml version="1.0" encoding="utf-8"?>
<!-- Generator: Adobe Illustrator 22.0.1, SVG Export Plug-In . SVG Version: 6.00 Build 0)  -->
<svg version="1.1" id="view1back" xmlns="http://www.w3.org/2000/svg" xmlns:xlink="http://www.w3.org/1999/xlink" x="0px" y="0px"
								 viewBox="0 0 1450.3 643.5" style="enable-background:new 0 0 1450.3 643.5;" xml:space="preserve">
	<style type="text/css">
		.st10{opacity:0.3;}
		.st1{fill:#FFFFFF;}
		.st2{fill:#BDBEC1;}
		.st3{fill:#F15728;}
		.st4{fill: blue;}
		.st100 {opacity: 1; z-index:100;}
	</style>
	<g>
		<g class="st10">
			<g>
				<rect x="322" y="321.1" class="st1" width="4" height="1"/>
			</g>
			<g>
				<path class="st1" d="M1088.7,322.1h-7.9v-1h7.9V322.1z M1072.8,322.1h-7.9v-1h7.9V322.1z M1056.9,322.1h-7.9v-1h7.9V322.1z
					 M1041,322.1h-7.9v-1h7.9V322.1z M1025.1,322.1h-7.9v-1h7.9V322.1z M1009.2,322.1h-7.9v-1h7.9V322.1z M993.3,322.1h-7.9v-1h7.9
					V322.1z M977.5,322.1h-7.9v-1h7.9V322.1z M961.6,322.1h-7.9v-1h7.9V322.1z M945.7,322.1h-7.9v-1h7.9V322.1z M929.8,322.1h-7.9v-1
					h7.9V322.1z M913.9,322.1H906v-1h7.9V322.1z M898,322.1h-7.9v-1h7.9V322.1z M882.1,322.1h-7.9v-1h7.9V322.1z M866.2,322.1h-7.9
					v-1h7.9V322.1z M850.3,322.1h-7.9v-1h7.9V322.1z M834.5,322.1h-7.9v-1h7.9V322.1z M818.6,322.1h-7.9v-1h7.9V322.1z M802.7,322.1
					h-7.9v-1h7.9V322.1z M786.8,322.1h-7.9v-1h7.9V322.1z M770.9,322.1H763v-1h7.9V322.1z M755,322.1h-7.9v-1h7.9V322.1z
					 M739.1,322.1h-7.9v-1h7.9V322.1z M723.2,322.1h-7.9v-1h7.9V322.1z M707.3,322.1h-7.9v-1h7.9V322.1z M691.5,322.1h-7.9v-1h7.9
					V322.1z M675.6,322.1h-7.9v-1h7.9V322.1z M659.7,322.1h-7.9v-1h7.9V322.1z M643.8,322.1h-7.9v-1h7.9V322.1z M627.9,322.1H620v-1
					h7.9V322.1z M612,322.1h-7.9v-1h7.9V322.1z M596.1,322.1h-7.9v-1h7.9V322.1z M580.2,322.1h-7.9v-1h7.9V322.1z M564.3,322.1h-7.9
					v-1h7.9V322.1z M548.5,322.1h-7.9v-1h7.9V322.1z M532.6,322.1h-7.9v-1h7.9V322.1z M516.7,322.1h-7.9v-1h7.9V322.1z M500.8,322.1
					h-7.9v-1h7.9V322.1z M484.9,322.1H477v-1h7.9V322.1z M469,322.1h-7.9v-1h7.9V322.1z M453.1,322.1h-7.9v-1h7.9V322.1z
					 M437.2,322.1h-7.9v-1h7.9V322.1z M421.4,322.1h-7.9v-1h7.9V322.1z M405.5,322.1h-7.9v-1h7.9V322.1z M389.6,322.1h-7.9v-1h7.9
					V322.1z M373.7,322.1h-7.9v-1h7.9V322.1z M357.8,322.1h-7.9v-1h7.9V322.1z M341.9,322.1H334v-1h7.9V322.1z"/>
			</g>
			<g>
				<rect x="1096.6" y="321.1" class="st1" width="4" height="1"/>
			</g>
		</g>
		<g class="st10">
			<path class="st1" d="M334.1,555c-61,0-118.3-23.8-161.5-66.9s-66.9-100.5-66.9-161.5s23.8-118.3,66.9-161.5s100.5-66.9,161.5-66.9
				c61,0,118.3,23.8,161.5,66.9c43.1,43.1,66.9,100.5,66.9,161.5c0,61-23.8,118.3-66.9,161.5C452.5,531.2,395.1,555,334.1,555z
				 M334.1,99.4c-58.2,0-116.4,22.2-160.8,66.5c-88.6,88.6-88.6,232.9,0,321.5c44.3,44.3,102.6,66.5,160.8,66.5
				c58.2,0,116.4-22.2,160.8-66.5c42.9-42.9,66.6-100,66.6-160.8c0-60.7-23.6-117.8-66.6-160.8C450.6,121.5,392.4,99.4,334.1,99.4z"
				/>
		</g>
<!-- 		<g class="st10">
			<path class="st1" id="right-av-line" d="M1100.6,397.9c-42.1,0-76.3-34.2-76.3-76.3c0-42.1,34.2-76.3,76.3-76.3s76.3,34.2,76.3,76.3
				C1176.9,363.7,1142.7,397.9,1100.6,397.9z M1100.6,246.3c-41.5,0-75.3,33.8-75.3,75.3s33.8,75.3,75.3,75.3s75.3-33.8,75.3-75.3
				S1142.1,246.3,1100.6,246.3z"/>
		</g> -->
<!-- 		<g class="st10">
			<path class="st4" fill="green" d="M1100.6,365.9c-24.4,0-44.3-19.9-44.3-44.3s19.9-44.3,44.3-44.3s44.3,19.9,44.3,44.3S1125,365.9,1100.6,365.9
				z M1100.6,278.3c-23.9,0-43.3,19.4-43.3,43.3c0,23.9,19.4,43.3,43.3,43.3s43.3-19.4,43.3-43.3
				C1143.9,297.7,1124.5,278.3,1100.6,278.3z"/>
		</g> -->
<!-- 		<g class="st10">
			<path class="st4" d="M1100.6,540.7c-58.5,0-113.5-22.8-154.9-64.2c-41.4-41.4-64.2-96.4-64.2-154.9c0-58.5,22.8-113.5,64.2-154.9
				c41.4-41.4,96.4-64.2,154.9-64.2c58.5,0,113.5,22.8,154.9,64.2c41.4,41.4,64.2,96.4,64.2,154.9c0,58.5-22.8,113.5-64.2,154.9
				C1214.1,517.9,1159.1,540.7,1100.6,540.7z M1100.6,103.6c-120.2,0-218,97.8-218,218c0,120.2,97.8,218.1,218,218.1
				s218-97.8,218-218.1C1318.7,201.4,1220.9,103.6,1100.6,103.6z"/>
		</g> -->
		<!-- <g>
			<path id="left_big" class="st1" d="M322,642.2c-85.6,0-166.1-33.3-226.7-93.9C34.8,487.8,1.4,407.2,1.4,321.6c0-85.6,33.3-166.1,93.9-226.7
				C155.9,34.3,236.4,1,322,1c85.6,0,166.1,33.3,226.7,93.9c60.6,60.6,93.9,141.1,93.9,226.7c0,85.6-33.3,166.1-93.9,226.7
				C488.2,608.9,407.7,642.2,322,642.2z M322,2C145.8,2,2.4,145.4,2.4,321.6c0,176.2,143.4,319.6,319.6,319.6
				c176.2,0,319.6-143.4,319.6-319.6C641.6,145.4,498.2,2,322,2z"/>
		</g> -->
		<g>
			<path class="st1" d="M1100.6,642.2c-85.6,0-166.1-33.3-226.7-93.9C813.4,487.8,780,407.2,780,321.6c0-85.6,33.3-166.1,93.9-226.7
				C934.5,34.3,1015,1,1100.6,1c85.6,0,166.1,33.3,226.7,93.9c60.6,60.6,93.9,141.1,93.9,226.7c0,85.6-33.3,166.1-93.9,226.7
				C1266.8,608.9,1186.3,642.2,1100.6,642.2z M1100.6,2C924.4,2,781,145.4,781,321.6c0,176.2,143.4,319.6,319.6,319.6
				c176.2,0,319.6-143.4,319.6-319.6C1420.2,145.4,1276.9,2,1100.6,2z"/>
		</g>
		<g class="st10">
			<path class="st1" d="M1102.5,642.2c-2.7,0-5.4-0.1-8-0.2l0-1c2.6,0.1,5.3,0.1,8,0.2L1102.5,642.2z M1086.5,641.7
				c-2.7-0.1-5.3-0.3-8-0.5l0.1-1c2.6,0.2,5.3,0.4,8,0.5L1086.5,641.7z M1070.6,640.5c-2.7-0.3-5.4-0.6-8-0.9l0.1-1
				c2.6,0.3,5.3,0.6,7.9,0.9L1070.6,640.5z M1054.7,638.5c-2.7-0.4-5.3-0.8-7.9-1.3l0.2-1c2.6,0.4,5.2,0.9,7.9,1.3L1054.7,638.5z
				 M1038.9,635.8c-2.6-0.5-5.2-1.1-7.8-1.7l0.2-1c2.6,0.6,5.2,1.1,7.8,1.7L1038.9,635.8z M1023.3,632.2c-2.6-0.7-5.2-1.4-7.7-2.1
				l0.3-1c2.5,0.7,5.1,1.4,7.7,2.1L1023.3,632.2z M1007.9,627.9c-2.5-0.8-5.1-1.6-7.6-2.5l0.3-0.9c2.5,0.9,5.1,1.7,7.6,2.5
				L1007.9,627.9z M992.8,622.7c-2.5-0.9-5-1.9-7.5-2.9l0.4-0.9c2.5,1,5,1.9,7.4,2.9L992.8,622.7z M977.9,616.7
				c-2.4-1-4.9-2.1-7.3-3.3l0.4-0.9c2.4,1.1,4.9,2.2,7.3,3.3L977.9,616.7z M963.4,610c-2.4-1.2-4.8-2.4-7.1-3.6l0.5-0.9
				c2.4,1.2,4.7,2.5,7.1,3.6L963.4,610z M949.3,602.6c-2.3-1.3-4.7-2.6-6.9-4l0.5-0.9c2.3,1.3,4.6,2.7,6.9,4L949.3,602.6z
				 M935.5,594.4c-2.2-1.4-4.5-2.9-6.7-4.3l0.6-0.8c2.2,1.5,4.5,2.9,6.7,4.3L935.5,594.4z M922.1,585.6c-2.2-1.5-4.3-3-6.5-4.6
				l0.6-0.8c2.1,1.6,4.3,3.1,6.5,4.6L922.1,585.6z M909.2,576.2c-2.1-1.6-4.2-3.2-6.3-4.9l0.6-0.8c2.1,1.7,4.2,3.3,6.3,4.9
				L909.2,576.2z M896.7,566.3c-2-1.7-4.1-3.4-6.1-5.2l0.7-0.8c2,1.8,4.1,3.5,6.1,5.2L896.7,566.3z M884.5,555.8
				c-2-1.8-4-3.6-5.9-5.4l0.7-0.7c2,1.8,3.9,3.6,5.9,5.4L884.5,555.8z M872.8,544.9c-1.9-1.8-3.8-3.7-5.7-5.6l0.7-0.7
				c1.9,1.9,3.8,3.7,5.7,5.6L872.8,544.9z M861.4,533.6c-1.9-1.9-3.7-3.8-5.5-5.8l0.7-0.7c1.8,1.9,3.7,3.9,5.5,5.8L861.4,533.6z
				 M850.5,521.9c-1.8-2-3.6-3.9-5.4-5.9l0.7-0.7c1.8,2,3.6,4,5.3,5.9L850.5,521.9z M839.8,510c-1.7-2-3.5-4-5.2-6.1l0.8-0.6
				c1.7,2,3.4,4.1,5.2,6.1L839.8,510z M829.5,497.7c-1.7-2.1-3.4-4.1-5-6.2l0.8-0.6c1.7,2.1,3.3,4.2,5,6.2L829.5,497.7z M819.5,485.2
				c-1.6-2.1-3.3-4.2-4.9-6.3l0.8-0.6c1.6,2.1,3.3,4.2,4.9,6.3L819.5,485.2z M809.8,472.5c-1.6-2.1-3.2-4.3-4.8-6.4l0.8-0.6
				c1.6,2.2,3.2,4.3,4.8,6.4L809.8,472.5z M800.3,459.6c-1.6-2.2-3.1-4.3-4.7-6.5l0.8-0.6c1.5,2.2,3.1,4.3,4.7,6.5L800.3,459.6z
				 M791,446.6c-1.5-2.2-3-4.4-4.6-6.6l0.8-0.6c1.5,2.2,3,4.4,4.6,6.6L791,446.6z M781.9,433.4c-1.5-2.2-3-4.4-4.5-6.6l0.8-0.6
				c1.5,2.2,3,4.4,4.5,6.6L781.9,433.4z M773,420.1c-1.5-2.2-2.9-4.5-4.4-6.7l0.8-0.5c1.5,2.2,2.9,4.5,4.4,6.7L773,420.1z
				 M764.3,406.7c-1.4-2.2-2.9-4.5-4.3-6.7l0.8-0.5c1.4,2.3,2.9,4.5,4.3,6.7L764.3,406.7z M755.7,393.2c-1.4-2.3-2.8-4.5-4.3-6.8
				l0.8-0.5c1.4,2.3,2.8,4.5,4.3,6.8L755.7,393.2z M747.2,379.6c-1.4-2.3-2.8-4.5-4.2-6.8l0.9-0.5c1.4,2.3,2.8,4.5,4.2,6.8
				L747.2,379.6z M738.8,366c-1.4-2.3-2.8-4.5-4.2-6.8l0.9-0.5c1.4,2.3,2.8,4.6,4.2,6.8L738.8,366z M730.5,352.3
				c-1.4-2.3-2.8-4.6-4.1-6.8l0.9-0.5c1.4,2.3,2.8,4.6,4.1,6.8L730.5,352.3z M722.2,338.6l-4.1-6.9l0.9-0.5l4.1,6.9L722.2,338.6z
				 M713.9,324.8l-4.1-6.9l0.9-0.5l4.1,6.9L713.9,324.8z M705.6,311.1l-4.1-6.9l0.9-0.5l4.1,6.9L705.6,311.1z M697.4,297.4
				c-1.4-2.3-2.8-4.6-4.1-6.8l0.9-0.5c1.4,2.3,2.8,4.6,4.1,6.8L697.4,297.4z M689.1,283.7c-1.4-2.3-2.8-4.5-4.2-6.8l0.9-0.5
				c1.4,2.3,2.8,4.5,4.2,6.8L689.1,283.7z M680.7,270.1c-1.4-2.3-2.8-4.5-4.2-6.8l0.8-0.5c1.4,2.3,2.8,4.5,4.2,6.8L680.7,270.1z
				 M672.3,256.5c-1.4-2.3-2.8-4.5-4.3-6.8l0.8-0.5c1.4,2.3,2.8,4.5,4.3,6.8L672.3,256.5z M663.8,243c-1.4-2.3-2.9-4.5-4.3-6.7
				l0.8-0.5c1.4,2.2,2.9,4.5,4.3,6.7L663.8,243z M655.1,229.5c-1.5-2.2-2.9-4.5-4.4-6.7l0.8-0.5c1.5,2.2,2.9,4.5,4.4,6.7L655.1,229.5
				z M646.4,216.2c-1.5-2.2-3-4.4-4.5-6.6l0.8-0.6c1.5,2.2,3,4.4,4.5,6.6L646.4,216.2z M637.4,202.9c-1.5-2.2-3-4.4-4.5-6.6l0.8-0.6
				c1.5,2.2,3,4.4,4.6,6.6L637.4,202.9z M628.3,189.8c-1.5-2.2-3.1-4.3-4.6-6.5l0.8-0.6c1.6,2.2,3.1,4.3,4.7,6.5L628.3,189.8z
				 M618.9,176.8c-1.6-2.2-3.2-4.3-4.8-6.4l0.8-0.6c1.6,2.1,3.2,4.3,4.8,6.4L618.9,176.8z M609.3,164c-1.6-2.1-3.3-4.2-4.9-6.3
				l0.8-0.6c1.6,2.1,3.3,4.2,4.9,6.3L609.3,164z M599.5,151.4c-1.7-2.1-3.3-4.2-5-6.2l0.8-0.6c1.7,2.1,3.4,4.1,5,6.2L599.5,151.4z
				 M589.3,139c-1.7-2-3.4-4.1-5.2-6.1l0.8-0.7c1.7,2,3.5,4.1,5.2,6.1L589.3,139z M578.9,126.9c-1.8-2-3.6-4-5.3-5.9l0.7-0.7
				c1.8,2,3.6,4,5.4,6L578.9,126.9z M568.1,115.1c-1.8-1.9-3.7-3.9-5.5-5.8l0.7-0.7c1.9,1.9,3.7,3.8,5.5,5.8L568.1,115.1z M557,103.6
				c-1.9-1.9-3.8-3.8-5.7-5.6l0.7-0.7c1.9,1.8,3.8,3.7,5.7,5.6L557,103.6z M545.5,92.6c-1.9-1.8-3.9-3.6-5.9-5.4l0.7-0.7
				c2,1.8,4,3.6,5.9,5.4L545.5,92.6z M533.6,81.9c-2-1.7-4.1-3.5-6.1-5.2l0.6-0.8c2,1.7,4.1,3.4,6.1,5.2L533.6,81.9z M521.3,71.7
				c-2.1-1.7-4.2-3.3-6.3-4.9l0.6-0.8c2.1,1.6,4.2,3.3,6.3,4.9L521.3,71.7z M508.6,62.1c-2.1-1.6-4.3-3.1-6.5-4.6l0.6-0.8
				c2.2,1.5,4.4,3.1,6.5,4.6L508.6,62.1z M495.4,53c-2.2-1.5-4.5-2.9-6.7-4.3l0.5-0.8c2.2,1.4,4.5,2.9,6.7,4.3L495.4,53z M481.9,44.6
				c-2.3-1.3-4.6-2.7-6.9-4l0.5-0.9c2.3,1.3,4.6,2.6,6.9,4L481.9,44.6z M468,36.8c-2.4-1.2-4.8-2.5-7.1-3.6l0.4-0.9
				c2.4,1.2,4.8,2.4,7.1,3.6L468,36.8z M453.6,29.8c-2.4-1.1-4.8-2.2-7.3-3.2l0.4-0.9c2.5,1,4.9,2.1,7.3,3.2L453.6,29.8z M439,23.5
				c-2.5-1-5-1.9-7.5-2.8l0.3-0.9c2.5,0.9,5,1.9,7.5,2.8L439,23.5z M424,18c-2.5-0.8-5.1-1.7-7.6-2.4l0.3-1c2.5,0.8,5.1,1.6,7.6,2.4
				L424,18z M408.7,13.4c-2.5-0.7-5.1-1.4-7.7-2l0.2-1c2.6,0.6,5.2,1.3,7.7,2L408.7,13.4z M393.3,9.5c-2.6-0.6-5.2-1.1-7.8-1.6l0.2-1
				c2.6,0.5,5.2,1,7.8,1.6L393.3,9.5z M377.6,6.5c-2.6-0.4-5.3-0.8-7.9-1.2l0.1-1c2.6,0.4,5.3,0.8,7.9,1.2L377.6,6.5z M361.8,4.3
				c-2.6-0.3-5.3-0.6-7.9-0.8l0.1-1c2.7,0.2,5.3,0.5,8,0.8L361.8,4.3z M345.9,2.8c-2.6-0.2-5.3-0.3-8-0.4l0-1c2.7,0.1,5.3,0.3,8,0.4
				L345.9,2.8z M330,2.1C327.4,2,324.7,2,322,2V1c2.7,0,5.4,0,8,0.1L330,2.1z"/>
		</g>
		<g class="st10">
			<path class="st1" d="M320.1,642.2l0-1c2.7,0,5.3-0.1,8-0.2l0,1C325.4,642.1,322.8,642.2,320.1,642.2z M336.1,641.7l-0.1-1
				c2.6-0.1,5.3-0.3,8-0.5l0.1,1C341.4,641.4,338.8,641.6,336.1,641.7z M352.1,640.5l-0.1-1c2.7-0.3,5.3-0.6,7.9-0.9l0.1,1
				C357.4,639.9,354.8,640.2,352.1,640.5z M368,638.5l-0.1-1c2.6-0.4,5.3-0.8,7.9-1.3l0.2,1C373.3,637.7,370.6,638.1,368,638.5z
				 M383.7,635.8l-0.2-1c2.6-0.5,5.2-1.1,7.8-1.7l0.2,1C389,634.7,386.3,635.2,383.7,635.8z M399.3,632.2l-0.2-1
				c2.6-0.7,5.2-1.4,7.7-2.1l0.3,1C404.5,630.9,401.9,631.6,399.3,632.2z M414.7,627.9l-0.3-1c2.5-0.8,5.1-1.6,7.6-2.5l0.3,0.9
				C419.8,626.2,417.2,627.1,414.7,627.9z M429.9,622.7l-0.3-0.9c2.5-0.9,5-1.9,7.4-2.9l0.4,0.9C434.9,620.8,432.3,621.8,429.9,622.7
				z M444.7,616.7l-0.4-0.9c2.4-1,4.9-2.1,7.3-3.3l0.4,0.9C449.6,614.6,447.1,615.7,444.7,616.7z M459.2,610l-0.4-0.9
				c2.4-1.2,4.7-2.4,7.1-3.6l0.5,0.9C464,607.6,461.6,608.8,459.2,610z M473.4,602.6l-0.5-0.9c2.3-1.3,4.6-2.6,6.9-4l0.5,0.9
				C478,599.9,475.7,601.3,473.4,602.6z M487.1,594.4l-0.5-0.8c2.2-1.4,4.5-2.8,6.7-4.3l0.6,0.8C491.7,591.5,489.4,593,487.1,594.4z
				 M500.5,585.6l-0.6-0.8c2.1-1.5,4.3-3,6.5-4.6l0.6,0.8C504.8,582.6,502.7,584.1,500.5,585.6z M513.4,576.2l-0.6-0.8
				c2.1-1.6,4.2-3.2,6.3-4.9l0.6,0.8C517.6,573,515.5,574.6,513.4,576.2z M526,566.3l-0.6-0.8c2-1.7,4.1-3.4,6.1-5.2l0.7,0.8
				C530.1,562.8,528,564.6,526,566.3z M538.1,555.8l-0.7-0.7c1.9-1.7,3.9-3.6,5.9-5.4l0.7,0.7C542.1,552.2,540.1,554,538.1,555.8z
				 M549.9,544.9l-0.7-0.7c1.9-1.8,3.8-3.7,5.7-5.6l0.7,0.7C553.7,541.2,551.7,543.1,549.9,544.9z M561.2,533.6l-0.7-0.7
				c1.9-1.9,3.7-3.8,5.5-5.8l0.7,0.7C564.9,529.8,563.1,531.7,561.2,533.6z M572.2,521.9l-0.7-0.7c1.8-2,3.6-3.9,5.3-5.9l0.7,0.7
				C575.8,518,574,520,572.2,521.9z M582.8,510l-0.8-0.7c1.7-2,3.5-4,5.2-6.1l0.8,0.6C586.3,505.9,584.6,508,582.8,510z M593.1,497.7
				l-0.8-0.6c1.7-2.1,3.4-4.1,5-6.2l0.8,0.6C596.5,493.6,594.8,495.7,593.1,497.7z M603.1,485.2l-0.8-0.6c1.6-2.1,3.3-4.2,4.9-6.3
				l0.8,0.6C606.4,481,604.8,483.1,603.1,485.2z M612.9,472.5l-0.8-0.6c1.6-2.1,3.2-4.3,4.8-6.4l0.8,0.6
				C616.1,468.3,614.5,470.4,612.9,472.5z M622.4,459.6l-0.8-0.6c1.6-2.2,3.1-4.3,4.7-6.5l0.8,0.6
				C625.5,455.3,623.9,457.5,622.4,459.6z M631.6,446.6l-0.8-0.6c1.5-2.2,3-4.4,4.6-6.6l0.8,0.6C634.7,442.2,633.2,444.4,631.6,446.6
				z M640.7,433.4l-0.8-0.6c1.5-2.2,3-4.4,4.5-6.6l0.8,0.6C643.7,429,642.2,431.2,640.7,433.4z M649.6,420.1l-0.8-0.6
				c1.5-2.2,2.9-4.5,4.4-6.7l0.8,0.5C652.5,415.6,651.1,417.8,649.6,420.1z M658.3,406.7l-0.8-0.5c1.4-2.2,2.9-4.5,4.3-6.7l0.8,0.5
				C661.2,402.2,659.8,404.4,658.3,406.7z M666.9,393.2l-0.8-0.5c1.4-2.3,2.8-4.5,4.3-6.8l0.8,0.5
				C669.8,388.6,668.4,390.9,666.9,393.2z M675.4,379.6l-0.8-0.5c1.4-2.3,2.8-4.5,4.2-6.8l0.9,0.5
				C678.2,375.1,676.8,377.3,675.4,379.6z M683.8,366l-0.9-0.5c1.4-2.3,2.8-4.5,4.2-6.8l0.9,0.5C686.6,361.4,685.2,363.7,683.8,366z
				 M692.2,352.3l-0.9-0.5c1.4-2.3,2.8-4.6,4.1-6.8l0.9,0.5C694.9,347.7,693.5,350,692.2,352.3z M700.4,338.6l-0.9-0.5l4.1-6.9
				l0.9,0.5L700.4,338.6z M708.7,324.8l-0.9-0.5l4.1-6.9l0.9,0.5L708.7,324.8z M717,311.1l-0.9-0.5l4.1-6.9l0.9,0.5L717,311.1z
				 M725.3,297.4l-0.9-0.5c1.4-2.3,2.8-4.6,4.1-6.8l0.9,0.5C728,292.8,726.7,295.1,725.3,297.4z M733.6,283.7l-0.9-0.5
				c1.4-2.3,2.8-4.5,4.2-6.8l0.9,0.5C736.3,279.2,735,281.4,733.6,283.7z M741.9,270.1l-0.9-0.5c1.4-2.3,2.8-4.5,4.2-6.8l0.8,0.5
				C744.7,265.6,743.3,267.8,741.9,270.1z M750.3,256.5l-0.8-0.5c1.4-2.3,2.8-4.5,4.3-6.8l0.8,0.5C753.1,252,751.7,254.3,750.3,256.5
				z M758.8,243l-0.8-0.5c1.4-2.3,2.9-4.5,4.3-6.7l0.8,0.5C761.7,238.5,760.3,240.7,758.8,243z M767.5,229.5l-0.8-0.5
				c1.5-2.2,2.9-4.5,4.4-6.7l0.8,0.5C770.4,225.1,769,227.3,767.5,229.5z M776.3,216.2l-0.8-0.6c1.5-2.2,3-4.4,4.5-6.6l0.8,0.6
				C779.3,211.7,777.8,213.9,776.3,216.2z M785.2,202.9l-0.8-0.6c1.5-2.2,3-4.4,4.5-6.6l0.8,0.6C788.3,198.5,786.8,200.7,785.2,202.9
				z M794.4,189.8l-0.8-0.6c1.5-2.2,3.1-4.4,4.7-6.5l0.8,0.6C797.5,185.4,795.9,187.6,794.4,189.8z M803.7,176.8l-0.8-0.6
				c1.6-2.2,3.2-4.3,4.8-6.4l0.8,0.6C806.9,172.5,805.3,174.6,803.7,176.8z M813.3,164l-0.8-0.6c1.6-2.1,3.3-4.2,4.9-6.3l0.8,0.6
				C816.6,159.8,814.9,161.9,813.3,164z M823.2,151.4l-0.8-0.6c1.7-2.1,3.3-4.2,5-6.2l0.8,0.6C826.5,147.2,824.8,149.3,823.2,151.4z
				 M833.3,139l-0.8-0.6c1.7-2,3.4-4.1,5.2-6.1l0.8,0.7C836.7,135,835,137,833.3,139z M843.7,126.9l-0.7-0.7c1.8-2,3.6-4,5.4-6
				l0.7,0.7C847.3,122.9,845.5,124.9,843.7,126.9z M854.5,115.1l-0.7-0.7c1.8-1.9,3.7-3.9,5.5-5.8l0.7,0.7
				C858.2,111.2,856.3,113.2,854.5,115.1z M865.6,103.6l-0.7-0.7c1.9-1.9,3.8-3.8,5.7-5.6l0.7,0.7
				C869.5,99.9,867.5,101.8,865.6,103.6z M877.1,92.6l-0.7-0.7c2-1.8,3.9-3.6,5.9-5.4l0.7,0.7C881.1,88.9,879.1,90.7,877.1,92.6z
				 M889,81.9l-0.7-0.8c2-1.7,4.1-3.5,6.1-5.2l0.6,0.8C893.1,78.4,891.1,80.2,889,81.9z M901.3,71.7l-0.6-0.8
				c2.1-1.7,4.2-3.3,6.3-4.9l0.6,0.8C905.6,68.4,903.4,70.1,901.3,71.7z M914.1,62.1l-0.6-0.8c2.1-1.6,4.3-3.1,6.5-4.6l0.6,0.8
				C918.4,58.9,916.2,60.5,914.1,62.1z M927.2,53l-0.5-0.8c2.2-1.5,4.5-2.9,6.7-4.3l0.5,0.8C931.7,50.1,929.4,51.5,927.2,53z
				 M940.7,44.6l-0.5-0.9c2.3-1.3,4.6-2.7,6.9-4l0.5,0.9C945.3,41.9,943,43.2,940.7,44.6z M954.6,36.8l-0.5-0.9
				c2.4-1.2,4.8-2.5,7.1-3.6l0.4,0.9C959.4,34.4,957,35.6,954.6,36.8z M969,29.8l-0.4-0.9c2.4-1.1,4.9-2.2,7.3-3.2l0.4,0.9
				C973.8,27.6,971.4,28.7,969,29.8z M983.7,23.5l-0.4-0.9c2.5-1,5-1.9,7.5-2.8l0.3,0.9C988.6,21.6,986.1,22.5,983.7,23.5z M998.6,18
				l-0.3-0.9c2.5-0.8,5.1-1.7,7.6-2.4l0.3,1C1003.7,16.4,1001.2,17.2,998.6,18z M1013.9,13.4l-0.3-1c2.5-0.7,5.1-1.4,7.7-2l0.2,1
				C1019,12,1016.4,12.7,1013.9,13.4z M1029.4,9.5l-0.2-1c2.6-0.6,5.2-1.1,7.8-1.6l0.2,1C1034.6,8.4,1032,8.9,1029.4,9.5z M1045,6.5
				l-0.2-1c2.6-0.4,5.3-0.8,7.9-1.2l0.1,1C1050.3,5.6,1047.6,6.1,1045,6.5z M1060.8,4.3l-0.1-1c2.6-0.3,5.3-0.6,8-0.8l0.1,1
				C1066.1,3.7,1063.4,4,1060.8,4.3z M1076.7,2.8l-0.1-1c2.6-0.2,5.3-0.3,8-0.4l0,1C1082,2.5,1079.3,2.6,1076.7,2.8z M1092.6,2.1l0-1
				c2.6-0.1,5.3-0.1,8-0.1v1C1098,2,1095.3,2,1092.6,2.1z"/>
		</g>
		<g class="st10">
			<path class="st1" d="M408,469.1c-85.1,0-154.3-66.3-154.3-147.8c0-81.5,69.2-147.8,154.3-147.8s154.3,66.3,154.3,147.8
				C562.4,402.8,493.1,469.1,408,469.1z M408,174.5c-84.5,0-153.3,65.9-153.3,146.8c0,81,68.8,146.8,153.3,146.8
				s153.3-65.9,153.3-146.8C561.4,240.3,492.6,174.5,408,174.5z"/>
		</g>
		<g class="st10">
			<path class="st1" d="M1140.1,205.4c-23.2-35.1-56.5-66.6-98.9-93.6c-87.1-55.6-202.9-86.2-326.1-86.2
				c-123.2,0-239,30.6-326.1,86.2c-42.4,27.1-75.7,58.6-98.9,93.6c-24.1,36.3-36.3,75-36.3,114.8c0,39.8,12.2,78.4,36.3,114.8
				c23.3,35.1,56.5,66.6,98.9,93.6c87.1,55.6,202.9,86.2,326.1,86.2c123.2,0,239-30.6,326.1-86.2c42.4-27.1,75.7-58.6,98.9-93.6
				c24.1-36.3,36.3-75,36.3-114.8C1176.4,280.3,1164.2,241.7,1140.1,205.4z M1061.5,513.6c4.6-5.6,14.4-18.5,24.3-37.7
				c12.6-24.2,28-63.5,30.3-113.7l-1,0c-4.3,95.5-56.3,153.2-57,153.9c-5.6,4-11.4,7.9-17.4,11.7c-87,55.5-202.6,86.1-325.6,86.1
				c-123,0-238.6-30.6-325.6-86.1c-86.9-55.5-134.7-129.2-134.7-207.6c0-78.4,47.9-152.1,134.7-207.6c87-55.5,202.6-86.1,325.6-86.1
				s238.6,30.6,325.6,86.1c86.9,55.5,134.7,129.2,134.7,207.6C1175.4,392,1135.2,460,1061.5,513.6z"/>
		</g>
		<g class="st10">
			<path class="st1" d="M448.2,173.5c-107.2,0-194.4,66.3-194.4,147.8c0,78.3,80.6,142.6,182.1,147.5c0.2,0,0.4,0.1,0.7,0.1l0,0
				c3.9,0.2,7.8,0.3,11.7,0.3c107.2,0,194.4-66.3,194.4-147.8C642.6,239.8,555.4,173.5,448.2,173.5z M448.2,468.1
				c-4.1,0-8.2-0.1-12.3-0.3c-41.8-4.6-70.3-30.2-87-51c-18.1-22.6-26.4-44.5-26.4-44.7l-0.9,0.3c0.1,0.2,8.4,22.2,26.6,45
				c15.2,19,40.3,42,76.4,49.6c-95.5-8.9-169.8-70.8-169.8-145.7c0-81,86.8-146.8,193.4-146.8c106.7,0,193.4,65.9,193.4,146.8
				C641.6,402.2,554.8,468.1,448.2,468.1z"/>
		</g>
		<g>
			<path class="st2" d="M372.7,321.6c0,28-22.7,50.7-50.7,50.7c-28,0-50.7-22.7-50.7-50.7c0-28,22.7-50.7,50.7-50.7
				C350,270.9,372.7,293.6,372.7,321.6z"/>
		</g>
		<g>
			<path class="st3" d="M1127.6,317.4c2.3,14.9-7.9,28.9-22.8,31.2c-14.9,2.3-28.9-7.9-31.2-22.8c-2.3-14.9,7.9-28.9,22.8-31.2
				C1111.3,292.3,1125.3,302.5,1127.6,317.4z"/>
		</g>
	</g>


	<g>
		<circle fill="transparent" id="left_line" stroke="#BDBEC1" r="320" cx="320" stroke-width="2" cy="320" />
	</g>
	<g>
		<circle fill="transparent" id="right_line" stroke="#BDBEC1" r="75" cx="1101" stroke-width="2" cy="322" class="st10" />
	</g>
	<g>
		<circle fill="transparent" id="right_line2" stroke="#BDBEC1" r="43" cx="1101" stroke-width="2" cy="321" class="st10" />
	</g>
	<g>
		<circle fill="transparent" id="right_line3" stroke="#BDBEC1" r="220" cx="1101" stroke-width="2" cy="321" class="st10" />
	</g>

	<g class="st100">
		<circle class="st100" id = "left_planet" cx="100" cy="90" r="12" stroke="grey" stroke-width="3" fill="grey" />
	</g>
	<g class="st100">
		<circle id = "small_planet" cx="1100" cy="247" r="2" stroke="#ff5917" stroke-width="3" fill="#ff5917" />
	</g>
	<g class="st100">
		<circle id = "small_planet2" cx="1100" cy="278" r="2" stroke="#ff5917" stroke-width="3" fill="#ff5917" />
	</g>
	<g class="st100">
		<circle id = "small_planet3" cx="1100" cy="101" r="2" stroke="#ff5917" stroke-width="3" fill="#ff5917" />
	</g>

</svg>