<?xml version="1.0" encoding="utf-8"?>
<!-- Generator: Adobe Illustrator 22.0.1, SVG Export Plug-In . SVG Version: 6.00 Build 0)  -->
<svg version="1.1" id="Tryb_izolacji" xmlns="http://www.w3.org/2000/svg" xmlns:xlink="http://www.w3.org/1999/xlink" x="0px"
	 y="0px" viewBox="0 0 247.8 221.2" style="enable-background:new 0 0 247.8 221.2;" xml:space="preserve">
<style type="text/css">
	.st0{fill:#1C1C1A;}
</style>
<g>
	<path class="st0" d="M91.4,152.6c1.8,0,3.3-1.5,3.3-3.4v-25.7h27c1.8,0,3.3-1.4,3.3-3.2c0-1.8-1.5-3.2-3.3-3.2h-27v-5.9
		c0-13.2,9.1-25.5,24.4-32.7c15.3,7.3,24.4,19.5,24.4,32.7v5.9h-9.4c-1.8,0-3.3,1.4-3.3,3.2c0,1.7,1.5,3.2,3.3,3.2h9.4v13.9
		c0,1.8,1.5,3.2,3.3,3.2c1,0,1.9-0.4,2.5-1.2c0.5-0.6,0.8-1.3,0.8-2v-26.2c0-15.8-10.6-30.3-28.5-38.6c-1.5-0.7-3.5-0.7-5,0
		c-17.8,8.3-28.5,22.8-28.5,38.6v38C88.1,151.1,89.5,152.6,91.4,152.6z"/>
	<path class="st0" d="M155.1,45.6C155.1,45.6,155.1,45.6,155.1,45.6c49.7,15.3,85.9,61.6,86,116.2c-0.1,1,0.2,1.9,0.9,2.7
		c1.3,1.3,3.4,1.3,4.7,0c0.7-0.6,1-1.5,1-2.4h0c0-58.1-38.8-107.3-91.9-123.1c0,0,0,0.1,0,0.1c-1.1-0.2-2.2,0-3.1,0.8
		c-1.3,1.3-1.3,3.4,0,4.7C153.4,45.2,154.3,45.6,155.1,45.6z"/>
	<circle class="st0" cx="119.1" cy="38.2" r="21.9"/>
	<path class="st0" d="M141,13.2c1.7,0,3.2-1.4,3.2-3.2c0-1.8-1.4-3.2-3.2-3.2c-1.8,0-3.2,1.4-3.2,3.2
		C137.8,11.8,139.2,13.2,141,13.2z"/>
	<path class="st0" d="M59.8,55.8C59.8,55.8,59.8,55.8,59.8,55.8c7.3-4.1,15.1-7.4,23.3-10c0.9,0,1.7-0.3,2.4-1
		c1.3-1.3,1.3-3.4,0-4.7c-0.8-0.8-2-1.1-3.1-0.8c0,0,0-0.1,0-0.1c-9.2,2.8-17.9,6.5-26.1,11.1c0,0-0.1,0-0.1,0.1
		c-0.1,0.1-0.3,0.1-0.4,0.2c0,0,0,0,0,0c-0.2,0.1-0.4,0.2-0.6,0.4c-1.3,1.3-1.3,3.4,0,4.7C56.4,57,58.5,57,59.8,55.8z"/>
	<path class="st0" d="M192.8,94.8c-4.3-8.4-16.1-12.1-34.3-10.4v0c0,0,0,0,0,0c-2.1,0-3.7,1.7-3.7,3.7c0,2.1,1.7,3.7,3.7,3.7
		c0,0,0,0,0,0v0c2.9-0.3,5.7-0.5,8.2-0.5c6,0,16.4,0.9,19.4,6.8c3.2,6.3-2.6,17.8-15.5,30.7c-7.8,7.9-17.8,15.8-29.2,23.5L119.1,134
		l-33.3,27.5c-1.6,1.3-2.7,3.7-2.7,5.8v11.9c0,1.2,0.4,2.3,1.1,3.2c-13.8,5.4-27.2,9.4-38.9,11.5l3.5-8.2L23.4,200l28,7.5l-4.8-6.3
		c14-2.5,30.1-7.5,46.7-14.5v5.6c0,2.9,2.4,5.3,5.3,5.3h14.1c2.9,0,5.3-2.4,5.3-5.3v-7.9h2.2v7.9c0,2.9,2.4,5.3,5.3,5.3h14.1
		c2.9,0,5.3-2.4,5.3-5.3v-7.9h5c2.9,0,5.3-2.4,5.3-5.3v-11.9c0-2.1-1.1-4.5-2.7-5.8l-5-4.1c11-7.5,20.8-15.4,28.5-23.1
		C191.7,118.4,197.7,104.4,192.8,94.8z M89.6,178v-10.7c0-0.4,0.3-0.9,0.4-1l29.1-24l16.7,13.8c-7.8,4.9-16.1,9.7-24.9,14.2
		c-5.5,2.8-11,5.3-16.4,7.7H89.6z M111.4,191.2H99.8l0-6.8h11.6V191.2z M138.3,191.2h-11.6v-6.8h11.6V191.2z M148.2,166.3
		c0.1,0.1,0.4,0.7,0.4,1V178H112c0.7-0.4,1.5-0.7,2.2-1.1c9.8-5,19-10.3,27.6-15.9L148.2,166.3z"/>
	<path class="st0" d="M3.7,186.8c2.1,0,3.8-1.7,3.8-3.7h0.1l0.3-1.4c1.5-6.5,7-14.6,15.9-23.5c12.8-12.9,31.7-26.2,53.3-37.9v0
		c1.4-0.5,2.4-1.9,2.4-3.5c0-2.1-1.7-3.7-3.7-3.7c-0.6,0-1.1,0.2-1.6,0.4h-0.2c-22.4,12-41.9,25.9-55.4,39.4
		c-10.4,10.4-16.5,19.8-18.1,28L0,183.1C0,185.2,1.7,186.8,3.7,186.8z"/>
</g>
</svg>
