<?xml version="1.0" encoding="utf-8"?>
<!-- Generator: Adobe Illustrator 22.0.1, SVG Export Plug-In . SVG Version: 6.00 Build 0)  -->
<svg version="1.1" id="Warstwa_1" xmlns="http://www.w3.org/2000/svg" xmlns:xlink="http://www.w3.org/1999/xlink" x="0px" y="0px"
	 viewBox="0 0 426.7 172" style="enable-background:new 0 0 426.7 172;" xml:space="preserve">
<style type="text/css">
	.st0{stroke:#000000;stroke-width:0.25;stroke-miterlimit:10;}
</style>
<g>
	<g>
		<path class="st0" d="M207.4,122.8v0.5h-11.1c-0.9,0-1.6,0.7-1.6,1.6c0,0.9,0.7,1.6,1.6,1.6h11.1v3.8l-5.5,5.5h-5.6
			c-0.4,0-0.8,0.2-1.1,0.5l-3.1,3.1h-1.7l4-4c0.3-0.3,0.5-0.7,0.5-1.1c0-0.4-0.2-0.8-0.5-1.1c-0.3-0.3-0.7-0.5-1.1-0.5
			c-0.4,0-0.8,0.2-1.1,0.5l-6.3,6.2h-8.1l4-4c0.3-0.3,0.5-0.7,0.5-1.1c0-0.4-0.2-0.8-0.5-1.1c-0.3-0.3-0.7-0.5-1.1-0.5
			c-0.4,0-0.8,0.2-1.1,0.5l-21.4,21.4h-5.6c-0.6,0-1.2,0.4-1.4,0.9v-4h7.7c0.4,0,0.8-0.2,1.1-0.5l6.3-6.3c0.3-0.3,0.5-0.7,0.5-1.1
			c0-0.4-0.2-0.8-0.5-1.1c-0.3-0.3-0.7-0.5-1.1-0.5c-0.4,0-0.8,0.2-1.1,0.5l-5.8,5.8h-7v-3.1h7.7c0.4,0,0.8-0.2,1.1-0.5l12.5-12.5
			l0,0l0,0l9.5-9.5h8.1l-7.2,7.2c-0.3,0.3-0.5,0.7-0.5,1.1c0,0.4,0.2,0.8,0.5,1.1c0.3,0.3,0.7,0.5,1.1,0.5c0.4,0,0.8-0.2,1.1-0.5
			l9.5-9.5H207.4 M171.3,139c0.4,0,0.8-0.2,1.1-0.5l6.3-6.3c0.3-0.3,0.5-0.7,0.5-1.1c0-0.4-0.2-0.8-0.5-1.1
			c-0.3-0.3-0.7-0.5-1.1-0.5c-0.4,0-0.8,0.2-1.1,0.5l-6.3,6.3c-0.6,0.6-0.6,1.6,0,2.2C170.5,138.9,170.9,139,171.3,139 M183.8,139
			c0.4,0,0.8-0.2,1.1-0.5l5.8-5.8l8.2,0l0.2,0l3.5,0c0.9,0,1.6-0.7,1.6-1.6c0-0.9-0.7-1.6-1.6-1.6h-3.7l-8.8,0c0,0-0.1,0-0.1,0
			c-0.4,0-0.8,0.2-1.1,0.5l-6.3,6.3c-0.3,0.3-0.5,0.7-0.5,1.1c0,0.4,0.2,0.8,0.5,1.1C183,138.9,183.4,139,183.8,139 M173.5,143.8
			v5.5v0.8h0.8h0.9l-11.3,11.3c-0.6,0.6-0.6,1.6,0,2.2c0.3,0.3,0.7,0.5,1.1,0.5c0.4,0,0.8-0.2,1.1-0.5l13.5-13.5h8.1l-5.1,5.1
			c-0.3,0.3-0.5,0.7-0.5,1.1s0.2,0.8,0.5,1.1c0.3,0.3,0.7,0.5,1.1,0.5c0.4,0,0.8-0.2,1.1-0.5l7.3-7.3h1.8l-2.7,2.7
			c-0.6,0.6-0.6,1.6,0,2.2c0.3,0.3,0.7,0.5,1.1,0.5c0.4,0,0.8-0.2,1.1-0.5l4.9-4.9h13.3v1l-3.6,3.6h-5.6c-0.9,0-1.6,0.7-1.6,1.6
			c0,0.9,0.7,1.6,1.6,1.6h6.3c0.4,0,0.8-0.2,1.1-0.5l1.8-1.8v1.8l-3.6,3.6h-11.9c-0.4,0-0.8,0.2-1.1,0.5l-5.3,5.3h-1.8l9.3-9.3
			c0.6-0.6,0.6-1.6,0-2.2c-0.3-0.3-0.7-0.5-1.1-0.5c-0.4,0-0.8,0.2-1.1,0.5l-11.6,11.6h-1.8c0,0,0,0,0,0l6.3-6.3
			c0.3-0.3,0.5-0.7,0.5-1.1c0-0.4-0.2-0.8-0.5-1.1c-0.3-0.3-0.7-0.5-1.1-0.5c-0.4,0-0.8,0.2-1.1,0.5l-6.3,6.3
			c-0.3,0.3-0.5,0.7-0.5,1.1c0,0.4,0.2,0.8,0.5,1.1c0,0,0,0,0,0h-4l6.9-7c0.3-0.3,0.5-0.7,0.5-1.1c0-0.4-0.2-0.8-0.5-1.1
			c-0.3-0.3-0.7-0.5-1.1-0.5c-0.4,0-0.8,0.2-1.1,0.5l-9.1,9.2h-1.9l3.1-3.1c0.3-0.3,0.5-0.7,0.5-1.1c0-0.4-0.2-0.8-0.5-1.1
			c-0.3-0.3-0.7-0.5-1.1-0.5c-0.4,0-0.8,0.2-1.1,0.5l-5.3,5.3h-13.8v-2.6h7.7c0.4,0,0.8-0.2,1.1-0.5l6.3-6.3c0.6-0.6,0.6-1.6,0-2.2
			c-0.3-0.3-0.7-0.5-1.1-0.5c-0.4,0-0.8,0.2-1.1,0.5l-5.8,5.8h-7v-4c0.3,0.5,0.8,0.9,1.4,0.9h6.3c0.4,0,0.8-0.2,1.1-0.5L173.5,143.8
			 M174.7,160.7c0.4,0,0.8-0.2,1.1-0.5l6.3-6.3c0.3-0.3,0.5-0.7,0.5-1.1s-0.2-0.8-0.5-1.1c-0.3-0.3-0.7-0.5-1.1-0.5
			c-0.4,0-0.8,0.2-1.1,0.5l-6.3,6.3c-0.3,0.3-0.5,0.7-0.5,1.1c0,0.4,0.2,0.8,0.5,1.1C173.9,160.5,174.3,160.7,174.7,160.7
			 M208.2,122.1h-14.2l-9.7,9.7c-0.2,0.2-0.4,0.2-0.6,0.2c-0.2,0-0.4-0.1-0.6-0.2c-0.3-0.3-0.3-0.8,0-1.1l8.6-8.6h-10.3l-9.7,9.7
			c0,0,0,0,0,0l-12.5,12.5c-0.1,0.1-0.3,0.2-0.6,0.2h-8.5v4.7h8.2l6-6c0.2-0.2,0.4-0.2,0.6-0.2c0.2,0,0.4,0.1,0.6,0.2
			c0.3,0.3,0.3,0.8,0,1.1l-6.3,6.3c-0.1,0.1-0.3,0.2-0.6,0.2h-8.5v10.9h8.2l6-6c0.2-0.2,0.4-0.2,0.6-0.2c0.2,0,0.4,0.1,0.6,0.2
			c0.3,0.3,0.3,0.8,0,1.1l-6.3,6.3c-0.1,0.1-0.3,0.2-0.6,0.2h-8.5v4.2h14.9l5.5-5.5c0.2-0.2,0.4-0.2,0.6-0.2c0.2,0,0.4,0.1,0.6,0.2
			c0.3,0.3,0.3,0.8,0,1.1l-4.4,4.4h4.1c0,0,0,0,0,0l9.3-9.4c0.2-0.2,0.4-0.2,0.6-0.2c0.2,0,0.4,0.1,0.6,0.2c0.3,0.3,0.3,0.8,0,1.1
			l-8.2,8.3H184l11.8-11.8c0.2-0.2,0.4-0.2,0.6-0.2c0.2,0,0.4,0.1,0.6,0.2c0.3,0.3,0.3,0.8,0,1.1l-10.7,10.7h4l5.5-5.5
			c0.1-0.1,0.3-0.2,0.6-0.2h12.2l4.1-4.1v-4l-3.2,3.2c-0.1,0.1-0.3,0.2-0.6,0.2h-6.3c-0.4,0-0.8-0.4-0.8-0.8s0.3-0.8,0.8-0.8h5.9
			l4.1-4.1v-2.1h-14.4l-5.2,5.2c-0.2,0.2-0.4,0.2-0.6,0.2c-0.2,0-0.4-0.1-0.6-0.2c-0.3-0.3-0.3-0.8,0-1.1l4-4h-4l-7.5,7.5
			c-0.2,0.2-0.4,0.2-0.6,0.2c-0.2,0-0.4-0.1-0.6-0.2c-0.3-0.3-0.3-0.8,0-1.1l6.4-6.4h-10.3L165.6,163c-0.2,0.2-0.4,0.2-0.6,0.2
			c-0.2,0-0.4-0.1-0.6-0.2c-0.3-0.3-0.3-0.8,0-1.1l12.7-12.7h-2.9v-7.4l-15,14.9c-0.1,0.1-0.3,0.2-0.6,0.2h-6.3
			c-0.4,0-0.8-0.4-0.8-0.8s0.3-0.8,0.8-0.8h5.9l21.7-21.6c0.2-0.2,0.4-0.2,0.6-0.2c0.2,0,0.4,0.1,0.6,0.2c0.3,0.3,0.3,0.8,0,1.1
			l-5.3,5.3h10.3l6.5-6.4c0.2-0.2,0.4-0.2,0.6-0.2c0.2,0,0.4,0.1,0.6,0.2c0.3,0.3,0.3,0.8,0,1.1l-5.4,5.3h4l3.4-3.4
			c0.1-0.1,0.3-0.2,0.6-0.2h5.9l6-6v-5h-11.9c-0.4,0-0.8-0.3-0.8-0.8c0-0.4,0.4-0.8,0.8-0.8h11.9V122.1L208.2,122.1z M171.3,138.2
			c-0.2,0-0.4-0.1-0.6-0.2c-0.3-0.3-0.3-0.8,0-1.1l6.3-6.3c0.2-0.2,0.4-0.2,0.6-0.2c0.2,0,0.4,0.1,0.6,0.2c0.3,0.3,0.3,0.8,0,1.1
			l-6.3,6.3C171.7,138.2,171.5,138.2,171.3,138.2L171.3,138.2z M183.8,138.2c-0.2,0-0.4-0.1-0.6-0.2c-0.3-0.3-0.3-0.8,0-1.1l6.3-6.3
			c0.2-0.2,0.3-0.2,0.5-0.2c0,0,0,0,0.1,0l8.8,0h0h3.7c0.4,0,0.8,0.3,0.8,0.8c0,0.4-0.3,0.8-0.8,0.8l-3.7,0l0,0l-8.5,0l-6,6
			C184.2,138.2,184,138.2,183.8,138.2L183.8,138.2z M174.7,159.9c-0.2,0-0.4-0.1-0.6-0.2c-0.3-0.3-0.3-0.8,0-1.1l6.3-6.3
			c0.2-0.2,0.4-0.2,0.6-0.2c0.2,0,0.4,0.1,0.6,0.2c0.3,0.3,0.3,0.8,0,1.1l-6.3,6.3C175.1,159.8,174.9,159.9,174.7,159.9L174.7,159.9
			z M180.8,166.3c-0.2,0-0.4-0.1-0.6-0.2c-0.3-0.3-0.3-0.8,0-1.1l6.3-6.3c0.2-0.2,0.4-0.2,0.6-0.2c0.2,0,0.4,0.1,0.6,0.2
			c0.3,0.3,0.3,0.8,0,1.1l-6.3,6.3C181.2,166.2,181,166.3,180.8,166.3L180.8,166.3z"/>
		<path class="st0" d="M210.8,95.7l-2.6,2.6h-11.9c-0.4,0-0.8,0.2-1.1,0.5l-6.3,6.3c-0.6,0.6-0.6,1.6,0,2.2c0.3,0.3,0.7,0.5,1.1,0.5
			c0.4,0,0.8-0.2,1.1-0.5l5.8-5.8h11.9c0.4,0,0.8-0.2,1.1-0.5l0.9-0.9v1.8l-2.7,2.7h-5.6c-0.9,0-1.6,0.7-1.6,1.6
			c0,0.9,0.7,1.6,1.6,1.6h6.3c0.4,0,0.8-0.2,1.1-0.5l0.9-0.9v6h-18.5l5.1-5.1c0.3-0.3,0.5-0.7,0.5-1.1c0-0.4-0.2-0.8-0.5-1.1
			c-0.3-0.3-0.7-0.5-1.1-0.5c-0.4,0-0.8,0.2-1.1,0.5l-7.3,7.3h-1.8l2-2c0.3-0.3,0.5-0.7,0.5-1.1c0-0.4-0.2-0.8-0.5-1.1
			c-0.3-0.3-0.7-0.5-1.1-0.5c-0.4,0-0.8,0.2-1.1,0.5l-4.3,4.3h-7.4h-0.8v0.8v7.4l-9.6,9.6c-0.3,0.3-0.5,0.7-0.5,1.1
			c0,0.4,0.2,0.8,0.5,1.1c0.3,0.3,0.7,0.5,1.1,0.5c0.4,0,0.8-0.2,1.1-0.5l9.5-9.5h1.8l-7.2,7.2l0,0l-0.1,0.1l-12,12.1h-7V139h1.4
			c0.4,0,0.8-0.2,1.1-0.5l6.2-6.2l0,0l0.1-0.1l9.4-9.3c0.6-0.6,0.6-1.6,0-2.2c-0.3-0.3-0.7-0.5-1.1-0.5c-0.4,0-0.8,0.2-1.1,0.5
			l-9.3,9.3l0,0l-0.1,0.1l-5.8,5.8h-0.8v-9.4h7.7c0.4,0,0.8-0.2,1.1-0.5l12.5-12.5c0.6-0.6,0.6-1.6,0-2.2c-0.3-0.3-0.7-0.5-1.1-0.5
			c-0.4,0-0.8,0.2-1.1,0.5l-12,12.1h-7v-3.1h7.7c0.9,0,1.6-0.7,1.6-1.6c0-0.9-0.7-1.6-1.6-1.6h-7.7V114h7.7c0.4,0,0.8-0.2,1.1-0.5
			l6.3-6.3c0.6-0.6,0.6-1.6,0-2.2c-0.3-0.3-0.7-0.5-1.1-0.5c-0.4,0-0.8,0.2-1.1,0.5l-5.8,5.8h-7v-4c0.3,0.5,0.8,0.9,1.4,0.9h6.3
			c0.4,0,0.8-0.2,1.1-0.5l11.6-11.6h1.8l-3.1,3.1c-0.3,0.3-0.5,0.7-0.5,1.1c0,0.4,0.2,0.8,0.5,1.1c0.3,0.3,0.7,0.5,1.1,0.5
			c0.4,0,0.8-0.2,1.1-0.5l5.4-5.3h1.7l-15.6,15.6c-0.6,0.6-0.6,1.6,0,2.2c0.3,0.3,0.7,0.5,1.1,0.5c0.4,0,0.8-0.2,1.1-0.5L184,95.7
			h1.8l-3.1,3.1c-0.3,0.3-0.5,0.7-0.5,1.1c0,0.4,0.2,0.8,0.5,1.1c0.3,0.3,0.7,0.5,1.1,0.5c0.4,0,0.8-0.2,1.1-0.5l5.3-5.3h1.8
			l-9.3,9.3c-0.6,0.6-0.6,1.6,0,2.2c0.3,0.3,0.7,0.5,1.1,0.5c0.4,0,0.8-0.2,1.1-0.5l11.6-11.6H210.8 M174.7,110.6
			c0.4,0,0.8-0.2,1.1-0.5l6.3-6.3c0.3-0.3,0.5-0.7,0.5-1.1c0-0.4-0.2-0.8-0.5-1.1c-0.3-0.3-0.7-0.5-1.1-0.5c-0.4,0-0.8,0.2-1.1,0.5
			l-6.3,6.3c-0.3,0.3-0.5,0.7-0.5,1.1s0.2,0.8,0.5,1.1C173.9,110.4,174.3,110.6,174.7,110.6 M167,95.7l-8.9,8.9h-5.6
			c-0.6,0-1.2,0.4-1.4,0.9v-4h7.7c0.4,0,0.8-0.2,1.1-0.5l5.3-5.3H167 M211.7,94.9h-15.5l-11.8,11.8c-0.2,0.2-0.4,0.2-0.6,0.2
			c-0.2,0-0.4-0.1-0.6-0.2c-0.3-0.3-0.3-0.8,0-1.1L194,94.9h-4l-5.5,5.5c-0.2,0.2-0.4,0.2-0.6,0.2c-0.2,0-0.4-0.1-0.6-0.2
			c-0.3-0.3-0.3-0.8,0-1.1l4.4-4.4h-4l-18,18c-0.2,0.2-0.4,0.2-0.6,0.2c-0.2,0-0.4-0.1-0.6-0.2c-0.3-0.3-0.3-0.8,0-1.1l16.9-16.9h-4
			l-5.6,5.5c-0.2,0.2-0.4,0.2-0.6,0.2c-0.2,0-0.4-0.1-0.6-0.2c-0.3-0.3-0.3-0.8,0-1.1l4.5-4.4h-4.1l-11.8,11.8
			c-0.1,0.1-0.3,0.2-0.6,0.2h-6.3c-0.4,0-0.8-0.4-0.8-0.8c0-0.4,0.3-0.8,0.8-0.8h5.9l10.5-10.5h-4.1l-5.5,5.5
			c-0.1,0.1-0.3,0.2-0.6,0.2h-8.5v10.9h8.2l6-6c0.2-0.2,0.4-0.2,0.6-0.2c0.2,0,0.4,0.1,0.6,0.2c0.3,0.3,0.3,0.8,0,1.1l-6.3,6.3
			c-0.1,0.1-0.3,0.2-0.6,0.2h-8.5v4.7h8.5c0.4,0,0.8,0.3,0.8,0.8c0,0.4-0.4,0.8-0.8,0.8h-8.5v4.7h8.2l12.3-12.3
			c0.2-0.2,0.4-0.2,0.6-0.2c0.2,0,0.4,0.1,0.6,0.2c0.3,0.3,0.3,0.8,0,1.1l-12.5,12.5c-0.1,0.1-0.3,0.2-0.6,0.2h-8.5v10.9h1.9l6-6
			c0,0,0,0,0,0l9.4-9.3c0.2-0.2,0.4-0.2,0.5-0.2c0.2,0,0.4,0.1,0.6,0.2c0.3,0.3,0.3,0.8,0,1.1l-9.4,9.3c0,0,0,0,0,0l-6.2,6.2
			c-0.1,0.1-0.3,0.2-0.6,0.2h-2.2v4.7h8.2l12.3-12.3c0,0,0,0,0,0l8.6-8.6h-4l-9.7,9.7c-0.2,0.2-0.4,0.2-0.6,0.2
			c-0.2,0-0.4-0.1-0.6-0.2c-0.3-0.3-0.3-0.8,0-1.1l9.8-9.8v-7.7h7.7l4.5-4.5c0.2-0.2,0.4-0.2,0.6-0.2c0.2,0,0.4,0.1,0.6,0.2
			c0.3,0.3,0.3,0.8,0,1.1l-3.4,3.4h4l7.5-7.5c0.2-0.2,0.4-0.2,0.6-0.2c0.2,0,0.4,0.1,0.6,0.2c0.3,0.3,0.3,0.8,0,1.1l-6.4,6.4h21.2
			v-8.7l-2.3,2.3c-0.1,0.1-0.3,0.2-0.6,0.2h-6.3c-0.4,0-0.8-0.4-0.8-0.8c0-0.4,0.3-0.8,0.8-0.8h5.9l3.1-3.1v-4l-2.3,2.3
			c-0.1,0.1-0.3,0.2-0.6,0.2h-12.2l-6,6c-0.2,0.2-0.4,0.2-0.6,0.2c-0.2,0-0.4-0.1-0.6-0.2c-0.3-0.3-0.3-0.8,0-1.1l6.3-6.3
			c0.1-0.1,0.3-0.2,0.6-0.2h12.2l3.1-3.1V94.9L211.7,94.9z M174.7,109.8c-0.2,0-0.4-0.1-0.6-0.2c-0.3-0.3-0.3-0.8,0-1.1l6.3-6.3
			c0.2-0.2,0.4-0.2,0.6-0.2c0.2,0,0.4,0.1,0.6,0.2c0.3,0.3,0.3,0.8,0,1.1l-6.3,6.3C175.1,109.7,174.9,109.8,174.7,109.8L174.7,109.8
			z"/>
		<path class="st0" d="M160.7,95.7l-2.6,2.6h-7v-2.6H160.7 M162.7,94.9h-12.4v4.2h8.2L162.7,94.9L162.7,94.9z"/>
		<path class="st0" d="M207.4,134.8v4.6h-10.9l0.4-0.4h5.6c0.4,0,0.8-0.2,1.1-0.5L207.4,134.8 M208.2,132.9l-5.1,5.1
			c-0.1,0.1-0.3,0.2-0.6,0.2h-5.9l-2,2h13.6V132.9L208.2,132.9z"/>
		<path class="st0" d="M211.8,161.8v4.9h-17.4l2.6-2.6h11.9c0.4,0,0.8-0.2,1.1-0.5L211.8,161.8 M212.6,159.8l-3.2,3.2
			c-0.1,0.1-0.3,0.2-0.6,0.2h-12.2l-4.2,4.2h20.1V159.8L212.6,159.8z"/>
	</g>
	<g>
		<path class="st0" d="M253.4,95.7l-3.1,3.1c-0.3,0.3-0.5,0.7-0.5,1.1c0,0.4,0.2,0.8,0.5,1.1c0.3,0.3,0.7,0.5,1.1,0.5
			c0.4,0,0.8-0.2,1.1-0.5l5.2-5.2c0.6,0,1.1,0.1,1.7,0.1l-9.1,9.1c-0.6,0.6-0.6,1.6,0,2.2c0.3,0.3,0.7,0.5,1.1,0.5
			c0.4,0,0.8-0.2,1.1-0.5l10.8-10.8c2.2,0.4,4.3,1,6.2,1.8H264c-0.4,0-0.8,0.2-1.1,0.5l-6.3,6.3c-0.6,0.6-0.6,1.6,0,2.2
			c0.3,0.3,0.7,0.5,1.1,0.5c0.4,0,0.8-0.2,1.1-0.5l5.8-5.8H275c0.4,0.3,0.7,0.6,1,0.8c0.4,0.3,0.7,0.7,1.1,1l-1.3,1.3h-5.6
			c-0.9,0-1.6,0.7-1.6,1.6c0,0.9,0.7,1.6,1.6,1.6h6.3c0.4,0,0.8-0.2,1.1-0.5l1.6-1.6c0.2,0.3,0.5,0.7,0.7,1.1l-4,4H264
			c-0.4,0-0.8,0.2-1.1,0.5l-3.2,3.2c-0.3-0.3-0.6-0.5-1-0.8l6.4-6.4c0.6-0.6,0.6-1.6,0-2.2c-0.3-0.3-0.7-0.5-1.1-0.5
			s-0.8,0.2-1.1,0.5l-7.5,7.5c-0.5-0.1-1.1-0.1-1.6-0.2l2-2c0.3-0.3,0.5-0.7,0.5-1.1c0-0.4-0.2-0.8-0.5-1.1
			c-0.3-0.3-0.7-0.5-1.1-0.5c-0.4,0-0.8,0.2-1.1,0.5l-4.3,4.3h-4.7h-0.8v0.8v4.7l-12.2,12.2c-0.3,0.3-0.5,0.7-0.5,1.1
			c0,0.4,0.2,0.8,0.5,1.1c0.3,0.3,0.7,0.5,1.1,0.5c0.4,0,0.8-0.2,1.1-0.5l10-10v1.8l-5.9,5.9l0,0l-0.1,0.1l-12.1,12.1h-4.4v-3.6
			l6.1-6.1l0,0l0,0l9.4-9.3c0.6-0.6,0.6-1.6,0-2.2c-0.3-0.3-0.7-0.5-1.1-0.5c-0.4,0-0.8,0.2-1.1,0.5l-9.3,9.3l0,0l-0.1,0.1l-4,4
			v-7.5h5.1c0.4,0,0.8-0.2,1.1-0.5l12.5-12.5c0.6-0.6,0.6-1.6,0-2.2c-0.3-0.3-0.7-0.5-1.1-0.5c-0.4,0-0.8,0.2-1.1,0.5l-12.1,12.1
			h-4.4v-3.1h5.1c0.9,0,1.6-0.7,1.6-1.6c0-0.9-0.7-1.6-1.6-1.6h-5.1V114h5.1c0.4,0,0.8-0.2,1.1-0.5l6.3-6.3c0.6-0.6,0.6-1.6,0-2.2
			c-0.3-0.3-0.7-0.5-1.1-0.5s-0.8,0.2-1.1,0.5l-5.8,5.8h-4.4v-3.1h5.1c0.4,0,0.8-0.2,1.1-0.5l11.6-11.6h1.8l-3.1,3.1
			c-0.3,0.3-0.5,0.7-0.5,1.1c0,0.4,0.2,0.8,0.5,1.1c0.3,0.3,0.7,0.5,1.1,0.5c0.4,0,0.8-0.2,1.1-0.5l5.4-5.3h1.7l-15.6,15.6
			c-0.6,0.6-0.6,1.6,0,2.2c0.3,0.3,0.7,0.5,1.1,0.5c0.4,0,0.8-0.2,1.1-0.5l17.8-17.8H253.4 M242.3,110.6c0.4,0,0.8-0.2,1.1-0.5
			l6.3-6.3c0.3-0.3,0.5-0.7,0.5-1.1c0-0.4-0.2-0.8-0.5-1.1c-0.3-0.3-0.7-0.5-1.1-0.5c-0.4,0-0.8,0.2-1.1,0.5l-6.3,6.3
			c-0.6,0.6-0.6,1.6,0,2.2C241.5,110.4,241.9,110.6,242.3,110.6 M254.6,94.9h-3.3l-18,18c-0.2,0.2-0.4,0.2-0.6,0.2
			c-0.2,0-0.4-0.1-0.6-0.2c-0.3-0.3-0.3-0.8,0-1.1l16.9-16.9h-4l-5.6,5.5c-0.2,0.2-0.4,0.2-0.6,0.2c-0.2,0-0.4-0.1-0.6-0.2
			c-0.3-0.3-0.3-0.8,0-1.1l4.5-4.4h-4.1L227,106.7c-0.1,0.1-0.3,0.2-0.6,0.2h-5.9v4.7h5.5l6-6c0.2-0.2,0.4-0.2,0.6-0.2
			c0.2,0,0.4,0.1,0.6,0.2c0.3,0.3,0.3,0.8,0,1.1L227,113c-0.1,0.1-0.3,0.2-0.6,0.2h-5.9v4.7h5.9c0.4,0,0.8,0.3,0.8,0.8
			c0,0.4-0.4,0.8-0.8,0.8h-5.9v4.7h5.5l12.3-12.3c0.2-0.2,0.4-0.2,0.6-0.2c0.2,0,0.4,0.1,0.6,0.2c0.3,0.3,0.3,0.8,0,1.1L227,125.5
			c-0.1,0.1-0.3,0.2-0.6,0.2h-5.9V136l5.3-5.3c0,0,0,0,0,0l9.4-9.3c0.2-0.2,0.4-0.2,0.5-0.2c0.2,0,0.4,0.1,0.6,0.2
			c0.3,0.3,0.3,0.8,0,1.1l-9.4,9.3c0,0,0,0,0,0l-6.2,6.2c0,0-0.1,0.1-0.2,0.1v4.8h5.5l12.3-12.3c0,0,0,0,0,0l6.2-6.2v-4l-11.3,11.3
			c-0.2,0.2-0.4,0.2-0.6,0.2c-0.2,0-0.4-0.1-0.6-0.2c-0.3-0.3-0.3-0.8,0-1.1l12.4-12.4v-5.1h5.1l4.5-4.5c0.2-0.2,0.4-0.2,0.6-0.2
			c0.2,0,0.4,0.1,0.6,0.2c0.3,0.3,0.3,0.8,0,1.1l-3.4,3.4h1.5c0.8,0,1.6,0.1,2.3,0.2l7.8-7.8c0.2-0.2,0.4-0.2,0.6-0.2
			c0.2,0,0.4,0.1,0.6,0.2c0.3,0.3,0.3,0.8,0,1.1l-7.2,7.2c0.8,0.4,1.5,0.8,2.1,1.5c0.1,0.1,0.2,0.2,0.2,0.3l3.8-3.8
			c0.1-0.1,0.3-0.2,0.6-0.2h12.2l4.7-4.7c-0.5-0.8-1-1.6-1.6-2.4l-2.2,2.2c-0.1,0.1-0.3,0.2-0.6,0.2h-6.3c-0.4,0-0.8-0.4-0.8-0.8
			c0-0.4,0.3-0.8,0.8-0.8h5.9l2.1-2c-0.5-0.6-1.1-1.1-1.7-1.6c-0.4-0.4-0.8-0.7-1.3-1h-11l-6,6c-0.2,0.2-0.4,0.2-0.6,0.2
			c-0.2,0-0.4-0.1-0.6-0.2c-0.3-0.3-0.3-0.8,0-1.1l6.3-6.3c0.1-0.1,0.3-0.2,0.6-0.2h9c-2.8-1.6-6.1-2.8-9.8-3.5L252,106.7
			c-0.2,0.2-0.4,0.2-0.6,0.2c-0.2,0-0.4-0.1-0.6-0.2c-0.3-0.3-0.3-0.8,0-1.1l10.3-10.3c-1.2-0.2-2.4-0.3-3.7-0.3l-5.5,5.5
			c-0.2,0.2-0.4,0.2-0.6,0.2c-0.2,0-0.4-0.1-0.6-0.2c-0.3-0.3-0.3-0.8,0-1.1l4.4-4.4C255.1,95,254.8,94.9,254.6,94.9L254.6,94.9z
			 M242.3,109.8c-0.2,0-0.4-0.1-0.6-0.2c-0.3-0.3-0.3-0.8,0-1.1l6.3-6.3c0.2-0.2,0.4-0.2,0.6-0.2c0.2,0,0.4,0.1,0.6,0.2
			c0.3,0.3,0.3,0.8,0,1.1l-6.3,6.3C242.7,109.7,242.5,109.8,242.3,109.8L242.3,109.8z"/>
		<path class="st0" d="M228.4,95.7l-2.6,2.6h-4.4v-2.6H228.4 M230.3,94.9h-9.7v4.2h5.5L230.3,94.9L230.3,94.9z"/>
		<path class="st0" d="M243.8,159.9v6.8H237l2.8-2.8l0.2,0l0.2-0.3L243.8,159.9 M244.6,158l-5.1,5.1l0,0l-4.4,4.4h9.5V158L244.6,158
			z"/>
		<path class="st0" d="M281.4,109.7c0.8,1.9,1.4,4,1.7,6.3l-7.3,7.3H264c-0.9,0-1.6,0.7-1.6,1.6c0,0.9,0.7,1.6,1.6,1.6h12.5
			c0.4,0,0.8-0.2,1.1-0.5l5.9-5.9c0,0.3,0,0.5,0,0.7c0,0.4,0,0.8,0,1.1l-8,7.9l0,0l-0.1,0.1l-5.8,5.8H264c-0.4,0-0.8,0.2-1.1,0.5
			l-11.5,11.5h-6.8h-0.8v0.8v6.8l-8.9,8.9h-0.3l-0.1,0.4l-2,2h-11.2v-2.6h5.1c0.4,0,0.8-0.2,1.1-0.5l6.3-6.3c0.6-0.6,0.6-1.6,0-2.2
			c-0.3-0.3-0.7-0.5-1.1-0.5s-0.8,0.2-1.1,0.5l-5.8,5.8h-4.4v-3.1h5.1c0.4,0,0.8-0.2,1.1-0.5l21.9-21.8c0.3-0.3,0.5-0.7,0.5-1.1
			c0-0.4-0.2-0.8-0.5-1.1c-0.3-0.3-0.7-0.5-1.1-0.5c-0.4,0-0.8,0.2-1.1,0.5l-21.4,21.4h-4.4v-3.1h5.1c0.4,0,0.8-0.2,1.1-0.5l6.3-6.3
			c0.3-0.3,0.5-0.7,0.5-1.1c0-0.4-0.2-0.8-0.5-1.1c-0.3-0.3-0.7-0.5-1.1-0.5s-0.8,0.2-1.1,0.5l-5.8,5.8h-4.4v-3.1h5.1
			c0.4,0,0.8-0.2,1.1-0.5l12.5-12.5l0,0l0,0l3.7-3.7v1.8v0.8h0.8h8.8c0.8,0,1.6-0.1,2.3-0.2l-5.3,5.3c-0.3,0.3-0.5,0.7-0.5,1.1
			c0,0.4,0.2,0.8,0.5,1.1c0.3,0.3,0.7,0.5,1.1,0.5c0.4,0,0.8-0.2,1.1-0.5l5.8-5.8l8.2,0l0.2,0l3.5,0c0.9,0,1.6-0.7,1.6-1.6
			c0-0.9-0.7-1.6-1.6-1.6h-3.7l-7.7,0c0.4-0.3,0.8-0.6,1.1-1c1.4-1.5,2.1-3.5,2.3-6l2.3-2.3h11.9c0.9,0,1.6-0.7,1.6-1.6
			c0-0.9-0.7-1.6-1.6-1.6H264c-0.4,0-0.8,0.2-1.1,0.5l-0.9,0.9c-0.1-0.5-0.3-0.9-0.5-1.3l3.1-3.1h11.9c0.4,0,0.8-0.2,1.1-0.5
			L281.4,109.7 M251.4,145.3c0.4,0,0.8-0.2,1.1-0.5l9.4-9.3c0.3-0.3,0.5-0.7,0.5-1.1c0-0.4-0.2-0.8-0.5-1.1
			c-0.3-0.3-0.7-0.5-1.1-0.5c-0.4,0-0.8,0.2-1.1,0.5l-9.4,9.3c-0.3,0.3-0.5,0.7-0.5,1.1c0,0.4,0.2,0.8,0.5,1.1
			C250.6,145.1,251,145.3,251.4,145.3 M238.9,151.6c0.4,0,0.8-0.2,1.1-0.5l9.4-9.3c0.3-0.3,0.5-0.7,0.5-1.1c0-0.4-0.2-0.8-0.5-1.1
			c-0.3-0.3-0.7-0.5-1.1-0.5c-0.4,0-0.8,0.2-1.1,0.5l-9.4,9.3c-0.3,0.3-0.5,0.7-0.5,1.1c0,0.4,0.2,0.8,0.5,1.1
			C238.1,151.4,238.5,151.6,238.9,151.6 M281.6,108.4L277,113c-0.1,0.1-0.3,0.2-0.6,0.2h-12.2l-3.8,3.8c0.5,0.9,0.8,1.9,0.9,3.1l2-2
			c0.1-0.1,0.3-0.2,0.6-0.2h12.5c0.4,0,0.8,0.3,0.8,0.8c0,0.4-0.4,0.8-0.8,0.8h-12.2l-2.8,2.8c-0.1,2.5-0.8,4.4-2.1,5.9
			c-1.4,1.6-3.4,2.3-6.1,2.3h-8.8v-3.7l-5.1,5.1c0,0,0,0,0,0L227,144.3c-0.1,0.1-0.3,0.2-0.6,0.2h-5.9v4.7h5.5l6-6
			c0.2-0.2,0.4-0.2,0.6-0.2c0.2,0,0.4,0.1,0.6,0.2c0.3,0.3,0.3,0.8,0,1.1l-6.3,6.3c-0.1,0.1-0.3,0.2-0.6,0.2h-5.9v4.7h5.5l21.7-21.6
			c0.2-0.2,0.4-0.2,0.6-0.2c0.2,0,0.4,0.1,0.6,0.2c0.3,0.3,0.3,0.8,0,1.1L227,156.8c-0.1,0.1-0.3,0.2-0.6,0.2h-5.9v4.7h5.5l6-6
			c0.2-0.2,0.4-0.2,0.6-0.2c0.2,0,0.4,0.1,0.6,0.2c0.3,0.3,0.3,0.8,0,1.1L227,163c-0.1,0.1-0.3,0.2-0.6,0.2h-5.9v4.2h12.3l2.3-2.3
			l0,0l9.4-9.4v-7.1h7.1l11.7-11.7c0.1-0.1,0.3-0.2,0.6-0.2h5.9l6-6c0,0,0,0,0,0l8.3-8.2c0-0.5,0-1,0-1.5c0-0.9,0-1.7-0.1-2.6
			l-7.2,7.2c-0.1,0.1-0.3,0.2-0.6,0.2H264c-0.4,0-0.8-0.3-0.8-0.8c0-0.4,0.4-0.8,0.8-0.8h12.2l7.8-7.8
			C283.6,113.4,282.8,110.7,281.6,108.4L281.6,108.4z M251.4,138.2c-0.2,0-0.4-0.1-0.6-0.2c-0.3-0.3-0.3-0.8,0-1.1l6.3-6.3
			c0.2-0.2,0.4-0.2,0.5-0.2c0,0,0,0,0.1,0l8.8,0h0h3.7c0.4,0,0.8,0.3,0.8,0.8c0,0.4-0.3,0.8-0.8,0.8l-3.7,0l0,0l-8.5,0l-6,6
			C251.8,138.2,251.6,138.2,251.4,138.2L251.4,138.2z M251.4,144.5c-0.2,0-0.4-0.1-0.6-0.2c-0.3-0.3-0.3-0.8,0-1.1l9.4-9.3
			c0.2-0.2,0.4-0.2,0.6-0.2c0.2,0,0.4,0.1,0.6,0.2c0.3,0.3,0.3,0.8,0,1.1l-9.4,9.3C251.8,144.4,251.6,144.5,251.4,144.5L251.4,144.5
			z M238.9,150.8c-0.2,0-0.4-0.1-0.6-0.2c-0.3-0.3-0.3-0.8,0-1.1l9.4-9.3c0.2-0.2,0.4-0.2,0.5-0.2c0.2,0,0.4,0.1,0.6,0.2
			c0.3,0.3,0.3,0.8,0,1.1l-9.4,9.3C239.3,150.7,239.1,150.8,238.9,150.8L238.9,150.8z"/>
		<path class="st0" d="M234.6,95.7l-8.9,8.9h-4.4v-3.1h5.1c0.4,0,0.8-0.2,1.1-0.5l5.3-5.3H234.6 M236.6,94.9h-4.1l-5.5,5.5
			c-0.1,0.1-0.3,0.2-0.6,0.2h-5.9v4.7h5.5L236.6,94.9L236.6,94.9z"/>
		<path class="st0" d="M283,127c-0.9,5.7-3.3,10.3-7,13.8c-0.5,0.5-1,0.9-1.6,1.4H264c-0.4,0-0.8,0.2-1.1,0.5l-5.2,5.2
			c-0.6,0-1.2,0.1-1.9,0.1l8.8-8.8h5.6c0.4,0,0.8-0.2,1.1-0.5l6.2-6.2l0,0l0,0L283,127 M284.1,124.8l-7.1,7c0,0,0,0,0,0l-6.2,6.2
			c-0.1,0.1-0.3,0.2-0.6,0.2h-5.9l-10.4,10.4h0.7c1.2,0,2.3,0,3.4-0.1l5.4-5.4c0.1-0.1,0.3-0.2,0.6-0.2h10.7c0.7-0.5,1.3-1,1.9-1.6
			C280.9,137.2,283.4,131.7,284.1,124.8L284.1,124.8z"/>
		<path class="st0" d="M268.9,145.3c-1.9,0.8-3.9,1.4-6.2,1.8l1.8-1.8H268.9 M272.3,144.5h-8l-3.8,3.8
			C265,147.7,269,146.5,272.3,144.5L272.3,144.5z"/>
	</g>
	<g>
		<path class="st0" d="M66.4,107.4l-5.9,12.5c-1.4-0.8-2.8-1.5-4.3-2.2l2.6-2.6L66.4,107.4 M69.1,103.6l-10.8,10.8l-3.4,3.4
			c2.1,1,4.1,2,6,3.1L69.1,103.6L69.1,103.6z"/>
		<path class="st0" d="M61.8,99.5c1.9,0.8,3.7,1.7,5.4,2.6l-10.6,10.6l-3.5,3.5c-1.8-0.8-3.5-1.4-5.1-2c-1.9-0.7-3.8-1.3-5.5-1.7
			l3.4-3.4h5.6c0.4,0,0.8-0.2,1.1-0.5L61.8,99.5 M61.6,98.6l-9.6,9.5c-0.1,0.1-0.3,0.2-0.6,0.2h-5.9l-4.6,4.6c2,0.4,4.3,1.1,6.8,2
			c1.9,0.7,3.8,1.4,5.6,2.2l3.9-3.9L68.5,102C66.3,100.7,64,99.6,61.6,98.6L61.6,98.6z"/>
		<path class="st0" d="M37,94.8l-4.6,4.6l-0.1,0.1l0,0l-7,7c-0.6,0.6-0.6,1.6,0,2.2c0.3,0.3,0.7,0.5,1.1,0.5c0.4,0,0.8-0.2,1.1-0.5
			l7.2-7.2l4-4l2.7-2.7c4.1,0.2,8.3,0.9,12.3,2l-2.9,2.9H38.9c-0.4,0-0.8,0.2-1.1,0.5l-6.3,6.3c-0.6,0.6-0.6,1.6,0,2.2
			c0.3,0.3,0.7,0.5,1.1,0.5c0.4,0,0.8-0.2,1.1-0.5l5.8-5.8h11.9c0.4,0,0.8-0.2,1.1-0.5l4.6-4.6c0.4,0.1,0.9,0.3,1.3,0.5l-7.7,7.7
			h-5.6c-0.1,0-0.3,0-0.4,0.1c-0.1,0-0.1,0-0.2,0.1c-0.2,0.1-0.4,0.2-0.5,0.3l-5.3,5.3c-1.1-0.1-2-0.2-2.9-0.2c-4.3,0-5.2,2.2-5.2,4
			c0,1.2,0.4,2.2,1.2,3.1l-2.5,2.5l-1.3,1.3l-2.7,2.7l-2.2,2.2l-4,4c-0.6,0.6-0.6,1.6,0,2.2c0.3,0.3,0.7,0.5,1.1,0.5
			c0.4,0,0.8-0.2,1.1-0.5l4-4l2.2-2.2l2.7-2.7l1.3-1.3l3-3c0.4,0.2,0.8,0.3,1.3,0.5l-10.6,10.6c-0.3,0.3-0.5,0.7-0.5,1.1
			c0,0.4,0.2,0.8,0.5,1.1c0.3,0.3,0.7,0.5,1.1,0.5c0.4,0,0.8-0.2,1.1-0.5L39.2,122c1.2,0.4,2.5,0.7,3.9,1.1c0.8,0.2,1.6,0.4,2.3,0.7
			l-3.7,3.7c-0.6,0.6-0.6,1.6,0,2.2c0.3,0.3,0.7,0.5,1.1,0.5c0.4,0,0.8-0.2,1.1-0.5l4.9-4.9c2.2,0.7,4.2,1.4,6,2.1l-4.4,4.4l0,0
			l-0.1,0.1l-5.8,5.8h-5.6c-0.4,0-0.8,0.2-1.1,0.5l-2.6,2.6c-0.4-0.1-0.9-0.2-1.4-0.4l3.1-3.1c0.3-0.3,0.5-0.7,0.5-1.1
			c0-0.4-0.2-0.8-0.5-1.1c-0.3-0.3-0.7-0.5-1.1-0.5c-0.4,0-0.8,0.2-1.1,0.5l-4.4,4.4c-0.5-0.1-1-0.3-1.4-0.4l4.5-4.5l8.2,0l0.2,0
			l3.5,0c0.9,0,1.6-0.7,1.6-1.6c0-0.9-0.7-1.6-1.6-1.6h-3.7l-8.8,0c0,0-0.1,0-0.1,0c-0.4,0-0.8,0.2-1.1,0.5l-6.1,6.1
			c-2.1-0.7-4-1.4-5.6-2c-1.5-0.6-2.9-1.4-4.3-2.4l12-12c0.3-0.3,0.5-0.7,0.5-1.1c0-0.4-0.2-0.8-0.5-1.1c-0.3-0.3-0.7-0.5-1.1-0.5
			c-0.4,0-0.8,0.2-1.1,0.5l-12.2,12.2c-0.3-0.3-0.6-0.6-0.9-0.9l9.1-9.1c0.6-0.6,0.6-1.6,0-2.2c-0.3-0.3-0.7-0.5-1.1-0.5
			c-0.4,0-0.8,0.2-1.1,0.5l-8.8,8.8c-1.1-1.7-1.8-3.7-2.2-5.9l7-7c0.6-0.6,0.6-1.6,0-2.2c-0.3-0.3-0.7-0.5-1.1-0.5
			c-0.4,0-0.8,0.2-1.1,0.5l-5.1,5.1c0-2.1,0.3-4,0.7-5.9c0.1,0.3,0.2,0.5,0.4,0.7c0.3,0.3,0.7,0.5,1.1,0.5c0.4,0,0.8-0.2,1.1-0.5
			l6.3-6.3c0.3-0.3,0.5-0.7,0.5-1.1c0-0.4-0.2-0.8-0.5-1.1c-0.3-0.3-0.7-0.5-1.1-0.5c-0.4,0-0.8,0.2-1.1,0.5L9,110.3
			c0.6-1.6,1.4-3.2,2.4-4.6c2.4-3.4,5.8-6,10.1-7.9l-2.2,2.2c-0.3,0.3-0.5,0.7-0.5,1.1c0,0.4,0.2,0.8,0.5,1.1
			c0.3,0.3,0.7,0.5,1.1,0.5c0.4,0,0.8-0.2,1.1-0.5l6.5-6.5c0.7-0.1,1.4-0.3,2.1-0.4l-4.9,4.9c-0.3,0.3-0.5,0.7-0.5,1.1
			c0,0.4,0.2,0.8,0.5,1.1c0.3,0.3,0.7,0.5,1.1,0.5c0.4,0,0.8-0.2,1.1-0.5l7.6-7.6C35.8,94.8,36.5,94.8,37,94.8 M14.7,121
			c0.4,0,0.8-0.2,1.1-0.5l9.3-9.4c0.3-0.3,0.5-0.7,0.5-1.1c0-0.4-0.2-0.8-0.5-1.1c-0.3-0.3-0.7-0.5-1.1-0.5c-0.4,0-0.8,0.2-1.1,0.5
			l-9.3,9.4c-0.6,0.6-0.6,1.6,0,2.2C13.9,120.8,14.3,121,14.7,121 M23.4,118.5c0.4,0,0.8-0.2,1.1-0.5l6.3-6.3
			c0.3-0.3,0.5-0.7,0.5-1.1c0-0.4-0.2-0.8-0.5-1.1c-0.3-0.3-0.7-0.5-1.1-0.5c-0.4,0-0.8,0.2-1.1,0.5l-6.3,6.3
			c-0.6,0.6-0.6,1.6,0,2.2C22.6,118.3,23,118.5,23.4,118.5 M38,93.9c-1.1,0-2.1,0-3.2,0.1l-7.8,7.8c-0.2,0.2-0.4,0.2-0.6,0.2
			c-0.2,0-0.4-0.1-0.6-0.2c-0.3-0.3-0.3-0.8,0-1.1l6.5-6.5c-1.6,0.2-3.2,0.4-4.7,0.7l-6.7,6.6c-0.2,0.2-0.4,0.2-0.6,0.2
			c-0.2,0-0.4-0.1-0.6-0.2c-0.3-0.3-0.3-0.8,0-1.1l4.8-4.7c-1,0.3-2.1,0.7-3,1.1c-4.7,1.9-8.3,4.7-10.9,8.3
			c-2.6,3.6-3.8,7.8-3.8,12.7c0,0.6,0,1.2,0.1,1.8l6.4-6.4c0.2-0.2,0.4-0.2,0.6-0.2c0.2,0,0.4,0.1,0.6,0.2c0.3,0.3,0.3,0.8,0,1.1
			l-7.2,7.2c0.4,2.9,1.4,5.4,2.9,7.4l9.5-9.5c0.2-0.2,0.4-0.2,0.6-0.2c0.2,0,0.4,0.1,0.6,0.2c0.3,0.3,0.3,0.8,0,1.1l-9.6,9.6
			c0.6,0.7,1.3,1.4,2,2l0.2-0.2c0,0,0,0,0,0l12.5-12.5c0.2-0.2,0.4-0.2,0.6-0.2c0.2,0,0.4,0.1,0.6,0.2c0.3,0.3,0.3,0.8,0,1.1
			l-12.5,12.5c0,0,0,0,0,0l-0.1,0.1c1.6,1.2,3.3,2.3,5.2,3c1.8,0.8,3.9,1.5,6.2,2.2c0-0.1,0.1-0.2,0.2-0.2l6.3-6.3
			c0.2-0.2,0.4-0.2,0.5-0.2c0,0,0,0,0.1,0l8.8,0h0h3.7c0.4,0,0.8,0.3,0.8,0.8c0,0.4-0.3,0.8-0.8,0.8l-3.7,0l0,0l-8.5,0l-5.6,5.6
			c1,0.3,2.1,0.6,3.2,0.9l4.8-4.7c0.2-0.2,0.4-0.2,0.6-0.2c0.2,0,0.4,0.1,0.6,0.2c0.3,0.3,0.3,0.8,0,1.1l-4.1,4.1
			c1.1,0.3,2.2,0.6,3.2,0.8l2.9-2.9c0.1-0.1,0.3-0.2,0.6-0.2h5.9l6-6c0,0,0,0,0,0l5.3-5.3c0,0,0,0,0,0c-2.2-0.9-4.7-1.8-7.6-2.8
			l-5.3,5.3c-0.2,0.2-0.4,0.2-0.6,0.2c-0.2,0-0.4-0.1-0.6-0.2c-0.3-0.3-0.3-0.8,0-1.1l4.7-4.7c-1.2-0.4-2.4-0.7-3.6-1.1
			c-1.6-0.4-3.1-0.9-4.4-1.3l-12,12c-0.2,0.2-0.4,0.2-0.6,0.2c-0.2,0-0.4-0.1-0.6-0.2c-0.3-0.3-0.3-0.8,0-1.1l11.5-11.5
			c-1.2-0.4-2.1-0.8-2.9-1.1l-3.4,3.4l-1.3,1.3l-2.7,2.7l-2.2,2.2l-4,4c-0.2,0.2-0.4,0.2-0.6,0.2c-0.2,0-0.4-0.1-0.6-0.2
			c-0.3-0.3-0.3-0.8,0-1.1l4-4l2.2-2.2l2.7-2.7l1.3-1.3l3.1-3.1c-1-0.8-1.6-1.8-1.6-3.1c0-2.1,1.5-3.2,4.4-3.2c1,0,2,0.1,3.1,0.3
			l5.6-5.6c0.1-0.1,0.2-0.1,0.3-0.2c0,0,0.1,0,0.1,0c0.1,0,0.1,0,0.2,0h5.9L60,98c-1-0.4-2-0.7-3-1l-4.9,4.9
			c-0.1,0.1-0.3,0.2-0.6,0.2H39.3l-6,6c-0.2,0.2-0.4,0.2-0.6,0.2c-0.2,0-0.4-0.1-0.6-0.2c-0.3-0.3-0.3-0.8,0-1.1l6.3-6.3
			c0.1-0.1,0.3-0.2,0.6-0.2h12.2l4.1-4.1c-0.1,0-0.2-0.1-0.3-0.1c-4.6-1.3-9.2-2.1-13.8-2.3L38.2,97l-4,4l-7.2,7.2
			c-0.2,0.2-0.4,0.2-0.6,0.2c-0.2,0-0.4-0.1-0.6-0.2c-0.3-0.3-0.3-0.8,0-1.1l7.2-7.2c0,0,0,0,0,0l5.9-5.9C38.6,94,38.3,93.9,38,93.9
			L38,93.9z M10,112.3c-0.2,0-0.4-0.1-0.6-0.2c-0.3-0.3-0.3-0.8,0-1.1l6.3-6.3c0.2-0.2,0.4-0.2,0.6-0.2c0.2,0,0.4,0.1,0.6,0.2
			c0.3,0.3,0.3,0.8,0,1.1l-6.3,6.3C10.4,112.2,10.2,112.3,10,112.3L10,112.3z M14.7,120.2c-0.2,0-0.4-0.1-0.6-0.2
			c-0.3-0.3-0.3-0.8,0-1.1l9.3-9.4c0.2-0.2,0.4-0.2,0.6-0.2c0.2,0,0.4,0.1,0.6,0.2c0.3,0.3,0.3,0.8,0,1.1l-9.3,9.4
			C15.1,120.1,14.9,120.2,14.7,120.2L14.7,120.2z M23.4,117.7c-0.2,0-0.4-0.1-0.6-0.2c-0.3-0.3-0.3-0.8,0-1.1l6.3-6.3
			c0.2-0.2,0.4-0.2,0.6-0.2c0.2,0,0.4,0.1,0.6,0.2c0.3,0.3,0.3,0.8,0,1.1l-6.3,6.3C23.8,117.6,23.6,117.7,23.4,117.7L23.4,117.7z"/>
		<path class="st0" d="M57.9,128.4c0.4,0.2,0.7,0.4,1.1,0.6l-8.7,8.7c-0.3,0.3-0.5,0.7-0.5,1.1c0,0.4,0.2,0.8,0.5,1.1
			c0.3,0.3,0.7,0.5,1.1,0.5c0.4,0,0.8-0.2,1.1-0.5l9-9c0.3,0.3,0.6,0.6,0.9,0.9l-11.7,11.7h-7.4c-0.4-0.3-0.9-0.6-1.5-0.9
			c-0.9-0.4-1.9-0.8-3.2-1.3l0.9-0.9h5.6c0.4,0,0.8-0.2,1.1-0.5l6.2-6.2l0,0l0.1-0.1L57.9,128.4 M57.8,127.5l-5.8,5.7c0,0,0,0,0,0
			l-6.2,6.2c-0.1,0.1-0.3,0.2-0.6,0.2h-5.9l-2.1,2.1c1.8,0.6,3.3,1.1,4.4,1.6c0.6,0.3,1.1,0.6,1.5,1h8l12.3-12.3c0,0,0,0,0,0
			l0.2-0.2c-0.7-0.7-1.4-1.3-2.1-1.9l-9.5,9.5c-0.2,0.2-0.4,0.2-0.6,0.2c-0.2,0-0.4-0.1-0.6-0.2c-0.3-0.3-0.3-0.8,0-1.1l9.3-9.3
			C59.4,128.4,58.6,127.9,57.8,127.5L57.8,127.5z"/>
		<path class="st0" d="M25,148.8c0.4,0.2,0.8,0.3,1.3,0.5l-3.8,3.8l-0.2,0.2l-6,6c-0.6,0.6-0.6,1.6,0,2.2c0.3,0.3,0.7,0.5,1.1,0.5
			c0.4,0,0.8-0.2,1.1-0.5l6-6l0.2-0.2l4.9-4.9c2.4,0.7,4.6,1.2,6.6,1.5l-8.4,8.4l-0.1,0l-0.1,0.1l-6,6c-0.5-0.1-0.9-0.3-1.3-0.4
			l4.9-5c0.3-0.3,0.5-0.7,0.5-1.1c0-0.4-0.2-0.8-0.5-1.1c-0.3-0.3-0.7-0.5-1.1-0.5c-0.4,0-0.8,0.2-1.1,0.5l-6,6.1
			c-2-0.7-3.9-1.5-5.7-2.4L25,148.8 M24.8,147.9L9.9,162.7c2.3,1.2,4.7,2.2,7.3,3.1l6.4-6.4c0.2-0.2,0.4-0.2,0.6-0.2
			c0.2,0,0.4,0.1,0.6,0.2c0.3,0.3,0.3,0.8,0,1.1l-5.8,5.9c0.1,0,0.2,0.1,0.3,0.1c0.9,0.3,1.9,0.6,2.8,0.8c0,0,0-0.1,0.1-0.1l6.3-6.3
			c0,0,0,0,0,0l9.8-9.8c-2.5-0.1-5.4-0.7-8.6-1.7l-5.2,5.2l-0.2,0.2l-6,6c-0.2,0.2-0.4,0.2-0.6,0.2c-0.2,0-0.4-0.1-0.6-0.2
			c-0.3-0.3-0.3-0.8,0-1.1l6-6l0.2-0.2l4.7-4.7C26.8,148.7,25.8,148.3,24.8,147.9C24.8,147.9,24.8,147.9,24.8,147.9L24.8,147.9z"/>
		<path class="st0" d="M64.6,134.2c1.2,1.5,2.1,3.3,2.7,5.3l-10.6,10.6l0,0l-0.1,0.1l-5.8,5.8h-5.6h-6.3c-0.4,0-0.8,0.2-1.1,0.5
			l-6.3,6.3l0,0l0,0l-4.9,4.9c-0.5-0.1-1-0.2-1.5-0.3l4.1-4.1l0.1,0l0.1-0.1l11.2-11.2c1.1-0.2,2-0.5,2.7-1c1.3-0.8,1.9-2.1,1.9-3.7
			c0-0.2,0-0.4,0-0.5h6.2c0.4,0,0.8-0.2,1.1-0.5L64.6,134.2 M64.7,133l-0.1,0.1c0,0,0,0,0,0L52,145.7c-0.1,0.1-0.3,0.2-0.6,0.2h-7.2
			c0.2,0.4,0.3,0.9,0.3,1.3c0,1.4-0.5,2.4-1.6,3.1c-0.7,0.5-1.6,0.7-2.7,0.9l-11.4,11.4c0,0,0,0,0,0l-5.2,5.2
			c1.1,0.3,2.2,0.5,3.3,0.7l5.2-5.2c0,0,0,0,0,0l6.3-6.3c0.1-0.1,0.3-0.2,0.6-0.2h6.3h5.9l6-6c0,0,0,0,0,0l11.1-11
			c-0.6-2.3-1.6-4.4-3.1-6.1C65,133.4,64.8,133.2,64.7,133L64.7,133z"/>
		<path class="st0" d="M16.6,144.7c0.4,0.2,0.8,0.5,1.1,0.7l-4.9,4.9c-0.3,0.3-0.5,0.7-0.5,1.1c0,0.4,0.2,0.8,0.5,1.1
			c0.3,0.3,0.7,0.5,1.1,0.5c0.4,0,0.8-0.2,1.1-0.5l5.6-5.6c0.4,0.2,0.8,0.4,1.2,0.6L8.3,161c-0.4-0.2-0.8-0.4-1.1-0.7l4.2-4.2
			c0.6-0.6,0.6-1.6,0-2.2c-0.3-0.3-0.7-0.5-1.1-0.5c-0.4,0-0.8,0.2-1.1,0.5l-4.7,4.7c-0.4-0.3-0.7-0.5-1-0.7L16.6,144.7 M16.5,143.7
			L2.2,157.9c0.8,0.6,1.5,1.1,2.4,1.7l5.1-5.1c0.2-0.2,0.4-0.2,0.6-0.2c0.2,0,0.4,0.1,0.6,0.2c0.3,0.3,0.3,0.8,0,1.1l-4.9,4.9
			c0.8,0.5,1.7,1,2.6,1.5l14.8-14.8c-0.9-0.4-1.8-0.8-2.7-1.3l-6,6c-0.2,0.2-0.4,0.2-0.5,0.2c-0.2,0-0.4-0.1-0.6-0.2
			c-0.3-0.3-0.3-0.8,0-1.1l5.7-5.6C18.2,144.7,17.3,144.2,16.5,143.7L16.5,143.7z"/>
		<path class="st0" d="M11.4,141c0.8,0.6,1.6,1.3,2.5,1.9l-6.8,6.8L11.4,141 M11.1,139.8l-6.8,13.9l10.9-10.9
			C13.7,141.9,12.3,140.9,11.1,139.8L11.1,139.8z"/>
		<path class="st0" d="M68.1,143.3c0.1,0.6,0.1,1.1,0.1,1.7l-5.3,5.3c-0.3,0.3-0.5,0.7-0.5,1.1c0,0.4,0.2,0.8,0.5,1.1
			c0.3,0.3,0.7,0.5,1.1,0.5c0.4,0,0.8-0.2,1.1-0.5l2.9-2.9c-0.5,3.5-1.7,6.5-3.7,9.1c-2.6,3.4-6.2,6-10.7,7.7
			c-4.5,1.7-9.6,2.5-15.1,2.5c-0.7,0-1.5,0-2.3-0.1l3.4-3.4h11.9c0.4,0,0.8-0.2,1.1-0.5l6.3-6.3c0.3-0.3,0.5-0.7,0.5-1.1
			s-0.2-0.8-0.5-1.1c-0.3-0.3-0.7-0.5-1.1-0.5s-0.8,0.2-1.1,0.5l-5.8,5.8H38.9c-0.4,0-0.8,0.2-1.1,0.5l-5.7,5.7
			c-0.6-0.1-1.1-0.1-1.6-0.2l9.1-9.1h5.5l0,0h0.1h6.3c0.4,0,0.8-0.2,1.1-0.5L68.1,143.3 M68.6,141.6L52,158.2
			c-0.1,0.1-0.3,0.2-0.6,0.2h-6.3c0,0,0,0,0,0h-5.9l-10.5,10.5c1.2,0.2,2.4,0.3,3.6,0.5l6-6c0.1-0.1,0.3-0.2,0.6-0.2h12.2l6-6
			c0.2-0.2,0.4-0.2,0.6-0.2c0.2,0,0.4,0.1,0.6,0.2c0.3,0.3,0.3,0.8,0,1.1l-6.3,6.3c-0.1,0.1-0.3,0.2-0.6,0.2H39.3l-4.9,4.9
			c1.4,0.1,2.7,0.2,4.1,0.2c5.7,0,10.8-0.9,15.4-2.6c4.6-1.7,8.3-4.4,11-7.9c2.5-3.2,3.8-7.1,4-11.7l-4.4,4.4
			c-0.2,0.2-0.4,0.2-0.6,0.2c-0.2,0-0.4-0.1-0.6-0.2c-0.3-0.3-0.3-0.8,0-1.1l5.6-5.5C69,144,68.9,142.8,68.6,141.6L68.6,141.6z"/>
	</g>
	<g>
		<path class="st0" d="M140.4,95.7l-11.1,11.1h-5.6c-0.9,0-1.6,0.7-1.6,1.6s0.7,1.6,1.6,1.6h6.3c0.4,0,0.8-0.2,1.1-0.5L141.6,99v8
			l-6,6h-10.6v0h-0.8h-6.7c-0.4,0-0.8,0.2-1.1,0.5l-6.3,6.3c-0.6,0.6-0.6,1.6,0,2.2c0.3,0.3,0.7,0.5,1.1,0.5c0.4,0,0.8-0.2,1.1-0.5
			l5.8-5.8h2.8v3.1h-3.4c-0.4,0-0.8,0.2-1.1,0.5l-12.5,12.5c-0.3,0.3-0.5,0.7-0.5,1.1c0,0.4,0.2,0.8,0.5,1.1
			c0.3,0.3,0.7,0.5,1.1,0.5c0.4,0,0.8-0.2,1.1-0.5l12.1-12.1h2.8v3.1h-3.4c-0.9,0-1.6,0.7-1.6,1.6s0.7,1.6,1.6,1.6h3.4v3.1H120
			l-8.8,0c0,0-0.1,0-0.1,0c-0.4,0-0.8,0.2-1.1,0.5l-6.3,6.3c-0.3,0.3-0.5,0.7-0.5,1.1c0,0.4,0.2,0.8,0.5,1.1
			c0.3,0.3,0.7,0.5,1.1,0.5c0.4,0,0.8-0.2,1.1-0.5l5.8-5.8l8.2,0l0.2,0l0,0h0.6v3.1h-3.4c-0.4,0-0.8,0.2-1.1,0.5l-12.5,12.5
			c-0.3,0.3-0.5,0.7-0.5,1.1c0,0.4,0.2,0.8,0.5,1.1c0.3,0.3,0.7,0.5,1.1,0.5c0.4,0,0.8-0.2,1.1-0.5l12.1-12.1h2.8v3.1h-3.4
			c-0.4,0-0.8,0.2-1.1,0.5l-12.5,12.5c-0.3,0.3-0.5,0.7-0.5,1.1s0.2,0.8,0.5,1.1c0.3,0.3,0.7,0.5,1.1,0.5s0.8-0.2,1.1-0.5l12.1-12.1
			h2.8v3.1h-3.4c-0.4,0-0.8,0.2-1.1,0.5l-6.3,6.3c-0.6,0.6-0.6,1.6,0,2.2c0.3,0.3,0.7,0.5,1.1,0.5c0.4,0,0.8-0.2,1.1-0.5l5.8-5.8
			h2.8v9.4h-3.4c-0.4,0-0.8,0.2-1.1,0.5l-3.1,3.1h-1.8l7.1-7.1c0.3-0.3,0.5-0.7,0.5-1.1s-0.2-0.8-0.5-1.1c-0.3-0.3-0.7-0.5-1.1-0.5
			c-0.4,0-0.8,0.2-1.1,0.5l-9.3,9.3h-1.8l4.1-4.1c0.3-0.3,0.5-0.7,0.5-1.1c0-0.4-0.2-0.8-0.5-1.1c-0.3-0.3-0.7-0.5-1.1-0.5
			c-0.4,0-0.8,0.2-1.1,0.5l-6.3,6.3c0,0,0,0,0,0.1H99l4.7-4.8c0.3-0.3,0.5-0.7,0.5-1.1c0-0.4-0.2-0.8-0.5-1.1
			c-0.3-0.3-0.7-0.5-1.1-0.5c-0.4,0-0.8,0.2-1.1,0.5l-3,3v-8.1l7.5-7.5l0,0l0,0l9.4-9.3c0.3-0.3,0.5-0.7,0.5-1.1
			c0-0.4-0.2-0.8-0.5-1.1c-0.3-0.3-0.7-0.5-1.1-0.5c-0.4,0-0.8,0.2-1.1,0.5l-9.3,9.2l-0.1,0l-0.1,0.1l-5.3,5.3v-1.7l4.5-4.4
			c0.3-0.3,0.5-0.7,0.5-1.1c0-0.4-0.2-0.8-0.5-1.1c-0.3-0.3-0.7-0.5-1.1-0.5c-0.4,0-0.8,0.2-1.1,0.5l-2.3,2.2v-1.8l4.4-4.4
			c0.3-0.3,0.5-0.7,0.5-1.1c0-0.4-0.2-0.8-0.5-1.1c-0.3-0.3-0.7-0.5-1.1-0.5c-0.4,0-0.8,0.2-1.1,0.5l-2.2,2.2v-8.1l7.5-7.5l0,0
			l0.1-0.1l12.5-12.5c0.3-0.3,0.5-0.7,0.5-1.1c0-0.4-0.2-0.8-0.5-1.1c-0.3-0.3-0.7-0.5-1.1-0.5c-0.4,0-0.8,0.2-1.1,0.5l-12.4,12.4
			l0,0l-0.1,0.1l-5.3,5.3v-11.3v-0.8h-0.8h-1.4l0.5-0.5l0,0l0.2-0.2l6.3-6.3c0.3-0.3,0.5-0.7,0.5-1.1c0-0.4-0.2-0.8-0.5-1.1
			c-0.3-0.3-0.7-0.5-1.1-0.5c-0.4,0-0.8,0.2-1.1,0.5l-3.7,3.7l0,0l-0.2,0.2l-5.3,5.3h-1.8l16-16l0,0l0,0l1.3-1.3h1.8l-5.3,5.3
			c-0.3,0.3-0.5,0.7-0.5,1.1c0,0.4,0.2,0.8,0.5,1.1c0.3,0.3,0.7,0.5,1.1,0.5s0.8-0.2,1.1-0.5l7.5-7.5h1.8l-4.6,4.6l-0.1,0.1h0
			l-6.8,6.8c-0.6,0.6-0.6,1.6,0,2.2c0.3,0.3,0.7,0.5,1.1,0.5s0.8-0.2,1.1-0.5l6.9-6.9l4.3-4.3l2.6-2.6h14.3l-4.8,4.8h-11.9
			c-0.4,0-0.8,0.2-1.1,0.5l-6.3,6.3c-0.6,0.6-0.6,1.6,0,2.2c0.3,0.3,0.7,0.5,1.1,0.5c0.4,0,0.8-0.2,1.1-0.5l5.8-5.8h11.9
			c0.4,0,0.8-0.2,1.1-0.5l0.9-0.9l0,0l0.1-0.1l6.5-6.5H140.4 M101.9,119.3c0.4,0,0.8-0.2,1.1-0.5l6.3-6.3c0.3-0.3,0.5-0.7,0.5-1.1
			c0-0.4-0.2-0.8-0.5-1.1c-0.3-0.3-0.7-0.5-1.1-0.5c-0.4,0-0.8,0.2-1.1,0.5l-6.3,6.3c-0.3,0.3-0.5,0.7-0.5,1.1
			c0,0.4,0.2,0.8,0.5,1.1C101.1,119.1,101.5,119.3,101.9,119.3 M142.3,94.9h-4l-6.7,6.7c0,0,0,0-0.1,0l-1,1
			c-0.1,0.1-0.3,0.2-0.6,0.2h-12.2l-6,6c-0.2,0.2-0.4,0.2-0.6,0.2c-0.2,0-0.4-0.1-0.6-0.2c-0.3-0.3-0.3-0.8,0-1.1l6.3-6.3
			c0.1-0.1,0.3-0.2,0.6-0.2h12.2l6-6c0,0,0,0,0.1,0l0.4-0.4h-16.6l-2.8,2.8l-4.3,4.3l-6.9,6.9c-0.2,0.2-0.4,0.2-0.6,0.2
			c-0.2,0-0.4-0.1-0.6-0.2c-0.3-0.3-0.3-0.8,0-1.1l6.9-6.9c0,0,0,0,0,0l6-6h-4l-7.8,7.8c-0.2,0.2-0.4,0.2-0.6,0.2
			c-0.2,0-0.4-0.1-0.6-0.2c-0.3-0.3-0.3-0.8,0-1.1l6.6-6.6h-4l-1.5,1.5c0,0,0,0,0,0L88,113.9h4l5.5-5.5c0,0,0,0,0,0l3.9-3.9
			c0.2-0.2,0.4-0.2,0.6-0.2c0.2,0,0.4,0.1,0.6,0.2c0.3,0.3,0.3,0.8,0,1.1l-6.3,6.3l0,0l-2.1,2.1h3.4v13.2l6.7-6.7c0,0,0,0,0,0
			l12.5-12.5c0.2-0.2,0.4-0.2,0.6-0.2c0.2,0,0.4,0.1,0.6,0.2c0.3,0.3,0.3,0.8,0,1.1l-12.5,12.5c0,0,0,0,0,0l-7.8,7.8v10.3l3.6-3.6
			c0.2-0.2,0.4-0.2,0.6-0.2c0.2,0,0.4,0.1,0.6,0.2c0.3,0.3,0.3,0.8,0,1.1l-4.7,4.7v4.1l3.6-3.6c0.2-0.2,0.4-0.2,0.5-0.2
			c0.2,0,0.4,0.1,0.6,0.2c0.3,0.3,0.3,0.8,0,1.1l-4.7,4.7v4l6.7-6.7c0,0,0,0,0,0l9.4-9.3c0.2-0.2,0.4-0.2,0.6-0.2
			c0.2,0,0.4,0.1,0.6,0.2c0.3,0.3,0.3,0.8,0,1.1l-9.4,9.3c0,0,0,0,0,0l-7.8,7.8v10.3l4.3-4.4c0.2-0.2,0.4-0.2,0.6-0.2
			c0.2,0,0.4,0.1,0.6,0.2c0.3,0.3,0.3,0.8,0,1.1l-5.5,5.5v0.6h3.5c0-0.1,0.1-0.2,0.2-0.3l6.3-6.3c0.2-0.2,0.4-0.2,0.6-0.2
			c0.2,0,0.4,0.1,0.6,0.2c0.3,0.3,0.3,0.8,0,1.1l-5.4,5.4h4l9.6-9.6c0.2-0.2,0.4-0.2,0.6-0.2c0.2,0,0.4,0.1,0.6,0.2
			c0.3,0.3,0.3,0.8,0,1.1l-8.5,8.5h4l3.3-3.3c0.1-0.1,0.3-0.2,0.6-0.2h4.2V153h-3.9l-6,6c-0.2,0.2-0.4,0.2-0.6,0.2
			c-0.2,0-0.4-0.1-0.6-0.2c-0.3-0.3-0.3-0.8,0-1.1l6.3-6.3c0.1-0.1,0.3-0.2,0.6-0.2h4.2v-4.7h-3.9L105.5,159
			c-0.2,0.2-0.4,0.2-0.6,0.2c-0.2,0-0.4-0.1-0.6-0.2c-0.3-0.3-0.3-0.8,0-1.1l12.5-12.5c0.1-0.1,0.3-0.2,0.6-0.2h4.2v-4.7h-3.9
			l-12.3,12.3c-0.2,0.2-0.4,0.2-0.6,0.2c-0.2,0-0.4-0.1-0.6-0.2c-0.3-0.3-0.3-0.8,0-1.1l12.5-12.5c0.1-0.1,0.3-0.2,0.6-0.2h4.2v-4.7
			H120l0,0l-8.5,0l-6,6c-0.2,0.2-0.4,0.2-0.6,0.2c-0.2,0-0.4-0.1-0.6-0.2c-0.3-0.3-0.3-0.8,0-1.1l6.3-6.3c0.2-0.2,0.3-0.2,0.5-0.2
			c0,0,0,0,0.1,0l8.8,0h0h1.6V128h-4.2c-0.4,0-0.8-0.3-0.8-0.8s0.4-0.8,0.8-0.8h4.2v-4.7h-3.9L105.5,134c-0.2,0.2-0.4,0.2-0.6,0.2
			c-0.2,0-0.4-0.1-0.6-0.2c-0.3-0.3-0.3-0.8,0-1.1l12.5-12.5c0.1-0.1,0.3-0.2,0.6-0.2h4.2v-4.7h-3.9l-6,6c-0.2,0.2-0.4,0.2-0.6,0.2
			c-0.2,0-0.4-0.1-0.6-0.2c-0.3-0.3-0.3-0.8,0-1.1l6.3-6.3c0.1-0.1,0.3-0.2,0.6-0.2h6.7v0h11.7l6.5-6.5V97.1L130.5,109
			c-0.1,0.1-0.3,0.2-0.6,0.2h-6.3c-0.4,0-0.8-0.4-0.8-0.8c0-0.4,0.3-0.8,0.8-0.8h5.9L142.3,94.9L142.3,94.9z M101.9,118.5
			c-0.2,0-0.4-0.1-0.6-0.2c-0.3-0.3-0.3-0.8,0-1.1l6.3-6.3c0.2-0.2,0.4-0.2,0.6-0.2c0.2,0,0.4,0.1,0.6,0.2c0.3,0.3,0.3,0.8,0,1.1
			l-6.3,6.3C102.3,118.4,102.1,118.5,101.9,118.5L101.9,118.5z"/>
		<path class="st0" d="M90.3,95.7l-11.1,11.1h-1.4v-3.1h2c0.2,0,0.4,0,0.6-0.1c0.1-0.1,0.2-0.1,0.3-0.2c0.1,0,0.2-0.1,0.2-0.2
			l7.6-7.5H90.3 M92.3,94.9h-4l-7.8,7.8c0,0-0.1,0.1-0.1,0.1c0,0-0.1,0.1-0.1,0.1c-0.1,0-0.2,0.1-0.3,0.1h0h0h-2.8v4.7h2.5
			L92.3,94.9L92.3,94.9z"/>
		<path class="st0" d="M102.8,95.7l-17.3,17.3h-1.8l3.6-3.6c0.3-0.3,0.5-0.7,0.5-1.1c0-0.4-0.2-0.8-0.5-1.1
			c-0.3-0.3-0.7-0.5-1.1-0.5s-0.8,0.2-1.1,0.5l-5.8,5.8h-1.4V110h2c0.4,0,0.8-0.2,1.1-0.5l13.8-13.8h1.8l-5.3,5.3
			c-0.3,0.3-0.5,0.7-0.5,1.1c0,0.4,0.2,0.8,0.5,1.1c0.3,0.3,0.7,0.5,1.1,0.5c0.4,0,0.8-0.2,1.1-0.5l7.6-7.5H102.8 M104.8,94.9h-4
			l-7.8,7.8c-0.2,0.2-0.4,0.2-0.5,0.2c-0.2,0-0.4-0.1-0.6-0.2c-0.3-0.3-0.3-0.8,0-1.1l6.7-6.6h-4.1l-14,14c-0.1,0.1-0.3,0.2-0.6,0.2
			h-2.8v4.7h2.5l6-6c0.2-0.2,0.4-0.2,0.6-0.2s0.4,0.1,0.6,0.2c0.3,0.3,0.3,0.8,0,1.1l-4.9,4.9h4l18.5-18.5c0,0,0,0,0,0L104.8,94.9
			L104.8,94.9z"/>
		<path class="st0" d="M84.1,95.7l-4.8,4.8h-1.4v-4.8H84.1 M86,94.9h-9v6.4h2.5l6-6c0.1-0.1,0.1-0.1,0.2-0.1L86,94.9L86,94.9z"/>
		<path class="st0" d="M141.6,111.5v1.5H140L141.6,111.5 M142.3,109.6l-4.3,4.3h4.3V109.6L142.3,109.6z"/>
		<path class="st0" d="M120.9,166.3v0.4h-3.2l0.4-0.4H120.9 M121.7,165.5h-3.9l-2,2h5.9V165.5L121.7,165.5z"/>
	</g>
</g>
<g>
	<path d="M417.3,127.5l-9.7,9.7h-12.7c-2,0-3.6,1.6-3.6,3.6c0,2,1.6,3.6,3.6,3.6h14.1c0.9,0,1.9-0.4,2.5-1L423,132v5.3
		c-0.8,0.1-1.6,0.4-2.2,1l-13.1,13.1h-26.8c-0.9,0-1.9,0.4-2.5,1l-13.2,13.2H361l22.3-22.3l0.5-0.5v0l15.2-15.2H417.3 M421.7,125.7
		h-23.3L382,142c0,0,0,0,0,0l-25.3,25.3h9.1l13.7-13.7c0.3-0.3,0.8-0.5,1.2-0.5h27.6l13.6-13.6c0.3-0.3,0.8-0.5,1.2-0.5
		s0.9,0.2,1.2,0.5c0.1,0.1,0.2,0.3,0.3,0.4v-12.3L410.3,142c-0.3,0.3-0.8,0.5-1.2,0.5h-14.1c-1,0-1.8-0.8-1.8-1.8
		c0-1,0.8-1.8,1.8-1.8h13.4L421.7,125.7L421.7,125.7z"/>
	<path d="M358,2.9l-8,8c-0.7,0.7-1,1.6-1,2.5c0,1,0.4,1.8,1,2.5c0.7,0.7,1.6,1,2.5,1c1,0,1.8-0.4,2.5-1l13-13
		c1.3,0.1,2.5,0.2,3.8,0.3L350,25.1c-0.7,0.7-1,1.6-1,2.5c0,1,0.4,1.8,1,2.5c0.7,0.7,1.6,1,2.5,1c1,0,1.8-0.4,2.5-1l25.5-25.5
		c4.2,0.9,8.3,2.1,12,3.7c1.2,0.5,2.4,1,3.5,1.6h-15.2c-0.9,0-1.9,0.4-2.5,1l-14.2,14.2c-1.4,1.4-1.4,3.6,0,5c0.7,0.7,1.6,1,2.5,1
		c1,0,1.8-0.4,2.5-1L382.3,17H407c1.3,1.2,2.6,2.4,3.9,3.7l-3.3,3.3h-12.7c-2,0-3.6,1.6-3.6,3.6s1.6,3.6,3.6,3.6h14.1
		c0.9,0,1.9-0.4,2.5-1l3.7-3.7c0.5,0.8,1,1.7,1.5,2.6l-9.1,9.1h-26.8c-0.9,0-1.9,0.4-2.5,1L367,50.4c-0.3-1-0.7-2-1.2-2.8l17.5-17.5
		c0.7-0.7,1-1.6,1-2.5c0-1-0.4-1.8-1-2.5c-0.7-0.7-1.6-1-2.5-1s-1.8,0.4-2.5,1l-18.4,18.4c-1.1-0.3-2.2-0.5-3.4-0.6l5.8-5.8
		c0.7-0.7,1-1.6,1-2.5c0-1-0.4-1.9-1-2.5c-0.7-0.7-1.6-1-2.5-1c-1,0-1.9,0.4-2.5,1l-12,12c-3.9,1-8.2,2.5-12.5,4.6
		c-7.3,3.5-14.9,8.3-22.5,14.3l-0.7-1.4l17.2-17.2c1.4-1.4,1.4-3.7,0-5c-0.7-0.7-1.6-1-2.5-1c-1,0-1.8,0.4-2.5,1l-15.6,15.6l-6.2-12
		l12.6-12.7c0.7-0.7,1-1.6,1-2.5c0-1-0.4-1.8-1-2.5c-0.7-0.7-1.6-1-2.5-1s-1.8,0.4-2.5,1l-11,11l-4.6-9c9.9-6.6,19.7-11.9,29.5-15.8
		c-0.5,0.6-0.7,1.4-0.7,2.1c0,1,0.4,1.8,1,2.5c0.7,0.7,1.6,1.1,2.5,1.1c0.9,0,1.8-0.4,2.5-1l9.8-9.7c1.7-0.4,3.4-0.8,5.1-1.2
		l-34.2,34.2c-1.4,1.4-1.4,3.7,0,5c0.7,0.7,1.6,1.1,2.5,1.1c1,0,1.9-0.4,2.5-1l41-41C355,3.1,356.5,3,358,2.9 M331.9,37.6
		c0.9,0,1.8-0.4,2.5-1l14.1-14.1c0.7-0.7,1-1.6,1-2.5c0-1-0.4-1.9-1-2.5c-0.7-0.7-1.6-1-2.5-1c-1,0-1.9,0.4-2.5,1l-14.1,14.1
		c-0.7,0.7-1,1.6-1,2.5c0,1,0.4,1.8,1,2.5C330.1,37.2,331,37.6,331.9,37.6 M362.4,1c-3.2,0-6.4,0.2-9.7,0.5L311.3,43
		c-0.3,0.3-0.8,0.5-1.2,0.5c-0.5,0-0.9-0.2-1.3-0.5c-0.7-0.7-0.7-1.8,0-2.5L347,2.2c-3.8,0.6-7.6,1.4-11.4,2.4l-10.2,10.1
		c-0.3,0.3-0.8,0.5-1.2,0.5c-0.5,0-0.9-0.2-1.3-0.5c-0.7-0.7-0.7-1.8,0-2.5l5.5-5.4c-12.8,4.2-25.8,10.8-38.9,19.7l6.5,12.6
		l12.8-12.8c0.3-0.3,0.8-0.5,1.2-0.5s0.9,0.2,1.2,0.5c0.7,0.7,0.7,1.8,0,2.5l-13.6,13.6l7.9,15.4l17.3-17.3c0.3-0.3,0.8-0.5,1.2-0.5
		s0.9,0.2,1.2,0.5c0.7,0.7,0.7,1.8,0,2.5l-18.1,18.1l2.3,4.5c8.1-6.6,16.1-11.7,23.9-15.4c4.5-2.2,8.7-3.7,12.7-4.6l12.3-12.3
		c0.3-0.3,0.8-0.5,1.3-0.5c0.5,0,0.9,0.2,1.3,0.5c0.7,0.7,0.7,1.8,0,2.5l-8.9,8.9c0.8-0.1,1.5-0.1,2.2-0.1c2.4,0,4.4,0.4,6,1
		l19.2-19.2c0.3-0.3,0.8-0.5,1.2-0.5s0.9,0.2,1.2,0.5c0.7,0.7,0.7,1.8,0,2.5l-18.6,18.6c1.4,1.4,2.2,3.3,2.2,5.7
		c0,0.4,0,0.9-0.1,1.4l14.1-14.1c0.3-0.3,0.8-0.5,1.2-0.5h27.6l10.6-10.6c-0.9-2-2.1-3.9-3.4-5.7l-5.2,5.2c-0.3,0.3-0.8,0.5-1.2,0.5
		h-14.1c-1,0-1.8-0.8-1.8-1.8c0-1,0.8-1.8,1.8-1.8h13.4l5-5c-1.7-2-3.6-3.9-5.7-5.6h-26.2l-13.6,13.6c-0.3,0.3-0.8,0.5-1.3,0.5
		c-0.5,0-0.9-0.2-1.3-0.5c-0.7-0.7-0.7-1.8,0-2.5l14.2-14.1c0.3-0.3,0.8-0.5,1.2-0.5h22.1c-2.9-1.9-6.2-3.6-9.7-5
		c-4.2-1.7-8.6-3-13.2-4l-26.2,26.2c-0.3,0.3-0.8,0.5-1.2,0.5c-0.5,0-0.9-0.2-1.3-0.5c-0.7-0.7-0.7-1.8,0-2.5l24.4-24.4
		c-2.7-0.4-5.5-0.7-8.4-0.8l-13.6,13.6c-0.3,0.3-0.8,0.5-1.2,0.5c-0.5,0-0.9-0.2-1.3-0.5c-0.7-0.7-0.7-1.8,0-2.5L362.4,1L362.4,1z
		 M331.9,35.8c-0.5,0-0.9-0.2-1.3-0.5c-0.7-0.7-0.7-1.8,0-2.5l14.1-14.1c0.3-0.3,0.8-0.5,1.3-0.5c0.5,0,0.9,0.2,1.3,0.5
		c0.7,0.7,0.7,1.8,0,2.5l-14.1,14.1C332.8,35.6,332.4,35.8,331.9,35.8L331.9,35.8z"/>
	<path d="M419.5,36.3c0.7,2.8,1.1,5.8,1.1,8.9c0,3.1-0.4,6.2-1.1,9.3l-11.9,11.9h-26.8c-2,0-3.6,1.6-3.6,3.6c0,2,1.6,3.6,3.6,3.6
		h28.3c0.9,0,1.7-0.3,2.3-0.8c-1.7,2.6-3.6,5.2-5.6,7.8h-0.5l-9.9,0l0,0h-0.4h-8.3l-19.9,0c-0.1,0-0.1,0-0.2,0c-1,0-1.9,0.4-2.5,1
		L350,95.8c-0.7,0.7-1,1.6-1,2.5c0,1,0.4,1.8,1,2.5c0.7,0.7,1.6,1,2.5,1c1,0,1.8-0.4,2.5-1l13.1-13.1l18.6,0l0.4,0l7.8,0l0.3,0l0,0
		l4.6,0c-2,2.3-4.1,4.6-6.4,7h-2.3l-20,0c-2,0-3.6,1.6-3.6,3.6c0,0.9,0.4,1.8,1,2.5c0.7,0.7,1.6,1,2.5,1l15.2,0l-7.1,7h-6.8l-20,0
		l-0.2,0l0,0c-0.9,0.1-1.7,0.4-2.3,1l-42.4,42.4c-1.4,1.4-1.4,3.7,0,5c0.7,0.7,1.6,1,2.5,1c1,0,1.9-0.4,2.5-1L354,116l18.1,0
		l-8.5,8.4l-3.1,3.1h0.2L350,138.2c-0.7,0.7-1,1.6-1,2.5c0,1,0.4,1.8,1,2.5c0.7,0.7,1.6,1,2.5,1c1,0,1.8-0.4,2.5-1l15.8-15.8H389
		l-10.7,10.7l-3.7,3.7l-23.6,23.6h-12.1c-0.2,0-0.3,0-0.5,0c-0.2,0-0.3,0-0.5,0h-4.9l16.8-16.9c0.7-0.7,1-1.6,1-2.5
		c0-1-0.4-1.9-1.1-2.5c-0.7-0.7-1.6-1-2.5-1c-1,0-1.9,0.4-2.5,1.1l-21.1,21.3c-0.2,0.2-0.4,0.4-0.5,0.6h-4.4l8.1-8.1
		c0.7-0.7,1-1.6,1-2.5c0-1-0.4-1.8-1-2.5c-0.7-0.7-1.6-1-2.5-1c-1,0-1.8,0.4-2.5,1l-13.2,13.2h-10.6l-0.1-7.6
		c0.2-0.1,0.4-0.3,0.6-0.5l14.1-14.1c0.7-0.7,1-1.6,1-2.5c0-1-0.4-1.8-1-2.5c-0.7-0.7-1.6-1-2.5-1s-1.8,0.4-2.5,1l-9.8,9.8
		l-0.1-14.1l56.8-58.7c3.3-3.5,6.2-7,8.5-10.6L375,52.6c0.1-0.1,0.2-0.2,0.3-0.3l7-7h26.8c1,0,1.9-0.4,2.5-1L419.5,36.3 M352.5,87.7
		c1,0,1.9-0.4,2.5-1l27.3-27.3h26.8c2,0,3.6-1.6,3.6-3.6c0-2-1.6-3.6-3.6-3.6h-28.3c-0.9,0-1.9,0.4-2.5,1L350,81.6
		c-0.7,0.7-1.1,1.6-1.1,2.5c0,1,0.4,1.9,1,2.5C350.6,87.4,351.5,87.7,352.5,87.7 M324.2,130.2c0.9,0,1.8-0.4,2.5-1L348,108
		c0.7-0.7,1.1-1.6,1.1-2.5c0-1-0.4-1.9-1-2.5c-0.7-0.7-1.6-1.1-2.5-1.1c-0.9,0-1.8,0.4-2.5,1l-21.3,21.1c-0.7,0.7-1.1,1.6-1.1,2.5
		c0,1,0.4,1.8,1,2.5C322.3,129.8,323.2,130.2,324.2,130.2 M331.9,150.8c1,0,1.8-0.4,2.5-1l14.1-14.1c0.7-0.7,1-1.6,1-2.5
		c0-1-0.4-1.9-1-2.5c-0.7-0.7-1.6-1.1-2.5-1.1c-1,0-1.9,0.4-2.5,1l-14.1,14.1c-1.4,1.4-1.4,3.7,0,5
		C330.1,150.4,331,150.8,331.9,150.8 M345.6,165.3c1,0,1.8-0.4,2.5-1l14.1-14.1c0.7-0.7,1-1.6,1-2.5c0-1-0.4-1.9-1-2.5
		c-0.7-0.7-1.6-1-2.5-1c-1,0-1.9,0.4-2.5,1l-14.1,14.1c-1.4,1.4-1.4,3.7,0,5C343.8,165,344.7,165.3,345.6,165.3 M420.4,32.9
		L410.3,43c-0.3,0.3-0.8,0.5-1.3,0.5h-27.6l-7.6,7.7c0,0.1-0.1,0.1-0.1,0.2l-12.2,12.2c-2.3,3.5-5,7-8.4,10.5l-57.3,59.2l0.1,19.1
		l12.8-12.8c0.3-0.3,0.8-0.5,1.2-0.5s0.9,0.2,1.2,0.5c0.7,0.7,0.7,1.8,0,2.5l-14.1,14.1c-0.3,0.3-0.7,0.5-1.1,0.5l0.1,10.7
		c0.1,0,0.1,0,0.1,0h13l13.7-13.7c0.3-0.3,0.8-0.5,1.2-0.5s0.9,0.2,1.2,0.5c0.7,0.7,0.7,1.8,0,2.5l-11.2,11.2h10
		c0-0.4,0.2-0.8,0.5-1.2l21.1-21.3c0.3-0.3,0.8-0.5,1.3-0.5c0.4,0,0.9,0.2,1.2,0.5c0.7,0.7,0.7,1.8,0,2.5l-19.8,20h9.4
		c0.1,0,0.2,0,0.3,0s0.2,0,0.3,0h13l24.1-24.1l3.7-3.7l13.8-13.8H370L353.7,142c-0.3,0.3-0.8,0.5-1.2,0.5c-0.5,0-0.9-0.2-1.3-0.5
		c-0.7-0.7-0.7-1.8,0-2.5l13.8-13.8h-0.2l11.6-11.5h-3.9l0,0l-19.3,0l-41.9,41.9c-0.3,0.3-0.8,0.5-1.2,0.5c-0.5,0-0.9-0.2-1.3-0.5
		c-0.7-0.7-0.7-1.8,0-2.5l42.4-42.4c0.3-0.3,0.8-0.5,1.3-0.5c0,0,0,0,0,0c0,0,0,0,0,0l20,0h0h7.5l10.1-10c0.2-0.2,0.4-0.4,0.6-0.6
		l-19.5,0c-0.5,0-0.9-0.2-1.3-0.5c-0.3-0.3-0.5-0.8-0.5-1.3c0-1,0.8-1.8,1.8-1.8c0,0,0,0,0,0l20,0h0h3c3.5-3.6,6.7-7.1,9.6-10.6
		l-8.8,0c0,0,0,0,0,0l-8.3,0l0,0l-19.3,0l-13.6,13.6c-0.3,0.3-0.8,0.5-1.2,0.5c-0.5,0-0.9-0.2-1.3-0.5c-0.7-0.7-0.7-1.8,0-2.5
		l14.1-14.1c0.3-0.3,0.8-0.5,1.2-0.5c0,0,0.1,0,0.1,0l19.9,0h0h8.3l0,0l10.3,0h0h1.4c2.8-3.6,5.2-7,7.4-10.4c1.9-3,3.5-6.1,4.7-9.1
		l-8.4,8.4c-0.3,0.3-0.8,0.5-1.3,0.5h-28.3c-1,0-1.8-0.8-1.8-1.8c0-1,0.8-1.8,1.8-1.8h27.6l12.8-12.8c0.8-3.4,1.2-6.8,1.2-10.2
		C422.4,40.9,421.7,36.8,420.4,32.9L420.4,32.9z M352.5,85.9c-0.5,0-0.9-0.2-1.3-0.5c-0.7-0.7-0.7-1.8,0-2.5l28.3-28.3
		c0.3-0.3,0.8-0.5,1.2-0.5h28.3c1,0,1.8,0.8,1.8,1.8c0,1-0.8,1.8-1.8,1.8h-27.6l-27.8,27.8C353.4,85.8,352.9,85.9,352.5,85.9
		L352.5,85.9z M324.2,128.4c-0.5,0-0.9-0.2-1.3-0.5c-0.7-0.7-0.7-1.8,0-2.5l21.3-21.1c0.3-0.3,0.8-0.5,1.2-0.5
		c0.5,0,0.9,0.2,1.3,0.5c0.7,0.7,0.7,1.8,0,2.5l-21.3,21.1C325.1,128.2,324.6,128.4,324.2,128.4L324.2,128.4z M331.9,149
		c-0.5,0-0.9-0.2-1.3-0.5c-0.7-0.7-0.7-1.8,0-2.5l14.1-14.1c0.3-0.3,0.8-0.5,1.3-0.5c0.5,0,0.9,0.2,1.3,0.5c0.7,0.7,0.7,1.8,0,2.5
		l-14.1,14.1C332.8,148.8,332.4,149,331.9,149L331.9,149z M345.6,163.5c-0.5,0-0.9-0.2-1.3-0.5c-0.7-0.7-0.7-1.8,0-2.5l14.1-14.1
		c0.3-0.3,0.8-0.5,1.3-0.5c0.5,0,0.9,0.2,1.3,0.5c0.7,0.7,0.7,1.8,0,2.5L346.9,163C346.5,163.4,346.1,163.5,345.6,163.5L345.6,163.5
		z"/>
	<path d="M423,160.2v4.1l-1.3,1.3h-4.1L423,160.2 M424.8,155.9l-11.5,11.5h9.1l2.3-2.3V155.9L424.8,155.9z"/>
	<path d="M423,146.1v4.1l-15.4,15.4h-26.8c-0.2,0-0.4,0-0.6,0.1h-5l7.1-7.1h26.8c1,0,1.9-0.4,2.5-1L423,146.1 M424.8,141.6
		c-0.1,0.1-0.2,0.3-0.3,0.4l-14.1,14.1c-0.3,0.3-0.8,0.5-1.3,0.5h-27.6l-10.7,10.7h9.6c0.1,0,0.2-0.1,0.3-0.1h27.6l16.4-16.4V141.6
		L424.8,141.6z"/>
</g>
</svg>
