<?xml version="1.0" encoding="utf-8"?>
<!-- Generator: Adobe Illustrator 22.0.1, SVG Export Plug-In . SVG Version: 6.00 Build 0)  -->
<svg version="1.1" id="Warstwa_1" xmlns="http://www.w3.org/2000/svg" xmlns:xlink="http://www.w3.org/1999/xlink" x="0px" y="0px"
	 viewBox="0 0 1586.9 644.8" style="enable-background:new 0 0 1586.9 644.8;" xml:space="preserve">
<g>
	<g>
		<path d="M793.6,642.3c-0.7,0-1.4,0-2.1,0l0-1c2.7,0,5.3,0,8,0l0,1C797.5,642.3,795.5,642.3,793.6,642.3z M783.4,642.1
			c-2.7-0.1-5.4-0.2-8-0.3l0.1-1c2.6,0.1,5.3,0.3,8,0.3L783.4,642.1z M807.5,642l0-1c2.7-0.1,5.3-0.3,8-0.4l0.1,1
			C812.8,641.7,810.1,641.9,807.5,642z M767.4,641.2c-2.7-0.2-5.3-0.5-8-0.7l0.1-1c2.6,0.3,5.3,0.5,8,0.7L767.4,641.2z M823.4,640.9
			l-0.1-1c2.6-0.2,5.3-0.5,7.9-0.8l0.1,1C828.8,640.4,826.1,640.7,823.4,640.9z M751.5,639.5c-2.6-0.3-5.3-0.7-7.9-1.1l0.2-1
			c2.6,0.4,5.3,0.8,7.9,1.1L751.5,639.5z M839.3,639l-0.1-1c2.6-0.4,5.3-0.8,7.9-1.2l0.2,1C844.7,638.2,842,638.6,839.3,639z
			 M735.7,637c-2.6-0.5-5.3-1-7.9-1.5l0.2-1c2.6,0.5,5.2,1.1,7.8,1.5L735.7,637z M855.1,636.4l-0.2-1c2.6-0.5,5.3-1.1,7.8-1.6l0.2,1
			C860.4,635.3,857.8,635.8,855.1,636.4z M720,633.8c-2.6-0.6-5.2-1.3-7.8-1.9l0.3-1c2.5,0.7,5.2,1.3,7.7,1.9L720,633.8z
			 M870.8,632.9l-0.2-1c2.6-0.6,5.2-1.3,7.7-2l0.3,1C876,631.6,873.4,632.3,870.8,632.9z M704.5,629.7c-2.6-0.7-5.1-1.5-7.7-2.3
			l0.3-1c2.5,0.8,5.1,1.6,7.6,2.3L704.5,629.7z M886.2,628.6l-0.3-1c2.5-0.8,5.1-1.6,7.6-2.4l0.3,0.9
			C891.3,627.1,888.8,627.9,886.2,628.6z M689.2,624.9c-2.5-0.9-5.1-1.8-7.6-2.7l0.4-0.9c2.5,0.9,5,1.8,7.5,2.7L689.2,624.9z
			 M901.4,623.6l-0.3-0.9c2.5-0.9,5-1.8,7.5-2.8l0.4,0.9C906.5,621.8,903.9,622.7,901.4,623.6z M674.2,619.2c-2.5-1-5-2-7.4-3.1
			l0.4-0.9c2.4,1.1,4.9,2.1,7.4,3.1L674.2,619.2z M916.4,617.9l-0.4-0.9c2.4-1,4.9-2.1,7.3-3.1l0.4,0.9
			C921.3,615.8,918.8,616.8,916.4,617.9z M659.4,612.9c-2.4-1.1-4.9-2.3-7.2-3.5l0.4-0.9c2.4,1.2,4.8,2.3,7.2,3.5L659.4,612.9z
			 M930.9,611.4l-0.4-0.9c2.4-1.1,4.8-2.3,7.1-3.5l0.5,0.9C935.8,609,933.3,610.2,930.9,611.4z M645,605.8c-2.4-1.2-4.7-2.5-7.1-3.8
			l0.5-0.9c2.3,1.3,4.7,2.6,7,3.8L645,605.8z M945.2,604.1l-0.5-0.9c2.3-1.3,4.7-2.6,7-3.9l0.5,0.9
			C949.9,601.6,947.5,602.9,945.2,604.1z M631,597.9c-2.3-1.4-4.6-2.8-6.9-4.2l0.5-0.8c2.2,1.4,4.5,2.8,6.8,4.2L631,597.9z
			 M959.1,596.2l-0.5-0.9c2.2-1.4,4.5-2.8,6.8-4.2l0.5,0.8C963.6,593.4,961.3,594.8,959.1,596.2z M617.4,589.4
			c-2.2-1.5-4.4-3-6.6-4.5l0.6-0.8c2.2,1.5,4.4,3,6.6,4.5L617.4,589.4z M972.5,587.6l-0.6-0.8c2.2-1.5,4.4-3,6.6-4.5l0.6,0.8
			C976.9,584.5,974.7,586.1,972.5,587.6z M604.2,580.2c-2.2-1.6-4.3-3.2-6.4-4.8l0.6-0.8c2.1,1.6,4.2,3.2,6.4,4.8L604.2,580.2z
			 M985.6,578.3l-0.6-0.8c2.1-1.6,4.2-3.2,6.3-4.9l0.6,0.8C989.8,575,987.7,576.7,985.6,578.3z M591.6,570.4
			c-2.1-1.7-4.1-3.4-6.1-5.1l0.7-0.8c2,1.7,4.1,3.4,6.1,5.1L591.6,570.4z M998.1,568.4l-0.6-0.8c2-1.7,4.1-3.4,6.1-5.2l0.7,0.8
			C1002.2,564.9,1000.1,566.7,998.1,568.4z M579.4,560c-2-1.8-4-3.6-5.9-5.4l0.7-0.7c1.9,1.8,3.9,3.6,5.9,5.4L579.4,560z
			 M1010.2,557.8l-0.7-0.7c2-1.8,3.9-3.6,5.8-5.5l0.7,0.7C1014.1,554.1,1012.1,556,1010.2,557.8z M567.8,549
			c-1.9-1.9-3.8-3.8-5.6-5.7l0.7-0.7c1.8,1.9,3.7,3.8,5.6,5.7L567.8,549z M1021.7,546.7l-0.7-0.7c1.9-1.9,3.7-3.8,5.5-5.8l0.7,0.7
			C1025.4,542.8,1023.5,544.8,1021.7,546.7z M556.7,537.4c-1.8-2-3.6-4-5.3-6l0.8-0.7c1.7,2,3.5,4,5.3,6L556.7,537.4z M1032.6,535
			l-0.7-0.7c1.8-2,3.5-4,5.2-6l0.8,0.6C1036.1,531,1034.4,533,1032.6,535z M546.3,525.3c-1.7-2.1-3.4-4.2-5-6.2l0.8-0.6
			c1.6,2.1,3.3,4.2,5,6.2L546.3,525.3z M1043,522.7l-0.8-0.6c1.7-2.1,3.3-4.2,4.9-6.3l0.8,0.6C1046.3,518.5,1044.6,520.7,1043,522.7
			z M536.4,512.7c-1.6-2.1-3.2-4.3-4.7-6.5l0.8-0.6c1.5,2.2,3.1,4.3,4.7,6.5L536.4,512.7z M1052.7,510l-0.8-0.6
			c1.6-2.2,3.1-4.4,4.6-6.5l0.8,0.6C1055.8,505.6,1054.3,507.8,1052.7,510z M527.2,499.6c-1.5-2.2-2.9-4.5-4.4-6.7l0.8-0.5
			c1.4,2.2,2.9,4.5,4.3,6.7L527.2,499.6z M1061.8,496.8l-0.8-0.5c1.5-2.2,2.9-4.5,4.3-6.8l0.9,0.5
			C1064.7,492.3,1063.3,494.5,1061.8,496.8z M518.7,486c-1.4-2.3-2.7-4.6-4-6.9l0.9-0.5c1.3,2.3,2.6,4.6,4,6.9L518.7,486z
			 M1070.2,483.1l-0.9-0.5c1.3-2.3,2.7-4.6,3.9-7l0.9,0.5C1072.9,478.5,1071.6,480.8,1070.2,483.1z M510.8,472.1
			c-1.2-2.3-2.5-4.7-3.7-7.1l0.9-0.4c1.2,2.4,2.4,4.7,3.6,7.1L510.8,472.1z M1077.9,469.1l-0.9-0.5c1.2-2.4,2.4-4.8,3.6-7.2l0.9,0.4
			C1080.4,464.3,1079.2,466.7,1077.9,469.1z M503.7,457.8c-1.1-2.4-2.2-4.9-3.3-7.3l0.9-0.4c1.1,2.4,2.2,4.8,3.3,7.3L503.7,457.8z
			 M1084.9,454.6l-0.9-0.4c1.1-2.4,2.2-4.9,3.2-7.3l0.9,0.4C1087.1,449.7,1086,452.2,1084.9,454.6z M497.3,443.2c-1-2.5-2-5-2.9-7.5
			l0.9-0.4c0.9,2.5,1.9,5,2.9,7.4L497.3,443.2z M1091.2,439.8l-0.9-0.4c1-2.5,1.9-5,2.8-7.5l0.9,0.3
			C1093.2,434.8,1092.2,437.3,1091.2,439.8z M491.6,428.2c-0.9-2.5-1.7-5.1-2.6-7.6l1-0.3c0.8,2.5,1.7,5.1,2.5,7.6L491.6,428.2z
			 M1096.7,424.7l-0.9-0.3c0.8-2.5,1.7-5.1,2.5-7.6l1,0.3C1098.4,419.6,1097.6,422.2,1096.7,424.7z M486.7,413
			c-0.8-2.6-1.5-5.2-2.2-7.7l1-0.3c0.7,2.5,1.4,5.1,2.2,7.7L486.7,413z M1101.5,409.4l-1-0.3c0.7-2.5,1.4-5.1,2.1-7.7l1,0.2
			C1102.9,404.2,1102.2,406.8,1101.5,409.4z M482.6,397.5c-0.6-2.6-1.2-5.2-1.8-7.8l1-0.2c0.6,2.6,1.1,5.2,1.8,7.8L482.6,397.5z
			 M1105.5,393.9l-1-0.2c0.6-2.6,1.2-5.2,1.7-7.8l1,0.2C1106.6,388.7,1106,391.3,1105.5,393.9z M479.2,381.8c-0.5-2.6-1-5.3-1.4-7.9
			l1-0.2c0.4,2.6,0.9,5.3,1.4,7.9L479.2,381.8z M1108.6,378.2l-1-0.2c0.5-2.6,0.9-5.3,1.3-7.9l1,0.1
			C1109.5,372.9,1109.1,375.6,1108.6,378.2z M476.6,366c-0.4-2.6-0.7-5.3-1-8l1-0.1c0.3,2.6,0.6,5.3,1,7.9L476.6,366z M1111,362.3
			l-1-0.1c0.3-2.6,0.6-5.3,0.9-7.9l1,0.1C1111.6,357,1111.3,359.7,1111,362.3z M474.9,350.1c-0.2-2.6-0.4-5.3-0.6-8l1-0.1
			c0.2,2.7,0.4,5.3,0.6,8L474.9,350.1z M1112.6,346.4l-1-0.1c0.2-2.6,0.4-5.3,0.5-8l1,0C1112.9,341.1,1112.8,343.8,1112.6,346.4z
			 M473.9,334.1c-0.1-2.7-0.2-5.4-0.2-8l1,0c0,2.6,0.1,5.3,0.2,8L473.9,334.1z M1113.4,330.4l-1,0c0.1-2.7,0.1-5.3,0.1-8
			c0-2.5,0-4.9-0.1-7.4l1,0c0.1,2.5,0.1,5,0.1,7.4C1113.5,325,1113.4,327.7,1113.4,330.4z M474.7,318.1l-1,0c0-2.7,0.1-5.4,0.2-8
			l1,0C474.8,312.8,474.8,315.4,474.7,318.1z M1112.1,307c-0.1-2.7-0.3-5.3-0.5-8l1-0.1c0.2,2.6,0.4,5.3,0.5,8L1112.1,307z
			 M475.3,302.1l-1-0.1c0.2-2.7,0.4-5.3,0.6-8l1,0.1C475.7,296.8,475.5,299.5,475.3,302.1z M1111,291.1c-0.3-2.6-0.6-5.3-0.9-7.9
			l1-0.1c0.3,2.6,0.6,5.3,0.9,8L1111,291.1z M476.7,286.2l-1-0.1c0.3-2.6,0.6-5.3,1-7.9l1,0.1C477.3,280.9,477,283.6,476.7,286.2z
			 M1109,275.2c-0.4-2.6-0.8-5.3-1.3-7.9l1-0.2c0.5,2.6,0.9,5.3,1.3,7.9L1109,275.2z M478.9,270.4l-1-0.2c0.4-2.6,0.9-5.3,1.4-7.9
			l1,0.2C479.8,265.2,479.3,267.8,478.9,270.4z M1106.3,259.5c-0.5-2.6-1.1-5.2-1.7-7.8l1-0.2c0.6,2.6,1.1,5.2,1.7,7.8L1106.3,259.5
			z M481.9,254.7l-1-0.2c0.6-2.6,1.2-5.2,1.8-7.8l1,0.2C483,249.5,482.4,252.1,481.9,254.7z M1102.7,243.9c-0.7-2.6-1.3-5.2-2.1-7.7
			l1-0.3c0.7,2.6,1.4,5.2,2.1,7.7L1102.7,243.9z M485.6,239.2l-1-0.3c0.7-2.6,1.4-5.2,2.2-7.7l1,0.3
			C487.1,234.1,486.3,236.7,485.6,239.2z M1098.4,228.5c-0.8-2.6-1.6-5.1-2.4-7.6l0.9-0.3c0.8,2.5,1.7,5.1,2.5,7.6L1098.4,228.5z
			 M490.2,223.9l-1-0.3c0.8-2.5,1.7-5.1,2.6-7.6l0.9,0.3C491.9,218.8,491,221.4,490.2,223.9z M1093.4,213.4c-0.9-2.5-1.9-5-2.8-7.5
			l0.9-0.4c1,2.5,1.9,5,2.8,7.5L1093.4,213.4z M495.5,208.8l-0.9-0.4c0.9-2.5,1.9-5,3-7.5l0.9,0.4
			C497.5,203.8,496.5,206.3,495.5,208.8z M1087.5,198.5c-1-2.4-2.1-4.9-3.2-7.3l0.9-0.4c1.1,2.4,2.2,4.9,3.2,7.3L1087.5,198.5z
			 M501.6,194l-0.9-0.4c1.1-2.4,2.2-4.9,3.3-7.3l0.9,0.4C503.8,189.1,502.7,191.6,501.6,194z M1081,184c-1.1-2.4-2.3-4.8-3.5-7.1
			l0.9-0.5c1.2,2.4,2.4,4.8,3.6,7.2L1081,184z M508.4,179.5l-0.9-0.4c1.2-2.4,2.4-4.8,3.7-7.1l0.9,0.5
			C510.8,174.7,509.6,177.1,508.4,179.5z M1073.7,169.9c-1.3-2.3-2.6-4.6-3.9-6.9l0.9-0.5c1.3,2.3,2.7,4.7,3.9,7L1073.7,169.9z
			 M516,165.4l-0.9-0.5c1.3-2.3,2.7-4.7,4-6.9l0.9,0.5C518.6,160.7,517.3,163.1,516,165.4z M1065.7,156.1c-1.4-2.3-2.8-4.5-4.2-6.7
			l0.8-0.5c1.4,2.2,2.9,4.5,4.3,6.8L1065.7,156.1z M524.2,151.7l-0.8-0.5c1.4-2.2,2.9-4.5,4.4-6.7l0.8,0.6
			C527.1,147.2,525.6,149.4,524.2,151.7z M1057.1,142.7c-1.5-2.2-3-4.4-4.6-6.5l0.8-0.6c1.5,2.1,3.1,4.3,4.6,6.5L1057.1,142.7z
			 M533.1,138.4l-0.8-0.6c1.5-2.2,3.1-4.4,4.7-6.5l0.8,0.6C536.2,134,534.6,136.2,533.1,138.4z M1047.7,129.7
			c-1.6-2.1-3.3-4.2-4.9-6.3l0.8-0.6c1.6,2.1,3.3,4.2,4.9,6.3L1047.7,129.7z M542.6,125.6l-0.8-0.6c1.6-2.1,3.3-4.2,5-6.2l0.8,0.6
			C546,121.4,544.3,123.5,542.6,125.6z M1037.8,117.3c-1.7-2-3.5-4.1-5.2-6l0.8-0.7c1.8,2,3.5,4,5.2,6.1L1037.8,117.3z M552.8,113.3
			l-0.8-0.7c1.7-2,3.5-4,5.3-6l0.7,0.7C556.4,109.2,554.6,111.3,552.8,113.3z M1027.2,105.3c-1.8-1.9-3.7-3.9-5.5-5.8l0.7-0.7
			c1.9,1.9,3.7,3.9,5.5,5.8L1027.2,105.3z M563.6,101.5l-0.7-0.7c1.8-1.9,3.7-3.8,5.6-5.7l0.7,0.7
			C567.3,97.6,565.4,99.6,563.6,101.5z M1016,93.9c-1.9-1.8-3.8-3.7-5.8-5.5l0.7-0.7c2,1.8,3.9,3.7,5.8,5.5L1016,93.9z M575,90.2
			l-0.7-0.7c1.9-1.8,3.9-3.6,5.9-5.4l0.7,0.7C578.9,86.6,576.9,88.4,575,90.2z M1004.3,83c-2-1.8-4-3.5-6.1-5.2l0.6-0.8
			c2,1.7,4.1,3.5,6.1,5.2L1004.3,83z M586.8,79.6l-0.6-0.8c2-1.7,4.1-3.4,6.2-5.1l0.6,0.8C590.9,76.1,588.9,77.9,586.8,79.6z
			 M992.1,72.8c-2.1-1.6-4.2-3.3-6.3-4.9l0.6-0.8c2.1,1.6,4.3,3.3,6.3,4.9L992.1,72.8z M599.2,69.5l-0.6-0.8
			c2.1-1.6,4.3-3.2,6.4-4.8l0.6,0.8C603.5,66.3,601.3,67.9,599.2,69.5z M979.3,63.1c-2.2-1.5-4.4-3.1-6.6-4.6l0.6-0.8
			c2.2,1.5,4.4,3,6.6,4.6L979.3,63.1z M612.1,60.1l-0.6-0.8c2.2-1.5,4.4-3,6.6-4.5l0.5,0.8C616.5,57.1,614.3,58.6,612.1,60.1z
			 M966.1,54.1c-2.2-1.4-4.5-2.9-6.8-4.2l0.5-0.9c2.3,1.4,4.6,2.8,6.8,4.3L966.1,54.1z M625.4,51.4l-0.5-0.8
			c2.2-1.4,4.6-2.8,6.8-4.1l0.5,0.9C630,48.6,627.7,50,625.4,51.4z M952.5,45.8c-2.3-1.3-4.7-2.6-7-3.9L946,41
			c2.3,1.3,4.7,2.6,7,3.9L952.5,45.8z M639.2,43.3l-0.5-0.9c2.3-1.3,4.7-2.6,7-3.8l0.5,0.9C643.8,40.7,641.5,42,639.2,43.3z
			 M938.4,38.2c-2.4-1.2-4.8-2.4-7.2-3.5l0.4-0.9c2.4,1.1,4.8,2.3,7.2,3.6L938.4,38.2z M653.3,35.9l-0.4-0.9
			c2.4-1.2,4.8-2.3,7.2-3.4l0.4,0.9C658.1,33.6,655.7,34.8,653.3,35.9z M924,31.3c-2.4-1.1-4.9-2.2-7.3-3.2l0.4-0.9
			c2.5,1,4.9,2.1,7.4,3.2L924,31.3z M667.8,29.3l-0.4-0.9c2.4-1,4.9-2.1,7.4-3.1l0.4,0.9C672.7,27.2,670.2,28.2,667.8,29.3z
			 M909.2,25.1c-2.5-1-5-1.9-7.5-2.8l0.3-0.9c2.5,0.9,5.1,1.9,7.5,2.8L909.2,25.1z M682.6,23.3l-0.3-0.9c2.5-0.9,5-1.8,7.5-2.7
			l0.3,0.9C687.6,21.5,685,22.4,682.6,23.3z M894.1,19.7c-2.5-0.8-5.1-1.6-7.6-2.4l0.3-1c2.6,0.8,5.2,1.6,7.7,2.4L894.1,19.7z
			 M697.7,18.2l-0.3-1c2.5-0.8,5.1-1.6,7.7-2.3l0.3,1C702.8,16.6,700.2,17.4,697.7,18.2z M878.8,15c-2.6-0.7-5.2-1.4-7.7-2l0.2-1
			c2.6,0.6,5.2,1.3,7.7,2L878.8,15z M713,13.7l-0.3-1c2.5-0.7,5.2-1.3,7.8-1.9l0.2,1C718.2,12.4,715.6,13.1,713,13.7z M863.3,11.1
			c-2.6-0.6-5.2-1.1-7.8-1.6l0.2-1c2.6,0.5,5.2,1.1,7.8,1.6L863.3,11.1z M728.6,10.1l-0.2-1c2.6-0.5,5.2-1.1,7.9-1.5l0.2,1
			C733.8,9.1,731.2,9.6,728.6,10.1z M847.6,8.1c-2.6-0.4-5.3-0.9-7.9-1.2l0.1-1c2.6,0.4,5.3,0.8,7.9,1.3L847.6,8.1z M744.3,7.3
			l-0.2-1c2.6-0.4,5.3-0.8,7.9-1.1l0.1,1C749.6,6.5,746.9,6.9,744.3,7.3z M831.8,5.8c-2.6-0.3-5.3-0.6-7.9-0.8l0.1-1
			c2.7,0.3,5.3,0.5,8,0.9L831.8,5.8z M760.1,5.2l-0.1-1c2.6-0.3,5.3-0.5,8-0.7l0.1,1C765.4,4.7,762.7,4.9,760.1,5.2z M815.9,4.3
			c-2.6-0.2-5.3-0.3-8-0.5l0-1c2.7,0.1,5.4,0.3,8,0.5L815.9,4.3z M776,4L776,3c2.6-0.1,5.3-0.3,8-0.3l0,1C781.4,3.7,778.7,3.8,776,4
			z M800,3.6c-2.1,0-4.3-0.1-6.4-0.1l-1.6,0l0-1l1.6,0c2.1,0,4.3,0,6.4,0.1L800,3.6z"/>
	</g>
	<g>
		<g>
			<rect x="2.1" y="322.5" width="4" height="1"/>
		</g>
		<g>
			<path d="M1573.1,323.5h-8v-1h8V323.5z M1557.1,323.5h-8v-1h8V323.5z M1541.1,323.5h-8v-1h8V323.5z M1525.1,323.5h-8v-1h8V323.5z
				 M1509.1,323.5h-8v-1h8V323.5z M1493.1,323.5h-8v-1h8V323.5z M1477.1,323.5h-8v-1h8V323.5z M1461.2,323.5h-8v-1h8V323.5z
				 M1445.2,323.5h-8v-1h8V323.5z M1429.2,323.5h-8v-1h8V323.5z M1413.2,323.5h-8v-1h8V323.5z M1397.2,323.5h-8v-1h8V323.5z
				 M1381.2,323.5h-8v-1h8V323.5z M1365.2,323.5h-8v-1h8V323.5z M1349.2,323.5h-8v-1h8V323.5z M1333.2,323.5h-8v-1h8V323.5z
				 M1317.3,323.5h-8v-1h8V323.5z M1301.3,323.5h-8v-1h8V323.5z M1285.3,323.5h-8v-1h8V323.5z M1269.3,323.5h-8v-1h8V323.5z
				 M1253.3,323.5h-8v-1h8V323.5z M1237.3,323.5h-8v-1h8V323.5z M1221.3,323.5h-8v-1h8V323.5z M1205.3,323.5h-8v-1h8V323.5z
				 M1189.3,323.5h-8v-1h8V323.5z M1173.3,323.5h-8v-1h8V323.5z M1157.4,323.5h-8v-1h8V323.5z M1141.4,323.5h-8v-1h8V323.5z
				 M1125.4,323.5h-8v-1h8V323.5z M1109.4,323.5h-8v-1h8V323.5z M1093.4,323.5h-8v-1h8V323.5z M1077.4,323.5h-8v-1h8V323.5z
				 M1061.4,323.5h-8v-1h8V323.5z M1045.4,323.5h-8v-1h8V323.5z M1029.4,323.5h-8v-1h8V323.5z M1013.4,323.5h-8v-1h8V323.5z
				 M997.5,323.5h-8v-1h8V323.5z M981.5,323.5h-8v-1h8V323.5z M965.5,323.5h-8v-1h8V323.5z M949.5,323.5h-8v-1h8V323.5z
				 M933.5,323.5h-8v-1h8V323.5z M917.5,323.5h-8v-1h8V323.5z M901.5,323.5h-8v-1h8V323.5z M885.5,323.5h-8v-1h8V323.5z
				 M869.5,323.5h-8v-1h8V323.5z M853.5,323.5h-8v-1h8V323.5z M837.6,323.5h-8v-1h8V323.5z M821.6,323.5h-8v-1h8V323.5z
				 M805.6,323.5h-8v-1h8V323.5z M789.6,323.5h-8v-1h8V323.5z M773.6,323.5h-8v-1h8V323.5z M757.6,323.5h-8v-1h8V323.5z
				 M741.6,323.5h-8v-1h8V323.5z M725.6,323.5h-8v-1h8V323.5z M709.6,323.5h-8v-1h8V323.5z M693.6,323.5h-8v-1h8V323.5z
				 M677.7,323.5h-8v-1h8V323.5z M661.7,323.5h-8v-1h8V323.5z M645.7,323.5h-8v-1h8V323.5z M629.7,323.5h-8v-1h8V323.5z
				 M613.7,323.5h-8v-1h8V323.5z M597.7,323.5h-8v-1h8V323.5z M581.7,323.5h-8v-1h8V323.5z M565.7,323.5h-8v-1h8V323.5z
				 M549.7,323.5h-8v-1h8V323.5z M533.7,323.5h-8v-1h8V323.5z M517.8,323.5h-8v-1h8V323.5z M501.8,323.5h-8v-1h8V323.5z
				 M485.8,323.5h-8v-1h8V323.5z M469.8,323.5h-8v-1h8V323.5z M453.8,323.5h-8v-1h8V323.5z M437.8,323.5h-8v-1h8V323.5z
				 M421.8,323.5h-8v-1h8V323.5z M405.8,323.5h-8v-1h8V323.5z M389.8,323.5h-8v-1h8V323.5z M373.8,323.5h-8v-1h8V323.5z
				 M357.9,323.5h-8v-1h8V323.5z M341.9,323.5h-8v-1h8V323.5z M325.9,323.5h-8v-1h8V323.5z M309.9,323.5h-8v-1h8V323.5z
				 M293.9,323.5h-8v-1h8V323.5z M277.9,323.5h-8v-1h8V323.5z M261.9,323.5h-8v-1h8V323.5z M245.9,323.5h-8v-1h8V323.5z
				 M229.9,323.5h-8v-1h8V323.5z M213.9,323.5h-8v-1h8V323.5z M198,323.5h-8v-1h8V323.5z M182,323.5h-8v-1h8V323.5z M166,323.5h-8
				v-1h8V323.5z M150,323.5h-8v-1h8V323.5z M134,323.5h-8v-1h8V323.5z M118,323.5h-8v-1h8V323.5z M102,323.5h-8v-1h8V323.5z
				 M86,323.5h-8v-1h8V323.5z M70,323.5h-8v-1h8V323.5z M54,323.5h-8v-1h8V323.5z M38.1,323.5h-8v-1h8V323.5z M22.1,323.5h-8v-1h8
				V323.5z"/>
		</g>
		<g>
			<rect x="1581.1" y="322.5" width="4" height="1"/>
		</g>
	</g>
	<g>
		<path d="M1100.3,587.8h-1.2v-0.3l-0.1,0l-3.8-6.6l0.9-0.5L1100.3,587.8z M1091.1,587.8h-8v-1h8V587.8z M1075.1,587.8h-8v-1h8
			V587.8z M1059.1,587.8h-8v-1h8V587.8z M1043.1,587.8h-8v-1h8V587.8z M1027.1,587.8h-8v-1h8V587.8z M1011.1,587.8h-8v-1h8V587.8z
			 M995.1,587.8h-8v-1h8V587.8z M979.1,587.8h-8v-1h8V587.8z M963.1,587.8h-8v-1h8V587.8z M947.1,587.8h-8v-1h8V587.8z M931.1,587.8
			h-8v-1h8V587.8z M915.1,587.8h-8v-1h8V587.8z M899.1,587.8h-8v-1h8V587.8z M883.1,587.8h-8v-1h8V587.8z M867.1,587.8h-8v-1h8
			V587.8z M851.1,587.8h-8v-1h8V587.8z M835.1,587.8h-8v-1h8V587.8z M819.1,587.8h-8v-1h8V587.8z M803.1,587.8h-8v-1h8V587.8z
			 M787.1,587.8h-8v-1h8V587.8z M771.1,587.8h-8v-1h8V587.8z M755.1,587.8h-8v-1h8V587.8z M739.1,587.8h-8v-1h8V587.8z M723.1,587.8
			h-8v-1h8V587.8z M707.1,587.8h-8v-1h8V587.8z M691.1,587.8h-8v-1h8V587.8z M675.1,587.8h-8v-1h8V587.8z M659.1,587.8h-8v-1h8
			V587.8z M643.1,587.8h-8v-1h8V587.8z M627.1,587.8h-8v-1h8V587.8z M611.1,587.8h-8v-1h8V587.8z M595.1,587.8h-8v-1h8V587.8z
			 M579.1,587.8h-8v-1h8V587.8z M563.1,587.8h-8v-1h8V587.8z M547.1,587.8h-8v-1h8V587.8z M531.1,587.8h-8v-1h8V587.8z M515.1,587.8
			h-8v-1h8V587.8z M499.1,587.8h-8v-1h8V587.8z M488.1,587.6l-0.9-0.5l4-6.9l0.9,0.5L488.1,587.6z M1091.2,574l-4-6.9l0.9-0.5l4,6.9
			L1091.2,574z M496.1,573.7l-0.9-0.5l4-6.9l0.9,0.5L496.1,573.7z M1083.2,560.2l-4-6.9l0.9-0.5l4,6.9L1083.2,560.2z M504.1,559.8
			l-0.9-0.5l4-6.9l0.9,0.5L504.1,559.8z M1075.2,546.3l-4-6.9l0.9-0.5l4,6.9L1075.2,546.3z M512.1,546l-0.9-0.5l4-6.9l0.9,0.5
			L512.1,546z M1067.2,532.5l-4-6.9l0.9-0.5l4,6.9L1067.2,532.5z M520.1,532.1l-0.9-0.5l4-6.9l0.9,0.5L520.1,532.1z M1059.2,518.6
			l-4-6.9l0.9-0.5l4,6.9L1059.2,518.6z M528.1,518.3l-0.9-0.5l4-6.9l0.9,0.5L528.1,518.3z M1051.2,504.7l-4-6.9l0.9-0.5l4,6.9
			L1051.2,504.7z M536.1,504.4l-0.9-0.5l4-6.9l0.9,0.5L536.1,504.4z M1043.2,490.9l-4-6.9l0.9-0.5l4,6.9L1043.2,490.9z M544.1,490.6
			l-0.9-0.5l4-6.9l0.9,0.5L544.1,490.6z M1035.2,477l-4-6.9l0.9-0.5l4,6.9L1035.2,477z M552.1,476.7l-0.9-0.5l4-6.9l0.9,0.5
			L552.1,476.7z M1027.2,463.2l-4-6.9l0.9-0.5l4,6.9L1027.2,463.2z M560.1,462.8l-0.9-0.5l4-6.9l0.9,0.5L560.1,462.8z M1019.2,449.3
			l-4-6.9l0.9-0.5l4,6.9L1019.2,449.3z M568.1,449l-0.9-0.5l4-6.9l0.9,0.5L568.1,449z M1011.2,435.5l-4-6.9l0.9-0.5l4,6.9
			L1011.2,435.5z M576.1,435.1l-0.9-0.5l4-6.9l0.9,0.5L576.1,435.1z M1003.2,421.6l-4-6.9l0.9-0.5l4,6.9L1003.2,421.6z M584.1,421.3
			l-0.9-0.5l4-6.9l0.9,0.5L584.1,421.3z M995.2,407.7l-4-6.9l0.9-0.5l4,6.9L995.2,407.7z M592.1,407.4l-0.9-0.5l4-6.9l0.9,0.5
			L592.1,407.4z M987.2,393.9l-4-6.9l0.9-0.5l4,6.9L987.2,393.9z M600.1,393.6l-0.9-0.5l4-6.9l0.9,0.5L600.1,393.6z M979.2,380
			l-4-6.9l0.9-0.5l4,6.9L979.2,380z M608.1,379.7l-0.9-0.5l4-6.9l0.9,0.5L608.1,379.7z M971.2,366.2l-4-6.9l0.9-0.5l4,6.9
			L971.2,366.2z M616.1,365.8l-0.9-0.5l4-6.9l0.9,0.5L616.1,365.8z M963.2,352.3l-4-6.9l0.9-0.5l4,6.9L963.2,352.3z M624.1,352
			l-0.9-0.5l4-6.9l0.9,0.5L624.1,352z M955.2,338.5l-4-6.9l0.9-0.5l4,6.9L955.2,338.5z M632.1,338.1l-0.9-0.5l4-6.9l0.9,0.5
			L632.1,338.1z M947.2,324.6l-4-6.9l0.9-0.5l4,6.9L947.2,324.6z M640.1,324.3l-0.9-0.5l4-6.9l0.9,0.5L640.1,324.3z M939.2,310.7
			l-4-6.9l0.9-0.5l4,6.9L939.2,310.7z M648.1,310.4l-0.9-0.5l4-6.9l0.9,0.5L648.1,310.4z M931.2,296.9l-4-6.9l0.9-0.5l4,6.9
			L931.2,296.9z M656.1,296.6l-0.9-0.5l4-6.9l0.9,0.5L656.1,296.6z M923.2,283l-4-6.9l0.9-0.5l4,6.9L923.2,283z M664.1,282.7
			l-0.9-0.5l4-6.9l0.9,0.5L664.1,282.7z M915.2,269.2l-4-6.9l0.9-0.5l4,6.9L915.2,269.2z M672.1,268.9l-0.9-0.5l4-6.9l0.9,0.5
			L672.1,268.9z M907.2,255.3l-4-6.9l0.9-0.5l4,6.9L907.2,255.3z M680.1,255l-0.9-0.5l4-6.9l0.9,0.5L680.1,255z M899.2,241.5l-4-6.9
			l0.9-0.5l4,6.9L899.2,241.5z M688.1,241.1l-0.9-0.5l4-6.9l0.9,0.5L688.1,241.1z M891.2,227.6l-4-6.9l0.9-0.5l4,6.9L891.2,227.6z
			 M696.1,227.3l-0.9-0.5l4-6.9l0.9,0.5L696.1,227.3z M883.2,213.8l-4-6.9l0.9-0.5l4,6.9L883.2,213.8z M704.1,213.4l-0.9-0.5l4-6.9
			l0.9,0.5L704.1,213.4z M875.2,199.9l-4-6.9l0.9-0.5l4,6.9L875.2,199.9z M712.1,199.6l-0.9-0.5l4-6.9l0.9,0.5L712.1,199.6z
			 M867.2,186l-4-6.9l0.9-0.5l4,6.9L867.2,186z M720.1,185.7l-0.9-0.5l4-6.9l0.9,0.5L720.1,185.7z M859.2,172.2l-4-6.9l0.9-0.5
			l4,6.9L859.2,172.2z M728.1,171.9l-0.9-0.5l4-6.9l0.9,0.5L728.1,171.9z M851.2,158.3l-4-6.9l0.9-0.5l4,6.9L851.2,158.3z
			 M736.1,158l-0.9-0.5l4-6.9l0.9,0.5L736.1,158z M843.2,144.5l-4-6.9l0.9-0.5l4,6.9L843.2,144.5z M744.1,144.1l-0.9-0.5l4-6.9
			l0.9,0.5L744.1,144.1z M835.2,130.6l-4-6.9l0.9-0.5l4,6.9L835.2,130.6z M752.1,130.3l-0.9-0.5l4-6.9l0.9,0.5L752.1,130.3z
			 M827.2,116.8l-4-6.9l0.9-0.5l4,6.9L827.2,116.8z M760.1,116.4l-0.9-0.5l4-6.9l0.9,0.5L760.1,116.4z M819.2,102.9l-4-6.9l0.9-0.5
			l4,6.9L819.2,102.9z M768.1,102.6l-0.9-0.5l4-6.9l0.9,0.5L768.1,102.6z M811.2,89l-4-6.9l0.9-0.5l4,6.9L811.2,89z M776.1,88.7
			l-0.9-0.5l4-6.9l0.9,0.5L776.1,88.7z M803.2,75.2l-4-6.9l0.9-0.5l4,6.9L803.2,75.2z M784.1,74.9l-0.9-0.5l4-6.9l0.9,0.5
			L784.1,74.9z M795.2,61.3l-1.7-2.9l-1.5,2.5l-0.9-0.5l2.3-4l2.5,4.4L795.2,61.3z"/>
	</g>
	<g>
		<path d="M793.6,588.3l-2.5-4.4l0.9-0.5l1.7,2.9l1.5-2.5l0.9,0.5L793.6,588.3z M799.9,577.3l-0.9-0.5l4-6.9l0.9,0.5L799.9,577.3z
			 M787.1,577l-4-6.9l0.9-0.5l4,6.9L787.1,577z M807.9,563.5l-0.9-0.5l4-6.9l0.9,0.5L807.9,563.5z M779.1,563.1l-4-6.9l0.9-0.5
			l4,6.9L779.1,563.1z M815.9,549.6l-0.9-0.5l4-6.9l0.9,0.5L815.9,549.6z M771.1,549.3l-4-6.9l0.9-0.5l4,6.9L771.1,549.3z
			 M823.9,535.8l-0.9-0.5l4-6.9l0.9,0.5L823.9,535.8z M763.1,535.4l-4-6.9l0.9-0.5l4,6.9L763.1,535.4z M831.9,521.9l-0.9-0.5l4-6.9
			l0.9,0.5L831.9,521.9z M755.1,521.6l-4-6.9l0.9-0.5l4,6.9L755.1,521.6z M839.9,508l-0.9-0.5l4-6.9l0.9,0.5L839.9,508z
			 M747.1,507.7l-4-6.9l0.9-0.5l4,6.9L747.1,507.7z M847.9,494.2l-0.9-0.5l4-6.9l0.9,0.5L847.9,494.2z M739.1,493.9l-4-6.9l0.9-0.5
			l4,6.9L739.1,493.9z M855.9,480.3l-0.9-0.5l4-6.9l0.9,0.5L855.9,480.3z M731.1,480l-4-6.9l0.9-0.5l4,6.9L731.1,480z M863.9,466.5
			l-0.9-0.5l4-6.9l0.9,0.5L863.9,466.5z M723.1,466.1l-4-6.9l0.9-0.5l4,6.9L723.1,466.1z M871.9,452.6l-0.9-0.5l4-6.9l0.9,0.5
			L871.9,452.6z M715.1,452.3l-4-6.9l0.9-0.5l4,6.9L715.1,452.3z M879.9,438.8l-0.9-0.5l4-6.9l0.9,0.5L879.9,438.8z M707.1,438.4
			l-4-6.9l0.9-0.5l4,6.9L707.1,438.4z M887.9,424.9l-0.9-0.5l4-6.9l0.9,0.5L887.9,424.9z M699.1,424.6l-4-6.9l0.9-0.5l4,6.9
			L699.1,424.6z M895.9,411l-0.9-0.5l4-6.9l0.9,0.5L895.9,411z M691.1,410.7l-4-6.9l0.9-0.5l4,6.9L691.1,410.7z M903.9,397.2
			l-0.9-0.5l4-6.9l0.9,0.5L903.9,397.2z M683.1,396.9l-4-6.9l0.9-0.5l4,6.9L683.1,396.9z M911.9,383.3l-0.9-0.5l4-6.9l0.9,0.5
			L911.9,383.3z M675.1,383l-4-6.9l0.9-0.5l4,6.9L675.1,383z M919.9,369.5l-0.9-0.5l4-6.9l0.9,0.5L919.9,369.5z M667.1,369.1l-4-6.9
			l0.9-0.5l4,6.9L667.1,369.1z M927.9,355.6l-0.9-0.5l4-6.9l0.9,0.5L927.9,355.6z M659.1,355.3l-4-6.9l0.9-0.5l4,6.9L659.1,355.3z
			 M935.9,341.8l-0.9-0.5l4-6.9l0.9,0.5L935.9,341.8z M651.1,341.4l-4-6.9l0.9-0.5l4,6.9L651.1,341.4z M943.9,327.9l-0.9-0.5l4-6.9
			l0.9,0.5L943.9,327.9z M643.1,327.6l-4-6.9l0.9-0.5l4,6.9L643.1,327.6z M951.9,314.1l-0.9-0.5l4-6.9l0.9,0.5L951.9,314.1z
			 M635.1,313.7l-4-6.9l0.9-0.5l4,6.9L635.1,313.7z M959.9,300.2l-0.9-0.5l4-6.9l0.9,0.5L959.9,300.2z M627.1,299.9l-4-6.9l0.9-0.5
			l4,6.9L627.1,299.9z M967.9,286.3l-0.9-0.5l4-6.9l0.9,0.5L967.9,286.3z M619.1,286l-4-6.9l0.9-0.5l4,6.9L619.1,286z M975.9,272.5
			l-0.9-0.5l4-6.9l0.9,0.5L975.9,272.5z M611.1,272.2l-4-6.9l0.9-0.5l4,6.9L611.1,272.2z M983.9,258.6l-0.9-0.5l4-6.9l0.9,0.5
			L983.9,258.6z M603.1,258.3l-4-6.9l0.9-0.5l4,6.9L603.1,258.3z M991.9,244.8l-0.9-0.5l4-6.9l0.9,0.5L991.9,244.8z M595.1,244.4
			l-4-6.9l0.9-0.5l4,6.9L595.1,244.4z M999.9,230.9l-0.9-0.5l4-6.9l0.9,0.5L999.9,230.9z M587.1,230.6l-4-6.9l0.9-0.5l4,6.9
			L587.1,230.6z M1007.9,217.1l-0.9-0.5l4-6.9l0.9,0.5L1007.9,217.1z M579.1,216.7l-4-6.9l0.9-0.5l4,6.9L579.1,216.7z M1015.9,203.2
			l-0.9-0.5l4-6.9l0.9,0.5L1015.9,203.2z M571.1,202.9l-4-6.9l0.9-0.5l4,6.9L571.1,202.9z M1023.9,189.3l-0.9-0.5l4-6.9l0.9,0.5
			L1023.9,189.3z M563.1,189l-4-6.9l0.9-0.5l4,6.9L563.1,189z M1031.9,175.5l-0.9-0.5l4-6.9l0.9,0.5L1031.9,175.5z M555.1,175.2
			l-4-6.9l0.9-0.5l4,6.9L555.1,175.2z M1039.9,161.6l-0.9-0.5l4-6.9l0.9,0.5L1039.9,161.6z M547.1,161.3l-4-6.9l0.9-0.5l4,6.9
			L547.1,161.3z M1047.9,147.8l-0.9-0.5l4-6.9l0.9,0.5L1047.9,147.8z M539.1,147.4l-4-6.9l0.9-0.5l4,6.9L539.1,147.4z M1055.9,133.9
			l-0.9-0.5l4-6.9l0.9,0.5L1055.9,133.9z M531.1,133.6l-4-6.9l0.9-0.5l4,6.9L531.1,133.6z M1063.9,120.1l-0.9-0.5l4-6.9l0.9,0.5
			L1063.9,120.1z M523.1,119.7l-4-6.9l0.9-0.5l4,6.9L523.1,119.7z M1071.9,106.2l-0.9-0.5l4-6.9l0.9,0.5L1071.9,106.2z M515.1,105.9
			l-4-6.9l0.9-0.5l4,6.9L515.1,105.9z M1079.9,92.3l-0.9-0.5l4-6.9l0.9,0.5L1079.9,92.3z M507.1,92l-4-6.9l0.9-0.5l4,6.9L507.1,92z
			 M1087.9,78.5l-0.9-0.5l4-6.9l0.9,0.5L1087.9,78.5z M499.1,78.2l-4-6.9l0.9-0.5l4,6.9L499.1,78.2z M1095.9,64.6l-0.9-0.5l4-6.9
			l0.9,0.5L1095.9,64.6z M491.1,64.3l-4.2-7.3h1.2v0.3l0.1,0l3.8,6.6L491.1,64.3z M1096.1,58h-8v-1h8V58z M1080.1,58h-8v-1h8V58z
			 M1064.1,58h-8v-1h8V58z M1048.1,58h-8v-1h8V58z M1032.1,58h-8v-1h8V58z M1016.1,58h-8v-1h8V58z M1000.1,58h-8v-1h8V58z M984.1,58
			h-8v-1h8V58z M968.1,58h-8v-1h8V58z M952.1,58h-8v-1h8V58z M936.1,58h-8v-1h8V58z M920.1,58h-8v-1h8V58z M904.1,58h-8v-1h8V58z
			 M888.1,58h-8v-1h8V58z M872.1,58h-8v-1h8V58z M856.1,58h-8v-1h8V58z M840.1,58h-8v-1h8V58z M824.1,58h-8v-1h8V58z M808.1,58h-8
			v-1h8V58z M792.1,58h-8v-1h8V58z M776.1,58h-8v-1h8V58z M760.1,58h-8v-1h8V58z M744.1,58h-8v-1h8V58z M728.1,58h-8v-1h8V58z
			 M712.1,58h-8v-1h8V58z M696.1,58h-8v-1h8V58z M680.1,58h-8v-1h8V58z M664.1,58h-8v-1h8V58z M648.1,58h-8v-1h8V58z M632.1,58h-8
			v-1h8V58z M616.1,58h-8v-1h8V58z M600.1,58h-8v-1h8V58z M584.1,58h-8v-1h8V58z M568.1,58h-8v-1h8V58z M552.1,58h-8v-1h8V58z
			 M536.1,58h-8v-1h8V58z M520.1,58h-8v-1h8V58z M504.1,58h-8v-1h8V58z"/>
	</g>
</g>
</svg>
